G04 #@! TF.GenerationSoftware,KiCad,Pcbnew,6.0.0-rc1-unknown-cd5b1c2~66~ubuntu16.04.1*
G04 #@! TF.CreationDate,2018-10-19T16:16:08+02:00*
G04 #@! TF.ProjectId,Hedgehog,4865646765686F672E6B696361645F70,1.0*
G04 #@! TF.SameCoordinates,PX7270e00PY47868c0*
G04 #@! TF.FileFunction,Legend,Top*
G04 #@! TF.FilePolarity,Positive*
%FSLAX46Y46*%
G04 Gerber Fmt 4.6, Leading zero omitted, Abs format (unit mm)*
G04 Created by KiCad (PCBNEW 6.0.0-rc1-unknown-cd5b1c2~66~ubuntu16.04.1) date Fri Oct 19 16:16:08 2018*
%MOMM*%
%LPD*%
G01*
G04 APERTURE LIST*
%ADD10C,0.150000*%
%ADD11C,0.200000*%
%ADD12C,0.350000*%
%ADD13C,0.120000*%
%ADD14C,0.050000*%
G04 APERTURE END LIST*
D10*
X71621428Y-20377380D02*
X72192857Y-20377380D01*
X71907142Y-21377380D02*
X71907142Y-20377380D01*
X72669047Y-21377380D02*
X72573809Y-21329761D01*
X72526190Y-21282142D01*
X72478571Y-21186904D01*
X72478571Y-20901190D01*
X72526190Y-20805952D01*
X72573809Y-20758333D01*
X72669047Y-20710714D01*
X72811904Y-20710714D01*
X72907142Y-20758333D01*
X72954761Y-20805952D01*
X73002380Y-20901190D01*
X73002380Y-21186904D01*
X72954761Y-21282142D01*
X72907142Y-21329761D01*
X72811904Y-21377380D01*
X72669047Y-21377380D01*
X73430952Y-21377380D02*
X73430952Y-20377380D01*
X73669047Y-20377380D01*
X73811904Y-20425000D01*
X73907142Y-20520238D01*
X73954761Y-20615476D01*
X74002380Y-20805952D01*
X74002380Y-20948809D01*
X73954761Y-21139285D01*
X73907142Y-21234523D01*
X73811904Y-21329761D01*
X73669047Y-21377380D01*
X73430952Y-21377380D01*
X74573809Y-21377380D02*
X74478571Y-21329761D01*
X74430952Y-21282142D01*
X74383333Y-21186904D01*
X74383333Y-20901190D01*
X74430952Y-20805952D01*
X74478571Y-20758333D01*
X74573809Y-20710714D01*
X74716666Y-20710714D01*
X74811904Y-20758333D01*
X74859523Y-20805952D01*
X74907142Y-20901190D01*
X74907142Y-21186904D01*
X74859523Y-21282142D01*
X74811904Y-21329761D01*
X74716666Y-21377380D01*
X74573809Y-21377380D01*
X75335714Y-21282142D02*
X75383333Y-21329761D01*
X75335714Y-21377380D01*
X75288095Y-21329761D01*
X75335714Y-21282142D01*
X75335714Y-21377380D01*
X75335714Y-20758333D02*
X75383333Y-20805952D01*
X75335714Y-20853571D01*
X75288095Y-20805952D01*
X75335714Y-20758333D01*
X75335714Y-20853571D01*
X66811904Y-22503571D02*
X66478571Y-22503571D01*
X66478571Y-23027380D02*
X66478571Y-22027380D01*
X66954761Y-22027380D01*
X67716666Y-22979761D02*
X67621428Y-23027380D01*
X67430952Y-23027380D01*
X67335714Y-22979761D01*
X67288095Y-22884523D01*
X67288095Y-22503571D01*
X67335714Y-22408333D01*
X67430952Y-22360714D01*
X67621428Y-22360714D01*
X67716666Y-22408333D01*
X67764285Y-22503571D01*
X67764285Y-22598809D01*
X67288095Y-22694047D01*
X68192857Y-23027380D02*
X68192857Y-22360714D01*
X68192857Y-22551190D02*
X68240476Y-22455952D01*
X68288095Y-22408333D01*
X68383333Y-22360714D01*
X68478571Y-22360714D01*
X68811904Y-23027380D02*
X68811904Y-22360714D01*
X68811904Y-22551190D02*
X68859523Y-22455952D01*
X68907142Y-22408333D01*
X69002380Y-22360714D01*
X69097619Y-22360714D01*
X69430952Y-23027380D02*
X69430952Y-22360714D01*
X69430952Y-22027380D02*
X69383333Y-22075000D01*
X69430952Y-22122619D01*
X69478571Y-22075000D01*
X69430952Y-22027380D01*
X69430952Y-22122619D01*
X69764285Y-22360714D02*
X70145238Y-22360714D01*
X69907142Y-22027380D02*
X69907142Y-22884523D01*
X69954761Y-22979761D01*
X70050000Y-23027380D01*
X70145238Y-23027380D01*
X70859523Y-22979761D02*
X70764285Y-23027380D01*
X70573809Y-23027380D01*
X70478571Y-22979761D01*
X70430952Y-22884523D01*
X70430952Y-22503571D01*
X70478571Y-22408333D01*
X70573809Y-22360714D01*
X70764285Y-22360714D01*
X70859523Y-22408333D01*
X70907142Y-22503571D01*
X70907142Y-22598809D01*
X70430952Y-22694047D01*
X72430952Y-22503571D02*
X72573809Y-22551190D01*
X72621428Y-22598809D01*
X72669047Y-22694047D01*
X72669047Y-22836904D01*
X72621428Y-22932142D01*
X72573809Y-22979761D01*
X72478571Y-23027380D01*
X72097619Y-23027380D01*
X72097619Y-22027380D01*
X72430952Y-22027380D01*
X72526190Y-22075000D01*
X72573809Y-22122619D01*
X72621428Y-22217857D01*
X72621428Y-22313095D01*
X72573809Y-22408333D01*
X72526190Y-22455952D01*
X72430952Y-22503571D01*
X72097619Y-22503571D01*
X73478571Y-22979761D02*
X73383333Y-23027380D01*
X73192857Y-23027380D01*
X73097619Y-22979761D01*
X73050000Y-22884523D01*
X73050000Y-22503571D01*
X73097619Y-22408333D01*
X73192857Y-22360714D01*
X73383333Y-22360714D01*
X73478571Y-22408333D01*
X73526190Y-22503571D01*
X73526190Y-22598809D01*
X73050000Y-22694047D01*
X74383333Y-23027380D02*
X74383333Y-22503571D01*
X74335714Y-22408333D01*
X74240476Y-22360714D01*
X74050000Y-22360714D01*
X73954761Y-22408333D01*
X74383333Y-22979761D02*
X74288095Y-23027380D01*
X74050000Y-23027380D01*
X73954761Y-22979761D01*
X73907142Y-22884523D01*
X73907142Y-22789285D01*
X73954761Y-22694047D01*
X74050000Y-22646428D01*
X74288095Y-22646428D01*
X74383333Y-22598809D01*
X75288095Y-23027380D02*
X75288095Y-22027380D01*
X75288095Y-22979761D02*
X75192857Y-23027380D01*
X75002380Y-23027380D01*
X74907142Y-22979761D01*
X74859523Y-22932142D01*
X74811904Y-22836904D01*
X74811904Y-22551190D01*
X74859523Y-22455952D01*
X74907142Y-22408333D01*
X75002380Y-22360714D01*
X75192857Y-22360714D01*
X75288095Y-22408333D01*
X75716666Y-22979761D02*
X75811904Y-23027380D01*
X76002380Y-23027380D01*
X76097619Y-22979761D01*
X76145238Y-22884523D01*
X76145238Y-22836904D01*
X76097619Y-22741666D01*
X76002380Y-22694047D01*
X75859523Y-22694047D01*
X75764285Y-22646428D01*
X75716666Y-22551190D01*
X75716666Y-22503571D01*
X75764285Y-22408333D01*
X75859523Y-22360714D01*
X76002380Y-22360714D01*
X76097619Y-22408333D01*
X77335714Y-23027380D02*
X77335714Y-22027380D01*
X77811904Y-22360714D02*
X77811904Y-23027380D01*
X77811904Y-22455952D02*
X77859523Y-22408333D01*
X77954761Y-22360714D01*
X78097619Y-22360714D01*
X78192857Y-22408333D01*
X78240476Y-22503571D01*
X78240476Y-23027380D01*
X78716666Y-22360714D02*
X78716666Y-23360714D01*
X78716666Y-22408333D02*
X78811904Y-22360714D01*
X79002380Y-22360714D01*
X79097619Y-22408333D01*
X79145238Y-22455952D01*
X79192857Y-22551190D01*
X79192857Y-22836904D01*
X79145238Y-22932142D01*
X79097619Y-22979761D01*
X79002380Y-23027380D01*
X78811904Y-23027380D01*
X78716666Y-22979761D01*
X80050000Y-22360714D02*
X80050000Y-23027380D01*
X79621428Y-22360714D02*
X79621428Y-22884523D01*
X79669047Y-22979761D01*
X79764285Y-23027380D01*
X79907142Y-23027380D01*
X80002380Y-22979761D01*
X80050000Y-22932142D01*
X80383333Y-22360714D02*
X80764285Y-22360714D01*
X80526190Y-22027380D02*
X80526190Y-22884523D01*
X80573809Y-22979761D01*
X80669047Y-23027380D01*
X80764285Y-23027380D01*
X69692857Y-24677380D02*
X69692857Y-23677380D01*
X70169047Y-24010714D02*
X70169047Y-24677380D01*
X70169047Y-24105952D02*
X70216666Y-24058333D01*
X70311904Y-24010714D01*
X70454761Y-24010714D01*
X70550000Y-24058333D01*
X70597619Y-24153571D01*
X70597619Y-24677380D01*
X71073809Y-24010714D02*
X71073809Y-25010714D01*
X71073809Y-24058333D02*
X71169047Y-24010714D01*
X71359523Y-24010714D01*
X71454761Y-24058333D01*
X71502380Y-24105952D01*
X71550000Y-24201190D01*
X71550000Y-24486904D01*
X71502380Y-24582142D01*
X71454761Y-24629761D01*
X71359523Y-24677380D01*
X71169047Y-24677380D01*
X71073809Y-24629761D01*
X72407142Y-24010714D02*
X72407142Y-24677380D01*
X71978571Y-24010714D02*
X71978571Y-24534523D01*
X72026190Y-24629761D01*
X72121428Y-24677380D01*
X72264285Y-24677380D01*
X72359523Y-24629761D01*
X72407142Y-24582142D01*
X72740476Y-24010714D02*
X73121428Y-24010714D01*
X72883333Y-23677380D02*
X72883333Y-24534523D01*
X72930952Y-24629761D01*
X73026190Y-24677380D01*
X73121428Y-24677380D01*
X74788095Y-24582142D02*
X74740476Y-24629761D01*
X74597619Y-24677380D01*
X74502380Y-24677380D01*
X74359523Y-24629761D01*
X74264285Y-24534523D01*
X74216666Y-24439285D01*
X74169047Y-24248809D01*
X74169047Y-24105952D01*
X74216666Y-23915476D01*
X74264285Y-23820238D01*
X74359523Y-23725000D01*
X74502380Y-23677380D01*
X74597619Y-23677380D01*
X74740476Y-23725000D01*
X74788095Y-23772619D01*
X75645238Y-24677380D02*
X75645238Y-24153571D01*
X75597619Y-24058333D01*
X75502380Y-24010714D01*
X75311904Y-24010714D01*
X75216666Y-24058333D01*
X75645238Y-24629761D02*
X75550000Y-24677380D01*
X75311904Y-24677380D01*
X75216666Y-24629761D01*
X75169047Y-24534523D01*
X75169047Y-24439285D01*
X75216666Y-24344047D01*
X75311904Y-24296428D01*
X75550000Y-24296428D01*
X75645238Y-24248809D01*
X76121428Y-24010714D02*
X76121428Y-25010714D01*
X76121428Y-24058333D02*
X76216666Y-24010714D01*
X76407142Y-24010714D01*
X76502380Y-24058333D01*
X76550000Y-24105952D01*
X76597619Y-24201190D01*
X76597619Y-24486904D01*
X76550000Y-24582142D01*
X76502380Y-24629761D01*
X76407142Y-24677380D01*
X76216666Y-24677380D01*
X76121428Y-24629761D01*
X77169047Y-24582142D02*
X77216666Y-24629761D01*
X77169047Y-24677380D01*
X77121428Y-24629761D01*
X77169047Y-24582142D01*
X77169047Y-24677380D01*
X76978571Y-23725000D02*
X77073809Y-23677380D01*
X77311904Y-23677380D01*
X77407142Y-23725000D01*
X77454761Y-23820238D01*
X77454761Y-23915476D01*
X77407142Y-24010714D01*
X77359523Y-24058333D01*
X77264285Y-24105952D01*
X77216666Y-24153571D01*
X77169047Y-24248809D01*
X77169047Y-24296428D01*
X65811904Y-25803571D02*
X65478571Y-25803571D01*
X65478571Y-26327380D02*
X65478571Y-25327380D01*
X65954761Y-25327380D01*
X66716666Y-26279761D02*
X66621428Y-26327380D01*
X66430952Y-26327380D01*
X66335714Y-26279761D01*
X66288095Y-26184523D01*
X66288095Y-25803571D01*
X66335714Y-25708333D01*
X66430952Y-25660714D01*
X66621428Y-25660714D01*
X66716666Y-25708333D01*
X66764285Y-25803571D01*
X66764285Y-25898809D01*
X66288095Y-25994047D01*
X67192857Y-26327380D02*
X67192857Y-25660714D01*
X67192857Y-25851190D02*
X67240476Y-25755952D01*
X67288095Y-25708333D01*
X67383333Y-25660714D01*
X67478571Y-25660714D01*
X67811904Y-26327380D02*
X67811904Y-25660714D01*
X67811904Y-25851190D02*
X67859523Y-25755952D01*
X67907142Y-25708333D01*
X68002380Y-25660714D01*
X68097619Y-25660714D01*
X68430952Y-26327380D02*
X68430952Y-25660714D01*
X68430952Y-25327380D02*
X68383333Y-25375000D01*
X68430952Y-25422619D01*
X68478571Y-25375000D01*
X68430952Y-25327380D01*
X68430952Y-25422619D01*
X68764285Y-25660714D02*
X69145238Y-25660714D01*
X68907142Y-25327380D02*
X68907142Y-26184523D01*
X68954761Y-26279761D01*
X69050000Y-26327380D01*
X69145238Y-26327380D01*
X69859523Y-26279761D02*
X69764285Y-26327380D01*
X69573809Y-26327380D01*
X69478571Y-26279761D01*
X69430952Y-26184523D01*
X69430952Y-25803571D01*
X69478571Y-25708333D01*
X69573809Y-25660714D01*
X69764285Y-25660714D01*
X69859523Y-25708333D01*
X69907142Y-25803571D01*
X69907142Y-25898809D01*
X69430952Y-25994047D01*
X71430952Y-25803571D02*
X71573809Y-25851190D01*
X71621428Y-25898809D01*
X71669047Y-25994047D01*
X71669047Y-26136904D01*
X71621428Y-26232142D01*
X71573809Y-26279761D01*
X71478571Y-26327380D01*
X71097619Y-26327380D01*
X71097619Y-25327380D01*
X71430952Y-25327380D01*
X71526190Y-25375000D01*
X71573809Y-25422619D01*
X71621428Y-25517857D01*
X71621428Y-25613095D01*
X71573809Y-25708333D01*
X71526190Y-25755952D01*
X71430952Y-25803571D01*
X71097619Y-25803571D01*
X72478571Y-26279761D02*
X72383333Y-26327380D01*
X72192857Y-26327380D01*
X72097619Y-26279761D01*
X72050000Y-26184523D01*
X72050000Y-25803571D01*
X72097619Y-25708333D01*
X72192857Y-25660714D01*
X72383333Y-25660714D01*
X72478571Y-25708333D01*
X72526190Y-25803571D01*
X72526190Y-25898809D01*
X72050000Y-25994047D01*
X73383333Y-26327380D02*
X73383333Y-25803571D01*
X73335714Y-25708333D01*
X73240476Y-25660714D01*
X73050000Y-25660714D01*
X72954761Y-25708333D01*
X73383333Y-26279761D02*
X73288095Y-26327380D01*
X73050000Y-26327380D01*
X72954761Y-26279761D01*
X72907142Y-26184523D01*
X72907142Y-26089285D01*
X72954761Y-25994047D01*
X73050000Y-25946428D01*
X73288095Y-25946428D01*
X73383333Y-25898809D01*
X74288095Y-26327380D02*
X74288095Y-25327380D01*
X74288095Y-26279761D02*
X74192857Y-26327380D01*
X74002380Y-26327380D01*
X73907142Y-26279761D01*
X73859523Y-26232142D01*
X73811904Y-26136904D01*
X73811904Y-25851190D01*
X73859523Y-25755952D01*
X73907142Y-25708333D01*
X74002380Y-25660714D01*
X74192857Y-25660714D01*
X74288095Y-25708333D01*
X74716666Y-26279761D02*
X74811904Y-26327380D01*
X75002380Y-26327380D01*
X75097619Y-26279761D01*
X75145238Y-26184523D01*
X75145238Y-26136904D01*
X75097619Y-26041666D01*
X75002380Y-25994047D01*
X74859523Y-25994047D01*
X74764285Y-25946428D01*
X74716666Y-25851190D01*
X74716666Y-25803571D01*
X74764285Y-25708333D01*
X74859523Y-25660714D01*
X75002380Y-25660714D01*
X75097619Y-25708333D01*
X76526190Y-25327380D02*
X76716666Y-25327380D01*
X76811904Y-25375000D01*
X76907142Y-25470238D01*
X76954761Y-25660714D01*
X76954761Y-25994047D01*
X76907142Y-26184523D01*
X76811904Y-26279761D01*
X76716666Y-26327380D01*
X76526190Y-26327380D01*
X76430952Y-26279761D01*
X76335714Y-26184523D01*
X76288095Y-25994047D01*
X76288095Y-25660714D01*
X76335714Y-25470238D01*
X76430952Y-25375000D01*
X76526190Y-25327380D01*
X77811904Y-25660714D02*
X77811904Y-26327380D01*
X77383333Y-25660714D02*
X77383333Y-26184523D01*
X77430952Y-26279761D01*
X77526190Y-26327380D01*
X77669047Y-26327380D01*
X77764285Y-26279761D01*
X77811904Y-26232142D01*
X78145238Y-25660714D02*
X78526190Y-25660714D01*
X78288095Y-25327380D02*
X78288095Y-26184523D01*
X78335714Y-26279761D01*
X78430952Y-26327380D01*
X78526190Y-26327380D01*
X78859523Y-25660714D02*
X78859523Y-26660714D01*
X78859523Y-25708333D02*
X78954761Y-25660714D01*
X79145238Y-25660714D01*
X79240476Y-25708333D01*
X79288095Y-25755952D01*
X79335714Y-25851190D01*
X79335714Y-26136904D01*
X79288095Y-26232142D01*
X79240476Y-26279761D01*
X79145238Y-26327380D01*
X78954761Y-26327380D01*
X78859523Y-26279761D01*
X80192857Y-25660714D02*
X80192857Y-26327380D01*
X79764285Y-25660714D02*
X79764285Y-26184523D01*
X79811904Y-26279761D01*
X79907142Y-26327380D01*
X80050000Y-26327380D01*
X80145238Y-26279761D01*
X80192857Y-26232142D01*
X80526190Y-25660714D02*
X80907142Y-25660714D01*
X80669047Y-25327380D02*
X80669047Y-26184523D01*
X80716666Y-26279761D01*
X80811904Y-26327380D01*
X80907142Y-26327380D01*
X81383333Y-26232142D02*
X81430952Y-26279761D01*
X81383333Y-26327380D01*
X81335714Y-26279761D01*
X81383333Y-26232142D01*
X81383333Y-26327380D01*
X81192857Y-25375000D02*
X81288095Y-25327380D01*
X81526190Y-25327380D01*
X81621428Y-25375000D01*
X81669047Y-25470238D01*
X81669047Y-25565476D01*
X81621428Y-25660714D01*
X81573809Y-25708333D01*
X81478571Y-25755952D01*
X81430952Y-25803571D01*
X81383333Y-25898809D01*
X81383333Y-25946428D01*
X69692857Y-27882142D02*
X69645238Y-27929761D01*
X69502380Y-27977380D01*
X69407142Y-27977380D01*
X69264285Y-27929761D01*
X69169047Y-27834523D01*
X69121428Y-27739285D01*
X69073809Y-27548809D01*
X69073809Y-27405952D01*
X69121428Y-27215476D01*
X69169047Y-27120238D01*
X69264285Y-27025000D01*
X69407142Y-26977380D01*
X69502380Y-26977380D01*
X69645238Y-27025000D01*
X69692857Y-27072619D01*
X70550000Y-27977380D02*
X70550000Y-27453571D01*
X70502380Y-27358333D01*
X70407142Y-27310714D01*
X70216666Y-27310714D01*
X70121428Y-27358333D01*
X70550000Y-27929761D02*
X70454761Y-27977380D01*
X70216666Y-27977380D01*
X70121428Y-27929761D01*
X70073809Y-27834523D01*
X70073809Y-27739285D01*
X70121428Y-27644047D01*
X70216666Y-27596428D01*
X70454761Y-27596428D01*
X70550000Y-27548809D01*
X71026190Y-27310714D02*
X71026190Y-28310714D01*
X71026190Y-27358333D02*
X71121428Y-27310714D01*
X71311904Y-27310714D01*
X71407142Y-27358333D01*
X71454761Y-27405952D01*
X71502380Y-27501190D01*
X71502380Y-27786904D01*
X71454761Y-27882142D01*
X71407142Y-27929761D01*
X71311904Y-27977380D01*
X71121428Y-27977380D01*
X71026190Y-27929761D01*
X72883333Y-26977380D02*
X73073809Y-26977380D01*
X73169047Y-27025000D01*
X73264285Y-27120238D01*
X73311904Y-27310714D01*
X73311904Y-27644047D01*
X73264285Y-27834523D01*
X73169047Y-27929761D01*
X73073809Y-27977380D01*
X72883333Y-27977380D01*
X72788095Y-27929761D01*
X72692857Y-27834523D01*
X72645238Y-27644047D01*
X72645238Y-27310714D01*
X72692857Y-27120238D01*
X72788095Y-27025000D01*
X72883333Y-26977380D01*
X74169047Y-27310714D02*
X74169047Y-27977380D01*
X73740476Y-27310714D02*
X73740476Y-27834523D01*
X73788095Y-27929761D01*
X73883333Y-27977380D01*
X74026190Y-27977380D01*
X74121428Y-27929761D01*
X74169047Y-27882142D01*
X74502380Y-27310714D02*
X74883333Y-27310714D01*
X74645238Y-26977380D02*
X74645238Y-27834523D01*
X74692857Y-27929761D01*
X74788095Y-27977380D01*
X74883333Y-27977380D01*
X75216666Y-27310714D02*
X75216666Y-28310714D01*
X75216666Y-27358333D02*
X75311904Y-27310714D01*
X75502380Y-27310714D01*
X75597619Y-27358333D01*
X75645238Y-27405952D01*
X75692857Y-27501190D01*
X75692857Y-27786904D01*
X75645238Y-27882142D01*
X75597619Y-27929761D01*
X75502380Y-27977380D01*
X75311904Y-27977380D01*
X75216666Y-27929761D01*
X76550000Y-27310714D02*
X76550000Y-27977380D01*
X76121428Y-27310714D02*
X76121428Y-27834523D01*
X76169047Y-27929761D01*
X76264285Y-27977380D01*
X76407142Y-27977380D01*
X76502380Y-27929761D01*
X76550000Y-27882142D01*
X76883333Y-27310714D02*
X77264285Y-27310714D01*
X77026190Y-26977380D02*
X77026190Y-27834523D01*
X77073809Y-27929761D01*
X77169047Y-27977380D01*
X77264285Y-27977380D01*
X77740476Y-27882142D02*
X77788095Y-27929761D01*
X77740476Y-27977380D01*
X77692857Y-27929761D01*
X77740476Y-27882142D01*
X77740476Y-27977380D01*
X77550000Y-27025000D02*
X77645238Y-26977380D01*
X77883333Y-26977380D01*
X77978571Y-27025000D01*
X78026190Y-27120238D01*
X78026190Y-27215476D01*
X77978571Y-27310714D01*
X77930952Y-27358333D01*
X77835714Y-27405952D01*
X77788095Y-27453571D01*
X77740476Y-27548809D01*
X77740476Y-27596428D01*
X67883333Y-28675000D02*
X67788095Y-28627380D01*
X67645238Y-28627380D01*
X67502380Y-28675000D01*
X67407142Y-28770238D01*
X67359523Y-28865476D01*
X67311904Y-29055952D01*
X67311904Y-29198809D01*
X67359523Y-29389285D01*
X67407142Y-29484523D01*
X67502380Y-29579761D01*
X67645238Y-29627380D01*
X67740476Y-29627380D01*
X67883333Y-29579761D01*
X67930952Y-29532142D01*
X67930952Y-29198809D01*
X67740476Y-29198809D01*
X68359523Y-29627380D02*
X68359523Y-28627380D01*
X68930952Y-29627380D01*
X68930952Y-28627380D01*
X69407142Y-29627380D02*
X69407142Y-28627380D01*
X69645238Y-28627380D01*
X69788095Y-28675000D01*
X69883333Y-28770238D01*
X69930952Y-28865476D01*
X69978571Y-29055952D01*
X69978571Y-29198809D01*
X69930952Y-29389285D01*
X69883333Y-29484523D01*
X69788095Y-29579761D01*
X69645238Y-29627380D01*
X69407142Y-29627380D01*
X71026190Y-28627380D02*
X71359523Y-29627380D01*
X71692857Y-28627380D01*
X72026190Y-29627380D02*
X72026190Y-28960714D01*
X72026190Y-28627380D02*
X71978571Y-28675000D01*
X72026190Y-28722619D01*
X72073809Y-28675000D01*
X72026190Y-28627380D01*
X72026190Y-28722619D01*
X72930952Y-29627380D02*
X72930952Y-29103571D01*
X72883333Y-29008333D01*
X72788095Y-28960714D01*
X72597619Y-28960714D01*
X72502380Y-29008333D01*
X72930952Y-29579761D02*
X72835714Y-29627380D01*
X72597619Y-29627380D01*
X72502380Y-29579761D01*
X72454761Y-29484523D01*
X72454761Y-29389285D01*
X72502380Y-29294047D01*
X72597619Y-29246428D01*
X72835714Y-29246428D01*
X72930952Y-29198809D01*
X74121428Y-29579761D02*
X74264285Y-29627380D01*
X74502380Y-29627380D01*
X74597619Y-29579761D01*
X74645238Y-29532142D01*
X74692857Y-29436904D01*
X74692857Y-29341666D01*
X74645238Y-29246428D01*
X74597619Y-29198809D01*
X74502380Y-29151190D01*
X74311904Y-29103571D01*
X74216666Y-29055952D01*
X74169047Y-29008333D01*
X74121428Y-28913095D01*
X74121428Y-28817857D01*
X74169047Y-28722619D01*
X74216666Y-28675000D01*
X74311904Y-28627380D01*
X74550000Y-28627380D01*
X74692857Y-28675000D01*
X74978571Y-28960714D02*
X75359523Y-28960714D01*
X75121428Y-28627380D02*
X75121428Y-29484523D01*
X75169047Y-29579761D01*
X75264285Y-29627380D01*
X75359523Y-29627380D01*
X75692857Y-29627380D02*
X75692857Y-28960714D01*
X75692857Y-28627380D02*
X75645238Y-28675000D01*
X75692857Y-28722619D01*
X75740476Y-28675000D01*
X75692857Y-28627380D01*
X75692857Y-28722619D01*
X76597619Y-29579761D02*
X76502380Y-29627380D01*
X76311904Y-29627380D01*
X76216666Y-29579761D01*
X76169047Y-29532142D01*
X76121428Y-29436904D01*
X76121428Y-29151190D01*
X76169047Y-29055952D01*
X76216666Y-29008333D01*
X76311904Y-28960714D01*
X76502380Y-28960714D01*
X76597619Y-29008333D01*
X77026190Y-29627380D02*
X77026190Y-28627380D01*
X77454761Y-29627380D02*
X77454761Y-29103571D01*
X77407142Y-29008333D01*
X77311904Y-28960714D01*
X77169047Y-28960714D01*
X77073809Y-29008333D01*
X77026190Y-29055952D01*
X77930952Y-29627380D02*
X77930952Y-28960714D01*
X77930952Y-28627380D02*
X77883333Y-28675000D01*
X77930952Y-28722619D01*
X77978571Y-28675000D01*
X77930952Y-28627380D01*
X77930952Y-28722619D01*
X78407142Y-28960714D02*
X78407142Y-29627380D01*
X78407142Y-29055952D02*
X78454761Y-29008333D01*
X78550000Y-28960714D01*
X78692857Y-28960714D01*
X78788095Y-29008333D01*
X78835714Y-29103571D01*
X78835714Y-29627380D01*
X79740476Y-28960714D02*
X79740476Y-29770238D01*
X79692857Y-29865476D01*
X79645238Y-29913095D01*
X79550000Y-29960714D01*
X79407142Y-29960714D01*
X79311904Y-29913095D01*
X79740476Y-29579761D02*
X79645238Y-29627380D01*
X79454761Y-29627380D01*
X79359523Y-29579761D01*
X79311904Y-29532142D01*
X79264285Y-29436904D01*
X79264285Y-29151190D01*
X79311904Y-29055952D01*
X79359523Y-29008333D01*
X79454761Y-28960714D01*
X79645238Y-28960714D01*
X79740476Y-29008333D01*
D11*
X57650000Y-52150000D02*
X56050000Y-52150000D01*
X57650000Y-52750000D02*
X57650000Y-52150000D01*
X52146440Y-31645700D02*
X52146440Y-31121891D01*
X51622631Y-31069510D01*
X51675012Y-31121891D01*
X51727393Y-31226653D01*
X51727393Y-31488557D01*
X51675012Y-31593319D01*
X51622631Y-31645700D01*
X51517869Y-31698081D01*
X51255964Y-31698081D01*
X51151202Y-31645700D01*
X51098821Y-31593319D01*
X51046440Y-31488557D01*
X51046440Y-31226653D01*
X51098821Y-31121891D01*
X51151202Y-31069510D01*
X51779774Y-29053319D02*
X51046440Y-29053319D01*
X52198821Y-28791415D02*
X51413107Y-28529510D01*
X51413107Y-29210462D01*
D10*
X51688095Y-37330952D02*
X51688095Y-37407142D01*
X51650000Y-37483333D01*
X51611904Y-37521428D01*
X51535714Y-37559523D01*
X51383333Y-37597619D01*
X51192857Y-37597619D01*
X51040476Y-37559523D01*
X50964285Y-37521428D01*
X50926190Y-37483333D01*
X50888095Y-37407142D01*
X50888095Y-37330952D01*
X50926190Y-37254761D01*
X50964285Y-37216666D01*
X51040476Y-37178571D01*
X51192857Y-37140476D01*
X51383333Y-37140476D01*
X51535714Y-37178571D01*
X51611904Y-37216666D01*
X51650000Y-37254761D01*
X51688095Y-37330952D01*
X51688095Y-38092857D02*
X51688095Y-38169047D01*
X51650000Y-38245238D01*
X51611904Y-38283333D01*
X51535714Y-38321428D01*
X51383333Y-38359523D01*
X51192857Y-38359523D01*
X51040476Y-38321428D01*
X50964285Y-38283333D01*
X50926190Y-38245238D01*
X50888095Y-38169047D01*
X50888095Y-38092857D01*
X50926190Y-38016666D01*
X50964285Y-37978571D01*
X51040476Y-37940476D01*
X51192857Y-37902380D01*
X51383333Y-37902380D01*
X51535714Y-37940476D01*
X51611904Y-37978571D01*
X51650000Y-38016666D01*
X51688095Y-38092857D01*
X51688095Y-39880952D02*
X51688095Y-39957142D01*
X51650000Y-40033333D01*
X51611904Y-40071428D01*
X51535714Y-40109523D01*
X51383333Y-40147619D01*
X51192857Y-40147619D01*
X51040476Y-40109523D01*
X50964285Y-40071428D01*
X50926190Y-40033333D01*
X50888095Y-39957142D01*
X50888095Y-39880952D01*
X50926190Y-39804761D01*
X50964285Y-39766666D01*
X51040476Y-39728571D01*
X51192857Y-39690476D01*
X51383333Y-39690476D01*
X51535714Y-39728571D01*
X51611904Y-39766666D01*
X51650000Y-39804761D01*
X51688095Y-39880952D01*
X50888095Y-40909523D02*
X50888095Y-40452380D01*
X50888095Y-40680952D02*
X51688095Y-40680952D01*
X51573809Y-40604761D01*
X51497619Y-40528571D01*
X51459523Y-40452380D01*
X50888095Y-43078571D02*
X50888095Y-42621428D01*
X50888095Y-42850000D02*
X51688095Y-42850000D01*
X51573809Y-42773809D01*
X51497619Y-42697619D01*
X51459523Y-42621428D01*
D11*
X25519047Y-54728571D02*
X24680952Y-54728571D01*
X18130952Y-54728571D02*
X18969047Y-54728571D01*
X18550000Y-55147619D02*
X18550000Y-54309523D01*
X6847619Y-43502380D02*
X6847619Y-43350000D01*
X6800000Y-43273809D01*
X6752380Y-43235714D01*
X6609523Y-43159523D01*
X6419047Y-43121428D01*
X6038095Y-43121428D01*
X5942857Y-43159523D01*
X5895238Y-43197619D01*
X5847619Y-43273809D01*
X5847619Y-43426190D01*
X5895238Y-43502380D01*
X5942857Y-43540476D01*
X6038095Y-43578571D01*
X6276190Y-43578571D01*
X6371428Y-43540476D01*
X6419047Y-43502380D01*
X6466666Y-43426190D01*
X6466666Y-43273809D01*
X6419047Y-43197619D01*
X6371428Y-43159523D01*
X6276190Y-43121428D01*
X6228571Y-43921428D02*
X6228571Y-44530952D01*
X6752380Y-44873809D02*
X6800000Y-44911904D01*
X6847619Y-44988095D01*
X6847619Y-45178571D01*
X6800000Y-45254761D01*
X6752380Y-45292857D01*
X6657142Y-45330952D01*
X6561904Y-45330952D01*
X6419047Y-45292857D01*
X5847619Y-44835714D01*
X5847619Y-45330952D01*
X6514285Y-46016666D02*
X5847619Y-46016666D01*
X6895238Y-45826190D02*
X6180952Y-45635714D01*
X6180952Y-46130952D01*
X6847619Y-46321428D02*
X5847619Y-46588095D01*
X6847619Y-46854761D01*
D12*
X6250000Y-41166666D02*
X6250000Y-42233333D01*
X6783333Y-41700000D02*
X5716666Y-41700000D01*
X6250000Y-47616666D02*
X6250000Y-48683333D01*
D11*
X11050000Y-24050000D02*
X10850000Y-23850000D01*
X11050000Y-26800000D02*
X11050000Y-24050000D01*
X11450000Y-27200000D02*
X11050000Y-26800000D01*
D10*
X41878571Y-45111904D02*
X41421428Y-45111904D01*
X41650000Y-45111904D02*
X41650000Y-44311904D01*
X41573809Y-44426190D01*
X41497619Y-44502380D01*
X41421428Y-44540476D01*
X46928571Y-45111904D02*
X46471428Y-45111904D01*
X46700000Y-45111904D02*
X46700000Y-44311904D01*
X46623809Y-44426190D01*
X46547619Y-44502380D01*
X46471428Y-44540476D01*
X49211904Y-44311904D02*
X49288095Y-44311904D01*
X49364285Y-44350000D01*
X49402380Y-44388095D01*
X49440476Y-44464285D01*
X49478571Y-44616666D01*
X49478571Y-44807142D01*
X49440476Y-44959523D01*
X49402380Y-45035714D01*
X49364285Y-45073809D01*
X49288095Y-45111904D01*
X49211904Y-45111904D01*
X49135714Y-45073809D01*
X49097619Y-45035714D01*
X49059523Y-44959523D01*
X49021428Y-44807142D01*
X49021428Y-44616666D01*
X49059523Y-44464285D01*
X49097619Y-44388095D01*
X49135714Y-44350000D01*
X49211904Y-44311904D01*
D11*
X51046440Y-21538081D02*
X51046440Y-20909510D01*
X51046440Y-21223796D02*
X52146440Y-21223796D01*
X51989298Y-21119034D01*
X51884536Y-21014272D01*
X51832155Y-20909510D01*
X52146440Y-18631415D02*
X52146440Y-18736176D01*
X52094060Y-18840938D01*
X52041679Y-18893319D01*
X51936917Y-18945700D01*
X51727393Y-18998081D01*
X51465488Y-18998081D01*
X51255964Y-18945700D01*
X51151202Y-18893319D01*
X51098821Y-18840938D01*
X51046440Y-18736176D01*
X51046440Y-18631415D01*
X51098821Y-18526653D01*
X51151202Y-18474272D01*
X51255964Y-18421891D01*
X51465488Y-18369510D01*
X51727393Y-18369510D01*
X51936917Y-18421891D01*
X52041679Y-18474272D01*
X52094060Y-18526653D01*
X52146440Y-18631415D01*
X52041679Y-23449510D02*
X52094060Y-23501891D01*
X52146440Y-23606653D01*
X52146440Y-23868557D01*
X52094060Y-23973319D01*
X52041679Y-24025700D01*
X51936917Y-24078081D01*
X51832155Y-24078081D01*
X51675012Y-24025700D01*
X51046440Y-23397129D01*
X51046440Y-24078081D01*
X52146440Y-25937129D02*
X52146440Y-26618081D01*
X51727393Y-26251415D01*
X51727393Y-26408557D01*
X51675012Y-26513319D01*
X51622631Y-26565700D01*
X51517869Y-26618081D01*
X51255964Y-26618081D01*
X51151202Y-26565700D01*
X51098821Y-26513319D01*
X51046440Y-26408557D01*
X51046440Y-26094272D01*
X51098821Y-25989510D01*
X51151202Y-25937129D01*
X52152094Y-14518267D02*
X52152094Y-15199219D01*
X51733047Y-14832553D01*
X51733047Y-14989695D01*
X51680666Y-15094457D01*
X51628285Y-15146838D01*
X51523523Y-15199219D01*
X51261618Y-15199219D01*
X51156856Y-15146838D01*
X51104475Y-15094457D01*
X51052094Y-14989695D01*
X51052094Y-14675410D01*
X51104475Y-14570648D01*
X51156856Y-14518267D01*
X52047333Y-12030648D02*
X52099714Y-12083029D01*
X52152094Y-12187791D01*
X52152094Y-12449695D01*
X52099714Y-12554457D01*
X52047333Y-12606838D01*
X51942571Y-12659219D01*
X51837809Y-12659219D01*
X51680666Y-12606838D01*
X51052094Y-11978267D01*
X51052094Y-12659219D01*
X51052094Y-10119219D02*
X51052094Y-9490648D01*
X51052094Y-9804934D02*
X52152094Y-9804934D01*
X51994952Y-9700172D01*
X51890190Y-9595410D01*
X51837809Y-9490648D01*
X52152094Y-7212553D02*
X52152094Y-7317314D01*
X52099714Y-7422076D01*
X52047333Y-7474457D01*
X51942571Y-7526838D01*
X51733047Y-7579219D01*
X51471142Y-7579219D01*
X51261618Y-7526838D01*
X51156856Y-7474457D01*
X51104475Y-7422076D01*
X51052094Y-7317314D01*
X51052094Y-7212553D01*
X51104475Y-7107791D01*
X51156856Y-7055410D01*
X51261618Y-7003029D01*
X51471142Y-6950648D01*
X51733047Y-6950648D01*
X51942571Y-7003029D01*
X52047333Y-7055410D01*
X52099714Y-7107791D01*
X52152094Y-7212553D01*
X50914285Y-46895238D02*
X51071428Y-46947619D01*
X51333333Y-46947619D01*
X51438095Y-46895238D01*
X51490476Y-46842857D01*
X51542857Y-46738095D01*
X51542857Y-46633333D01*
X51490476Y-46528571D01*
X51438095Y-46476190D01*
X51333333Y-46423809D01*
X51123809Y-46371428D01*
X51019047Y-46319047D01*
X50966666Y-46266666D01*
X50914285Y-46161904D01*
X50914285Y-46057142D01*
X50966666Y-45952380D01*
X51019047Y-45900000D01*
X51123809Y-45847619D01*
X51385714Y-45847619D01*
X51542857Y-45900000D01*
X52014285Y-46947619D02*
X52014285Y-45847619D01*
X52276190Y-45847619D01*
X52433333Y-45900000D01*
X52538095Y-46004761D01*
X52590476Y-46109523D01*
X52642857Y-46319047D01*
X52642857Y-46476190D01*
X52590476Y-46685714D01*
X52538095Y-46790476D01*
X52433333Y-46895238D01*
X52276190Y-46947619D01*
X52014285Y-46947619D01*
X53061904Y-46633333D02*
X53585714Y-46633333D01*
X52957142Y-46947619D02*
X53323809Y-45847619D01*
X53690476Y-46947619D01*
X50890476Y-49395238D02*
X51047619Y-49447619D01*
X51309523Y-49447619D01*
X51414285Y-49395238D01*
X51466666Y-49342857D01*
X51519047Y-49238095D01*
X51519047Y-49133333D01*
X51466666Y-49028571D01*
X51414285Y-48976190D01*
X51309523Y-48923809D01*
X51100000Y-48871428D01*
X50995238Y-48819047D01*
X50942857Y-48766666D01*
X50890476Y-48661904D01*
X50890476Y-48557142D01*
X50942857Y-48452380D01*
X50995238Y-48400000D01*
X51100000Y-48347619D01*
X51361904Y-48347619D01*
X51519047Y-48400000D01*
X52619047Y-49342857D02*
X52566666Y-49395238D01*
X52409523Y-49447619D01*
X52304761Y-49447619D01*
X52147619Y-49395238D01*
X52042857Y-49290476D01*
X51990476Y-49185714D01*
X51938095Y-48976190D01*
X51938095Y-48819047D01*
X51990476Y-48609523D01*
X52042857Y-48504761D01*
X52147619Y-48400000D01*
X52304761Y-48347619D01*
X52409523Y-48347619D01*
X52566666Y-48400000D01*
X52619047Y-48452380D01*
X53614285Y-49447619D02*
X53090476Y-49447619D01*
X53090476Y-48347619D01*
X50888095Y-50897619D02*
X51569047Y-50897619D01*
X51202380Y-51316666D01*
X51359523Y-51316666D01*
X51464285Y-51369047D01*
X51516666Y-51421428D01*
X51569047Y-51526190D01*
X51569047Y-51788095D01*
X51516666Y-51892857D01*
X51464285Y-51945238D01*
X51359523Y-51997619D01*
X51045238Y-51997619D01*
X50940476Y-51945238D01*
X50888095Y-51892857D01*
X51883333Y-50897619D02*
X52250000Y-51997619D01*
X52616666Y-50897619D01*
X52878571Y-50897619D02*
X53559523Y-50897619D01*
X53192857Y-51316666D01*
X53350000Y-51316666D01*
X53454761Y-51369047D01*
X53507142Y-51421428D01*
X53559523Y-51526190D01*
X53559523Y-51788095D01*
X53507142Y-51892857D01*
X53454761Y-51945238D01*
X53350000Y-51997619D01*
X53035714Y-51997619D01*
X52930952Y-51945238D01*
X52878571Y-51892857D01*
X51561904Y-53500000D02*
X51457142Y-53447619D01*
X51300000Y-53447619D01*
X51142857Y-53500000D01*
X51038095Y-53604761D01*
X50985714Y-53709523D01*
X50933333Y-53919047D01*
X50933333Y-54076190D01*
X50985714Y-54285714D01*
X51038095Y-54390476D01*
X51142857Y-54495238D01*
X51300000Y-54547619D01*
X51404761Y-54547619D01*
X51561904Y-54495238D01*
X51614285Y-54442857D01*
X51614285Y-54076190D01*
X51404761Y-54076190D01*
X52085714Y-54547619D02*
X52085714Y-53447619D01*
X52714285Y-54547619D01*
X52714285Y-53447619D01*
X53238095Y-54547619D02*
X53238095Y-53447619D01*
X53500000Y-53447619D01*
X53657142Y-53500000D01*
X53761904Y-53604761D01*
X53814285Y-53709523D01*
X53866666Y-53919047D01*
X53866666Y-54076190D01*
X53814285Y-54285714D01*
X53761904Y-54390476D01*
X53657142Y-54495238D01*
X53500000Y-54547619D01*
X53238095Y-54547619D01*
X37945238Y-47147619D02*
X37578571Y-46623809D01*
X37316666Y-47147619D02*
X37316666Y-46047619D01*
X37735714Y-46047619D01*
X37840476Y-46100000D01*
X37892857Y-46152380D01*
X37945238Y-46257142D01*
X37945238Y-46414285D01*
X37892857Y-46519047D01*
X37840476Y-46571428D01*
X37735714Y-46623809D01*
X37316666Y-46623809D01*
X38311904Y-47147619D02*
X38888095Y-46414285D01*
X38311904Y-46414285D02*
X38888095Y-47147619D01*
X39307142Y-47147619D02*
X39307142Y-46047619D01*
X39569047Y-46047619D01*
X39726190Y-46100000D01*
X39830952Y-46204761D01*
X39883333Y-46309523D01*
X39935714Y-46519047D01*
X39935714Y-46676190D01*
X39883333Y-46885714D01*
X39830952Y-46990476D01*
X39726190Y-47095238D01*
X39569047Y-47147619D01*
X39307142Y-47147619D01*
X37440476Y-48547619D02*
X38069047Y-48547619D01*
X37754761Y-49647619D02*
X37754761Y-48547619D01*
X38330952Y-49647619D02*
X38907142Y-48914285D01*
X38330952Y-48914285D02*
X38907142Y-49647619D01*
X39326190Y-49647619D02*
X39326190Y-48547619D01*
X39588095Y-48547619D01*
X39745238Y-48600000D01*
X39850000Y-48704761D01*
X39902380Y-48809523D01*
X39954761Y-49019047D01*
X39954761Y-49176190D01*
X39902380Y-49385714D01*
X39850000Y-49490476D01*
X39745238Y-49595238D01*
X39588095Y-49647619D01*
X39326190Y-49647619D01*
X37288095Y-51097619D02*
X37969047Y-51097619D01*
X37602380Y-51516666D01*
X37759523Y-51516666D01*
X37864285Y-51569047D01*
X37916666Y-51621428D01*
X37969047Y-51726190D01*
X37969047Y-51988095D01*
X37916666Y-52092857D01*
X37864285Y-52145238D01*
X37759523Y-52197619D01*
X37445238Y-52197619D01*
X37340476Y-52145238D01*
X37288095Y-52092857D01*
X38283333Y-51097619D02*
X38650000Y-52197619D01*
X39016666Y-51097619D01*
X39278571Y-51097619D02*
X39959523Y-51097619D01*
X39592857Y-51516666D01*
X39750000Y-51516666D01*
X39854761Y-51569047D01*
X39907142Y-51621428D01*
X39959523Y-51726190D01*
X39959523Y-51988095D01*
X39907142Y-52092857D01*
X39854761Y-52145238D01*
X39750000Y-52197619D01*
X39435714Y-52197619D01*
X39330952Y-52145238D01*
X39278571Y-52092857D01*
X37661904Y-53700000D02*
X37557142Y-53647619D01*
X37400000Y-53647619D01*
X37242857Y-53700000D01*
X37138095Y-53804761D01*
X37085714Y-53909523D01*
X37033333Y-54119047D01*
X37033333Y-54276190D01*
X37085714Y-54485714D01*
X37138095Y-54590476D01*
X37242857Y-54695238D01*
X37400000Y-54747619D01*
X37504761Y-54747619D01*
X37661904Y-54695238D01*
X37714285Y-54642857D01*
X37714285Y-54276190D01*
X37504761Y-54276190D01*
X38185714Y-54747619D02*
X38185714Y-53647619D01*
X38814285Y-54747619D01*
X38814285Y-53647619D01*
X39338095Y-54747619D02*
X39338095Y-53647619D01*
X39600000Y-53647619D01*
X39757142Y-53700000D01*
X39861904Y-53804761D01*
X39914285Y-53909523D01*
X39966666Y-54119047D01*
X39966666Y-54276190D01*
X39914285Y-54485714D01*
X39861904Y-54590476D01*
X39757142Y-54695238D01*
X39600000Y-54747619D01*
X39338095Y-54747619D01*
X36002380Y-32571428D02*
X37102380Y-32571428D01*
X36316666Y-32938095D01*
X37102380Y-33304761D01*
X36002380Y-33304761D01*
X36002380Y-33828571D02*
X37102380Y-33828571D01*
X36054761Y-34300000D02*
X36002380Y-34457142D01*
X36002380Y-34719047D01*
X36054761Y-34823809D01*
X36107142Y-34876190D01*
X36211904Y-34928571D01*
X36316666Y-34928571D01*
X36421428Y-34876190D01*
X36473809Y-34823809D01*
X36526190Y-34719047D01*
X36578571Y-34509523D01*
X36630952Y-34404761D01*
X36683333Y-34352380D01*
X36788095Y-34300000D01*
X36892857Y-34300000D01*
X36997619Y-34352380D01*
X37050000Y-34404761D01*
X37102380Y-34509523D01*
X37102380Y-34771428D01*
X37050000Y-34928571D01*
X37102380Y-35609523D02*
X37102380Y-35819047D01*
X37050000Y-35923809D01*
X36945238Y-36028571D01*
X36735714Y-36080952D01*
X36369047Y-36080952D01*
X36159523Y-36028571D01*
X36054761Y-35923809D01*
X36002380Y-35819047D01*
X36002380Y-35609523D01*
X36054761Y-35504761D01*
X36159523Y-35400000D01*
X36369047Y-35347619D01*
X36735714Y-35347619D01*
X36945238Y-35400000D01*
X37050000Y-35504761D01*
X37102380Y-35609523D01*
X38552380Y-32621428D02*
X39652380Y-32621428D01*
X38866666Y-32988095D01*
X39652380Y-33354761D01*
X38552380Y-33354761D01*
X39652380Y-34088095D02*
X39652380Y-34297619D01*
X39600000Y-34402380D01*
X39495238Y-34507142D01*
X39285714Y-34559523D01*
X38919047Y-34559523D01*
X38709523Y-34507142D01*
X38604761Y-34402380D01*
X38552380Y-34297619D01*
X38552380Y-34088095D01*
X38604761Y-33983333D01*
X38709523Y-33878571D01*
X38919047Y-33826190D01*
X39285714Y-33826190D01*
X39495238Y-33878571D01*
X39600000Y-33983333D01*
X39652380Y-34088095D01*
X38604761Y-34978571D02*
X38552380Y-35135714D01*
X38552380Y-35397619D01*
X38604761Y-35502380D01*
X38657142Y-35554761D01*
X38761904Y-35607142D01*
X38866666Y-35607142D01*
X38971428Y-35554761D01*
X39023809Y-35502380D01*
X39076190Y-35397619D01*
X39128571Y-35188095D01*
X39180952Y-35083333D01*
X39233333Y-35030952D01*
X39338095Y-34978571D01*
X39442857Y-34978571D01*
X39547619Y-35030952D01*
X39600000Y-35083333D01*
X39652380Y-35188095D01*
X39652380Y-35450000D01*
X39600000Y-35607142D01*
X38552380Y-36078571D02*
X39652380Y-36078571D01*
X41154761Y-33235714D02*
X41102380Y-33392857D01*
X41102380Y-33654761D01*
X41154761Y-33759523D01*
X41207142Y-33811904D01*
X41311904Y-33864285D01*
X41416666Y-33864285D01*
X41521428Y-33811904D01*
X41573809Y-33759523D01*
X41626190Y-33654761D01*
X41678571Y-33445238D01*
X41730952Y-33340476D01*
X41783333Y-33288095D01*
X41888095Y-33235714D01*
X41992857Y-33235714D01*
X42097619Y-33288095D01*
X42150000Y-33340476D01*
X42202380Y-33445238D01*
X42202380Y-33707142D01*
X42150000Y-33864285D01*
X41207142Y-34964285D02*
X41154761Y-34911904D01*
X41102380Y-34754761D01*
X41102380Y-34650000D01*
X41154761Y-34492857D01*
X41259523Y-34388095D01*
X41364285Y-34335714D01*
X41573809Y-34283333D01*
X41730952Y-34283333D01*
X41940476Y-34335714D01*
X42045238Y-34388095D01*
X42150000Y-34492857D01*
X42202380Y-34650000D01*
X42202380Y-34754761D01*
X42150000Y-34911904D01*
X42097619Y-34964285D01*
X41102380Y-35435714D02*
X42202380Y-35435714D01*
X41102380Y-36064285D02*
X41730952Y-35592857D01*
X42202380Y-36064285D02*
X41573809Y-35435714D01*
X43757142Y-35016666D02*
X43704761Y-34964285D01*
X43652380Y-34807142D01*
X43652380Y-34702380D01*
X43704761Y-34545238D01*
X43809523Y-34440476D01*
X43914285Y-34388095D01*
X44123809Y-34335714D01*
X44280952Y-34335714D01*
X44490476Y-34388095D01*
X44595238Y-34440476D01*
X44700000Y-34545238D01*
X44752380Y-34702380D01*
X44752380Y-34807142D01*
X44700000Y-34964285D01*
X44647619Y-35016666D01*
X43704761Y-35435714D02*
X43652380Y-35592857D01*
X43652380Y-35854761D01*
X43704761Y-35959523D01*
X43757142Y-36011904D01*
X43861904Y-36064285D01*
X43966666Y-36064285D01*
X44071428Y-36011904D01*
X44123809Y-35959523D01*
X44176190Y-35854761D01*
X44228571Y-35645238D01*
X44280952Y-35540476D01*
X44333333Y-35488095D01*
X44438095Y-35435714D01*
X44542857Y-35435714D01*
X44647619Y-35488095D01*
X44700000Y-35540476D01*
X44752380Y-35645238D01*
X44752380Y-35907142D01*
X44700000Y-36064285D01*
X47252380Y-33438095D02*
X47252380Y-34119047D01*
X46833333Y-33752380D01*
X46833333Y-33909523D01*
X46780952Y-34014285D01*
X46728571Y-34066666D01*
X46623809Y-34119047D01*
X46361904Y-34119047D01*
X46257142Y-34066666D01*
X46204761Y-34014285D01*
X46152380Y-33909523D01*
X46152380Y-33595238D01*
X46204761Y-33490476D01*
X46257142Y-33438095D01*
X47252380Y-34433333D02*
X46152380Y-34800000D01*
X47252380Y-35166666D01*
X47252380Y-35428571D02*
X47252380Y-36109523D01*
X46833333Y-35742857D01*
X46833333Y-35900000D01*
X46780952Y-36004761D01*
X46728571Y-36057142D01*
X46623809Y-36109523D01*
X46361904Y-36109523D01*
X46257142Y-36057142D01*
X46204761Y-36004761D01*
X46152380Y-35900000D01*
X46152380Y-35585714D01*
X46204761Y-35480952D01*
X46257142Y-35428571D01*
X49800000Y-33761904D02*
X49852380Y-33657142D01*
X49852380Y-33500000D01*
X49800000Y-33342857D01*
X49695238Y-33238095D01*
X49590476Y-33185714D01*
X49380952Y-33133333D01*
X49223809Y-33133333D01*
X49014285Y-33185714D01*
X48909523Y-33238095D01*
X48804761Y-33342857D01*
X48752380Y-33500000D01*
X48752380Y-33604761D01*
X48804761Y-33761904D01*
X48857142Y-33814285D01*
X49223809Y-33814285D01*
X49223809Y-33604761D01*
X48752380Y-34285714D02*
X49852380Y-34285714D01*
X48752380Y-34914285D01*
X49852380Y-34914285D01*
X48752380Y-35438095D02*
X49852380Y-35438095D01*
X49852380Y-35700000D01*
X49800000Y-35857142D01*
X49695238Y-35961904D01*
X49590476Y-36014285D01*
X49380952Y-36066666D01*
X49223809Y-36066666D01*
X49014285Y-36014285D01*
X48909523Y-35961904D01*
X48804761Y-35857142D01*
X48752380Y-35700000D01*
X48752380Y-35438095D01*
X57402380Y-47470476D02*
X57402380Y-46841904D01*
X57402380Y-47156190D02*
X58502380Y-47156190D01*
X58345238Y-47051428D01*
X58240476Y-46946666D01*
X58188095Y-46841904D01*
X58502380Y-48465714D02*
X58502380Y-47941904D01*
X57978571Y-47889523D01*
X58030952Y-47941904D01*
X58083333Y-48046666D01*
X58083333Y-48308571D01*
X58030952Y-48413333D01*
X57978571Y-48465714D01*
X57873809Y-48518095D01*
X57611904Y-48518095D01*
X57507142Y-48465714D01*
X57454761Y-48413333D01*
X57402380Y-48308571D01*
X57402380Y-48046666D01*
X57454761Y-47941904D01*
X57507142Y-47889523D01*
X57402380Y-44930476D02*
X57402380Y-44301904D01*
X57402380Y-44616190D02*
X58502380Y-44616190D01*
X58345238Y-44511428D01*
X58240476Y-44406666D01*
X58188095Y-44301904D01*
X58135714Y-45873333D02*
X57402380Y-45873333D01*
X58554761Y-45611428D02*
X57769047Y-45349523D01*
X57769047Y-46030476D01*
X57402380Y-42390476D02*
X57402380Y-41761904D01*
X57402380Y-42076190D02*
X58502380Y-42076190D01*
X58345238Y-41971428D01*
X58240476Y-41866666D01*
X58188095Y-41761904D01*
X58502380Y-42757142D02*
X58502380Y-43438095D01*
X58083333Y-43071428D01*
X58083333Y-43228571D01*
X58030952Y-43333333D01*
X57978571Y-43385714D01*
X57873809Y-43438095D01*
X57611904Y-43438095D01*
X57507142Y-43385714D01*
X57454761Y-43333333D01*
X57402380Y-43228571D01*
X57402380Y-42914285D01*
X57454761Y-42809523D01*
X57507142Y-42757142D01*
X57402380Y-39850476D02*
X57402380Y-39221904D01*
X57402380Y-39536190D02*
X58502380Y-39536190D01*
X58345238Y-39431428D01*
X58240476Y-39326666D01*
X58188095Y-39221904D01*
X58397619Y-40269523D02*
X58450000Y-40321904D01*
X58502380Y-40426666D01*
X58502380Y-40688571D01*
X58450000Y-40793333D01*
X58397619Y-40845714D01*
X58292857Y-40898095D01*
X58188095Y-40898095D01*
X58030952Y-40845714D01*
X57402380Y-40217142D01*
X57402380Y-40898095D01*
X57402380Y-37310476D02*
X57402380Y-36681904D01*
X57402380Y-36996190D02*
X58502380Y-36996190D01*
X58345238Y-36891428D01*
X58240476Y-36786666D01*
X58188095Y-36681904D01*
X57402380Y-38358095D02*
X57402380Y-37729523D01*
X57402380Y-38043809D02*
X58502380Y-38043809D01*
X58345238Y-37939047D01*
X58240476Y-37834285D01*
X58188095Y-37729523D01*
X57402380Y-34770476D02*
X57402380Y-34141904D01*
X57402380Y-34456190D02*
X58502380Y-34456190D01*
X58345238Y-34351428D01*
X58240476Y-34246666D01*
X58188095Y-34141904D01*
X58502380Y-35451428D02*
X58502380Y-35556190D01*
X58450000Y-35660952D01*
X58397619Y-35713333D01*
X58292857Y-35765714D01*
X58083333Y-35818095D01*
X57821428Y-35818095D01*
X57611904Y-35765714D01*
X57507142Y-35713333D01*
X57454761Y-35660952D01*
X57402380Y-35556190D01*
X57402380Y-35451428D01*
X57454761Y-35346666D01*
X57507142Y-35294285D01*
X57611904Y-35241904D01*
X57821428Y-35189523D01*
X58083333Y-35189523D01*
X58292857Y-35241904D01*
X58397619Y-35294285D01*
X58450000Y-35346666D01*
X58502380Y-35451428D01*
X57402380Y-32230476D02*
X57402380Y-32440000D01*
X57454761Y-32544761D01*
X57507142Y-32597142D01*
X57664285Y-32701904D01*
X57873809Y-32754285D01*
X58292857Y-32754285D01*
X58397619Y-32701904D01*
X58450000Y-32649523D01*
X58502380Y-32544761D01*
X58502380Y-32335238D01*
X58450000Y-32230476D01*
X58397619Y-32178095D01*
X58292857Y-32125714D01*
X58030952Y-32125714D01*
X57926190Y-32178095D01*
X57873809Y-32230476D01*
X57821428Y-32335238D01*
X57821428Y-32544761D01*
X57873809Y-32649523D01*
X57926190Y-32701904D01*
X58030952Y-32754285D01*
X58030952Y-29795238D02*
X58083333Y-29690476D01*
X58135714Y-29638095D01*
X58240476Y-29585714D01*
X58292857Y-29585714D01*
X58397619Y-29638095D01*
X58450000Y-29690476D01*
X58502380Y-29795238D01*
X58502380Y-30004761D01*
X58450000Y-30109523D01*
X58397619Y-30161904D01*
X58292857Y-30214285D01*
X58240476Y-30214285D01*
X58135714Y-30161904D01*
X58083333Y-30109523D01*
X58030952Y-30004761D01*
X58030952Y-29795238D01*
X57978571Y-29690476D01*
X57926190Y-29638095D01*
X57821428Y-29585714D01*
X57611904Y-29585714D01*
X57507142Y-29638095D01*
X57454761Y-29690476D01*
X57402380Y-29795238D01*
X57402380Y-30004761D01*
X57454761Y-30109523D01*
X57507142Y-30161904D01*
X57611904Y-30214285D01*
X57821428Y-30214285D01*
X57926190Y-30161904D01*
X57978571Y-30109523D01*
X58030952Y-30004761D01*
X58502380Y-25713333D02*
X58502380Y-26446666D01*
X57402380Y-25975238D01*
X58502380Y-23749523D02*
X58502380Y-23540000D01*
X58450000Y-23435238D01*
X58397619Y-23382857D01*
X58240476Y-23278095D01*
X58030952Y-23225714D01*
X57611904Y-23225714D01*
X57507142Y-23278095D01*
X57454761Y-23330476D01*
X57402380Y-23435238D01*
X57402380Y-23644761D01*
X57454761Y-23749523D01*
X57507142Y-23801904D01*
X57611904Y-23854285D01*
X57873809Y-23854285D01*
X57978571Y-23801904D01*
X58030952Y-23749523D01*
X58083333Y-23644761D01*
X58083333Y-23435238D01*
X58030952Y-23330476D01*
X57978571Y-23278095D01*
X57873809Y-23225714D01*
X58502380Y-21261904D02*
X58502380Y-20738095D01*
X57978571Y-20685714D01*
X58030952Y-20738095D01*
X58083333Y-20842857D01*
X58083333Y-21104761D01*
X58030952Y-21209523D01*
X57978571Y-21261904D01*
X57873809Y-21314285D01*
X57611904Y-21314285D01*
X57507142Y-21261904D01*
X57454761Y-21209523D01*
X57402380Y-21104761D01*
X57402380Y-20842857D01*
X57454761Y-20738095D01*
X57507142Y-20685714D01*
X58135714Y-18669523D02*
X57402380Y-18669523D01*
X58554761Y-18407619D02*
X57769047Y-18145714D01*
X57769047Y-18826666D01*
X58502380Y-15553333D02*
X58502380Y-16234285D01*
X58083333Y-15867619D01*
X58083333Y-16024761D01*
X58030952Y-16129523D01*
X57978571Y-16181904D01*
X57873809Y-16234285D01*
X57611904Y-16234285D01*
X57507142Y-16181904D01*
X57454761Y-16129523D01*
X57402380Y-16024761D01*
X57402380Y-15710476D01*
X57454761Y-15605714D01*
X57507142Y-15553333D01*
X58397619Y-13065714D02*
X58450000Y-13118095D01*
X58502380Y-13222857D01*
X58502380Y-13484761D01*
X58450000Y-13589523D01*
X58397619Y-13641904D01*
X58292857Y-13694285D01*
X58188095Y-13694285D01*
X58030952Y-13641904D01*
X57402380Y-13013333D01*
X57402380Y-13694285D01*
X57402380Y-11154285D02*
X57402380Y-10525714D01*
X57402380Y-10840000D02*
X58502380Y-10840000D01*
X58345238Y-10735238D01*
X58240476Y-10630476D01*
X58188095Y-10525714D01*
X58502380Y-8247619D02*
X58502380Y-8352380D01*
X58450000Y-8457142D01*
X58397619Y-8509523D01*
X58292857Y-8561904D01*
X58083333Y-8614285D01*
X57821428Y-8614285D01*
X57611904Y-8561904D01*
X57507142Y-8509523D01*
X57454761Y-8457142D01*
X57402380Y-8352380D01*
X57402380Y-8247619D01*
X57454761Y-8142857D01*
X57507142Y-8090476D01*
X57611904Y-8038095D01*
X57821428Y-7985714D01*
X58083333Y-7985714D01*
X58292857Y-8038095D01*
X58397619Y-8090476D01*
X58450000Y-8142857D01*
X58502380Y-8247619D01*
D13*
G04 #@! TO.C,C15*
X26200000Y-48000000D02*
X26200000Y-47300000D01*
X27400000Y-47300000D02*
X27400000Y-48000000D01*
G04 #@! TO.C,C14*
X27400000Y-44450000D02*
X27400000Y-45150000D01*
X26200000Y-45150000D02*
X26200000Y-44450000D01*
G04 #@! TO.C,C13*
X22100000Y-47900000D02*
X22100000Y-48600000D01*
X20900000Y-48600000D02*
X20900000Y-47900000D01*
G04 #@! TO.C,C12*
X19650000Y-48600000D02*
X19650000Y-47900000D01*
X20850000Y-47900000D02*
X20850000Y-48600000D01*
G04 #@! TO.C,C11*
X19600000Y-47900000D02*
X19600000Y-48600000D01*
X18400000Y-48600000D02*
X18400000Y-47900000D01*
G04 #@! TO.C,C10*
X17150000Y-48600000D02*
X17150000Y-47900000D01*
X18350000Y-47900000D02*
X18350000Y-48600000D01*
G04 #@! TO.C,C16*
X30750000Y-43130000D02*
X28750000Y-43130000D01*
X28750000Y-45170000D02*
X30750000Y-45170000D01*
G04 #@! TO.C,C24*
X32850000Y-35880000D02*
X30850000Y-35880000D01*
X30850000Y-37920000D02*
X32850000Y-37920000D01*
G04 #@! TO.C,R44*
X18250000Y-7380000D02*
X17250000Y-7380000D01*
X17250000Y-6020000D02*
X18250000Y-6020000D01*
D10*
G04 #@! TO.C,J1*
X600000Y-48900000D02*
X5400000Y-48900000D01*
X600000Y-40950000D02*
X5400000Y-40950000D01*
X5400000Y-48900000D02*
X5400000Y-40950000D01*
X600000Y-48900000D02*
X600000Y-40950000D01*
G04 #@! TO.C,Q1*
X7450000Y-39850000D02*
X10750000Y-39850000D01*
X7450000Y-43150000D02*
X10750000Y-43150000D01*
X10750000Y-43150000D02*
X10750000Y-42900000D01*
X7450000Y-43150000D02*
X7450000Y-42900000D01*
X7450000Y-40100000D02*
X7450000Y-39850000D01*
X10750000Y-40100000D02*
X10750000Y-39850000D01*
G04 #@! TO.C,D2*
X16400000Y-45400000D02*
X16400000Y-42400000D01*
X14400000Y-45400000D02*
X14400000Y-42400000D01*
X16400000Y-43400000D02*
X14400000Y-43400000D01*
G04 #@! TO.C,Q10*
X26900000Y-49500000D02*
X26900000Y-49250000D01*
X23600000Y-49500000D02*
X23600000Y-49250000D01*
X23600000Y-52550000D02*
X23600000Y-52300000D01*
X26900000Y-52550000D02*
X26900000Y-52300000D01*
X23600000Y-52550000D02*
X26900000Y-52550000D01*
X23600000Y-49250000D02*
X26900000Y-49250000D01*
G04 #@! TO.C,U20*
X27000000Y-41300000D02*
X23000000Y-41300000D01*
D14*
X23000000Y-41300000D02*
X23000000Y-41300000D01*
D10*
X27000000Y-36300000D02*
X21500000Y-36300000D01*
G04 #@! TO.C,U44*
X41750000Y-16300000D02*
X41750000Y-16150000D01*
X41250000Y-16300000D02*
X41750000Y-16300000D01*
X41250000Y-16150000D02*
X41250000Y-16300000D01*
X39650000Y-13050000D02*
X41750000Y-13050000D01*
X39650000Y-16150000D02*
X41750000Y-16150000D01*
G04 #@! TO.C,U45*
X41750000Y-9750000D02*
X41750000Y-9600000D01*
X41250000Y-9750000D02*
X41750000Y-9750000D01*
X41250000Y-9600000D02*
X41250000Y-9750000D01*
X39650000Y-6500000D02*
X41750000Y-6500000D01*
X39650000Y-9600000D02*
X41750000Y-9600000D01*
D13*
G04 #@! TO.C,JP1*
X14870000Y-33420000D02*
X17530000Y-33420000D01*
X17530000Y-33420000D02*
X17530000Y-38620000D01*
X14870000Y-33420000D02*
X14870000Y-38620000D01*
X14870000Y-38620000D02*
X17530000Y-38620000D01*
G04 #@! TO.C,J52*
X45500000Y-32710000D02*
X42840000Y-32710000D01*
X42840000Y-32710000D02*
X42840000Y-17350000D01*
X45500000Y-17350000D02*
X42840000Y-17350000D01*
G04 #@! TO.C,J2*
X24420000Y-52920000D02*
X24420000Y-55580000D01*
X19220000Y-55580000D02*
X24420000Y-55580000D01*
X19220000Y-52920000D02*
X19220000Y-55580000D01*
X24420000Y-52920000D02*
X19220000Y-52920000D01*
G04 #@! TO.C,J42*
X50580000Y-55580000D02*
X50580000Y-45300000D01*
X50580000Y-45300000D02*
X47920000Y-45300000D01*
X47920000Y-45300000D02*
X47920000Y-55580000D01*
X50580000Y-55580000D02*
X47920000Y-55580000D01*
G04 #@! TO.C,J43*
X36330000Y-52920000D02*
X36330000Y-55580000D01*
X26050000Y-55580000D02*
X36330000Y-55580000D01*
X26050000Y-52920000D02*
X26050000Y-55580000D01*
X36330000Y-52920000D02*
X26050000Y-52920000D01*
G04 #@! TO.C,J44*
X48040000Y-55580000D02*
X48040000Y-45300000D01*
X48040000Y-45300000D02*
X45380000Y-45300000D01*
X45380000Y-45300000D02*
X45380000Y-55580000D01*
X48040000Y-55580000D02*
X45380000Y-55580000D01*
G04 #@! TO.C,J41*
X42960000Y-55580000D02*
X40300000Y-55580000D01*
X40300000Y-45300000D02*
X40300000Y-55580000D01*
X42960000Y-45300000D02*
X40300000Y-45300000D01*
X42960000Y-55580000D02*
X42960000Y-45300000D01*
G04 #@! TO.C,J54*
X45500000Y-16230000D02*
X45500000Y-5950000D01*
X45500000Y-5950000D02*
X42840000Y-5950000D01*
X42840000Y-5950000D02*
X42840000Y-16230000D01*
X45500000Y-16230000D02*
X42840000Y-16230000D01*
G04 #@! TO.C,J55*
X50580000Y-16230000D02*
X47920000Y-16230000D01*
X47920000Y-5950000D02*
X47920000Y-16230000D01*
X50580000Y-5950000D02*
X47920000Y-5950000D01*
X50580000Y-16230000D02*
X50580000Y-5950000D01*
G04 #@! TO.C,J45*
X50580000Y-36430000D02*
X50580000Y-39090000D01*
X35220000Y-39090000D02*
X50580000Y-39090000D01*
X35220000Y-36430000D02*
X35220000Y-39090000D01*
X50580000Y-36430000D02*
X35220000Y-36430000D01*
G04 #@! TO.C,J46*
X50580000Y-38970000D02*
X35220000Y-38970000D01*
X35220000Y-38970000D02*
X35220000Y-41630000D01*
X35220000Y-41630000D02*
X50580000Y-41630000D01*
X50580000Y-38970000D02*
X50580000Y-41630000D01*
G04 #@! TO.C,J47*
X50580000Y-41510000D02*
X50580000Y-44170000D01*
X35220000Y-44170000D02*
X50580000Y-44170000D01*
X35220000Y-41510000D02*
X35220000Y-44170000D01*
X50580000Y-41510000D02*
X35220000Y-41510000D01*
G04 #@! TO.C,J48*
X54290000Y-6990000D02*
X56950000Y-6990000D01*
X56950000Y-27430000D02*
X56950000Y-6990000D01*
X54290000Y-27430000D02*
X56950000Y-27430000D01*
X54290000Y-6990000D02*
X54290000Y-27430000D01*
G04 #@! TO.C,J49*
X54290000Y-28560000D02*
X54290000Y-49000000D01*
X54290000Y-49000000D02*
X56950000Y-49000000D01*
X56950000Y-49000000D02*
X56950000Y-28560000D01*
X54290000Y-28560000D02*
X56950000Y-28560000D01*
G04 #@! TO.C,J53*
X50580000Y-17350000D02*
X45380000Y-17350000D01*
X50580000Y-32710000D02*
X50580000Y-17350000D01*
X50580000Y-32710000D02*
X45380000Y-32710000D01*
G04 #@! TO.C,J50*
X64570000Y-6990000D02*
X64570000Y-27430000D01*
X64570000Y-27430000D02*
X59370000Y-27430000D01*
X59370000Y-27430000D02*
X59370000Y-6990000D01*
X59370000Y-6990000D02*
X64570000Y-6990000D01*
G04 #@! TO.C,J51*
X64570000Y-28560000D02*
X64570000Y-49000000D01*
X64570000Y-49000000D02*
X59370000Y-49000000D01*
X59370000Y-49000000D02*
X59370000Y-28560000D01*
X59370000Y-28560000D02*
X64570000Y-28560000D01*
D10*
G04 #@! TO.C,U10*
X25600000Y-48900000D02*
X22600000Y-48900000D01*
X25600000Y-44900000D02*
X22350000Y-44900000D01*
G04 #@! TO.C,D10*
X36700000Y-48900000D02*
X36700000Y-45900000D01*
X34700000Y-48900000D02*
X34700000Y-45900000D01*
X36700000Y-46900000D02*
X34700000Y-46900000D01*
D13*
G04 #@! TO.C,L40*
X3950000Y-16020000D02*
X4950000Y-16020000D01*
X4950000Y-17380000D02*
X3950000Y-17380000D01*
D10*
G04 #@! TO.C,U43*
X4951191Y-14567500D02*
X5476191Y-14567500D01*
X4951191Y-10267500D02*
X5476191Y-10267500D01*
X9251191Y-10267500D02*
X8726191Y-10267500D01*
X9251191Y-14567500D02*
X8726191Y-14567500D01*
X4951191Y-10267500D02*
X4951191Y-10792500D01*
X9251191Y-10267500D02*
X9251191Y-10792500D01*
X4951191Y-14567500D02*
X4951191Y-14042500D01*
D13*
G04 #@! TO.C,R43*
X32750000Y-17880000D02*
X31750000Y-17880000D01*
X31750000Y-16520000D02*
X32750000Y-16520000D01*
G04 #@! TO.C,C1*
X12900000Y-33800000D02*
X12900000Y-34500000D01*
X11700000Y-34500000D02*
X11700000Y-33800000D01*
G04 #@! TO.C,C2*
X8150000Y-32800000D02*
X8150000Y-33500000D01*
X6950000Y-33500000D02*
X6950000Y-32800000D01*
G04 #@! TO.C,C33*
X3250000Y-24450000D02*
X3250000Y-23750000D01*
X4450000Y-23750000D02*
X4450000Y-24450000D01*
G04 #@! TO.C,C32*
X7450000Y-28900000D02*
X8150000Y-28900000D01*
X8150000Y-30100000D02*
X7450000Y-30100000D01*
D10*
G04 #@! TO.C,D20*
X21650000Y-31800000D02*
X26950000Y-31800000D01*
X21650000Y-35800000D02*
X26950000Y-35800000D01*
G04 #@! TO.C,L20*
X32350000Y-31500000D02*
X32350000Y-35700000D01*
X32350000Y-35700000D02*
X28150000Y-35700000D01*
X28150000Y-35700000D02*
X28150000Y-31500000D01*
X28150000Y-31500000D02*
X32350000Y-31500000D01*
G04 #@! TO.C,U30*
X7837500Y-24250000D02*
X7837500Y-27250000D01*
X7837500Y-27250000D02*
X4837500Y-27250000D01*
X4837500Y-28250000D02*
X4837500Y-24250000D01*
X4837500Y-24250000D02*
X7837500Y-24250000D01*
D13*
G04 #@! TO.C,D51*
X16050000Y-55350000D02*
X16050000Y-52550000D01*
X17450000Y-55350000D02*
X17450000Y-52550000D01*
X16050000Y-55350000D02*
X17450000Y-55350000D01*
G04 #@! TO.C,R51*
X15930000Y-49550000D02*
X15930000Y-50550000D01*
X14570000Y-50550000D02*
X14570000Y-49550000D01*
D10*
G04 #@! TO.C,U46*
X41450000Y-24150000D02*
G75*
G03X41450000Y-24150000I-6000000J0D01*
G01*
D13*
G04 #@! TO.C,C63*
X9600000Y-26150000D02*
X9600000Y-25450000D01*
X10800000Y-25450000D02*
X10800000Y-26150000D01*
G04 #@! TO.C,C49*
X3050000Y-10600000D02*
X3050000Y-9900000D01*
X4250000Y-9900000D02*
X4250000Y-10600000D01*
G04 #@! TO.C,C53*
X39150000Y-16500000D02*
X39150000Y-17200000D01*
X37950000Y-17200000D02*
X37950000Y-16500000D01*
G04 #@! TO.C,C55*
X37950000Y-10650000D02*
X37950000Y-9950000D01*
X39150000Y-9950000D02*
X39150000Y-10650000D01*
G04 #@! TO.C,C61*
X27700000Y-13050000D02*
X27700000Y-12350000D01*
X28900000Y-12350000D02*
X28900000Y-13050000D01*
G04 #@! TO.C,C62*
X14150000Y-11500000D02*
X13450000Y-11500000D01*
X13450000Y-10300000D02*
X14150000Y-10300000D01*
G04 #@! TO.C,C34*
X1550000Y-24550000D02*
X1550000Y-23850000D01*
X2750000Y-23850000D02*
X2750000Y-24550000D01*
G04 #@! TO.C,C20*
X19150000Y-37450000D02*
X19150000Y-36750000D01*
X20350000Y-36750000D02*
X20350000Y-37450000D01*
G04 #@! TO.C,C21*
X32250000Y-39100000D02*
X32250000Y-39800000D01*
X31050000Y-39800000D02*
X31050000Y-39100000D01*
G04 #@! TO.C,C22*
X29650000Y-39800000D02*
X29650000Y-39100000D01*
X30850000Y-39100000D02*
X30850000Y-39800000D01*
G04 #@! TO.C,C23*
X17750000Y-36450000D02*
X17750000Y-35750000D01*
X18950000Y-35750000D02*
X18950000Y-36450000D01*
G04 #@! TO.C,C30*
X4550000Y-27050000D02*
X4550000Y-27750000D01*
X3350000Y-27750000D02*
X3350000Y-27050000D01*
G04 #@! TO.C,C40*
X7950000Y-17050000D02*
X7250000Y-17050000D01*
X7250000Y-15850000D02*
X7950000Y-15850000D01*
G04 #@! TO.C,C41*
X10800000Y-18450000D02*
X10800000Y-19150000D01*
X9600000Y-19150000D02*
X9600000Y-18450000D01*
G04 #@! TO.C,C42*
X10800000Y-22600000D02*
X10800000Y-23300000D01*
X9600000Y-23300000D02*
X9600000Y-22600000D01*
G04 #@! TO.C,C54*
X40400000Y-10100000D02*
X41100000Y-10100000D01*
X41100000Y-11300000D02*
X40400000Y-11300000D01*
G04 #@! TO.C,C52*
X41100000Y-17850000D02*
X40400000Y-17850000D01*
X40400000Y-16650000D02*
X41100000Y-16650000D01*
G04 #@! TO.C,C51*
X6400000Y-9650000D02*
X5700000Y-9650000D01*
X5700000Y-8450000D02*
X6400000Y-8450000D01*
G04 #@! TO.C,C50*
X9250000Y-9650000D02*
X8550000Y-9650000D01*
X8550000Y-8450000D02*
X9250000Y-8450000D01*
G04 #@! TO.C,C48*
X30350000Y-14200000D02*
X30350000Y-14900000D01*
X29150000Y-14900000D02*
X29150000Y-14200000D01*
G04 #@! TO.C,C47*
X26550000Y-30750000D02*
X25850000Y-30750000D01*
X25850000Y-29550000D02*
X26550000Y-29550000D01*
G04 #@! TO.C,C44*
X27550000Y-28150000D02*
X28250000Y-28150000D01*
X28250000Y-29350000D02*
X27550000Y-29350000D01*
G04 #@! TO.C,C43*
X15100000Y-30800000D02*
X14400000Y-30800000D01*
X14400000Y-29600000D02*
X15100000Y-29600000D01*
G04 #@! TO.C,U41*
X35250000Y-13950000D02*
X32250000Y-13950000D01*
X35250000Y-16150000D02*
X33050000Y-16150000D01*
G04 #@! TO.C,D43*
X34750000Y-12300000D02*
X36150000Y-12300000D01*
X36150000Y-12300000D02*
X36150000Y-9500000D01*
X34750000Y-12300000D02*
X34750000Y-9500000D01*
G04 #@! TO.C,D42*
X32950000Y-12300000D02*
X32950000Y-9500000D01*
X34350000Y-12300000D02*
X34350000Y-9500000D01*
X32950000Y-12300000D02*
X34350000Y-12300000D01*
G04 #@! TO.C,D41*
X31150000Y-12300000D02*
X32550000Y-12300000D01*
X32550000Y-12300000D02*
X32550000Y-9500000D01*
X31150000Y-12300000D02*
X31150000Y-9500000D01*
G04 #@! TO.C,D40*
X29350000Y-12300000D02*
X29350000Y-9500000D01*
X30750000Y-12300000D02*
X30750000Y-9500000D01*
X29350000Y-12300000D02*
X30750000Y-12300000D01*
G04 #@! TO.C,R21*
X31300000Y-42350000D02*
X30300000Y-42350000D01*
X30300000Y-40990000D02*
X31300000Y-40990000D01*
G04 #@! TO.C,R22*
X22400000Y-41570000D02*
X23400000Y-41570000D01*
X23400000Y-42930000D02*
X22400000Y-42930000D01*
G04 #@! TO.C,R23*
X27750000Y-41570000D02*
X28750000Y-41570000D01*
X28750000Y-42930000D02*
X27750000Y-42930000D01*
G04 #@! TO.C,R30*
X4550000Y-28870000D02*
X5550000Y-28870000D01*
X5550000Y-30230000D02*
X4550000Y-30230000D01*
G04 #@! TO.C,R10*
X18350000Y-30670000D02*
X19350000Y-30670000D01*
X19350000Y-32030000D02*
X18350000Y-32030000D01*
G04 #@! TO.C,R6*
X5120000Y-36550000D02*
X5120000Y-35550000D01*
X6480000Y-35550000D02*
X6480000Y-36550000D01*
G04 #@! TO.C,R5*
X11280000Y-34250000D02*
X11280000Y-35250000D01*
X9920000Y-35250000D02*
X9920000Y-34250000D01*
G04 #@! TO.C,R4*
X9920000Y-37850000D02*
X9920000Y-36850000D01*
X11280000Y-36850000D02*
X11280000Y-37850000D01*
G04 #@! TO.C,R2*
X1850000Y-37070000D02*
X2850000Y-37070000D01*
X2850000Y-38430000D02*
X1850000Y-38430000D01*
G04 #@! TO.C,R1*
X1850000Y-38870000D02*
X2850000Y-38870000D01*
X2850000Y-40230000D02*
X1850000Y-40230000D01*
G04 #@! TO.C,R24*
X25100000Y-41570000D02*
X26100000Y-41570000D01*
X26100000Y-42930000D02*
X25100000Y-42930000D01*
G04 #@! TO.C,R49*
X25580000Y-6850000D02*
X25580000Y-7850000D01*
X24220000Y-7850000D02*
X24220000Y-6850000D01*
G04 #@! TO.C,R50*
X25770000Y-7850000D02*
X25770000Y-6850000D01*
X27130000Y-6850000D02*
X27130000Y-7850000D01*
G04 #@! TO.C,R48*
X24030000Y-6850000D02*
X24030000Y-7850000D01*
X22670000Y-7850000D02*
X22670000Y-6850000D01*
G04 #@! TO.C,R3*
X11000000Y-31680000D02*
X10000000Y-31680000D01*
X10000000Y-30320000D02*
X11000000Y-30320000D01*
G04 #@! TO.C,R32*
X320000Y-27750000D02*
X320000Y-26750000D01*
X1680000Y-26750000D02*
X1680000Y-27750000D01*
G04 #@! TO.C,R40*
X19250000Y-8870000D02*
X20250000Y-8870000D01*
X20250000Y-10230000D02*
X19250000Y-10230000D01*
G04 #@! TO.C,R41*
X12530000Y-7600000D02*
X12530000Y-8600000D01*
X11170000Y-8600000D02*
X11170000Y-7600000D01*
G04 #@! TO.C,R45*
X45080000Y-48200000D02*
X45080000Y-49200000D01*
X43720000Y-49200000D02*
X43720000Y-48200000D01*
G04 #@! TO.C,R46*
X43720000Y-51750000D02*
X43720000Y-50750000D01*
X45080000Y-50750000D02*
X45080000Y-51750000D01*
G04 #@! TO.C,R33*
X3180000Y-26750000D02*
X3180000Y-27750000D01*
X1820000Y-27750000D02*
X1820000Y-26750000D01*
G04 #@! TO.C,R31*
X9430000Y-23500000D02*
X9430000Y-24500000D01*
X8070000Y-24500000D02*
X8070000Y-23500000D01*
G04 #@! TO.C,R7*
X5120000Y-33850000D02*
X5120000Y-32850000D01*
X6480000Y-32850000D02*
X6480000Y-33850000D01*
G04 #@! TO.C,R47*
X21120000Y-7850000D02*
X21120000Y-6850000D01*
X22480000Y-6850000D02*
X22480000Y-7850000D01*
G04 #@! TO.C,R11*
X20520000Y-45100000D02*
X20520000Y-44100000D01*
X21880000Y-44100000D02*
X21880000Y-45100000D01*
G04 #@! TO.C,R12*
X22900000Y-43320000D02*
X23900000Y-43320000D01*
X23900000Y-44680000D02*
X22900000Y-44680000D01*
G04 #@! TO.C,Q2*
X1520000Y-34560000D02*
X1520000Y-33100000D01*
X4680000Y-34560000D02*
X4680000Y-32400000D01*
X4680000Y-34560000D02*
X3750000Y-34560000D01*
X1520000Y-34560000D02*
X2450000Y-34560000D01*
G04 #@! TO.C,U42*
X13650000Y-9810000D02*
X16100000Y-9810000D01*
X15450000Y-6590000D02*
X13650000Y-6590000D01*
D10*
G04 #@! TO.C,U40*
X12975000Y-13425000D02*
X12975000Y-14075000D01*
X27225000Y-13425000D02*
X27225000Y-14185000D01*
X27225000Y-27675000D02*
X27225000Y-26915000D01*
X12975000Y-27675000D02*
X12975000Y-26915000D01*
X12975000Y-13425000D02*
X13735000Y-13425000D01*
X12975000Y-27675000D02*
X13735000Y-27675000D01*
X27225000Y-27675000D02*
X26465000Y-27675000D01*
X27225000Y-13425000D02*
X26465000Y-13425000D01*
X12975000Y-14075000D02*
X11450000Y-14075000D01*
G04 #@! TO.C,SW1*
X12300000Y-49550000D02*
G75*
G03X12300000Y-49550000I-1500000J0D01*
G01*
X7800000Y-52550000D02*
X7800000Y-46550000D01*
X7800000Y-46550000D02*
X13800000Y-46550000D01*
X13800000Y-46550000D02*
X13800000Y-52550000D01*
X13800000Y-52550000D02*
X7800000Y-52550000D01*
G04 #@! TO.C,L30*
X2800000Y-22350000D02*
X4000000Y-22350000D01*
X2800000Y-18150000D02*
X4000000Y-18150000D01*
G04 #@! TO.C,D30*
X8300000Y-19850000D02*
X6300000Y-19850000D01*
X6300000Y-21850000D02*
X6300000Y-18850000D01*
X8300000Y-21850000D02*
X8300000Y-18850000D01*
G04 #@! TO.C,D1*
X4350000Y-39000000D02*
X6150000Y-39000000D01*
X6150000Y-40400000D02*
X4350000Y-40400000D01*
X4850000Y-40400000D02*
X4850000Y-39000000D01*
G04 #@! TO.C,D49*
X54000000Y-26600000D02*
X54000000Y-28400000D01*
X52600000Y-28400000D02*
X52600000Y-26600000D01*
X52600000Y-27100000D02*
X54000000Y-27100000D01*
G04 #@! TO.C,D50*
X52600000Y-30200000D02*
X54000000Y-30200000D01*
X52600000Y-31500000D02*
X52600000Y-29700000D01*
X54000000Y-29700000D02*
X54000000Y-31500000D01*
G04 #@! TO.C,D48*
X54000000Y-32800000D02*
X54000000Y-34600000D01*
X52600000Y-34600000D02*
X52600000Y-32800000D01*
X52600000Y-33300000D02*
X54000000Y-33300000D01*
G04 #@! TO.C,D47*
X52600000Y-36400000D02*
X54000000Y-36400000D01*
X52600000Y-37700000D02*
X52600000Y-35900000D01*
X54000000Y-35900000D02*
X54000000Y-37700000D01*
G04 #@! TO.C,D46*
X54000000Y-39000000D02*
X54000000Y-40800000D01*
X52600000Y-40800000D02*
X52600000Y-39000000D01*
X52600000Y-39500000D02*
X54000000Y-39500000D01*
G04 #@! TO.C,D45*
X55750000Y-50150000D02*
X55750000Y-51950000D01*
X54350000Y-51950000D02*
X54350000Y-50150000D01*
X54350000Y-50650000D02*
X55750000Y-50650000D01*
G04 #@! TO.C,D44*
X55750000Y-53300000D02*
X55750000Y-55100000D01*
X54350000Y-55100000D02*
X54350000Y-53300000D01*
X54350000Y-53800000D02*
X55750000Y-53800000D01*
G04 #@! TO.C,D4*
X10600000Y-43950000D02*
X12000000Y-43950000D01*
X10600000Y-45250000D02*
X10600000Y-43450000D01*
X12000000Y-43450000D02*
X12000000Y-45250000D01*
G04 #@! TO.C,D3*
X13000000Y-36300000D02*
X13000000Y-38100000D01*
X11600000Y-38100000D02*
X11600000Y-36300000D01*
X11600000Y-36800000D02*
X13000000Y-36800000D01*
G04 #@! TO.C,L10*
X34150000Y-45550000D02*
X34150000Y-52150000D01*
X34150000Y-52150000D02*
X27750000Y-52150000D01*
X27750000Y-52150000D02*
X27750000Y-45550000D01*
X27750000Y-45550000D02*
X34150000Y-45550000D01*
G04 #@! TO.C,C24*
X33157142Y-35607142D02*
X33109523Y-35654761D01*
X32966666Y-35702380D01*
X32871428Y-35702380D01*
X32728571Y-35654761D01*
X32633333Y-35559523D01*
X32585714Y-35464285D01*
X32538095Y-35273809D01*
X32538095Y-35130952D01*
X32585714Y-34940476D01*
X32633333Y-34845238D01*
X32728571Y-34750000D01*
X32871428Y-34702380D01*
X32966666Y-34702380D01*
X33109523Y-34750000D01*
X33157142Y-34797619D01*
X33538095Y-34797619D02*
X33585714Y-34750000D01*
X33680952Y-34702380D01*
X33919047Y-34702380D01*
X34014285Y-34750000D01*
X34061904Y-34797619D01*
X34109523Y-34892857D01*
X34109523Y-34988095D01*
X34061904Y-35130952D01*
X33490476Y-35702380D01*
X34109523Y-35702380D01*
X34966666Y-35035714D02*
X34966666Y-35702380D01*
X34728571Y-34654761D02*
X34490476Y-35369047D01*
X35109523Y-35369047D01*
G04 #@! TO.C,Q1*
X8954761Y-39697619D02*
X8859523Y-39650000D01*
X8764285Y-39554761D01*
X8621428Y-39411904D01*
X8526190Y-39364285D01*
X8430952Y-39364285D01*
X8478571Y-39602380D02*
X8383333Y-39554761D01*
X8288095Y-39459523D01*
X8240476Y-39269047D01*
X8240476Y-38935714D01*
X8288095Y-38745238D01*
X8383333Y-38650000D01*
X8478571Y-38602380D01*
X8669047Y-38602380D01*
X8764285Y-38650000D01*
X8859523Y-38745238D01*
X8907142Y-38935714D01*
X8907142Y-39269047D01*
X8859523Y-39459523D01*
X8764285Y-39554761D01*
X8669047Y-39602380D01*
X8478571Y-39602380D01*
X9859523Y-39602380D02*
X9288095Y-39602380D01*
X9573809Y-39602380D02*
X9573809Y-38602380D01*
X9478571Y-38745238D01*
X9383333Y-38840476D01*
X9288095Y-38888095D01*
G04 #@! TO.C,D2*
X17702380Y-44638095D02*
X16702380Y-44638095D01*
X16702380Y-44400000D01*
X16750000Y-44257142D01*
X16845238Y-44161904D01*
X16940476Y-44114285D01*
X17130952Y-44066666D01*
X17273809Y-44066666D01*
X17464285Y-44114285D01*
X17559523Y-44161904D01*
X17654761Y-44257142D01*
X17702380Y-44400000D01*
X17702380Y-44638095D01*
X16797619Y-43685714D02*
X16750000Y-43638095D01*
X16702380Y-43542857D01*
X16702380Y-43304761D01*
X16750000Y-43209523D01*
X16797619Y-43161904D01*
X16892857Y-43114285D01*
X16988095Y-43114285D01*
X17130952Y-43161904D01*
X17702380Y-43733333D01*
X17702380Y-43114285D01*
G04 #@! TO.C,Q10*
X21028571Y-51447619D02*
X20933333Y-51400000D01*
X20838095Y-51304761D01*
X20695238Y-51161904D01*
X20600000Y-51114285D01*
X20504761Y-51114285D01*
X20552380Y-51352380D02*
X20457142Y-51304761D01*
X20361904Y-51209523D01*
X20314285Y-51019047D01*
X20314285Y-50685714D01*
X20361904Y-50495238D01*
X20457142Y-50400000D01*
X20552380Y-50352380D01*
X20742857Y-50352380D01*
X20838095Y-50400000D01*
X20933333Y-50495238D01*
X20980952Y-50685714D01*
X20980952Y-51019047D01*
X20933333Y-51209523D01*
X20838095Y-51304761D01*
X20742857Y-51352380D01*
X20552380Y-51352380D01*
X21933333Y-51352380D02*
X21361904Y-51352380D01*
X21647619Y-51352380D02*
X21647619Y-50352380D01*
X21552380Y-50495238D01*
X21457142Y-50590476D01*
X21361904Y-50638095D01*
X22552380Y-50352380D02*
X22647619Y-50352380D01*
X22742857Y-50400000D01*
X22790476Y-50447619D01*
X22838095Y-50542857D01*
X22885714Y-50733333D01*
X22885714Y-50971428D01*
X22838095Y-51161904D01*
X22790476Y-51257142D01*
X22742857Y-51304761D01*
X22647619Y-51352380D01*
X22552380Y-51352380D01*
X22457142Y-51304761D01*
X22409523Y-51257142D01*
X22361904Y-51161904D01*
X22314285Y-50971428D01*
X22314285Y-50733333D01*
X22361904Y-50542857D01*
X22409523Y-50447619D01*
X22457142Y-50400000D01*
X22552380Y-50352380D01*
G04 #@! TO.C,U20*
X19452380Y-41238095D02*
X20261904Y-41238095D01*
X20357142Y-41190476D01*
X20404761Y-41142857D01*
X20452380Y-41047619D01*
X20452380Y-40857142D01*
X20404761Y-40761904D01*
X20357142Y-40714285D01*
X20261904Y-40666666D01*
X19452380Y-40666666D01*
X19547619Y-40238095D02*
X19500000Y-40190476D01*
X19452380Y-40095238D01*
X19452380Y-39857142D01*
X19500000Y-39761904D01*
X19547619Y-39714285D01*
X19642857Y-39666666D01*
X19738095Y-39666666D01*
X19880952Y-39714285D01*
X20452380Y-40285714D01*
X20452380Y-39666666D01*
X19452380Y-39047619D02*
X19452380Y-38952380D01*
X19500000Y-38857142D01*
X19547619Y-38809523D01*
X19642857Y-38761904D01*
X19833333Y-38714285D01*
X20071428Y-38714285D01*
X20261904Y-38761904D01*
X20357142Y-38809523D01*
X20404761Y-38857142D01*
X20452380Y-38952380D01*
X20452380Y-39047619D01*
X20404761Y-39142857D01*
X20357142Y-39190476D01*
X20261904Y-39238095D01*
X20071428Y-39285714D01*
X19833333Y-39285714D01*
X19642857Y-39238095D01*
X19547619Y-39190476D01*
X19500000Y-39142857D01*
X19452380Y-39047619D01*
G04 #@! TO.C,U44*
X38252380Y-15188095D02*
X39061904Y-15188095D01*
X39157142Y-15140476D01*
X39204761Y-15092857D01*
X39252380Y-14997619D01*
X39252380Y-14807142D01*
X39204761Y-14711904D01*
X39157142Y-14664285D01*
X39061904Y-14616666D01*
X38252380Y-14616666D01*
X38585714Y-13711904D02*
X39252380Y-13711904D01*
X38204761Y-13950000D02*
X38919047Y-14188095D01*
X38919047Y-13569047D01*
X38585714Y-12759523D02*
X39252380Y-12759523D01*
X38204761Y-12997619D02*
X38919047Y-13235714D01*
X38919047Y-12616666D01*
G04 #@! TO.C,U45*
X38102380Y-8638095D02*
X38911904Y-8638095D01*
X39007142Y-8590476D01*
X39054761Y-8542857D01*
X39102380Y-8447619D01*
X39102380Y-8257142D01*
X39054761Y-8161904D01*
X39007142Y-8114285D01*
X38911904Y-8066666D01*
X38102380Y-8066666D01*
X38435714Y-7161904D02*
X39102380Y-7161904D01*
X38054761Y-7400000D02*
X38769047Y-7638095D01*
X38769047Y-7019047D01*
X38102380Y-6161904D02*
X38102380Y-6638095D01*
X38578571Y-6685714D01*
X38530952Y-6638095D01*
X38483333Y-6542857D01*
X38483333Y-6304761D01*
X38530952Y-6209523D01*
X38578571Y-6161904D01*
X38673809Y-6114285D01*
X38911904Y-6114285D01*
X39007142Y-6161904D01*
X39054761Y-6209523D01*
X39102380Y-6304761D01*
X39102380Y-6542857D01*
X39054761Y-6638095D01*
X39007142Y-6685714D01*
G04 #@! TO.C,JP1*
X15316666Y-38902380D02*
X15316666Y-39616666D01*
X15269047Y-39759523D01*
X15173809Y-39854761D01*
X15030952Y-39902380D01*
X14935714Y-39902380D01*
X15792857Y-39902380D02*
X15792857Y-38902380D01*
X16173809Y-38902380D01*
X16269047Y-38950000D01*
X16316666Y-38997619D01*
X16364285Y-39092857D01*
X16364285Y-39235714D01*
X16316666Y-39330952D01*
X16269047Y-39378571D01*
X16173809Y-39426190D01*
X15792857Y-39426190D01*
X17316666Y-39902380D02*
X16745238Y-39902380D01*
X17030952Y-39902380D02*
X17030952Y-38902380D01*
X16935714Y-39045238D01*
X16840476Y-39140476D01*
X16745238Y-39188095D01*
G04 #@! TO.C,D10*
X36652380Y-52314285D02*
X35652380Y-52314285D01*
X35652380Y-52076190D01*
X35700000Y-51933333D01*
X35795238Y-51838095D01*
X35890476Y-51790476D01*
X36080952Y-51742857D01*
X36223809Y-51742857D01*
X36414285Y-51790476D01*
X36509523Y-51838095D01*
X36604761Y-51933333D01*
X36652380Y-52076190D01*
X36652380Y-52314285D01*
X36652380Y-50790476D02*
X36652380Y-51361904D01*
X36652380Y-51076190D02*
X35652380Y-51076190D01*
X35795238Y-51171428D01*
X35890476Y-51266666D01*
X35938095Y-51361904D01*
X35652380Y-50171428D02*
X35652380Y-50076190D01*
X35700000Y-49980952D01*
X35747619Y-49933333D01*
X35842857Y-49885714D01*
X36033333Y-49838095D01*
X36271428Y-49838095D01*
X36461904Y-49885714D01*
X36557142Y-49933333D01*
X36604761Y-49980952D01*
X36652380Y-50076190D01*
X36652380Y-50171428D01*
X36604761Y-50266666D01*
X36557142Y-50314285D01*
X36461904Y-50361904D01*
X36271428Y-50409523D01*
X36033333Y-50409523D01*
X35842857Y-50361904D01*
X35747619Y-50314285D01*
X35700000Y-50266666D01*
X35652380Y-50171428D01*
G04 #@! TO.C,L40*
X1257142Y-16352380D02*
X780952Y-16352380D01*
X780952Y-15352380D01*
X2019047Y-15685714D02*
X2019047Y-16352380D01*
X1780952Y-15304761D02*
X1542857Y-16019047D01*
X2161904Y-16019047D01*
X2733333Y-15352380D02*
X2828571Y-15352380D01*
X2923809Y-15400000D01*
X2971428Y-15447619D01*
X3019047Y-15542857D01*
X3066666Y-15733333D01*
X3066666Y-15971428D01*
X3019047Y-16161904D01*
X2971428Y-16257142D01*
X2923809Y-16304761D01*
X2828571Y-16352380D01*
X2733333Y-16352380D01*
X2638095Y-16304761D01*
X2590476Y-16257142D01*
X2542857Y-16161904D01*
X2495238Y-15971428D01*
X2495238Y-15733333D01*
X2542857Y-15542857D01*
X2590476Y-15447619D01*
X2638095Y-15400000D01*
X2733333Y-15352380D01*
G04 #@! TO.C,U43*
X1661904Y-13302380D02*
X1661904Y-14111904D01*
X1709523Y-14207142D01*
X1757142Y-14254761D01*
X1852380Y-14302380D01*
X2042857Y-14302380D01*
X2138095Y-14254761D01*
X2185714Y-14207142D01*
X2233333Y-14111904D01*
X2233333Y-13302380D01*
X3138095Y-13635714D02*
X3138095Y-14302380D01*
X2900000Y-13254761D02*
X2661904Y-13969047D01*
X3280952Y-13969047D01*
X3566666Y-13302380D02*
X4185714Y-13302380D01*
X3852380Y-13683333D01*
X3995238Y-13683333D01*
X4090476Y-13730952D01*
X4138095Y-13778571D01*
X4185714Y-13873809D01*
X4185714Y-14111904D01*
X4138095Y-14207142D01*
X4090476Y-14254761D01*
X3995238Y-14302380D01*
X3709523Y-14302380D01*
X3614285Y-14254761D01*
X3566666Y-14207142D01*
G04 #@! TO.C,R43*
X34157142Y-17652380D02*
X33823809Y-17176190D01*
X33585714Y-17652380D02*
X33585714Y-16652380D01*
X33966666Y-16652380D01*
X34061904Y-16700000D01*
X34109523Y-16747619D01*
X34157142Y-16842857D01*
X34157142Y-16985714D01*
X34109523Y-17080952D01*
X34061904Y-17128571D01*
X33966666Y-17176190D01*
X33585714Y-17176190D01*
X35014285Y-16985714D02*
X35014285Y-17652380D01*
X34776190Y-16604761D02*
X34538095Y-17319047D01*
X35157142Y-17319047D01*
X35442857Y-16652380D02*
X36061904Y-16652380D01*
X35728571Y-17033333D01*
X35871428Y-17033333D01*
X35966666Y-17080952D01*
X36014285Y-17128571D01*
X36061904Y-17223809D01*
X36061904Y-17461904D01*
X36014285Y-17557142D01*
X35966666Y-17604761D01*
X35871428Y-17652380D01*
X35585714Y-17652380D01*
X35490476Y-17604761D01*
X35442857Y-17557142D01*
G04 #@! TO.C,C1*
X14007142Y-34316666D02*
X14054761Y-34364285D01*
X14102380Y-34507142D01*
X14102380Y-34602380D01*
X14054761Y-34745238D01*
X13959523Y-34840476D01*
X13864285Y-34888095D01*
X13673809Y-34935714D01*
X13530952Y-34935714D01*
X13340476Y-34888095D01*
X13245238Y-34840476D01*
X13150000Y-34745238D01*
X13102380Y-34602380D01*
X13102380Y-34507142D01*
X13150000Y-34364285D01*
X13197619Y-34316666D01*
X14102380Y-33364285D02*
X14102380Y-33935714D01*
X14102380Y-33650000D02*
X13102380Y-33650000D01*
X13245238Y-33745238D01*
X13340476Y-33840476D01*
X13388095Y-33935714D01*
G04 #@! TO.C,C2*
X7907142Y-35716666D02*
X7954761Y-35764285D01*
X8002380Y-35907142D01*
X8002380Y-36002380D01*
X7954761Y-36145238D01*
X7859523Y-36240476D01*
X7764285Y-36288095D01*
X7573809Y-36335714D01*
X7430952Y-36335714D01*
X7240476Y-36288095D01*
X7145238Y-36240476D01*
X7050000Y-36145238D01*
X7002380Y-36002380D01*
X7002380Y-35907142D01*
X7050000Y-35764285D01*
X7097619Y-35716666D01*
X7097619Y-35335714D02*
X7050000Y-35288095D01*
X7002380Y-35192857D01*
X7002380Y-34954761D01*
X7050000Y-34859523D01*
X7097619Y-34811904D01*
X7192857Y-34764285D01*
X7288095Y-34764285D01*
X7430952Y-34811904D01*
X8002380Y-35383333D01*
X8002380Y-34764285D01*
G04 #@! TO.C,C32*
X7157142Y-31257142D02*
X7109523Y-31304761D01*
X6966666Y-31352380D01*
X6871428Y-31352380D01*
X6728571Y-31304761D01*
X6633333Y-31209523D01*
X6585714Y-31114285D01*
X6538095Y-30923809D01*
X6538095Y-30780952D01*
X6585714Y-30590476D01*
X6633333Y-30495238D01*
X6728571Y-30400000D01*
X6871428Y-30352380D01*
X6966666Y-30352380D01*
X7109523Y-30400000D01*
X7157142Y-30447619D01*
X7490476Y-30352380D02*
X8109523Y-30352380D01*
X7776190Y-30733333D01*
X7919047Y-30733333D01*
X8014285Y-30780952D01*
X8061904Y-30828571D01*
X8109523Y-30923809D01*
X8109523Y-31161904D01*
X8061904Y-31257142D01*
X8014285Y-31304761D01*
X7919047Y-31352380D01*
X7633333Y-31352380D01*
X7538095Y-31304761D01*
X7490476Y-31257142D01*
X8490476Y-30447619D02*
X8538095Y-30400000D01*
X8633333Y-30352380D01*
X8871428Y-30352380D01*
X8966666Y-30400000D01*
X9014285Y-30447619D01*
X9061904Y-30542857D01*
X9061904Y-30638095D01*
X9014285Y-30780952D01*
X8442857Y-31352380D01*
X9061904Y-31352380D01*
G04 #@! TO.C,D20*
X22435714Y-31602380D02*
X22435714Y-30602380D01*
X22673809Y-30602380D01*
X22816666Y-30650000D01*
X22911904Y-30745238D01*
X22959523Y-30840476D01*
X23007142Y-31030952D01*
X23007142Y-31173809D01*
X22959523Y-31364285D01*
X22911904Y-31459523D01*
X22816666Y-31554761D01*
X22673809Y-31602380D01*
X22435714Y-31602380D01*
X23388095Y-30697619D02*
X23435714Y-30650000D01*
X23530952Y-30602380D01*
X23769047Y-30602380D01*
X23864285Y-30650000D01*
X23911904Y-30697619D01*
X23959523Y-30792857D01*
X23959523Y-30888095D01*
X23911904Y-31030952D01*
X23340476Y-31602380D01*
X23959523Y-31602380D01*
X24578571Y-30602380D02*
X24673809Y-30602380D01*
X24769047Y-30650000D01*
X24816666Y-30697619D01*
X24864285Y-30792857D01*
X24911904Y-30983333D01*
X24911904Y-31221428D01*
X24864285Y-31411904D01*
X24816666Y-31507142D01*
X24769047Y-31554761D01*
X24673809Y-31602380D01*
X24578571Y-31602380D01*
X24483333Y-31554761D01*
X24435714Y-31507142D01*
X24388095Y-31411904D01*
X24340476Y-31221428D01*
X24340476Y-30983333D01*
X24388095Y-30792857D01*
X24435714Y-30697619D01*
X24483333Y-30650000D01*
X24578571Y-30602380D01*
G04 #@! TO.C,L20*
X30957142Y-31302380D02*
X30480952Y-31302380D01*
X30480952Y-30302380D01*
X31242857Y-30397619D02*
X31290476Y-30350000D01*
X31385714Y-30302380D01*
X31623809Y-30302380D01*
X31719047Y-30350000D01*
X31766666Y-30397619D01*
X31814285Y-30492857D01*
X31814285Y-30588095D01*
X31766666Y-30730952D01*
X31195238Y-31302380D01*
X31814285Y-31302380D01*
X32433333Y-30302380D02*
X32528571Y-30302380D01*
X32623809Y-30350000D01*
X32671428Y-30397619D01*
X32719047Y-30492857D01*
X32766666Y-30683333D01*
X32766666Y-30921428D01*
X32719047Y-31111904D01*
X32671428Y-31207142D01*
X32623809Y-31254761D01*
X32528571Y-31302380D01*
X32433333Y-31302380D01*
X32338095Y-31254761D01*
X32290476Y-31207142D01*
X32242857Y-31111904D01*
X32195238Y-30921428D01*
X32195238Y-30683333D01*
X32242857Y-30492857D01*
X32290476Y-30397619D01*
X32338095Y-30350000D01*
X32433333Y-30302380D01*
G04 #@! TO.C,D51*
X15752380Y-54764285D02*
X14752380Y-54764285D01*
X14752380Y-54526190D01*
X14800000Y-54383333D01*
X14895238Y-54288095D01*
X14990476Y-54240476D01*
X15180952Y-54192857D01*
X15323809Y-54192857D01*
X15514285Y-54240476D01*
X15609523Y-54288095D01*
X15704761Y-54383333D01*
X15752380Y-54526190D01*
X15752380Y-54764285D01*
X14752380Y-53288095D02*
X14752380Y-53764285D01*
X15228571Y-53811904D01*
X15180952Y-53764285D01*
X15133333Y-53669047D01*
X15133333Y-53430952D01*
X15180952Y-53335714D01*
X15228571Y-53288095D01*
X15323809Y-53240476D01*
X15561904Y-53240476D01*
X15657142Y-53288095D01*
X15704761Y-53335714D01*
X15752380Y-53430952D01*
X15752380Y-53669047D01*
X15704761Y-53764285D01*
X15657142Y-53811904D01*
X15752380Y-52288095D02*
X15752380Y-52859523D01*
X15752380Y-52573809D02*
X14752380Y-52573809D01*
X14895238Y-52669047D01*
X14990476Y-52764285D01*
X15038095Y-52859523D01*
G04 #@! TO.C,R51*
X17102380Y-50692857D02*
X16626190Y-51026190D01*
X17102380Y-51264285D02*
X16102380Y-51264285D01*
X16102380Y-50883333D01*
X16150000Y-50788095D01*
X16197619Y-50740476D01*
X16292857Y-50692857D01*
X16435714Y-50692857D01*
X16530952Y-50740476D01*
X16578571Y-50788095D01*
X16626190Y-50883333D01*
X16626190Y-51264285D01*
X16102380Y-49788095D02*
X16102380Y-50264285D01*
X16578571Y-50311904D01*
X16530952Y-50264285D01*
X16483333Y-50169047D01*
X16483333Y-49930952D01*
X16530952Y-49835714D01*
X16578571Y-49788095D01*
X16673809Y-49740476D01*
X16911904Y-49740476D01*
X17007142Y-49788095D01*
X17054761Y-49835714D01*
X17102380Y-49930952D01*
X17102380Y-50169047D01*
X17054761Y-50264285D01*
X17007142Y-50311904D01*
X17102380Y-48788095D02*
X17102380Y-49359523D01*
X17102380Y-49073809D02*
X16102380Y-49073809D01*
X16245238Y-49169047D01*
X16340476Y-49264285D01*
X16388095Y-49359523D01*
G04 #@! TO.C,U46*
X34211904Y-30452380D02*
X34211904Y-31261904D01*
X34259523Y-31357142D01*
X34307142Y-31404761D01*
X34402380Y-31452380D01*
X34592857Y-31452380D01*
X34688095Y-31404761D01*
X34735714Y-31357142D01*
X34783333Y-31261904D01*
X34783333Y-30452380D01*
X35688095Y-30785714D02*
X35688095Y-31452380D01*
X35450000Y-30404761D02*
X35211904Y-31119047D01*
X35830952Y-31119047D01*
X36640476Y-30452380D02*
X36450000Y-30452380D01*
X36354761Y-30500000D01*
X36307142Y-30547619D01*
X36211904Y-30690476D01*
X36164285Y-30880952D01*
X36164285Y-31261904D01*
X36211904Y-31357142D01*
X36259523Y-31404761D01*
X36354761Y-31452380D01*
X36545238Y-31452380D01*
X36640476Y-31404761D01*
X36688095Y-31357142D01*
X36735714Y-31261904D01*
X36735714Y-31023809D01*
X36688095Y-30928571D01*
X36640476Y-30880952D01*
X36545238Y-30833333D01*
X36354761Y-30833333D01*
X36259523Y-30880952D01*
X36211904Y-30928571D01*
X36164285Y-31023809D01*
G04 #@! TO.C,C63*
X10207142Y-29142857D02*
X10254761Y-29190476D01*
X10302380Y-29333333D01*
X10302380Y-29428571D01*
X10254761Y-29571428D01*
X10159523Y-29666666D01*
X10064285Y-29714285D01*
X9873809Y-29761904D01*
X9730952Y-29761904D01*
X9540476Y-29714285D01*
X9445238Y-29666666D01*
X9350000Y-29571428D01*
X9302380Y-29428571D01*
X9302380Y-29333333D01*
X9350000Y-29190476D01*
X9397619Y-29142857D01*
X9302380Y-28285714D02*
X9302380Y-28476190D01*
X9350000Y-28571428D01*
X9397619Y-28619047D01*
X9540476Y-28714285D01*
X9730952Y-28761904D01*
X10111904Y-28761904D01*
X10207142Y-28714285D01*
X10254761Y-28666666D01*
X10302380Y-28571428D01*
X10302380Y-28380952D01*
X10254761Y-28285714D01*
X10207142Y-28238095D01*
X10111904Y-28190476D01*
X9873809Y-28190476D01*
X9778571Y-28238095D01*
X9730952Y-28285714D01*
X9683333Y-28380952D01*
X9683333Y-28571428D01*
X9730952Y-28666666D01*
X9778571Y-28714285D01*
X9873809Y-28761904D01*
X9302380Y-27857142D02*
X9302380Y-27238095D01*
X9683333Y-27571428D01*
X9683333Y-27428571D01*
X9730952Y-27333333D01*
X9778571Y-27285714D01*
X9873809Y-27238095D01*
X10111904Y-27238095D01*
X10207142Y-27285714D01*
X10254761Y-27333333D01*
X10302380Y-27428571D01*
X10302380Y-27714285D01*
X10254761Y-27809523D01*
X10207142Y-27857142D01*
G04 #@! TO.C,C49*
X2757142Y-11492857D02*
X2804761Y-11540476D01*
X2852380Y-11683333D01*
X2852380Y-11778571D01*
X2804761Y-11921428D01*
X2709523Y-12016666D01*
X2614285Y-12064285D01*
X2423809Y-12111904D01*
X2280952Y-12111904D01*
X2090476Y-12064285D01*
X1995238Y-12016666D01*
X1900000Y-11921428D01*
X1852380Y-11778571D01*
X1852380Y-11683333D01*
X1900000Y-11540476D01*
X1947619Y-11492857D01*
X2185714Y-10635714D02*
X2852380Y-10635714D01*
X1804761Y-10873809D02*
X2519047Y-11111904D01*
X2519047Y-10492857D01*
X2852380Y-10064285D02*
X2852380Y-9873809D01*
X2804761Y-9778571D01*
X2757142Y-9730952D01*
X2614285Y-9635714D01*
X2423809Y-9588095D01*
X2042857Y-9588095D01*
X1947619Y-9635714D01*
X1900000Y-9683333D01*
X1852380Y-9778571D01*
X1852380Y-9969047D01*
X1900000Y-10064285D01*
X1947619Y-10111904D01*
X2042857Y-10159523D01*
X2280952Y-10159523D01*
X2376190Y-10111904D01*
X2423809Y-10064285D01*
X2471428Y-9969047D01*
X2471428Y-9778571D01*
X2423809Y-9683333D01*
X2376190Y-9635714D01*
X2280952Y-9588095D01*
G04 #@! TO.C,C53*
X37657142Y-17492857D02*
X37704761Y-17540476D01*
X37752380Y-17683333D01*
X37752380Y-17778571D01*
X37704761Y-17921428D01*
X37609523Y-18016666D01*
X37514285Y-18064285D01*
X37323809Y-18111904D01*
X37180952Y-18111904D01*
X36990476Y-18064285D01*
X36895238Y-18016666D01*
X36800000Y-17921428D01*
X36752380Y-17778571D01*
X36752380Y-17683333D01*
X36800000Y-17540476D01*
X36847619Y-17492857D01*
X36752380Y-16588095D02*
X36752380Y-17064285D01*
X37228571Y-17111904D01*
X37180952Y-17064285D01*
X37133333Y-16969047D01*
X37133333Y-16730952D01*
X37180952Y-16635714D01*
X37228571Y-16588095D01*
X37323809Y-16540476D01*
X37561904Y-16540476D01*
X37657142Y-16588095D01*
X37704761Y-16635714D01*
X37752380Y-16730952D01*
X37752380Y-16969047D01*
X37704761Y-17064285D01*
X37657142Y-17111904D01*
X36752380Y-16207142D02*
X36752380Y-15588095D01*
X37133333Y-15921428D01*
X37133333Y-15778571D01*
X37180952Y-15683333D01*
X37228571Y-15635714D01*
X37323809Y-15588095D01*
X37561904Y-15588095D01*
X37657142Y-15635714D01*
X37704761Y-15683333D01*
X37752380Y-15778571D01*
X37752380Y-16064285D01*
X37704761Y-16159523D01*
X37657142Y-16207142D01*
G04 #@! TO.C,C55*
X37657142Y-10942857D02*
X37704761Y-10990476D01*
X37752380Y-11133333D01*
X37752380Y-11228571D01*
X37704761Y-11371428D01*
X37609523Y-11466666D01*
X37514285Y-11514285D01*
X37323809Y-11561904D01*
X37180952Y-11561904D01*
X36990476Y-11514285D01*
X36895238Y-11466666D01*
X36800000Y-11371428D01*
X36752380Y-11228571D01*
X36752380Y-11133333D01*
X36800000Y-10990476D01*
X36847619Y-10942857D01*
X36752380Y-10038095D02*
X36752380Y-10514285D01*
X37228571Y-10561904D01*
X37180952Y-10514285D01*
X37133333Y-10419047D01*
X37133333Y-10180952D01*
X37180952Y-10085714D01*
X37228571Y-10038095D01*
X37323809Y-9990476D01*
X37561904Y-9990476D01*
X37657142Y-10038095D01*
X37704761Y-10085714D01*
X37752380Y-10180952D01*
X37752380Y-10419047D01*
X37704761Y-10514285D01*
X37657142Y-10561904D01*
X36752380Y-9085714D02*
X36752380Y-9561904D01*
X37228571Y-9609523D01*
X37180952Y-9561904D01*
X37133333Y-9466666D01*
X37133333Y-9228571D01*
X37180952Y-9133333D01*
X37228571Y-9085714D01*
X37323809Y-9038095D01*
X37561904Y-9038095D01*
X37657142Y-9085714D01*
X37704761Y-9133333D01*
X37752380Y-9228571D01*
X37752380Y-9466666D01*
X37704761Y-9561904D01*
X37657142Y-9609523D01*
G04 #@! TO.C,C61*
X28657142Y-10592857D02*
X28704761Y-10640476D01*
X28752380Y-10783333D01*
X28752380Y-10878571D01*
X28704761Y-11021428D01*
X28609523Y-11116666D01*
X28514285Y-11164285D01*
X28323809Y-11211904D01*
X28180952Y-11211904D01*
X27990476Y-11164285D01*
X27895238Y-11116666D01*
X27800000Y-11021428D01*
X27752380Y-10878571D01*
X27752380Y-10783333D01*
X27800000Y-10640476D01*
X27847619Y-10592857D01*
X27752380Y-9735714D02*
X27752380Y-9926190D01*
X27800000Y-10021428D01*
X27847619Y-10069047D01*
X27990476Y-10164285D01*
X28180952Y-10211904D01*
X28561904Y-10211904D01*
X28657142Y-10164285D01*
X28704761Y-10116666D01*
X28752380Y-10021428D01*
X28752380Y-9830952D01*
X28704761Y-9735714D01*
X28657142Y-9688095D01*
X28561904Y-9640476D01*
X28323809Y-9640476D01*
X28228571Y-9688095D01*
X28180952Y-9735714D01*
X28133333Y-9830952D01*
X28133333Y-10021428D01*
X28180952Y-10116666D01*
X28228571Y-10164285D01*
X28323809Y-10211904D01*
X28752380Y-8688095D02*
X28752380Y-9259523D01*
X28752380Y-8973809D02*
X27752380Y-8973809D01*
X27895238Y-9069047D01*
X27990476Y-9164285D01*
X28038095Y-9259523D01*
G04 #@! TO.C,C62*
X15957142Y-11257142D02*
X15909523Y-11304761D01*
X15766666Y-11352380D01*
X15671428Y-11352380D01*
X15528571Y-11304761D01*
X15433333Y-11209523D01*
X15385714Y-11114285D01*
X15338095Y-10923809D01*
X15338095Y-10780952D01*
X15385714Y-10590476D01*
X15433333Y-10495238D01*
X15528571Y-10400000D01*
X15671428Y-10352380D01*
X15766666Y-10352380D01*
X15909523Y-10400000D01*
X15957142Y-10447619D01*
X16814285Y-10352380D02*
X16623809Y-10352380D01*
X16528571Y-10400000D01*
X16480952Y-10447619D01*
X16385714Y-10590476D01*
X16338095Y-10780952D01*
X16338095Y-11161904D01*
X16385714Y-11257142D01*
X16433333Y-11304761D01*
X16528571Y-11352380D01*
X16719047Y-11352380D01*
X16814285Y-11304761D01*
X16861904Y-11257142D01*
X16909523Y-11161904D01*
X16909523Y-10923809D01*
X16861904Y-10828571D01*
X16814285Y-10780952D01*
X16719047Y-10733333D01*
X16528571Y-10733333D01*
X16433333Y-10780952D01*
X16385714Y-10828571D01*
X16338095Y-10923809D01*
X17290476Y-10447619D02*
X17338095Y-10400000D01*
X17433333Y-10352380D01*
X17671428Y-10352380D01*
X17766666Y-10400000D01*
X17814285Y-10447619D01*
X17861904Y-10542857D01*
X17861904Y-10638095D01*
X17814285Y-10780952D01*
X17242857Y-11352380D01*
X17861904Y-11352380D01*
G04 #@! TO.C,C34*
X1257142Y-25142857D02*
X1304761Y-25190476D01*
X1352380Y-25333333D01*
X1352380Y-25428571D01*
X1304761Y-25571428D01*
X1209523Y-25666666D01*
X1114285Y-25714285D01*
X923809Y-25761904D01*
X780952Y-25761904D01*
X590476Y-25714285D01*
X495238Y-25666666D01*
X400000Y-25571428D01*
X352380Y-25428571D01*
X352380Y-25333333D01*
X400000Y-25190476D01*
X447619Y-25142857D01*
X352380Y-24809523D02*
X352380Y-24190476D01*
X733333Y-24523809D01*
X733333Y-24380952D01*
X780952Y-24285714D01*
X828571Y-24238095D01*
X923809Y-24190476D01*
X1161904Y-24190476D01*
X1257142Y-24238095D01*
X1304761Y-24285714D01*
X1352380Y-24380952D01*
X1352380Y-24666666D01*
X1304761Y-24761904D01*
X1257142Y-24809523D01*
X685714Y-23333333D02*
X1352380Y-23333333D01*
X304761Y-23571428D02*
X1019047Y-23809523D01*
X1019047Y-23190476D01*
G04 #@! TO.C,C20*
X20107142Y-34942857D02*
X20154761Y-34990476D01*
X20202380Y-35133333D01*
X20202380Y-35228571D01*
X20154761Y-35371428D01*
X20059523Y-35466666D01*
X19964285Y-35514285D01*
X19773809Y-35561904D01*
X19630952Y-35561904D01*
X19440476Y-35514285D01*
X19345238Y-35466666D01*
X19250000Y-35371428D01*
X19202380Y-35228571D01*
X19202380Y-35133333D01*
X19250000Y-34990476D01*
X19297619Y-34942857D01*
X19297619Y-34561904D02*
X19250000Y-34514285D01*
X19202380Y-34419047D01*
X19202380Y-34180952D01*
X19250000Y-34085714D01*
X19297619Y-34038095D01*
X19392857Y-33990476D01*
X19488095Y-33990476D01*
X19630952Y-34038095D01*
X20202380Y-34609523D01*
X20202380Y-33990476D01*
X19202380Y-33371428D02*
X19202380Y-33276190D01*
X19250000Y-33180952D01*
X19297619Y-33133333D01*
X19392857Y-33085714D01*
X19583333Y-33038095D01*
X19821428Y-33038095D01*
X20011904Y-33085714D01*
X20107142Y-33133333D01*
X20154761Y-33180952D01*
X20202380Y-33276190D01*
X20202380Y-33371428D01*
X20154761Y-33466666D01*
X20107142Y-33514285D01*
X20011904Y-33561904D01*
X19821428Y-33609523D01*
X19583333Y-33609523D01*
X19392857Y-33561904D01*
X19297619Y-33514285D01*
X19250000Y-33466666D01*
X19202380Y-33371428D01*
G04 #@! TO.C,C21*
X33407142Y-40092857D02*
X33454761Y-40140476D01*
X33502380Y-40283333D01*
X33502380Y-40378571D01*
X33454761Y-40521428D01*
X33359523Y-40616666D01*
X33264285Y-40664285D01*
X33073809Y-40711904D01*
X32930952Y-40711904D01*
X32740476Y-40664285D01*
X32645238Y-40616666D01*
X32550000Y-40521428D01*
X32502380Y-40378571D01*
X32502380Y-40283333D01*
X32550000Y-40140476D01*
X32597619Y-40092857D01*
X32597619Y-39711904D02*
X32550000Y-39664285D01*
X32502380Y-39569047D01*
X32502380Y-39330952D01*
X32550000Y-39235714D01*
X32597619Y-39188095D01*
X32692857Y-39140476D01*
X32788095Y-39140476D01*
X32930952Y-39188095D01*
X33502380Y-39759523D01*
X33502380Y-39140476D01*
X33502380Y-38188095D02*
X33502380Y-38759523D01*
X33502380Y-38473809D02*
X32502380Y-38473809D01*
X32645238Y-38569047D01*
X32740476Y-38664285D01*
X32788095Y-38759523D01*
G04 #@! TO.C,C23*
X18707142Y-39442857D02*
X18754761Y-39490476D01*
X18802380Y-39633333D01*
X18802380Y-39728571D01*
X18754761Y-39871428D01*
X18659523Y-39966666D01*
X18564285Y-40014285D01*
X18373809Y-40061904D01*
X18230952Y-40061904D01*
X18040476Y-40014285D01*
X17945238Y-39966666D01*
X17850000Y-39871428D01*
X17802380Y-39728571D01*
X17802380Y-39633333D01*
X17850000Y-39490476D01*
X17897619Y-39442857D01*
X17897619Y-39061904D02*
X17850000Y-39014285D01*
X17802380Y-38919047D01*
X17802380Y-38680952D01*
X17850000Y-38585714D01*
X17897619Y-38538095D01*
X17992857Y-38490476D01*
X18088095Y-38490476D01*
X18230952Y-38538095D01*
X18802380Y-39109523D01*
X18802380Y-38490476D01*
X17802380Y-38157142D02*
X17802380Y-37538095D01*
X18183333Y-37871428D01*
X18183333Y-37728571D01*
X18230952Y-37633333D01*
X18278571Y-37585714D01*
X18373809Y-37538095D01*
X18611904Y-37538095D01*
X18707142Y-37585714D01*
X18754761Y-37633333D01*
X18802380Y-37728571D01*
X18802380Y-38014285D01*
X18754761Y-38109523D01*
X18707142Y-38157142D01*
G04 #@! TO.C,C41*
X10057142Y-16642857D02*
X10104761Y-16690476D01*
X10152380Y-16833333D01*
X10152380Y-16928571D01*
X10104761Y-17071428D01*
X10009523Y-17166666D01*
X9914285Y-17214285D01*
X9723809Y-17261904D01*
X9580952Y-17261904D01*
X9390476Y-17214285D01*
X9295238Y-17166666D01*
X9200000Y-17071428D01*
X9152380Y-16928571D01*
X9152380Y-16833333D01*
X9200000Y-16690476D01*
X9247619Y-16642857D01*
X9485714Y-15785714D02*
X10152380Y-15785714D01*
X9104761Y-16023809D02*
X9819047Y-16261904D01*
X9819047Y-15642857D01*
X10152380Y-14738095D02*
X10152380Y-15309523D01*
X10152380Y-15023809D02*
X9152380Y-15023809D01*
X9295238Y-15119047D01*
X9390476Y-15214285D01*
X9438095Y-15309523D01*
G04 #@! TO.C,C42*
X11757142Y-29342857D02*
X11804761Y-29390476D01*
X11852380Y-29533333D01*
X11852380Y-29628571D01*
X11804761Y-29771428D01*
X11709523Y-29866666D01*
X11614285Y-29914285D01*
X11423809Y-29961904D01*
X11280952Y-29961904D01*
X11090476Y-29914285D01*
X10995238Y-29866666D01*
X10900000Y-29771428D01*
X10852380Y-29628571D01*
X10852380Y-29533333D01*
X10900000Y-29390476D01*
X10947619Y-29342857D01*
X11185714Y-28485714D02*
X11852380Y-28485714D01*
X10804761Y-28723809D02*
X11519047Y-28961904D01*
X11519047Y-28342857D01*
X10947619Y-28009523D02*
X10900000Y-27961904D01*
X10852380Y-27866666D01*
X10852380Y-27628571D01*
X10900000Y-27533333D01*
X10947619Y-27485714D01*
X11042857Y-27438095D01*
X11138095Y-27438095D01*
X11280952Y-27485714D01*
X11852380Y-28057142D01*
X11852380Y-27438095D01*
G04 #@! TO.C,C54*
X40107142Y-12457142D02*
X40059523Y-12504761D01*
X39916666Y-12552380D01*
X39821428Y-12552380D01*
X39678571Y-12504761D01*
X39583333Y-12409523D01*
X39535714Y-12314285D01*
X39488095Y-12123809D01*
X39488095Y-11980952D01*
X39535714Y-11790476D01*
X39583333Y-11695238D01*
X39678571Y-11600000D01*
X39821428Y-11552380D01*
X39916666Y-11552380D01*
X40059523Y-11600000D01*
X40107142Y-11647619D01*
X41011904Y-11552380D02*
X40535714Y-11552380D01*
X40488095Y-12028571D01*
X40535714Y-11980952D01*
X40630952Y-11933333D01*
X40869047Y-11933333D01*
X40964285Y-11980952D01*
X41011904Y-12028571D01*
X41059523Y-12123809D01*
X41059523Y-12361904D01*
X41011904Y-12457142D01*
X40964285Y-12504761D01*
X40869047Y-12552380D01*
X40630952Y-12552380D01*
X40535714Y-12504761D01*
X40488095Y-12457142D01*
X41916666Y-11885714D02*
X41916666Y-12552380D01*
X41678571Y-11504761D02*
X41440476Y-12219047D01*
X42059523Y-12219047D01*
G04 #@! TO.C,C52*
X40107142Y-18957142D02*
X40059523Y-19004761D01*
X39916666Y-19052380D01*
X39821428Y-19052380D01*
X39678571Y-19004761D01*
X39583333Y-18909523D01*
X39535714Y-18814285D01*
X39488095Y-18623809D01*
X39488095Y-18480952D01*
X39535714Y-18290476D01*
X39583333Y-18195238D01*
X39678571Y-18100000D01*
X39821428Y-18052380D01*
X39916666Y-18052380D01*
X40059523Y-18100000D01*
X40107142Y-18147619D01*
X41011904Y-18052380D02*
X40535714Y-18052380D01*
X40488095Y-18528571D01*
X40535714Y-18480952D01*
X40630952Y-18433333D01*
X40869047Y-18433333D01*
X40964285Y-18480952D01*
X41011904Y-18528571D01*
X41059523Y-18623809D01*
X41059523Y-18861904D01*
X41011904Y-18957142D01*
X40964285Y-19004761D01*
X40869047Y-19052380D01*
X40630952Y-19052380D01*
X40535714Y-19004761D01*
X40488095Y-18957142D01*
X41440476Y-18147619D02*
X41488095Y-18100000D01*
X41583333Y-18052380D01*
X41821428Y-18052380D01*
X41916666Y-18100000D01*
X41964285Y-18147619D01*
X42011904Y-18242857D01*
X42011904Y-18338095D01*
X41964285Y-18480952D01*
X41392857Y-19052380D01*
X42011904Y-19052380D01*
G04 #@! TO.C,C51*
X4507142Y-8157142D02*
X4459523Y-8204761D01*
X4316666Y-8252380D01*
X4221428Y-8252380D01*
X4078571Y-8204761D01*
X3983333Y-8109523D01*
X3935714Y-8014285D01*
X3888095Y-7823809D01*
X3888095Y-7680952D01*
X3935714Y-7490476D01*
X3983333Y-7395238D01*
X4078571Y-7300000D01*
X4221428Y-7252380D01*
X4316666Y-7252380D01*
X4459523Y-7300000D01*
X4507142Y-7347619D01*
X5411904Y-7252380D02*
X4935714Y-7252380D01*
X4888095Y-7728571D01*
X4935714Y-7680952D01*
X5030952Y-7633333D01*
X5269047Y-7633333D01*
X5364285Y-7680952D01*
X5411904Y-7728571D01*
X5459523Y-7823809D01*
X5459523Y-8061904D01*
X5411904Y-8157142D01*
X5364285Y-8204761D01*
X5269047Y-8252380D01*
X5030952Y-8252380D01*
X4935714Y-8204761D01*
X4888095Y-8157142D01*
X6411904Y-8252380D02*
X5840476Y-8252380D01*
X6126190Y-8252380D02*
X6126190Y-7252380D01*
X6030952Y-7395238D01*
X5935714Y-7490476D01*
X5840476Y-7538095D01*
G04 #@! TO.C,C50*
X7657142Y-8157142D02*
X7609523Y-8204761D01*
X7466666Y-8252380D01*
X7371428Y-8252380D01*
X7228571Y-8204761D01*
X7133333Y-8109523D01*
X7085714Y-8014285D01*
X7038095Y-7823809D01*
X7038095Y-7680952D01*
X7085714Y-7490476D01*
X7133333Y-7395238D01*
X7228571Y-7300000D01*
X7371428Y-7252380D01*
X7466666Y-7252380D01*
X7609523Y-7300000D01*
X7657142Y-7347619D01*
X8561904Y-7252380D02*
X8085714Y-7252380D01*
X8038095Y-7728571D01*
X8085714Y-7680952D01*
X8180952Y-7633333D01*
X8419047Y-7633333D01*
X8514285Y-7680952D01*
X8561904Y-7728571D01*
X8609523Y-7823809D01*
X8609523Y-8061904D01*
X8561904Y-8157142D01*
X8514285Y-8204761D01*
X8419047Y-8252380D01*
X8180952Y-8252380D01*
X8085714Y-8204761D01*
X8038095Y-8157142D01*
X9228571Y-7252380D02*
X9323809Y-7252380D01*
X9419047Y-7300000D01*
X9466666Y-7347619D01*
X9514285Y-7442857D01*
X9561904Y-7633333D01*
X9561904Y-7871428D01*
X9514285Y-8061904D01*
X9466666Y-8157142D01*
X9419047Y-8204761D01*
X9323809Y-8252380D01*
X9228571Y-8252380D01*
X9133333Y-8204761D01*
X9085714Y-8157142D01*
X9038095Y-8061904D01*
X8990476Y-7871428D01*
X8990476Y-7633333D01*
X9038095Y-7442857D01*
X9085714Y-7347619D01*
X9133333Y-7300000D01*
X9228571Y-7252380D01*
G04 #@! TO.C,C48*
X31557142Y-15192857D02*
X31604761Y-15240476D01*
X31652380Y-15383333D01*
X31652380Y-15478571D01*
X31604761Y-15621428D01*
X31509523Y-15716666D01*
X31414285Y-15764285D01*
X31223809Y-15811904D01*
X31080952Y-15811904D01*
X30890476Y-15764285D01*
X30795238Y-15716666D01*
X30700000Y-15621428D01*
X30652380Y-15478571D01*
X30652380Y-15383333D01*
X30700000Y-15240476D01*
X30747619Y-15192857D01*
X30985714Y-14335714D02*
X31652380Y-14335714D01*
X30604761Y-14573809D02*
X31319047Y-14811904D01*
X31319047Y-14192857D01*
X31080952Y-13669047D02*
X31033333Y-13764285D01*
X30985714Y-13811904D01*
X30890476Y-13859523D01*
X30842857Y-13859523D01*
X30747619Y-13811904D01*
X30700000Y-13764285D01*
X30652380Y-13669047D01*
X30652380Y-13478571D01*
X30700000Y-13383333D01*
X30747619Y-13335714D01*
X30842857Y-13288095D01*
X30890476Y-13288095D01*
X30985714Y-13335714D01*
X31033333Y-13383333D01*
X31080952Y-13478571D01*
X31080952Y-13669047D01*
X31128571Y-13764285D01*
X31176190Y-13811904D01*
X31271428Y-13859523D01*
X31461904Y-13859523D01*
X31557142Y-13811904D01*
X31604761Y-13764285D01*
X31652380Y-13669047D01*
X31652380Y-13478571D01*
X31604761Y-13383333D01*
X31557142Y-13335714D01*
X31461904Y-13288095D01*
X31271428Y-13288095D01*
X31176190Y-13335714D01*
X31128571Y-13383333D01*
X31080952Y-13478571D01*
G04 #@! TO.C,C47*
X28257142Y-30507142D02*
X28209523Y-30554761D01*
X28066666Y-30602380D01*
X27971428Y-30602380D01*
X27828571Y-30554761D01*
X27733333Y-30459523D01*
X27685714Y-30364285D01*
X27638095Y-30173809D01*
X27638095Y-30030952D01*
X27685714Y-29840476D01*
X27733333Y-29745238D01*
X27828571Y-29650000D01*
X27971428Y-29602380D01*
X28066666Y-29602380D01*
X28209523Y-29650000D01*
X28257142Y-29697619D01*
X29114285Y-29935714D02*
X29114285Y-30602380D01*
X28876190Y-29554761D02*
X28638095Y-30269047D01*
X29257142Y-30269047D01*
X29542857Y-29602380D02*
X30209523Y-29602380D01*
X29780952Y-30602380D01*
G04 #@! TO.C,C44*
X28307142Y-27857142D02*
X28259523Y-27904761D01*
X28116666Y-27952380D01*
X28021428Y-27952380D01*
X27878571Y-27904761D01*
X27783333Y-27809523D01*
X27735714Y-27714285D01*
X27688095Y-27523809D01*
X27688095Y-27380952D01*
X27735714Y-27190476D01*
X27783333Y-27095238D01*
X27878571Y-27000000D01*
X28021428Y-26952380D01*
X28116666Y-26952380D01*
X28259523Y-27000000D01*
X28307142Y-27047619D01*
X29164285Y-27285714D02*
X29164285Y-27952380D01*
X28926190Y-26904761D02*
X28688095Y-27619047D01*
X29307142Y-27619047D01*
X30116666Y-27285714D02*
X30116666Y-27952380D01*
X29878571Y-26904761D02*
X29640476Y-27619047D01*
X30259523Y-27619047D01*
G04 #@! TO.C,C43*
X14107142Y-31957142D02*
X14059523Y-32004761D01*
X13916666Y-32052380D01*
X13821428Y-32052380D01*
X13678571Y-32004761D01*
X13583333Y-31909523D01*
X13535714Y-31814285D01*
X13488095Y-31623809D01*
X13488095Y-31480952D01*
X13535714Y-31290476D01*
X13583333Y-31195238D01*
X13678571Y-31100000D01*
X13821428Y-31052380D01*
X13916666Y-31052380D01*
X14059523Y-31100000D01*
X14107142Y-31147619D01*
X14964285Y-31385714D02*
X14964285Y-32052380D01*
X14726190Y-31004761D02*
X14488095Y-31719047D01*
X15107142Y-31719047D01*
X15392857Y-31052380D02*
X16011904Y-31052380D01*
X15678571Y-31433333D01*
X15821428Y-31433333D01*
X15916666Y-31480952D01*
X15964285Y-31528571D01*
X16011904Y-31623809D01*
X16011904Y-31861904D01*
X15964285Y-31957142D01*
X15916666Y-32004761D01*
X15821428Y-32052380D01*
X15535714Y-32052380D01*
X15440476Y-32004761D01*
X15392857Y-31957142D01*
G04 #@! TO.C,U41*
X32911904Y-12752380D02*
X32911904Y-13561904D01*
X32959523Y-13657142D01*
X33007142Y-13704761D01*
X33102380Y-13752380D01*
X33292857Y-13752380D01*
X33388095Y-13704761D01*
X33435714Y-13657142D01*
X33483333Y-13561904D01*
X33483333Y-12752380D01*
X34388095Y-13085714D02*
X34388095Y-13752380D01*
X34150000Y-12704761D02*
X33911904Y-13419047D01*
X34530952Y-13419047D01*
X35435714Y-13752380D02*
X34864285Y-13752380D01*
X35150000Y-13752380D02*
X35150000Y-12752380D01*
X35054761Y-12895238D01*
X34959523Y-12990476D01*
X34864285Y-13038095D01*
G04 #@! TO.C,D43*
X35902380Y-8314285D02*
X34902380Y-8314285D01*
X34902380Y-8076190D01*
X34950000Y-7933333D01*
X35045238Y-7838095D01*
X35140476Y-7790476D01*
X35330952Y-7742857D01*
X35473809Y-7742857D01*
X35664285Y-7790476D01*
X35759523Y-7838095D01*
X35854761Y-7933333D01*
X35902380Y-8076190D01*
X35902380Y-8314285D01*
X35235714Y-6885714D02*
X35902380Y-6885714D01*
X34854761Y-7123809D02*
X35569047Y-7361904D01*
X35569047Y-6742857D01*
X34902380Y-6457142D02*
X34902380Y-5838095D01*
X35283333Y-6171428D01*
X35283333Y-6028571D01*
X35330952Y-5933333D01*
X35378571Y-5885714D01*
X35473809Y-5838095D01*
X35711904Y-5838095D01*
X35807142Y-5885714D01*
X35854761Y-5933333D01*
X35902380Y-6028571D01*
X35902380Y-6314285D01*
X35854761Y-6409523D01*
X35807142Y-6457142D01*
G04 #@! TO.C,D42*
X34102380Y-8314285D02*
X33102380Y-8314285D01*
X33102380Y-8076190D01*
X33150000Y-7933333D01*
X33245238Y-7838095D01*
X33340476Y-7790476D01*
X33530952Y-7742857D01*
X33673809Y-7742857D01*
X33864285Y-7790476D01*
X33959523Y-7838095D01*
X34054761Y-7933333D01*
X34102380Y-8076190D01*
X34102380Y-8314285D01*
X33435714Y-6885714D02*
X34102380Y-6885714D01*
X33054761Y-7123809D02*
X33769047Y-7361904D01*
X33769047Y-6742857D01*
X33197619Y-6409523D02*
X33150000Y-6361904D01*
X33102380Y-6266666D01*
X33102380Y-6028571D01*
X33150000Y-5933333D01*
X33197619Y-5885714D01*
X33292857Y-5838095D01*
X33388095Y-5838095D01*
X33530952Y-5885714D01*
X34102380Y-6457142D01*
X34102380Y-5838095D01*
G04 #@! TO.C,D41*
X32302380Y-8314285D02*
X31302380Y-8314285D01*
X31302380Y-8076190D01*
X31350000Y-7933333D01*
X31445238Y-7838095D01*
X31540476Y-7790476D01*
X31730952Y-7742857D01*
X31873809Y-7742857D01*
X32064285Y-7790476D01*
X32159523Y-7838095D01*
X32254761Y-7933333D01*
X32302380Y-8076190D01*
X32302380Y-8314285D01*
X31635714Y-6885714D02*
X32302380Y-6885714D01*
X31254761Y-7123809D02*
X31969047Y-7361904D01*
X31969047Y-6742857D01*
X32302380Y-5838095D02*
X32302380Y-6409523D01*
X32302380Y-6123809D02*
X31302380Y-6123809D01*
X31445238Y-6219047D01*
X31540476Y-6314285D01*
X31588095Y-6409523D01*
G04 #@! TO.C,D40*
X30502380Y-8314285D02*
X29502380Y-8314285D01*
X29502380Y-8076190D01*
X29550000Y-7933333D01*
X29645238Y-7838095D01*
X29740476Y-7790476D01*
X29930952Y-7742857D01*
X30073809Y-7742857D01*
X30264285Y-7790476D01*
X30359523Y-7838095D01*
X30454761Y-7933333D01*
X30502380Y-8076190D01*
X30502380Y-8314285D01*
X29835714Y-6885714D02*
X30502380Y-6885714D01*
X29454761Y-7123809D02*
X30169047Y-7361904D01*
X30169047Y-6742857D01*
X29502380Y-6171428D02*
X29502380Y-6076190D01*
X29550000Y-5980952D01*
X29597619Y-5933333D01*
X29692857Y-5885714D01*
X29883333Y-5838095D01*
X30121428Y-5838095D01*
X30311904Y-5885714D01*
X30407142Y-5933333D01*
X30454761Y-5980952D01*
X30502380Y-6076190D01*
X30502380Y-6171428D01*
X30454761Y-6266666D01*
X30407142Y-6314285D01*
X30311904Y-6361904D01*
X30121428Y-6409523D01*
X29883333Y-6409523D01*
X29692857Y-6361904D01*
X29597619Y-6314285D01*
X29550000Y-6266666D01*
X29502380Y-6171428D01*
G04 #@! TO.C,R22*
X19657142Y-42702380D02*
X19323809Y-42226190D01*
X19085714Y-42702380D02*
X19085714Y-41702380D01*
X19466666Y-41702380D01*
X19561904Y-41750000D01*
X19609523Y-41797619D01*
X19657142Y-41892857D01*
X19657142Y-42035714D01*
X19609523Y-42130952D01*
X19561904Y-42178571D01*
X19466666Y-42226190D01*
X19085714Y-42226190D01*
X20038095Y-41797619D02*
X20085714Y-41750000D01*
X20180952Y-41702380D01*
X20419047Y-41702380D01*
X20514285Y-41750000D01*
X20561904Y-41797619D01*
X20609523Y-41892857D01*
X20609523Y-41988095D01*
X20561904Y-42130952D01*
X19990476Y-42702380D01*
X20609523Y-42702380D01*
X20990476Y-41797619D02*
X21038095Y-41750000D01*
X21133333Y-41702380D01*
X21371428Y-41702380D01*
X21466666Y-41750000D01*
X21514285Y-41797619D01*
X21561904Y-41892857D01*
X21561904Y-41988095D01*
X21514285Y-42130952D01*
X20942857Y-42702380D01*
X21561904Y-42702380D01*
G04 #@! TO.C,R10*
X17107142Y-33202380D02*
X16773809Y-32726190D01*
X16535714Y-33202380D02*
X16535714Y-32202380D01*
X16916666Y-32202380D01*
X17011904Y-32250000D01*
X17059523Y-32297619D01*
X17107142Y-32392857D01*
X17107142Y-32535714D01*
X17059523Y-32630952D01*
X17011904Y-32678571D01*
X16916666Y-32726190D01*
X16535714Y-32726190D01*
X18059523Y-33202380D02*
X17488095Y-33202380D01*
X17773809Y-33202380D02*
X17773809Y-32202380D01*
X17678571Y-32345238D01*
X17583333Y-32440476D01*
X17488095Y-32488095D01*
X18678571Y-32202380D02*
X18773809Y-32202380D01*
X18869047Y-32250000D01*
X18916666Y-32297619D01*
X18964285Y-32392857D01*
X19011904Y-32583333D01*
X19011904Y-32821428D01*
X18964285Y-33011904D01*
X18916666Y-33107142D01*
X18869047Y-33154761D01*
X18773809Y-33202380D01*
X18678571Y-33202380D01*
X18583333Y-33154761D01*
X18535714Y-33107142D01*
X18488095Y-33011904D01*
X18440476Y-32821428D01*
X18440476Y-32583333D01*
X18488095Y-32392857D01*
X18535714Y-32297619D01*
X18583333Y-32250000D01*
X18678571Y-32202380D01*
G04 #@! TO.C,R6*
X4902380Y-36216666D02*
X4426190Y-36550000D01*
X4902380Y-36788095D02*
X3902380Y-36788095D01*
X3902380Y-36407142D01*
X3950000Y-36311904D01*
X3997619Y-36264285D01*
X4092857Y-36216666D01*
X4235714Y-36216666D01*
X4330952Y-36264285D01*
X4378571Y-36311904D01*
X4426190Y-36407142D01*
X4426190Y-36788095D01*
X3902380Y-35359523D02*
X3902380Y-35550000D01*
X3950000Y-35645238D01*
X3997619Y-35692857D01*
X4140476Y-35788095D01*
X4330952Y-35835714D01*
X4711904Y-35835714D01*
X4807142Y-35788095D01*
X4854761Y-35740476D01*
X4902380Y-35645238D01*
X4902380Y-35454761D01*
X4854761Y-35359523D01*
X4807142Y-35311904D01*
X4711904Y-35264285D01*
X4473809Y-35264285D01*
X4378571Y-35311904D01*
X4330952Y-35359523D01*
X4283333Y-35454761D01*
X4283333Y-35645238D01*
X4330952Y-35740476D01*
X4378571Y-35788095D01*
X4473809Y-35835714D01*
G04 #@! TO.C,R5*
X9702380Y-34916666D02*
X9226190Y-35250000D01*
X9702380Y-35488095D02*
X8702380Y-35488095D01*
X8702380Y-35107142D01*
X8750000Y-35011904D01*
X8797619Y-34964285D01*
X8892857Y-34916666D01*
X9035714Y-34916666D01*
X9130952Y-34964285D01*
X9178571Y-35011904D01*
X9226190Y-35107142D01*
X9226190Y-35488095D01*
X8702380Y-34011904D02*
X8702380Y-34488095D01*
X9178571Y-34535714D01*
X9130952Y-34488095D01*
X9083333Y-34392857D01*
X9083333Y-34154761D01*
X9130952Y-34059523D01*
X9178571Y-34011904D01*
X9273809Y-33964285D01*
X9511904Y-33964285D01*
X9607142Y-34011904D01*
X9654761Y-34059523D01*
X9702380Y-34154761D01*
X9702380Y-34392857D01*
X9654761Y-34488095D01*
X9607142Y-34535714D01*
G04 #@! TO.C,R4*
X9702380Y-37516666D02*
X9226190Y-37850000D01*
X9702380Y-38088095D02*
X8702380Y-38088095D01*
X8702380Y-37707142D01*
X8750000Y-37611904D01*
X8797619Y-37564285D01*
X8892857Y-37516666D01*
X9035714Y-37516666D01*
X9130952Y-37564285D01*
X9178571Y-37611904D01*
X9226190Y-37707142D01*
X9226190Y-38088095D01*
X9035714Y-36659523D02*
X9702380Y-36659523D01*
X8654761Y-36897619D02*
X9369047Y-37135714D01*
X9369047Y-36516666D01*
G04 #@! TO.C,R2*
X2183333Y-36852380D02*
X1850000Y-36376190D01*
X1611904Y-36852380D02*
X1611904Y-35852380D01*
X1992857Y-35852380D01*
X2088095Y-35900000D01*
X2135714Y-35947619D01*
X2183333Y-36042857D01*
X2183333Y-36185714D01*
X2135714Y-36280952D01*
X2088095Y-36328571D01*
X1992857Y-36376190D01*
X1611904Y-36376190D01*
X2564285Y-35947619D02*
X2611904Y-35900000D01*
X2707142Y-35852380D01*
X2945238Y-35852380D01*
X3040476Y-35900000D01*
X3088095Y-35947619D01*
X3135714Y-36042857D01*
X3135714Y-36138095D01*
X3088095Y-36280952D01*
X2516666Y-36852380D01*
X3135714Y-36852380D01*
G04 #@! TO.C,R1*
X4233333Y-38752380D02*
X3900000Y-38276190D01*
X3661904Y-38752380D02*
X3661904Y-37752380D01*
X4042857Y-37752380D01*
X4138095Y-37800000D01*
X4185714Y-37847619D01*
X4233333Y-37942857D01*
X4233333Y-38085714D01*
X4185714Y-38180952D01*
X4138095Y-38228571D01*
X4042857Y-38276190D01*
X3661904Y-38276190D01*
X5185714Y-38752380D02*
X4614285Y-38752380D01*
X4900000Y-38752380D02*
X4900000Y-37752380D01*
X4804761Y-37895238D01*
X4709523Y-37990476D01*
X4614285Y-38038095D01*
G04 #@! TO.C,R49*
X25352380Y-10642857D02*
X24876190Y-10976190D01*
X25352380Y-11214285D02*
X24352380Y-11214285D01*
X24352380Y-10833333D01*
X24400000Y-10738095D01*
X24447619Y-10690476D01*
X24542857Y-10642857D01*
X24685714Y-10642857D01*
X24780952Y-10690476D01*
X24828571Y-10738095D01*
X24876190Y-10833333D01*
X24876190Y-11214285D01*
X24685714Y-9785714D02*
X25352380Y-9785714D01*
X24304761Y-10023809D02*
X25019047Y-10261904D01*
X25019047Y-9642857D01*
X25352380Y-9214285D02*
X25352380Y-9023809D01*
X25304761Y-8928571D01*
X25257142Y-8880952D01*
X25114285Y-8785714D01*
X24923809Y-8738095D01*
X24542857Y-8738095D01*
X24447619Y-8785714D01*
X24400000Y-8833333D01*
X24352380Y-8928571D01*
X24352380Y-9119047D01*
X24400000Y-9214285D01*
X24447619Y-9261904D01*
X24542857Y-9309523D01*
X24780952Y-9309523D01*
X24876190Y-9261904D01*
X24923809Y-9214285D01*
X24971428Y-9119047D01*
X24971428Y-8928571D01*
X24923809Y-8833333D01*
X24876190Y-8785714D01*
X24780952Y-8738095D01*
G04 #@! TO.C,R50*
X26902380Y-10642857D02*
X26426190Y-10976190D01*
X26902380Y-11214285D02*
X25902380Y-11214285D01*
X25902380Y-10833333D01*
X25950000Y-10738095D01*
X25997619Y-10690476D01*
X26092857Y-10642857D01*
X26235714Y-10642857D01*
X26330952Y-10690476D01*
X26378571Y-10738095D01*
X26426190Y-10833333D01*
X26426190Y-11214285D01*
X25902380Y-9738095D02*
X25902380Y-10214285D01*
X26378571Y-10261904D01*
X26330952Y-10214285D01*
X26283333Y-10119047D01*
X26283333Y-9880952D01*
X26330952Y-9785714D01*
X26378571Y-9738095D01*
X26473809Y-9690476D01*
X26711904Y-9690476D01*
X26807142Y-9738095D01*
X26854761Y-9785714D01*
X26902380Y-9880952D01*
X26902380Y-10119047D01*
X26854761Y-10214285D01*
X26807142Y-10261904D01*
X25902380Y-9071428D02*
X25902380Y-8976190D01*
X25950000Y-8880952D01*
X25997619Y-8833333D01*
X26092857Y-8785714D01*
X26283333Y-8738095D01*
X26521428Y-8738095D01*
X26711904Y-8785714D01*
X26807142Y-8833333D01*
X26854761Y-8880952D01*
X26902380Y-8976190D01*
X26902380Y-9071428D01*
X26854761Y-9166666D01*
X26807142Y-9214285D01*
X26711904Y-9261904D01*
X26521428Y-9309523D01*
X26283333Y-9309523D01*
X26092857Y-9261904D01*
X25997619Y-9214285D01*
X25950000Y-9166666D01*
X25902380Y-9071428D01*
G04 #@! TO.C,R48*
X23802380Y-10642857D02*
X23326190Y-10976190D01*
X23802380Y-11214285D02*
X22802380Y-11214285D01*
X22802380Y-10833333D01*
X22850000Y-10738095D01*
X22897619Y-10690476D01*
X22992857Y-10642857D01*
X23135714Y-10642857D01*
X23230952Y-10690476D01*
X23278571Y-10738095D01*
X23326190Y-10833333D01*
X23326190Y-11214285D01*
X23135714Y-9785714D02*
X23802380Y-9785714D01*
X22754761Y-10023809D02*
X23469047Y-10261904D01*
X23469047Y-9642857D01*
X23230952Y-9119047D02*
X23183333Y-9214285D01*
X23135714Y-9261904D01*
X23040476Y-9309523D01*
X22992857Y-9309523D01*
X22897619Y-9261904D01*
X22850000Y-9214285D01*
X22802380Y-9119047D01*
X22802380Y-8928571D01*
X22850000Y-8833333D01*
X22897619Y-8785714D01*
X22992857Y-8738095D01*
X23040476Y-8738095D01*
X23135714Y-8785714D01*
X23183333Y-8833333D01*
X23230952Y-8928571D01*
X23230952Y-9119047D01*
X23278571Y-9214285D01*
X23326190Y-9261904D01*
X23421428Y-9309523D01*
X23611904Y-9309523D01*
X23707142Y-9261904D01*
X23754761Y-9214285D01*
X23802380Y-9119047D01*
X23802380Y-8928571D01*
X23754761Y-8833333D01*
X23707142Y-8785714D01*
X23611904Y-8738095D01*
X23421428Y-8738095D01*
X23326190Y-8785714D01*
X23278571Y-8833333D01*
X23230952Y-8928571D01*
G04 #@! TO.C,R3*
X10333333Y-32902380D02*
X10000000Y-32426190D01*
X9761904Y-32902380D02*
X9761904Y-31902380D01*
X10142857Y-31902380D01*
X10238095Y-31950000D01*
X10285714Y-31997619D01*
X10333333Y-32092857D01*
X10333333Y-32235714D01*
X10285714Y-32330952D01*
X10238095Y-32378571D01*
X10142857Y-32426190D01*
X9761904Y-32426190D01*
X10666666Y-31902380D02*
X11285714Y-31902380D01*
X10952380Y-32283333D01*
X11095238Y-32283333D01*
X11190476Y-32330952D01*
X11238095Y-32378571D01*
X11285714Y-32473809D01*
X11285714Y-32711904D01*
X11238095Y-32807142D01*
X11190476Y-32854761D01*
X11095238Y-32902380D01*
X10809523Y-32902380D01*
X10714285Y-32854761D01*
X10666666Y-32807142D01*
G04 #@! TO.C,R32*
X1452380Y-30342857D02*
X976190Y-30676190D01*
X1452380Y-30914285D02*
X452380Y-30914285D01*
X452380Y-30533333D01*
X500000Y-30438095D01*
X547619Y-30390476D01*
X642857Y-30342857D01*
X785714Y-30342857D01*
X880952Y-30390476D01*
X928571Y-30438095D01*
X976190Y-30533333D01*
X976190Y-30914285D01*
X452380Y-30009523D02*
X452380Y-29390476D01*
X833333Y-29723809D01*
X833333Y-29580952D01*
X880952Y-29485714D01*
X928571Y-29438095D01*
X1023809Y-29390476D01*
X1261904Y-29390476D01*
X1357142Y-29438095D01*
X1404761Y-29485714D01*
X1452380Y-29580952D01*
X1452380Y-29866666D01*
X1404761Y-29961904D01*
X1357142Y-30009523D01*
X547619Y-29009523D02*
X500000Y-28961904D01*
X452380Y-28866666D01*
X452380Y-28628571D01*
X500000Y-28533333D01*
X547619Y-28485714D01*
X642857Y-28438095D01*
X738095Y-28438095D01*
X880952Y-28485714D01*
X1452380Y-29057142D01*
X1452380Y-28438095D01*
G04 #@! TO.C,R40*
X18907142Y-8652380D02*
X18573809Y-8176190D01*
X18335714Y-8652380D02*
X18335714Y-7652380D01*
X18716666Y-7652380D01*
X18811904Y-7700000D01*
X18859523Y-7747619D01*
X18907142Y-7842857D01*
X18907142Y-7985714D01*
X18859523Y-8080952D01*
X18811904Y-8128571D01*
X18716666Y-8176190D01*
X18335714Y-8176190D01*
X19764285Y-7985714D02*
X19764285Y-8652380D01*
X19526190Y-7604761D02*
X19288095Y-8319047D01*
X19907142Y-8319047D01*
X20478571Y-7652380D02*
X20573809Y-7652380D01*
X20669047Y-7700000D01*
X20716666Y-7747619D01*
X20764285Y-7842857D01*
X20811904Y-8033333D01*
X20811904Y-8271428D01*
X20764285Y-8461904D01*
X20716666Y-8557142D01*
X20669047Y-8604761D01*
X20573809Y-8652380D01*
X20478571Y-8652380D01*
X20383333Y-8604761D01*
X20335714Y-8557142D01*
X20288095Y-8461904D01*
X20240476Y-8271428D01*
X20240476Y-8033333D01*
X20288095Y-7842857D01*
X20335714Y-7747619D01*
X20383333Y-7700000D01*
X20478571Y-7652380D01*
G04 #@! TO.C,R41*
X10952380Y-7792857D02*
X10476190Y-8126190D01*
X10952380Y-8364285D02*
X9952380Y-8364285D01*
X9952380Y-7983333D01*
X10000000Y-7888095D01*
X10047619Y-7840476D01*
X10142857Y-7792857D01*
X10285714Y-7792857D01*
X10380952Y-7840476D01*
X10428571Y-7888095D01*
X10476190Y-7983333D01*
X10476190Y-8364285D01*
X10285714Y-6935714D02*
X10952380Y-6935714D01*
X9904761Y-7173809D02*
X10619047Y-7411904D01*
X10619047Y-6792857D01*
X10952380Y-5888095D02*
X10952380Y-6459523D01*
X10952380Y-6173809D02*
X9952380Y-6173809D01*
X10095238Y-6269047D01*
X10190476Y-6364285D01*
X10238095Y-6459523D01*
G04 #@! TO.C,R45*
X44852380Y-46742857D02*
X44376190Y-47076190D01*
X44852380Y-47314285D02*
X43852380Y-47314285D01*
X43852380Y-46933333D01*
X43900000Y-46838095D01*
X43947619Y-46790476D01*
X44042857Y-46742857D01*
X44185714Y-46742857D01*
X44280952Y-46790476D01*
X44328571Y-46838095D01*
X44376190Y-46933333D01*
X44376190Y-47314285D01*
X44185714Y-45885714D02*
X44852380Y-45885714D01*
X43804761Y-46123809D02*
X44519047Y-46361904D01*
X44519047Y-45742857D01*
X43852380Y-44885714D02*
X43852380Y-45361904D01*
X44328571Y-45409523D01*
X44280952Y-45361904D01*
X44233333Y-45266666D01*
X44233333Y-45028571D01*
X44280952Y-44933333D01*
X44328571Y-44885714D01*
X44423809Y-44838095D01*
X44661904Y-44838095D01*
X44757142Y-44885714D01*
X44804761Y-44933333D01*
X44852380Y-45028571D01*
X44852380Y-45266666D01*
X44804761Y-45361904D01*
X44757142Y-45409523D01*
G04 #@! TO.C,R46*
X44852380Y-54542857D02*
X44376190Y-54876190D01*
X44852380Y-55114285D02*
X43852380Y-55114285D01*
X43852380Y-54733333D01*
X43900000Y-54638095D01*
X43947619Y-54590476D01*
X44042857Y-54542857D01*
X44185714Y-54542857D01*
X44280952Y-54590476D01*
X44328571Y-54638095D01*
X44376190Y-54733333D01*
X44376190Y-55114285D01*
X44185714Y-53685714D02*
X44852380Y-53685714D01*
X43804761Y-53923809D02*
X44519047Y-54161904D01*
X44519047Y-53542857D01*
X43852380Y-52733333D02*
X43852380Y-52923809D01*
X43900000Y-53019047D01*
X43947619Y-53066666D01*
X44090476Y-53161904D01*
X44280952Y-53209523D01*
X44661904Y-53209523D01*
X44757142Y-53161904D01*
X44804761Y-53114285D01*
X44852380Y-53019047D01*
X44852380Y-52828571D01*
X44804761Y-52733333D01*
X44757142Y-52685714D01*
X44661904Y-52638095D01*
X44423809Y-52638095D01*
X44328571Y-52685714D01*
X44280952Y-52733333D01*
X44233333Y-52828571D01*
X44233333Y-53019047D01*
X44280952Y-53114285D01*
X44328571Y-53161904D01*
X44423809Y-53209523D01*
G04 #@! TO.C,R33*
X2952380Y-30342857D02*
X2476190Y-30676190D01*
X2952380Y-30914285D02*
X1952380Y-30914285D01*
X1952380Y-30533333D01*
X2000000Y-30438095D01*
X2047619Y-30390476D01*
X2142857Y-30342857D01*
X2285714Y-30342857D01*
X2380952Y-30390476D01*
X2428571Y-30438095D01*
X2476190Y-30533333D01*
X2476190Y-30914285D01*
X1952380Y-30009523D02*
X1952380Y-29390476D01*
X2333333Y-29723809D01*
X2333333Y-29580952D01*
X2380952Y-29485714D01*
X2428571Y-29438095D01*
X2523809Y-29390476D01*
X2761904Y-29390476D01*
X2857142Y-29438095D01*
X2904761Y-29485714D01*
X2952380Y-29580952D01*
X2952380Y-29866666D01*
X2904761Y-29961904D01*
X2857142Y-30009523D01*
X1952380Y-29057142D02*
X1952380Y-28438095D01*
X2333333Y-28771428D01*
X2333333Y-28628571D01*
X2380952Y-28533333D01*
X2428571Y-28485714D01*
X2523809Y-28438095D01*
X2761904Y-28438095D01*
X2857142Y-28485714D01*
X2904761Y-28533333D01*
X2952380Y-28628571D01*
X2952380Y-28914285D01*
X2904761Y-29009523D01*
X2857142Y-29057142D01*
G04 #@! TO.C,R31*
X9102380Y-27192857D02*
X8626190Y-27526190D01*
X9102380Y-27764285D02*
X8102380Y-27764285D01*
X8102380Y-27383333D01*
X8150000Y-27288095D01*
X8197619Y-27240476D01*
X8292857Y-27192857D01*
X8435714Y-27192857D01*
X8530952Y-27240476D01*
X8578571Y-27288095D01*
X8626190Y-27383333D01*
X8626190Y-27764285D01*
X8102380Y-26859523D02*
X8102380Y-26240476D01*
X8483333Y-26573809D01*
X8483333Y-26430952D01*
X8530952Y-26335714D01*
X8578571Y-26288095D01*
X8673809Y-26240476D01*
X8911904Y-26240476D01*
X9007142Y-26288095D01*
X9054761Y-26335714D01*
X9102380Y-26430952D01*
X9102380Y-26716666D01*
X9054761Y-26811904D01*
X9007142Y-26859523D01*
X9102380Y-25288095D02*
X9102380Y-25859523D01*
X9102380Y-25573809D02*
X8102380Y-25573809D01*
X8245238Y-25669047D01*
X8340476Y-25764285D01*
X8388095Y-25859523D01*
G04 #@! TO.C,R7*
X6252380Y-31366666D02*
X5776190Y-31700000D01*
X6252380Y-31938095D02*
X5252380Y-31938095D01*
X5252380Y-31557142D01*
X5300000Y-31461904D01*
X5347619Y-31414285D01*
X5442857Y-31366666D01*
X5585714Y-31366666D01*
X5680952Y-31414285D01*
X5728571Y-31461904D01*
X5776190Y-31557142D01*
X5776190Y-31938095D01*
X5252380Y-31033333D02*
X5252380Y-30366666D01*
X6252380Y-30795238D01*
G04 #@! TO.C,R47*
X22252380Y-10692857D02*
X21776190Y-11026190D01*
X22252380Y-11264285D02*
X21252380Y-11264285D01*
X21252380Y-10883333D01*
X21300000Y-10788095D01*
X21347619Y-10740476D01*
X21442857Y-10692857D01*
X21585714Y-10692857D01*
X21680952Y-10740476D01*
X21728571Y-10788095D01*
X21776190Y-10883333D01*
X21776190Y-11264285D01*
X21585714Y-9835714D02*
X22252380Y-9835714D01*
X21204761Y-10073809D02*
X21919047Y-10311904D01*
X21919047Y-9692857D01*
X21252380Y-9407142D02*
X21252380Y-8740476D01*
X22252380Y-9169047D01*
G04 #@! TO.C,R11*
X20252380Y-45242857D02*
X19776190Y-45576190D01*
X20252380Y-45814285D02*
X19252380Y-45814285D01*
X19252380Y-45433333D01*
X19300000Y-45338095D01*
X19347619Y-45290476D01*
X19442857Y-45242857D01*
X19585714Y-45242857D01*
X19680952Y-45290476D01*
X19728571Y-45338095D01*
X19776190Y-45433333D01*
X19776190Y-45814285D01*
X20252380Y-44290476D02*
X20252380Y-44861904D01*
X20252380Y-44576190D02*
X19252380Y-44576190D01*
X19395238Y-44671428D01*
X19490476Y-44766666D01*
X19538095Y-44861904D01*
X20252380Y-43338095D02*
X20252380Y-43909523D01*
X20252380Y-43623809D02*
X19252380Y-43623809D01*
X19395238Y-43719047D01*
X19490476Y-43814285D01*
X19538095Y-43909523D01*
G04 #@! TO.C,Q2*
X3004761Y-32247619D02*
X2909523Y-32200000D01*
X2814285Y-32104761D01*
X2671428Y-31961904D01*
X2576190Y-31914285D01*
X2480952Y-31914285D01*
X2528571Y-32152380D02*
X2433333Y-32104761D01*
X2338095Y-32009523D01*
X2290476Y-31819047D01*
X2290476Y-31485714D01*
X2338095Y-31295238D01*
X2433333Y-31200000D01*
X2528571Y-31152380D01*
X2719047Y-31152380D01*
X2814285Y-31200000D01*
X2909523Y-31295238D01*
X2957142Y-31485714D01*
X2957142Y-31819047D01*
X2909523Y-32009523D01*
X2814285Y-32104761D01*
X2719047Y-32152380D01*
X2528571Y-32152380D01*
X3338095Y-31247619D02*
X3385714Y-31200000D01*
X3480952Y-31152380D01*
X3719047Y-31152380D01*
X3814285Y-31200000D01*
X3861904Y-31247619D01*
X3909523Y-31342857D01*
X3909523Y-31438095D01*
X3861904Y-31580952D01*
X3290476Y-32152380D01*
X3909523Y-32152380D01*
G04 #@! TO.C,U42*
X16602380Y-10138095D02*
X17411904Y-10138095D01*
X17507142Y-10090476D01*
X17554761Y-10042857D01*
X17602380Y-9947619D01*
X17602380Y-9757142D01*
X17554761Y-9661904D01*
X17507142Y-9614285D01*
X17411904Y-9566666D01*
X16602380Y-9566666D01*
X16935714Y-8661904D02*
X17602380Y-8661904D01*
X16554761Y-8900000D02*
X17269047Y-9138095D01*
X17269047Y-8519047D01*
X16697619Y-8185714D02*
X16650000Y-8138095D01*
X16602380Y-8042857D01*
X16602380Y-7804761D01*
X16650000Y-7709523D01*
X16697619Y-7661904D01*
X16792857Y-7614285D01*
X16888095Y-7614285D01*
X17030952Y-7661904D01*
X17602380Y-8233333D01*
X17602380Y-7614285D01*
G04 #@! TO.C,U40*
X11061904Y-12152380D02*
X11061904Y-12961904D01*
X11109523Y-13057142D01*
X11157142Y-13104761D01*
X11252380Y-13152380D01*
X11442857Y-13152380D01*
X11538095Y-13104761D01*
X11585714Y-13057142D01*
X11633333Y-12961904D01*
X11633333Y-12152380D01*
X12538095Y-12485714D02*
X12538095Y-13152380D01*
X12300000Y-12104761D02*
X12061904Y-12819047D01*
X12680952Y-12819047D01*
X13252380Y-12152380D02*
X13347619Y-12152380D01*
X13442857Y-12200000D01*
X13490476Y-12247619D01*
X13538095Y-12342857D01*
X13585714Y-12533333D01*
X13585714Y-12771428D01*
X13538095Y-12961904D01*
X13490476Y-13057142D01*
X13442857Y-13104761D01*
X13347619Y-13152380D01*
X13252380Y-13152380D01*
X13157142Y-13104761D01*
X13109523Y-13057142D01*
X13061904Y-12961904D01*
X13014285Y-12771428D01*
X13014285Y-12533333D01*
X13061904Y-12342857D01*
X13109523Y-12247619D01*
X13157142Y-12200000D01*
X13252380Y-12152380D01*
G04 #@! TO.C,SW1*
X9466666Y-53754761D02*
X9609523Y-53802380D01*
X9847619Y-53802380D01*
X9942857Y-53754761D01*
X9990476Y-53707142D01*
X10038095Y-53611904D01*
X10038095Y-53516666D01*
X9990476Y-53421428D01*
X9942857Y-53373809D01*
X9847619Y-53326190D01*
X9657142Y-53278571D01*
X9561904Y-53230952D01*
X9514285Y-53183333D01*
X9466666Y-53088095D01*
X9466666Y-52992857D01*
X9514285Y-52897619D01*
X9561904Y-52850000D01*
X9657142Y-52802380D01*
X9895238Y-52802380D01*
X10038095Y-52850000D01*
X10371428Y-52802380D02*
X10609523Y-53802380D01*
X10800000Y-53088095D01*
X10990476Y-53802380D01*
X11228571Y-52802380D01*
X12133333Y-53802380D02*
X11561904Y-53802380D01*
X11847619Y-53802380D02*
X11847619Y-52802380D01*
X11752380Y-52945238D01*
X11657142Y-53040476D01*
X11561904Y-53088095D01*
G04 #@! TO.C,L30*
X1257142Y-17702380D02*
X780952Y-17702380D01*
X780952Y-16702380D01*
X1495238Y-16702380D02*
X2114285Y-16702380D01*
X1780952Y-17083333D01*
X1923809Y-17083333D01*
X2019047Y-17130952D01*
X2066666Y-17178571D01*
X2114285Y-17273809D01*
X2114285Y-17511904D01*
X2066666Y-17607142D01*
X2019047Y-17654761D01*
X1923809Y-17702380D01*
X1638095Y-17702380D01*
X1542857Y-17654761D01*
X1495238Y-17607142D01*
X2733333Y-16702380D02*
X2828571Y-16702380D01*
X2923809Y-16750000D01*
X2971428Y-16797619D01*
X3019047Y-16892857D01*
X3066666Y-17083333D01*
X3066666Y-17321428D01*
X3019047Y-17511904D01*
X2971428Y-17607142D01*
X2923809Y-17654761D01*
X2828571Y-17702380D01*
X2733333Y-17702380D01*
X2638095Y-17654761D01*
X2590476Y-17607142D01*
X2542857Y-17511904D01*
X2495238Y-17321428D01*
X2495238Y-17083333D01*
X2542857Y-16892857D01*
X2590476Y-16797619D01*
X2638095Y-16750000D01*
X2733333Y-16702380D01*
G04 #@! TO.C,D30*
X9502380Y-21564285D02*
X8502380Y-21564285D01*
X8502380Y-21326190D01*
X8550000Y-21183333D01*
X8645238Y-21088095D01*
X8740476Y-21040476D01*
X8930952Y-20992857D01*
X9073809Y-20992857D01*
X9264285Y-21040476D01*
X9359523Y-21088095D01*
X9454761Y-21183333D01*
X9502380Y-21326190D01*
X9502380Y-21564285D01*
X8502380Y-20659523D02*
X8502380Y-20040476D01*
X8883333Y-20373809D01*
X8883333Y-20230952D01*
X8930952Y-20135714D01*
X8978571Y-20088095D01*
X9073809Y-20040476D01*
X9311904Y-20040476D01*
X9407142Y-20088095D01*
X9454761Y-20135714D01*
X9502380Y-20230952D01*
X9502380Y-20516666D01*
X9454761Y-20611904D01*
X9407142Y-20659523D01*
X8502380Y-19421428D02*
X8502380Y-19326190D01*
X8550000Y-19230952D01*
X8597619Y-19183333D01*
X8692857Y-19135714D01*
X8883333Y-19088095D01*
X9121428Y-19088095D01*
X9311904Y-19135714D01*
X9407142Y-19183333D01*
X9454761Y-19230952D01*
X9502380Y-19326190D01*
X9502380Y-19421428D01*
X9454761Y-19516666D01*
X9407142Y-19564285D01*
X9311904Y-19611904D01*
X9121428Y-19659523D01*
X8883333Y-19659523D01*
X8692857Y-19611904D01*
X8597619Y-19564285D01*
X8550000Y-19516666D01*
X8502380Y-19421428D01*
G04 #@! TO.C,D1*
X5561904Y-38752380D02*
X5561904Y-37752380D01*
X5800000Y-37752380D01*
X5942857Y-37800000D01*
X6038095Y-37895238D01*
X6085714Y-37990476D01*
X6133333Y-38180952D01*
X6133333Y-38323809D01*
X6085714Y-38514285D01*
X6038095Y-38609523D01*
X5942857Y-38704761D01*
X5800000Y-38752380D01*
X5561904Y-38752380D01*
X7085714Y-38752380D02*
X6514285Y-38752380D01*
X6800000Y-38752380D02*
X6800000Y-37752380D01*
X6704761Y-37895238D01*
X6609523Y-37990476D01*
X6514285Y-38038095D01*
G04 #@! TO.C,D45*
X58202380Y-55414285D02*
X57202380Y-55414285D01*
X57202380Y-55176190D01*
X57250000Y-55033333D01*
X57345238Y-54938095D01*
X57440476Y-54890476D01*
X57630952Y-54842857D01*
X57773809Y-54842857D01*
X57964285Y-54890476D01*
X58059523Y-54938095D01*
X58154761Y-55033333D01*
X58202380Y-55176190D01*
X58202380Y-55414285D01*
X57535714Y-53985714D02*
X58202380Y-53985714D01*
X57154761Y-54223809D02*
X57869047Y-54461904D01*
X57869047Y-53842857D01*
X57202380Y-52985714D02*
X57202380Y-53461904D01*
X57678571Y-53509523D01*
X57630952Y-53461904D01*
X57583333Y-53366666D01*
X57583333Y-53128571D01*
X57630952Y-53033333D01*
X57678571Y-52985714D01*
X57773809Y-52938095D01*
X58011904Y-52938095D01*
X58107142Y-52985714D01*
X58154761Y-53033333D01*
X58202380Y-53128571D01*
X58202380Y-53366666D01*
X58154761Y-53461904D01*
X58107142Y-53509523D01*
G04 #@! TO.C,D44*
X57002380Y-55414285D02*
X56002380Y-55414285D01*
X56002380Y-55176190D01*
X56050000Y-55033333D01*
X56145238Y-54938095D01*
X56240476Y-54890476D01*
X56430952Y-54842857D01*
X56573809Y-54842857D01*
X56764285Y-54890476D01*
X56859523Y-54938095D01*
X56954761Y-55033333D01*
X57002380Y-55176190D01*
X57002380Y-55414285D01*
X56335714Y-53985714D02*
X57002380Y-53985714D01*
X55954761Y-54223809D02*
X56669047Y-54461904D01*
X56669047Y-53842857D01*
X56335714Y-53033333D02*
X57002380Y-53033333D01*
X55954761Y-53271428D02*
X56669047Y-53509523D01*
X56669047Y-52890476D01*
G04 #@! TO.C,D4*
X12852380Y-42938095D02*
X11852380Y-42938095D01*
X11852380Y-42700000D01*
X11900000Y-42557142D01*
X11995238Y-42461904D01*
X12090476Y-42414285D01*
X12280952Y-42366666D01*
X12423809Y-42366666D01*
X12614285Y-42414285D01*
X12709523Y-42461904D01*
X12804761Y-42557142D01*
X12852380Y-42700000D01*
X12852380Y-42938095D01*
X12185714Y-41509523D02*
X12852380Y-41509523D01*
X11804761Y-41747619D02*
X12519047Y-41985714D01*
X12519047Y-41366666D01*
G04 #@! TO.C,D3*
X14202380Y-37938095D02*
X13202380Y-37938095D01*
X13202380Y-37700000D01*
X13250000Y-37557142D01*
X13345238Y-37461904D01*
X13440476Y-37414285D01*
X13630952Y-37366666D01*
X13773809Y-37366666D01*
X13964285Y-37414285D01*
X14059523Y-37461904D01*
X14154761Y-37557142D01*
X14202380Y-37700000D01*
X14202380Y-37938095D01*
X13202380Y-37033333D02*
X13202380Y-36414285D01*
X13583333Y-36747619D01*
X13583333Y-36604761D01*
X13630952Y-36509523D01*
X13678571Y-36461904D01*
X13773809Y-36414285D01*
X14011904Y-36414285D01*
X14107142Y-36461904D01*
X14154761Y-36509523D01*
X14202380Y-36604761D01*
X14202380Y-36890476D01*
X14154761Y-36985714D01*
X14107142Y-37033333D01*
G04 #@! TO.C,L10*
X31402380Y-49492857D02*
X31402380Y-49969047D01*
X30402380Y-49969047D01*
X31402380Y-48635714D02*
X31402380Y-49207142D01*
X31402380Y-48921428D02*
X30402380Y-48921428D01*
X30545238Y-49016666D01*
X30640476Y-49111904D01*
X30688095Y-49207142D01*
X30402380Y-48016666D02*
X30402380Y-47921428D01*
X30450000Y-47826190D01*
X30497619Y-47778571D01*
X30592857Y-47730952D01*
X30783333Y-47683333D01*
X31021428Y-47683333D01*
X31211904Y-47730952D01*
X31307142Y-47778571D01*
X31354761Y-47826190D01*
X31402380Y-47921428D01*
X31402380Y-48016666D01*
X31354761Y-48111904D01*
X31307142Y-48159523D01*
X31211904Y-48207142D01*
X31021428Y-48254761D01*
X30783333Y-48254761D01*
X30592857Y-48207142D01*
X30497619Y-48159523D01*
X30450000Y-48111904D01*
X30402380Y-48016666D01*
G04 #@! TD*
M02*
