M48
; DRILL file {KiCad 5.1.2-f72e74a~84~ubuntu16.04.1} date Die 14 Mai 2019 14:26:22 CEST
; FORMAT={3:3/ absolute / metric / keep zeros}
; #@! TF.CreationDate,2019-05-14T14:26:22+02:00
; #@! TF.GenerationSoftware,Kicad,Pcbnew,5.1.2-f72e74a~84~ubuntu16.04.1
FMAT,2
METRIC
T1C0.300
T2C0.400
T3C0.700
T4C1.000
T5C2.500
T6C3.200
%
G90
G05
T1
X025000Y-038150
X025000Y-039450
X040700Y-007300
X040700Y-008050
X040700Y-008800
X004975Y-026175
X004975Y-027175
X005475Y-026675
X005975Y-026175
X005975Y-027175
X024300Y-037700
X024300Y-038800
X024300Y-039900
X025700Y-037700
X025700Y-038800
X025700Y-039900
X040700Y-013850
X040700Y-014600
X040700Y-015350
X023700Y-045700
X023700Y-046500
X023700Y-047300
X023700Y-048100
X024500Y-045700
X024500Y-046500
X024500Y-047300
X024500Y-048100
T2
X001250Y-010700
X001250Y-010050
X001250Y-011350
X001250Y-012000
X001250Y-012650
X002650Y-037800
X002700Y-019500
X002700Y-021700
X002700Y-023300
X002700Y-027800
X002750Y-009400
X002750Y-013000
X002800Y-018200
X003050Y-023800
X003150Y-024400
X003150Y-027400
X003150Y-028200
X003300Y-019500
X003500Y-017450
X003650Y-021700
X003650Y-023350
X003650Y-023950
X003900Y-019500
X004150Y-022550
X004500Y-019500
X004500Y-022050
X004850Y-022550
X005100Y-019500
X005150Y-010350
X005250Y-014200
X005250Y-022050
X005600Y-007850
X005600Y-022550
X006600Y-018150
X006600Y-031800
X007475Y-007950
X007659Y-026280
X008200Y-037000
X008200Y-037650
X008300Y-033900
X008850Y-037000
X008850Y-037650
X009350Y-017400
X009400Y-016500
X009750Y-006800
X010150Y-044450
X010150Y-045150
X010200Y-020850
X010200Y-024400
X010500Y-014950
X010500Y-016200
X010550Y-051300
X010600Y-017100
X010600Y-032500
X010750Y-008950
X011050Y-010400
X011500Y-038100
X011700Y-036000
X011786Y-006464
X011850Y-045850
X012050Y-037350
X012400Y-012150
X012850Y-037300
X013000Y-031800
X013050Y-030200
X013100Y-051800
X013550Y-036900
X013700Y-020762
X013752Y-020013
X013850Y-019100
X013893Y-018000
X014000Y-031750
X014100Y-016250
X014100Y-036350
X014150Y-045350
X014300Y-017300
X014400Y-014200
X014450Y-018550
X014700Y-035250
X014700Y-047050
X014750Y-001600
X014850Y-036500
X014850Y-037150
X014900Y-031700
X014950Y-033600
X015150Y-014750
X015250Y-047600
X015300Y-010150
X015300Y-032900
X015300Y-046500
X015350Y-035250
X015450Y-036700
X015550Y-031300
X015900Y-037150
X015900Y-052100
X015950Y-020250
X015950Y-048050
X015950Y-050050
X016000Y-006400
X016000Y-035250
X016050Y-036500
X016500Y-019700
X016550Y-030200
X017200Y-044400
X017225Y-018425
X017250Y-001700
X017550Y-029750
X018100Y-018375
X018150Y-007900
X018300Y-029750
X018400Y-032150
X018500Y-010300
X018700Y-013950
X018862Y-030326
X019100Y-010900
X019400Y-019450
X019602Y-030203
X019950Y-011100
X020000Y-018900
X020050Y-044400
X020100Y-027100
X020400Y-030200
X020600Y-018350
X020846Y-032716
X020926Y-030734
X021009Y-027083
X021100Y-036850
X021200Y-017850
X021200Y-044700
X021518Y-031196
X021700Y-046250
X021800Y-017350
X022000Y-044800
X022245Y-031381
X022400Y-016850
X022800Y-010550
X022850Y-051900
X022861Y-030953
X023000Y-014850
X023300Y-040000
X023600Y-014300
X023609Y-030896
X023655Y-030148
X023700Y-044900
X024100Y-010200
X024250Y-019400
X024450Y-018050
X024450Y-030150
X024500Y-044900
X024650Y-015750
X024665Y-027360
X024700Y-014050
X025300Y-018200
X025550Y-019700
X025600Y-014050
X026150Y-044850
X026273Y-015727
X026300Y-016500
X026750Y-019250
X027200Y-012550
X027565Y-028025
X028200Y-045500
X028400Y-007450
X028600Y-053300
X028850Y-045500
X029000Y-010200
X029100Y-012750
X029250Y-023100
X029350Y-024050
X029500Y-043700
X029500Y-044300
X029500Y-044900
X029500Y-045500
X029650Y-016650
X029750Y-028700
X029951Y-012826
X030050Y-010600
X030150Y-043700
X030150Y-044300
X030150Y-044900
X030150Y-045500
X030300Y-023250
X030700Y-036250
X030700Y-036900
X030700Y-037550
X031000Y-019244
X031350Y-036250
X031350Y-036900
X031350Y-037550
X031600Y-024250
X032050Y-007000
X032300Y-043500
X032300Y-044100
X032300Y-044700
X032300Y-045300
X032750Y-019350
X032900Y-043500
X032900Y-044100
X032900Y-044700
X032900Y-045300
X033150Y-028000
X033500Y-015750
X033500Y-043500
X033500Y-044100
X033500Y-044700
X033500Y-045300
X033550Y-014500
X033550Y-035200
X033550Y-035800
X033550Y-036400
X033550Y-037000
X033550Y-037600
X033650Y-010575
X033900Y-016450
X034100Y-043500
X034100Y-044100
X034100Y-044700
X034100Y-045300
X034350Y-014500
X034450Y-028050
X034450Y-034350
X034600Y-050000
X034600Y-050650
X034600Y-051300
X034600Y-051950
X034700Y-015200
X034700Y-044100
X034700Y-044700
X034700Y-045300
X034750Y-035250
X035050Y-004150
X035250Y-050000
X035250Y-050650
X035250Y-051300
X035250Y-051950
X035550Y-016750
X035550Y-023550
X035800Y-029500
X036350Y-019450
X036800Y-007450
X036800Y-013900
X037100Y-041550
X037275Y-019450
X037400Y-029600
X037400Y-035700
X037568Y-015018
X037602Y-016099
X037642Y-008802
X037700Y-009550
X037945Y-012275
X038100Y-029300
X038100Y-036000
X038250Y-008250
X038300Y-013500
X038400Y-027200
X038450Y-014800
X038650Y-028650
X038900Y-012400
X039200Y-027200
X039200Y-028050
X039300Y-035750
X039950Y-018550
X039950Y-019200
X040050Y-011950
X040050Y-012600
X040233Y-035617
X040450Y-024500
X040550Y-049900
X041450Y-029600
X041450Y-030250
X041450Y-030900
X041450Y-031550
X041900Y-011750
X041900Y-018450
X042100Y-027700
X042100Y-028350
X042100Y-030250
X042100Y-030900
X042100Y-031550
X042100Y-032200
X042500Y-011450
X042500Y-012100
X042500Y-018130
X042500Y-018800
X042650Y-001800
X042750Y-028350
X042750Y-029000
X042750Y-030900
X042750Y-031550
X042750Y-032200
X045300Y-006600
X045700Y-045800
X050300Y-045600
X050450Y-013750
X052150Y-007050
X053000Y-007100
X053300Y-027400
X053300Y-030500
X053300Y-033600
X053300Y-036700
X053300Y-039800
X054550Y-048700
X054550Y-054700
X055050Y-050950
X055050Y-054100
X055650Y-051500
X056450Y-022200
X056500Y-012050
X056500Y-017150
X056550Y-041350
X056550Y-046450
X056600Y-028900
X056700Y-034100
X058000Y-054950
T3
X032950Y-024150
X037950Y-024150
T4
X036550Y-037760
X039090Y-037760
X041630Y-037760
X044170Y-037760
X046710Y-037760
X049250Y-037760
X060700Y-008320
X060700Y-010860
X060700Y-013400
X060700Y-015940
X060700Y-018480
X060700Y-021020
X060700Y-023560
X060700Y-026100
X063240Y-008320
X063240Y-010860
X063240Y-013400
X063240Y-015940
X063240Y-018480
X063240Y-021020
X063240Y-023560
X063240Y-026100
X020550Y-054250
X023090Y-054250
X060700Y-029890
X060700Y-032430
X060700Y-034970
X060700Y-037510
X060700Y-040050
X060700Y-042590
X060700Y-045130
X060700Y-047670
X063240Y-029890
X063240Y-032430
X063240Y-034970
X063240Y-037510
X063240Y-040050
X063240Y-042590
X063240Y-045130
X063240Y-047670
X046710Y-046630
X046710Y-049170
X046710Y-051710
X046710Y-054250
X036550Y-040300
X039090Y-040300
X041630Y-040300
X044170Y-040300
X046710Y-040300
X049250Y-040300
X044170Y-007280
X044170Y-009820
X044170Y-012360
X044170Y-014900
X010850Y-029000
X049250Y-007280
X049250Y-009820
X049250Y-012360
X049250Y-014900
X046710Y-018680
X046710Y-021220
X046710Y-023760
X046710Y-026300
X046710Y-028840
X046710Y-031380
X049250Y-018680
X049250Y-021220
X049250Y-023760
X049250Y-026300
X049250Y-028840
X049250Y-031380
X055620Y-029890
X055620Y-032430
X055620Y-034970
X055620Y-037510
X055620Y-040050
X055620Y-042590
X055620Y-045130
X055620Y-047670
X055620Y-008320
X055620Y-010860
X055620Y-013400
X055620Y-015940
X055620Y-018480
X055620Y-021020
X055620Y-023560
X055620Y-026100
X036550Y-042840
X039090Y-042840
X041630Y-042840
X044170Y-042840
X046710Y-042840
X049250Y-042840
X044170Y-018680
X044170Y-021220
X044170Y-023760
X044170Y-026300
X044170Y-028840
X044170Y-031380
X027380Y-054250
X029920Y-054250
X032460Y-054250
X035000Y-054250
X041630Y-046630
X041630Y-049170
X041630Y-051710
X041630Y-054250
X049250Y-046630
X049250Y-049170
X049250Y-051710
X049250Y-054250
X008370Y-002230
X008370Y-004770
X010910Y-002230
X010910Y-004770
X013450Y-002230
X013450Y-004770
X015990Y-002230
X015990Y-004770
X018530Y-002230
X018530Y-004770
X021070Y-002230
X021070Y-004770
X023610Y-002230
X023610Y-004770
X026150Y-002230
X026150Y-004770
X028690Y-002230
X028690Y-004770
X031230Y-002230
X031230Y-004770
X033770Y-002230
X033770Y-004770
X036310Y-002230
X036310Y-004770
X038850Y-002230
X038850Y-004770
X041390Y-002230
X041390Y-004770
X043930Y-002230
X043930Y-004770
X046470Y-002230
X046470Y-004770
X049010Y-002230
X049010Y-004770
X051550Y-002230
X051550Y-004770
X054090Y-002230
X054090Y-004770
X056630Y-002230
X056630Y-004770
T5
X003000Y-042940
X003000Y-046900
T6
X061500Y-052500
X003500Y-052500
X061500Y-003500
X003500Y-003500
T0
M30
