M48
; DRILL file {KiCad 5.1.2-f72e74a~84~ubuntu16.04.1} date Mon 13 Mai 2019 00:21:58 CEST
; FORMAT={-:-/ absolute / metric / decimal}
; #@! TF.CreationDate,2019-05-13T00:21:58+02:00
; #@! TF.GenerationSoftware,Kicad,Pcbnew,5.1.2-f72e74a~84~ubuntu16.04.1
FMAT,2
METRIC
T1C0.300
T2C0.400
T3C0.700
T4C1.000
T5C2.500
T6C3.200
%
G90
G05
T1
X25.0Y-38.15
X25.0Y-39.45
X40.7Y-13.85
X40.7Y-14.6
X40.7Y-15.35
X4.975Y-26.175
X4.975Y-27.175
X5.475Y-26.675
X5.975Y-26.175
X5.975Y-27.175
X24.3Y-37.7
X24.3Y-38.8
X24.3Y-39.9
X25.7Y-37.7
X25.7Y-38.8
X25.7Y-39.9
X23.7Y-45.7
X23.7Y-46.5
X23.7Y-47.3
X23.7Y-48.1
X24.5Y-45.7
X24.5Y-46.5
X24.5Y-47.3
X24.5Y-48.1
X40.7Y-7.3
X40.7Y-8.05
X40.7Y-8.8
T2
X1.25Y-10.7
X1.25Y-10.05
X1.25Y-11.35
X1.25Y-12.0
X1.25Y-12.65
X2.65Y-37.8
X2.7Y-19.5
X2.7Y-21.7
X2.7Y-23.3
X2.7Y-27.8
X2.75Y-9.4
X2.75Y-13.0
X2.8Y-18.2
X3.05Y-23.8
X3.15Y-24.4
X3.15Y-27.4
X3.15Y-28.2
X3.3Y-19.5
X3.5Y-17.45
X3.65Y-21.7
X3.65Y-23.35
X3.65Y-23.95
X3.9Y-19.5
X4.15Y-22.55
X4.5Y-19.5
X4.5Y-22.05
X4.85Y-22.55
X5.1Y-19.5
X5.15Y-10.35
X5.25Y-14.2
X5.25Y-22.05
X5.6Y-7.85
X5.6Y-22.55
X6.6Y-18.15
X6.6Y-31.8
X7.475Y-7.95
X7.659Y-26.28
X8.2Y-37.0
X8.2Y-37.65
X8.3Y-33.9
X8.85Y-37.0
X8.85Y-37.65
X9.35Y-17.4
X9.4Y-16.5
X9.75Y-6.8
X10.15Y-44.45
X10.15Y-45.15
X10.2Y-20.85
X10.2Y-24.4
X10.5Y-14.95
X10.5Y-16.2
X10.55Y-51.3
X10.6Y-17.1
X10.6Y-32.5
X10.75Y-8.95
X11.05Y-10.4
X11.5Y-38.1
X11.7Y-36.0
X11.786Y-6.464
X11.85Y-45.85
X12.05Y-37.35
X12.4Y-12.15
X12.85Y-37.3
X13.0Y-31.8
X13.05Y-30.2
X13.1Y-51.8
X13.55Y-36.9
X13.7Y-20.762
X13.752Y-20.013
X13.85Y-19.1
X13.893Y-18.0
X14.0Y-31.75
X14.1Y-16.25
X14.1Y-36.35
X14.15Y-45.35
X14.3Y-17.3
X14.4Y-14.2
X14.45Y-18.55
X14.7Y-35.25
X14.7Y-47.05
X14.75Y-1.6
X14.85Y-36.5
X14.85Y-37.15
X14.9Y-31.7
X14.95Y-33.6
X15.15Y-14.75
X15.25Y-47.6
X15.3Y-10.15
X15.3Y-32.9
X15.3Y-46.5
X15.35Y-35.25
X15.45Y-36.7
X15.55Y-31.3
X15.9Y-37.15
X15.9Y-52.1
X15.95Y-20.25
X15.95Y-48.05
X15.95Y-50.05
X16.0Y-6.4
X16.0Y-35.25
X16.05Y-36.5
X16.5Y-19.7
X16.55Y-30.2
X17.2Y-44.4
X17.225Y-18.425
X17.25Y-1.7
X17.55Y-29.75
X18.1Y-18.375
X18.15Y-7.9
X18.3Y-29.75
X18.4Y-32.15
X18.5Y-10.3
X18.7Y-13.95
X18.862Y-30.325
X19.1Y-10.9
X19.4Y-19.45
X19.602Y-30.203
X19.95Y-11.1
X20.0Y-18.9
X20.05Y-44.4
X20.1Y-27.1
X20.4Y-30.2
X20.6Y-18.35
X20.846Y-32.716
X20.926Y-30.734
X21.009Y-27.083
X21.1Y-36.85
X21.2Y-17.85
X21.2Y-44.7
X21.518Y-31.196
X21.7Y-46.25
X21.8Y-17.35
X22.0Y-44.8
X22.245Y-31.381
X22.4Y-16.85
X22.8Y-10.55
X22.85Y-51.9
X22.861Y-30.953
X23.0Y-14.85
X23.3Y-40.0
X23.6Y-14.3
X23.609Y-30.896
X23.655Y-30.148
X23.7Y-44.9
X24.1Y-10.2
X24.25Y-19.4
X24.45Y-18.05
X24.45Y-30.15
X24.5Y-44.9
X24.65Y-15.75
X24.665Y-27.36
X24.7Y-14.05
X25.3Y-18.2
X25.55Y-19.7
X25.6Y-14.05
X26.15Y-44.85
X26.273Y-15.727
X26.3Y-16.5
X26.75Y-19.25
X27.2Y-12.55
X27.565Y-28.025
X28.2Y-45.5
X28.4Y-7.45
X28.6Y-53.3
X28.85Y-45.5
X29.0Y-10.2
X29.1Y-12.75
X29.25Y-23.1
X29.35Y-24.05
X29.5Y-43.7
X29.5Y-44.3
X29.5Y-44.9
X29.5Y-45.5
X29.65Y-16.65
X29.75Y-28.7
X29.951Y-12.826
X30.05Y-10.6
X30.15Y-43.7
X30.15Y-44.3
X30.15Y-44.9
X30.15Y-45.5
X30.3Y-23.25
X30.7Y-36.25
X30.7Y-36.9
X30.7Y-37.55
X31.0Y-19.244
X31.35Y-36.25
X31.35Y-36.9
X31.35Y-37.55
X31.6Y-24.25
X32.05Y-7.0
X32.3Y-43.5
X32.3Y-44.1
X32.3Y-44.7
X32.3Y-45.3
X32.75Y-19.35
X32.9Y-43.5
X32.9Y-44.1
X32.9Y-44.7
X32.9Y-45.3
X33.15Y-28.0
X33.5Y-15.75
X33.5Y-43.5
X33.5Y-44.1
X33.5Y-44.7
X33.5Y-45.3
X33.55Y-14.5
X33.55Y-35.2
X33.55Y-35.8
X33.55Y-36.4
X33.55Y-37.0
X33.55Y-37.6
X33.65Y-10.575
X33.9Y-16.45
X34.1Y-43.5
X34.1Y-44.1
X34.1Y-44.7
X34.1Y-45.3
X34.35Y-14.5
X34.45Y-28.05
X34.45Y-34.35
X34.6Y-50.0
X34.6Y-50.65
X34.6Y-51.3
X34.6Y-51.95
X34.7Y-15.2
X34.7Y-44.1
X34.7Y-44.7
X34.7Y-45.3
X34.75Y-35.25
X35.05Y-4.15
X35.25Y-50.0
X35.25Y-50.65
X35.25Y-51.3
X35.25Y-51.95
X35.55Y-16.75
X35.55Y-23.55
X35.8Y-29.5
X36.35Y-19.45
X36.8Y-7.45
X36.8Y-13.9
X37.1Y-41.55
X37.275Y-19.45
X37.4Y-29.6
X37.4Y-35.7
X37.568Y-15.018
X37.602Y-16.099
X37.642Y-8.802
X37.7Y-9.55
X37.945Y-12.275
X38.1Y-29.3
X38.1Y-36.0
X38.25Y-8.25
X38.3Y-13.5
X38.4Y-27.2
X38.45Y-14.8
X38.65Y-28.65
X38.9Y-12.4
X39.2Y-27.2
X39.2Y-28.05
X39.3Y-35.75
X39.95Y-18.55
X39.95Y-19.2
X40.05Y-11.95
X40.05Y-12.6
X40.233Y-35.617
X40.45Y-24.5
X40.55Y-49.9
X41.4Y-29.6
X41.4Y-30.25
X41.45Y-30.9
X41.45Y-31.55
X41.9Y-11.75
X41.9Y-18.45
X42.1Y-27.7
X42.1Y-28.35
X42.1Y-30.25
X42.1Y-30.9
X42.1Y-31.55
X42.1Y-32.2
X42.5Y-11.45
X42.5Y-12.1
X42.5Y-18.13
X42.5Y-18.8
X42.65Y-1.8
X42.75Y-28.35
X42.75Y-29.0
X42.75Y-30.9
X42.75Y-31.55
X42.75Y-32.2
X45.3Y-6.6
X45.7Y-45.8
X50.3Y-45.6
X50.45Y-13.75
X52.15Y-7.05
X53.0Y-7.1
X53.3Y-27.4
X53.3Y-30.5
X53.3Y-33.6
X53.3Y-36.7
X53.3Y-39.8
X54.55Y-48.7
X54.55Y-54.7
X55.05Y-50.95
X55.05Y-54.1
X55.65Y-51.5
X56.45Y-22.2
X56.5Y-12.05
X56.5Y-17.15
X56.55Y-41.35
X56.55Y-46.45
X56.6Y-28.9
X56.7Y-34.1
X58.0Y-54.95
T3
X32.95Y-24.15
X37.95Y-24.15
T4
X36.55Y-40.3
X39.09Y-40.3
X41.63Y-40.3
X44.17Y-40.3
X46.71Y-40.3
X49.25Y-40.3
X49.25Y-46.63
X49.25Y-49.17
X49.25Y-51.71
X49.25Y-54.25
X36.55Y-37.76
X39.09Y-37.76
X41.63Y-37.76
X44.17Y-37.76
X46.71Y-37.76
X49.25Y-37.76
X20.55Y-54.25
X23.09Y-54.25
X46.71Y-46.63
X46.71Y-49.17
X46.71Y-51.71
X46.71Y-54.25
X46.71Y-18.68
X46.71Y-21.22
X46.71Y-23.76
X46.71Y-26.3
X46.71Y-28.84
X46.71Y-31.38
X49.25Y-18.68
X49.25Y-21.22
X49.25Y-23.76
X49.25Y-26.3
X49.25Y-28.84
X49.25Y-31.38
X41.63Y-46.63
X41.63Y-49.17
X41.63Y-51.71
X41.63Y-54.25
X60.7Y-8.32
X60.7Y-10.86
X60.7Y-13.4
X60.7Y-15.94
X60.7Y-18.48
X60.7Y-21.02
X60.7Y-23.56
X60.7Y-26.1
X63.24Y-8.32
X63.24Y-10.86
X63.24Y-13.4
X63.24Y-15.94
X63.24Y-18.48
X63.24Y-21.02
X63.24Y-23.56
X63.24Y-26.1
X60.7Y-29.89
X60.7Y-32.43
X60.7Y-34.97
X60.7Y-37.51
X60.7Y-40.05
X60.7Y-42.59
X60.7Y-45.13
X60.7Y-47.67
X63.24Y-29.89
X63.24Y-32.43
X63.24Y-34.97
X63.24Y-37.51
X63.24Y-40.05
X63.24Y-42.59
X63.24Y-45.13
X63.24Y-47.67
X49.25Y-7.28
X49.25Y-9.82
X49.25Y-12.36
X49.25Y-14.9
X44.17Y-7.28
X44.17Y-9.82
X44.17Y-12.36
X44.17Y-14.9
X36.55Y-42.84
X39.09Y-42.84
X41.63Y-42.84
X44.17Y-42.84
X46.71Y-42.84
X49.25Y-42.84
X10.85Y-29.0
X8.37Y-2.23
X8.37Y-4.77
X10.91Y-2.23
X10.91Y-4.77
X13.45Y-2.23
X13.45Y-4.77
X15.99Y-2.23
X15.99Y-4.77
X18.53Y-2.23
X18.53Y-4.77
X21.07Y-2.23
X21.07Y-4.77
X23.61Y-2.23
X23.61Y-4.77
X26.15Y-2.23
X26.15Y-4.77
X28.69Y-2.23
X28.69Y-4.77
X31.23Y-2.23
X31.23Y-4.77
X33.77Y-2.23
X33.77Y-4.77
X36.31Y-2.23
X36.31Y-4.77
X38.85Y-2.23
X38.85Y-4.77
X41.39Y-2.23
X41.39Y-4.77
X43.93Y-2.23
X43.93Y-4.77
X46.47Y-2.23
X46.47Y-4.77
X49.01Y-2.23
X49.01Y-4.77
X51.55Y-2.23
X51.55Y-4.77
X54.09Y-2.23
X54.09Y-4.77
X56.63Y-2.23
X56.63Y-4.77
X27.38Y-54.25
X29.92Y-54.25
X32.46Y-54.25
X35.0Y-54.25
X55.62Y-29.89
X55.62Y-32.43
X55.62Y-34.97
X55.62Y-37.51
X55.62Y-40.05
X55.62Y-42.59
X55.62Y-45.13
X55.62Y-47.67
X55.62Y-8.32
X55.62Y-10.86
X55.62Y-13.4
X55.62Y-15.94
X55.62Y-18.48
X55.62Y-21.02
X55.62Y-23.56
X55.62Y-26.1
X44.17Y-18.68
X44.17Y-21.22
X44.17Y-23.76
X44.17Y-26.3
X44.17Y-28.84
X44.17Y-31.38
T5
X3.0Y-42.94
X3.0Y-46.9
T6
X61.5Y-52.5
X3.5Y-52.5
X61.5Y-3.5
X3.5Y-3.5
T0
M30
