G04 #@! TF.GenerationSoftware,KiCad,Pcbnew,5.1.2-f72e74a~84~ubuntu16.04.1*
G04 #@! TF.CreationDate,2019-05-14T01:32:12+02:00*
G04 #@! TF.ProjectId,Hedgehog,48656467-6568-46f6-972e-6b696361645f,1.0*
G04 #@! TF.SameCoordinates,PX7270e00PY47868c0*
G04 #@! TF.FileFunction,Soldermask,Bot*
G04 #@! TF.FilePolarity,Negative*
%FSLAX46Y46*%
G04 Gerber Fmt 4.6, Leading zero omitted, Abs format (unit mm)*
G04 Created by KiCad (PCBNEW 5.1.2-f72e74a~84~ubuntu16.04.1) date 2019-05-14 01:32:12*
%MOMM*%
%LPD*%
G04 APERTURE LIST*
%ADD10C,0.100000*%
G04 APERTURE END LIST*
D10*
G36*
X62048590Y-49346430D02*
G01*
X62433406Y-49422975D01*
X63015768Y-49664197D01*
X63526584Y-50005513D01*
X63539882Y-50014399D01*
X63985601Y-50460118D01*
X64335803Y-50984232D01*
X64577025Y-51566594D01*
X64700000Y-52184829D01*
X64700000Y-52815171D01*
X64577025Y-53433406D01*
X64550245Y-53498058D01*
X64335803Y-54015768D01*
X63985602Y-54539881D01*
X63539881Y-54985602D01*
X63313332Y-55136977D01*
X63015768Y-55335803D01*
X62433406Y-55577025D01*
X62124289Y-55638512D01*
X61815172Y-55700000D01*
X61184828Y-55700000D01*
X60875711Y-55638512D01*
X60566594Y-55577025D01*
X59984232Y-55335803D01*
X59686668Y-55136977D01*
X59460119Y-54985602D01*
X59014398Y-54539881D01*
X58664197Y-54015768D01*
X58449755Y-53498058D01*
X58422975Y-53433406D01*
X58300000Y-52815171D01*
X58300000Y-52184829D01*
X58422975Y-51566594D01*
X58664197Y-50984232D01*
X59014399Y-50460118D01*
X59460118Y-50014399D01*
X59473417Y-50005513D01*
X59984232Y-49664197D01*
X60566594Y-49422975D01*
X60951410Y-49346430D01*
X61184828Y-49300000D01*
X61815172Y-49300000D01*
X62048590Y-49346430D01*
X62048590Y-49346430D01*
G37*
G36*
X4048590Y-49346430D02*
G01*
X4433406Y-49422975D01*
X5015768Y-49664197D01*
X5526584Y-50005513D01*
X5539882Y-50014399D01*
X5985601Y-50460118D01*
X6335803Y-50984232D01*
X6577025Y-51566594D01*
X6700000Y-52184829D01*
X6700000Y-52815171D01*
X6577025Y-53433406D01*
X6550245Y-53498058D01*
X6335803Y-54015768D01*
X5985602Y-54539881D01*
X5539881Y-54985602D01*
X5313332Y-55136977D01*
X5015768Y-55335803D01*
X4433406Y-55577025D01*
X4124289Y-55638512D01*
X3815172Y-55700000D01*
X3184828Y-55700000D01*
X2875711Y-55638512D01*
X2566594Y-55577025D01*
X1984232Y-55335803D01*
X1686668Y-55136977D01*
X1460119Y-54985602D01*
X1014398Y-54539881D01*
X664197Y-54015768D01*
X449755Y-53498058D01*
X422975Y-53433406D01*
X300000Y-52815171D01*
X300000Y-52184829D01*
X422975Y-51566594D01*
X664197Y-50984232D01*
X1014399Y-50460118D01*
X1460118Y-50014399D01*
X1473417Y-50005513D01*
X1984232Y-49664197D01*
X2566594Y-49422975D01*
X2951410Y-49346430D01*
X3184828Y-49300000D01*
X3815172Y-49300000D01*
X4048590Y-49346430D01*
X4048590Y-49346430D01*
G37*
G36*
X35900000Y-55150000D02*
G01*
X34100000Y-55150000D01*
X34100000Y-53350000D01*
X35900000Y-53350000D01*
X35900000Y-55150000D01*
X35900000Y-55150000D01*
G37*
G36*
X20726431Y-53363023D02*
G01*
X20872216Y-53407247D01*
X20896085Y-53414487D01*
X21007046Y-53473798D01*
X21052432Y-53498057D01*
X21052434Y-53498058D01*
X21052433Y-53498058D01*
X21189475Y-53610525D01*
X21301942Y-53747567D01*
X21385513Y-53903915D01*
X21385514Y-53903919D01*
X21436977Y-54073569D01*
X21454354Y-54250000D01*
X21436977Y-54426431D01*
X21402562Y-54539881D01*
X21385513Y-54596085D01*
X21326202Y-54707046D01*
X21301943Y-54752432D01*
X21189475Y-54889475D01*
X21052432Y-55001943D01*
X21007046Y-55026202D01*
X20896085Y-55085513D01*
X20872216Y-55092753D01*
X20726431Y-55136977D01*
X20594207Y-55150000D01*
X20505793Y-55150000D01*
X20373569Y-55136977D01*
X20227784Y-55092753D01*
X20203915Y-55085513D01*
X20092954Y-55026202D01*
X20047568Y-55001943D01*
X19910525Y-54889475D01*
X19798057Y-54752432D01*
X19773798Y-54707046D01*
X19714487Y-54596085D01*
X19697438Y-54539881D01*
X19663023Y-54426431D01*
X19645646Y-54250000D01*
X19663023Y-54073569D01*
X19714486Y-53903919D01*
X19714487Y-53903915D01*
X19798058Y-53747567D01*
X19910525Y-53610525D01*
X20047567Y-53498058D01*
X20047566Y-53498058D01*
X20047568Y-53498057D01*
X20092954Y-53473798D01*
X20203915Y-53414487D01*
X20227784Y-53407247D01*
X20373569Y-53363023D01*
X20505793Y-53350000D01*
X20594207Y-53350000D01*
X20726431Y-53363023D01*
X20726431Y-53363023D01*
G37*
G36*
X23990000Y-55150000D02*
G01*
X22190000Y-55150000D01*
X22190000Y-53350000D01*
X23990000Y-53350000D01*
X23990000Y-55150000D01*
X23990000Y-55150000D01*
G37*
G36*
X42530000Y-55150000D02*
G01*
X40730000Y-55150000D01*
X40730000Y-53350000D01*
X42530000Y-53350000D01*
X42530000Y-55150000D01*
X42530000Y-55150000D01*
G37*
G36*
X47610000Y-55150000D02*
G01*
X45810000Y-55150000D01*
X45810000Y-53350000D01*
X47610000Y-53350000D01*
X47610000Y-55150000D01*
X47610000Y-55150000D01*
G37*
G36*
X27556431Y-53363023D02*
G01*
X27702216Y-53407247D01*
X27726085Y-53414487D01*
X27837046Y-53473798D01*
X27882432Y-53498057D01*
X27882434Y-53498058D01*
X27882433Y-53498058D01*
X28019475Y-53610525D01*
X28131942Y-53747567D01*
X28215513Y-53903915D01*
X28215514Y-53903919D01*
X28266977Y-54073569D01*
X28284354Y-54250000D01*
X28266977Y-54426431D01*
X28232562Y-54539881D01*
X28215513Y-54596085D01*
X28156202Y-54707046D01*
X28131943Y-54752432D01*
X28019475Y-54889475D01*
X27882432Y-55001943D01*
X27837046Y-55026202D01*
X27726085Y-55085513D01*
X27702216Y-55092753D01*
X27556431Y-55136977D01*
X27424207Y-55150000D01*
X27335793Y-55150000D01*
X27203569Y-55136977D01*
X27057784Y-55092753D01*
X27033915Y-55085513D01*
X26922954Y-55026202D01*
X26877568Y-55001943D01*
X26740525Y-54889475D01*
X26628057Y-54752432D01*
X26603798Y-54707046D01*
X26544487Y-54596085D01*
X26527438Y-54539881D01*
X26493023Y-54426431D01*
X26475646Y-54250000D01*
X26493023Y-54073569D01*
X26544486Y-53903919D01*
X26544487Y-53903915D01*
X26628058Y-53747567D01*
X26740525Y-53610525D01*
X26877567Y-53498058D01*
X26877566Y-53498058D01*
X26877568Y-53498057D01*
X26922954Y-53473798D01*
X27033915Y-53414487D01*
X27057784Y-53407247D01*
X27203569Y-53363023D01*
X27335793Y-53350000D01*
X27424207Y-53350000D01*
X27556431Y-53363023D01*
X27556431Y-53363023D01*
G37*
G36*
X30096431Y-53363023D02*
G01*
X30242216Y-53407247D01*
X30266085Y-53414487D01*
X30377046Y-53473798D01*
X30422432Y-53498057D01*
X30422434Y-53498058D01*
X30422433Y-53498058D01*
X30559475Y-53610525D01*
X30671942Y-53747567D01*
X30755513Y-53903915D01*
X30755514Y-53903919D01*
X30806977Y-54073569D01*
X30824354Y-54250000D01*
X30806977Y-54426431D01*
X30772562Y-54539881D01*
X30755513Y-54596085D01*
X30696202Y-54707046D01*
X30671943Y-54752432D01*
X30559475Y-54889475D01*
X30422432Y-55001943D01*
X30377046Y-55026202D01*
X30266085Y-55085513D01*
X30242216Y-55092753D01*
X30096431Y-55136977D01*
X29964207Y-55150000D01*
X29875793Y-55150000D01*
X29743569Y-55136977D01*
X29597784Y-55092753D01*
X29573915Y-55085513D01*
X29462954Y-55026202D01*
X29417568Y-55001943D01*
X29280525Y-54889475D01*
X29168057Y-54752432D01*
X29143798Y-54707046D01*
X29084487Y-54596085D01*
X29067438Y-54539881D01*
X29033023Y-54426431D01*
X29015646Y-54250000D01*
X29033023Y-54073569D01*
X29084486Y-53903919D01*
X29084487Y-53903915D01*
X29168058Y-53747567D01*
X29280525Y-53610525D01*
X29417567Y-53498058D01*
X29417566Y-53498058D01*
X29417568Y-53498057D01*
X29462954Y-53473798D01*
X29573915Y-53414487D01*
X29597784Y-53407247D01*
X29743569Y-53363023D01*
X29875793Y-53350000D01*
X29964207Y-53350000D01*
X30096431Y-53363023D01*
X30096431Y-53363023D01*
G37*
G36*
X32636431Y-53363023D02*
G01*
X32782216Y-53407247D01*
X32806085Y-53414487D01*
X32917046Y-53473798D01*
X32962432Y-53498057D01*
X32962434Y-53498058D01*
X32962433Y-53498058D01*
X33099475Y-53610525D01*
X33211942Y-53747567D01*
X33295513Y-53903915D01*
X33295514Y-53903919D01*
X33346977Y-54073569D01*
X33364354Y-54250000D01*
X33346977Y-54426431D01*
X33312562Y-54539881D01*
X33295513Y-54596085D01*
X33236202Y-54707046D01*
X33211943Y-54752432D01*
X33099475Y-54889475D01*
X32962432Y-55001943D01*
X32917046Y-55026202D01*
X32806085Y-55085513D01*
X32782216Y-55092753D01*
X32636431Y-55136977D01*
X32504207Y-55150000D01*
X32415793Y-55150000D01*
X32283569Y-55136977D01*
X32137784Y-55092753D01*
X32113915Y-55085513D01*
X32002954Y-55026202D01*
X31957568Y-55001943D01*
X31820525Y-54889475D01*
X31708057Y-54752432D01*
X31683798Y-54707046D01*
X31624487Y-54596085D01*
X31607438Y-54539881D01*
X31573023Y-54426431D01*
X31555646Y-54250000D01*
X31573023Y-54073569D01*
X31624486Y-53903919D01*
X31624487Y-53903915D01*
X31708058Y-53747567D01*
X31820525Y-53610525D01*
X31957567Y-53498058D01*
X31957566Y-53498058D01*
X31957568Y-53498057D01*
X32002954Y-53473798D01*
X32113915Y-53414487D01*
X32137784Y-53407247D01*
X32283569Y-53363023D01*
X32415793Y-53350000D01*
X32504207Y-53350000D01*
X32636431Y-53363023D01*
X32636431Y-53363023D01*
G37*
G36*
X50150000Y-55150000D02*
G01*
X48350000Y-55150000D01*
X48350000Y-53350000D01*
X50150000Y-53350000D01*
X50150000Y-55150000D01*
X50150000Y-55150000D01*
G37*
G36*
X49426431Y-50823023D02*
G01*
X49572216Y-50867247D01*
X49596085Y-50874487D01*
X49707046Y-50933798D01*
X49752432Y-50958057D01*
X49752434Y-50958058D01*
X49752433Y-50958058D01*
X49889475Y-51070525D01*
X50001942Y-51207567D01*
X50085513Y-51363915D01*
X50085514Y-51363919D01*
X50136977Y-51533569D01*
X50154354Y-51710000D01*
X50136977Y-51886431D01*
X50092753Y-52032216D01*
X50085513Y-52056085D01*
X50026202Y-52167046D01*
X50001943Y-52212432D01*
X49889475Y-52349475D01*
X49752432Y-52461943D01*
X49707046Y-52486202D01*
X49596085Y-52545513D01*
X49572216Y-52552753D01*
X49426431Y-52596977D01*
X49294207Y-52610000D01*
X49205793Y-52610000D01*
X49073569Y-52596977D01*
X48927784Y-52552753D01*
X48903915Y-52545513D01*
X48792954Y-52486202D01*
X48747568Y-52461943D01*
X48610525Y-52349475D01*
X48498057Y-52212432D01*
X48473798Y-52167046D01*
X48414487Y-52056085D01*
X48407247Y-52032216D01*
X48363023Y-51886431D01*
X48345646Y-51710000D01*
X48363023Y-51533569D01*
X48414486Y-51363919D01*
X48414487Y-51363915D01*
X48498058Y-51207567D01*
X48610525Y-51070525D01*
X48747567Y-50958058D01*
X48747566Y-50958058D01*
X48747568Y-50958057D01*
X48792954Y-50933798D01*
X48903915Y-50874487D01*
X48927784Y-50867247D01*
X49073569Y-50823023D01*
X49205793Y-50810000D01*
X49294207Y-50810000D01*
X49426431Y-50823023D01*
X49426431Y-50823023D01*
G37*
G36*
X41806431Y-50823023D02*
G01*
X41952216Y-50867247D01*
X41976085Y-50874487D01*
X42087046Y-50933798D01*
X42132432Y-50958057D01*
X42132434Y-50958058D01*
X42132433Y-50958058D01*
X42269475Y-51070525D01*
X42381942Y-51207567D01*
X42465513Y-51363915D01*
X42465514Y-51363919D01*
X42516977Y-51533569D01*
X42534354Y-51710000D01*
X42516977Y-51886431D01*
X42472753Y-52032216D01*
X42465513Y-52056085D01*
X42406202Y-52167046D01*
X42381943Y-52212432D01*
X42269475Y-52349475D01*
X42132432Y-52461943D01*
X42087046Y-52486202D01*
X41976085Y-52545513D01*
X41952216Y-52552753D01*
X41806431Y-52596977D01*
X41674207Y-52610000D01*
X41585793Y-52610000D01*
X41453569Y-52596977D01*
X41307784Y-52552753D01*
X41283915Y-52545513D01*
X41172954Y-52486202D01*
X41127568Y-52461943D01*
X40990525Y-52349475D01*
X40878057Y-52212432D01*
X40853798Y-52167046D01*
X40794487Y-52056085D01*
X40787247Y-52032216D01*
X40743023Y-51886431D01*
X40725646Y-51710000D01*
X40743023Y-51533569D01*
X40794486Y-51363919D01*
X40794487Y-51363915D01*
X40878058Y-51207567D01*
X40990525Y-51070525D01*
X41127567Y-50958058D01*
X41127566Y-50958058D01*
X41127568Y-50958057D01*
X41172954Y-50933798D01*
X41283915Y-50874487D01*
X41307784Y-50867247D01*
X41453569Y-50823023D01*
X41585793Y-50810000D01*
X41674207Y-50810000D01*
X41806431Y-50823023D01*
X41806431Y-50823023D01*
G37*
G36*
X46886431Y-50823023D02*
G01*
X47032216Y-50867247D01*
X47056085Y-50874487D01*
X47167046Y-50933798D01*
X47212432Y-50958057D01*
X47212434Y-50958058D01*
X47212433Y-50958058D01*
X47349475Y-51070525D01*
X47461942Y-51207567D01*
X47545513Y-51363915D01*
X47545514Y-51363919D01*
X47596977Y-51533569D01*
X47614354Y-51710000D01*
X47596977Y-51886431D01*
X47552753Y-52032216D01*
X47545513Y-52056085D01*
X47486202Y-52167046D01*
X47461943Y-52212432D01*
X47349475Y-52349475D01*
X47212432Y-52461943D01*
X47167046Y-52486202D01*
X47056085Y-52545513D01*
X47032216Y-52552753D01*
X46886431Y-52596977D01*
X46754207Y-52610000D01*
X46665793Y-52610000D01*
X46533569Y-52596977D01*
X46387784Y-52552753D01*
X46363915Y-52545513D01*
X46252954Y-52486202D01*
X46207568Y-52461943D01*
X46070525Y-52349475D01*
X45958057Y-52212432D01*
X45933798Y-52167046D01*
X45874487Y-52056085D01*
X45867247Y-52032216D01*
X45823023Y-51886431D01*
X45805646Y-51710000D01*
X45823023Y-51533569D01*
X45874486Y-51363919D01*
X45874487Y-51363915D01*
X45958058Y-51207567D01*
X46070525Y-51070525D01*
X46207567Y-50958058D01*
X46207566Y-50958058D01*
X46207568Y-50958057D01*
X46252954Y-50933798D01*
X46363915Y-50874487D01*
X46387784Y-50867247D01*
X46533569Y-50823023D01*
X46665793Y-50810000D01*
X46754207Y-50810000D01*
X46886431Y-50823023D01*
X46886431Y-50823023D01*
G37*
G36*
X49426431Y-48283023D02*
G01*
X49572216Y-48327247D01*
X49596085Y-48334487D01*
X49707046Y-48393798D01*
X49752432Y-48418057D01*
X49752434Y-48418058D01*
X49752433Y-48418058D01*
X49889475Y-48530525D01*
X50001942Y-48667567D01*
X50085513Y-48823915D01*
X50085514Y-48823919D01*
X50136977Y-48993569D01*
X50154354Y-49170000D01*
X50136977Y-49346431D01*
X50092753Y-49492216D01*
X50085513Y-49516085D01*
X50026202Y-49627046D01*
X50001943Y-49672432D01*
X49889475Y-49809475D01*
X49752432Y-49921943D01*
X49707046Y-49946202D01*
X49596085Y-50005513D01*
X49572216Y-50012753D01*
X49426431Y-50056977D01*
X49294207Y-50070000D01*
X49205793Y-50070000D01*
X49073569Y-50056977D01*
X48927784Y-50012753D01*
X48903915Y-50005513D01*
X48792954Y-49946202D01*
X48747568Y-49921943D01*
X48610525Y-49809475D01*
X48498057Y-49672432D01*
X48473798Y-49627046D01*
X48414487Y-49516085D01*
X48407247Y-49492216D01*
X48363023Y-49346431D01*
X48345646Y-49170000D01*
X48363023Y-48993569D01*
X48414486Y-48823919D01*
X48414487Y-48823915D01*
X48498058Y-48667567D01*
X48610525Y-48530525D01*
X48747567Y-48418058D01*
X48747566Y-48418058D01*
X48747568Y-48418057D01*
X48792954Y-48393798D01*
X48903915Y-48334487D01*
X48927784Y-48327247D01*
X49073569Y-48283023D01*
X49205793Y-48270000D01*
X49294207Y-48270000D01*
X49426431Y-48283023D01*
X49426431Y-48283023D01*
G37*
G36*
X46886431Y-48283023D02*
G01*
X47032216Y-48327247D01*
X47056085Y-48334487D01*
X47167046Y-48393798D01*
X47212432Y-48418057D01*
X47212434Y-48418058D01*
X47212433Y-48418058D01*
X47349475Y-48530525D01*
X47461942Y-48667567D01*
X47545513Y-48823915D01*
X47545514Y-48823919D01*
X47596977Y-48993569D01*
X47614354Y-49170000D01*
X47596977Y-49346431D01*
X47552753Y-49492216D01*
X47545513Y-49516085D01*
X47486202Y-49627046D01*
X47461943Y-49672432D01*
X47349475Y-49809475D01*
X47212432Y-49921943D01*
X47167046Y-49946202D01*
X47056085Y-50005513D01*
X47032216Y-50012753D01*
X46886431Y-50056977D01*
X46754207Y-50070000D01*
X46665793Y-50070000D01*
X46533569Y-50056977D01*
X46387784Y-50012753D01*
X46363915Y-50005513D01*
X46252954Y-49946202D01*
X46207568Y-49921943D01*
X46070525Y-49809475D01*
X45958057Y-49672432D01*
X45933798Y-49627046D01*
X45874487Y-49516085D01*
X45867247Y-49492216D01*
X45823023Y-49346431D01*
X45805646Y-49170000D01*
X45823023Y-48993569D01*
X45874486Y-48823919D01*
X45874487Y-48823915D01*
X45958058Y-48667567D01*
X46070525Y-48530525D01*
X46207567Y-48418058D01*
X46207566Y-48418058D01*
X46207568Y-48418057D01*
X46252954Y-48393798D01*
X46363915Y-48334487D01*
X46387784Y-48327247D01*
X46533569Y-48283023D01*
X46665793Y-48270000D01*
X46754207Y-48270000D01*
X46886431Y-48283023D01*
X46886431Y-48283023D01*
G37*
G36*
X41806431Y-48283023D02*
G01*
X41952216Y-48327247D01*
X41976085Y-48334487D01*
X42087046Y-48393798D01*
X42132432Y-48418057D01*
X42132434Y-48418058D01*
X42132433Y-48418058D01*
X42269475Y-48530525D01*
X42381942Y-48667567D01*
X42465513Y-48823915D01*
X42465514Y-48823919D01*
X42516977Y-48993569D01*
X42534354Y-49170000D01*
X42516977Y-49346431D01*
X42472753Y-49492216D01*
X42465513Y-49516085D01*
X42406202Y-49627046D01*
X42381943Y-49672432D01*
X42269475Y-49809475D01*
X42132432Y-49921943D01*
X42087046Y-49946202D01*
X41976085Y-50005513D01*
X41952216Y-50012753D01*
X41806431Y-50056977D01*
X41674207Y-50070000D01*
X41585793Y-50070000D01*
X41453569Y-50056977D01*
X41307784Y-50012753D01*
X41283915Y-50005513D01*
X41172954Y-49946202D01*
X41127568Y-49921943D01*
X40990525Y-49809475D01*
X40878057Y-49672432D01*
X40853798Y-49627046D01*
X40794487Y-49516085D01*
X40787247Y-49492216D01*
X40743023Y-49346431D01*
X40725646Y-49170000D01*
X40743023Y-48993569D01*
X40794486Y-48823919D01*
X40794487Y-48823915D01*
X40878058Y-48667567D01*
X40990525Y-48530525D01*
X41127567Y-48418058D01*
X41127566Y-48418058D01*
X41127568Y-48418057D01*
X41172954Y-48393798D01*
X41283915Y-48334487D01*
X41307784Y-48327247D01*
X41453569Y-48283023D01*
X41585793Y-48270000D01*
X41674207Y-48270000D01*
X41806431Y-48283023D01*
X41806431Y-48283023D01*
G37*
G36*
X4750000Y-48650000D02*
G01*
X1250000Y-48650000D01*
X1250000Y-45150000D01*
X4750000Y-45150000D01*
X4750000Y-48650000D01*
X4750000Y-48650000D01*
G37*
G36*
X55796431Y-46783023D02*
G01*
X55942216Y-46827247D01*
X55966085Y-46834487D01*
X56077046Y-46893798D01*
X56122432Y-46918057D01*
X56259475Y-47030525D01*
X56343109Y-47132433D01*
X56371942Y-47167567D01*
X56455513Y-47323915D01*
X56455514Y-47323919D01*
X56506977Y-47493569D01*
X56524354Y-47670000D01*
X56506977Y-47846431D01*
X56462753Y-47992216D01*
X56455513Y-48016085D01*
X56396202Y-48127046D01*
X56371943Y-48172432D01*
X56259475Y-48309475D01*
X56122432Y-48421943D01*
X56077046Y-48446202D01*
X55966085Y-48505513D01*
X55942216Y-48512753D01*
X55796431Y-48556977D01*
X55664207Y-48570000D01*
X55575793Y-48570000D01*
X55443569Y-48556977D01*
X55297784Y-48512753D01*
X55273915Y-48505513D01*
X55162954Y-48446202D01*
X55117568Y-48421943D01*
X54980525Y-48309475D01*
X54868057Y-48172432D01*
X54843798Y-48127046D01*
X54784487Y-48016085D01*
X54777247Y-47992216D01*
X54733023Y-47846431D01*
X54715646Y-47670000D01*
X54733023Y-47493569D01*
X54784486Y-47323919D01*
X54784487Y-47323915D01*
X54868058Y-47167567D01*
X54896892Y-47132433D01*
X54980525Y-47030525D01*
X55117568Y-46918057D01*
X55162954Y-46893798D01*
X55273915Y-46834487D01*
X55297784Y-46827247D01*
X55443569Y-46783023D01*
X55575793Y-46770000D01*
X55664207Y-46770000D01*
X55796431Y-46783023D01*
X55796431Y-46783023D01*
G37*
G36*
X60876431Y-46783023D02*
G01*
X61022216Y-46827247D01*
X61046085Y-46834487D01*
X61157046Y-46893798D01*
X61202432Y-46918057D01*
X61339475Y-47030525D01*
X61423109Y-47132433D01*
X61451942Y-47167567D01*
X61535513Y-47323915D01*
X61535514Y-47323919D01*
X61586977Y-47493569D01*
X61604354Y-47670000D01*
X61586977Y-47846431D01*
X61542753Y-47992216D01*
X61535513Y-48016085D01*
X61476202Y-48127046D01*
X61451943Y-48172432D01*
X61339475Y-48309475D01*
X61202432Y-48421943D01*
X61157046Y-48446202D01*
X61046085Y-48505513D01*
X61022216Y-48512753D01*
X60876431Y-48556977D01*
X60744207Y-48570000D01*
X60655793Y-48570000D01*
X60523569Y-48556977D01*
X60377784Y-48512753D01*
X60353915Y-48505513D01*
X60242954Y-48446202D01*
X60197568Y-48421943D01*
X60060525Y-48309475D01*
X59948057Y-48172432D01*
X59923798Y-48127046D01*
X59864487Y-48016085D01*
X59857247Y-47992216D01*
X59813023Y-47846431D01*
X59795646Y-47670000D01*
X59813023Y-47493569D01*
X59864486Y-47323919D01*
X59864487Y-47323915D01*
X59948058Y-47167567D01*
X59976892Y-47132433D01*
X60060525Y-47030525D01*
X60197568Y-46918057D01*
X60242954Y-46893798D01*
X60353915Y-46834487D01*
X60377784Y-46827247D01*
X60523569Y-46783023D01*
X60655793Y-46770000D01*
X60744207Y-46770000D01*
X60876431Y-46783023D01*
X60876431Y-46783023D01*
G37*
G36*
X63416431Y-46783023D02*
G01*
X63562216Y-46827247D01*
X63586085Y-46834487D01*
X63697046Y-46893798D01*
X63742432Y-46918057D01*
X63879475Y-47030525D01*
X63963109Y-47132433D01*
X63991942Y-47167567D01*
X64075513Y-47323915D01*
X64075514Y-47323919D01*
X64126977Y-47493569D01*
X64144354Y-47670000D01*
X64126977Y-47846431D01*
X64082753Y-47992216D01*
X64075513Y-48016085D01*
X64016202Y-48127046D01*
X63991943Y-48172432D01*
X63879475Y-48309475D01*
X63742432Y-48421943D01*
X63697046Y-48446202D01*
X63586085Y-48505513D01*
X63562216Y-48512753D01*
X63416431Y-48556977D01*
X63284207Y-48570000D01*
X63195793Y-48570000D01*
X63063569Y-48556977D01*
X62917784Y-48512753D01*
X62893915Y-48505513D01*
X62782954Y-48446202D01*
X62737568Y-48421943D01*
X62600525Y-48309475D01*
X62488057Y-48172432D01*
X62463798Y-48127046D01*
X62404487Y-48016085D01*
X62397247Y-47992216D01*
X62353023Y-47846431D01*
X62335646Y-47670000D01*
X62353023Y-47493569D01*
X62404486Y-47323919D01*
X62404487Y-47323915D01*
X62488058Y-47167567D01*
X62516892Y-47132433D01*
X62600525Y-47030525D01*
X62737568Y-46918057D01*
X62782954Y-46893798D01*
X62893915Y-46834487D01*
X62917784Y-46827247D01*
X63063569Y-46783023D01*
X63195793Y-46770000D01*
X63284207Y-46770000D01*
X63416431Y-46783023D01*
X63416431Y-46783023D01*
G37*
G36*
X49426431Y-45743023D02*
G01*
X49572216Y-45787247D01*
X49596085Y-45794487D01*
X49707046Y-45853798D01*
X49752432Y-45878057D01*
X49752434Y-45878058D01*
X49752433Y-45878058D01*
X49889475Y-45990525D01*
X50001942Y-46127567D01*
X50085513Y-46283915D01*
X50085514Y-46283919D01*
X50136977Y-46453569D01*
X50154354Y-46630000D01*
X50136977Y-46806431D01*
X50103115Y-46918057D01*
X50085513Y-46976085D01*
X50026202Y-47087046D01*
X50001943Y-47132432D01*
X49889475Y-47269475D01*
X49752432Y-47381943D01*
X49707046Y-47406202D01*
X49596085Y-47465513D01*
X49572216Y-47472753D01*
X49426431Y-47516977D01*
X49294207Y-47530000D01*
X49205793Y-47530000D01*
X49073569Y-47516977D01*
X48927784Y-47472753D01*
X48903915Y-47465513D01*
X48792954Y-47406202D01*
X48747568Y-47381943D01*
X48610525Y-47269475D01*
X48498057Y-47132432D01*
X48473798Y-47087046D01*
X48414487Y-46976085D01*
X48396885Y-46918057D01*
X48363023Y-46806431D01*
X48345646Y-46630000D01*
X48363023Y-46453569D01*
X48414486Y-46283919D01*
X48414487Y-46283915D01*
X48498058Y-46127567D01*
X48610525Y-45990525D01*
X48747567Y-45878058D01*
X48747566Y-45878058D01*
X48747568Y-45878057D01*
X48792954Y-45853798D01*
X48903915Y-45794487D01*
X48927784Y-45787247D01*
X49073569Y-45743023D01*
X49205793Y-45730000D01*
X49294207Y-45730000D01*
X49426431Y-45743023D01*
X49426431Y-45743023D01*
G37*
G36*
X41806431Y-45743023D02*
G01*
X41952216Y-45787247D01*
X41976085Y-45794487D01*
X42087046Y-45853798D01*
X42132432Y-45878057D01*
X42132434Y-45878058D01*
X42132433Y-45878058D01*
X42269475Y-45990525D01*
X42381942Y-46127567D01*
X42465513Y-46283915D01*
X42465514Y-46283919D01*
X42516977Y-46453569D01*
X42534354Y-46630000D01*
X42516977Y-46806431D01*
X42483115Y-46918057D01*
X42465513Y-46976085D01*
X42406202Y-47087046D01*
X42381943Y-47132432D01*
X42269475Y-47269475D01*
X42132432Y-47381943D01*
X42087046Y-47406202D01*
X41976085Y-47465513D01*
X41952216Y-47472753D01*
X41806431Y-47516977D01*
X41674207Y-47530000D01*
X41585793Y-47530000D01*
X41453569Y-47516977D01*
X41307784Y-47472753D01*
X41283915Y-47465513D01*
X41172954Y-47406202D01*
X41127568Y-47381943D01*
X40990525Y-47269475D01*
X40878057Y-47132432D01*
X40853798Y-47087046D01*
X40794487Y-46976085D01*
X40776885Y-46918057D01*
X40743023Y-46806431D01*
X40725646Y-46630000D01*
X40743023Y-46453569D01*
X40794486Y-46283919D01*
X40794487Y-46283915D01*
X40878058Y-46127567D01*
X40990525Y-45990525D01*
X41127567Y-45878058D01*
X41127566Y-45878058D01*
X41127568Y-45878057D01*
X41172954Y-45853798D01*
X41283915Y-45794487D01*
X41307784Y-45787247D01*
X41453569Y-45743023D01*
X41585793Y-45730000D01*
X41674207Y-45730000D01*
X41806431Y-45743023D01*
X41806431Y-45743023D01*
G37*
G36*
X46886431Y-45743023D02*
G01*
X47032216Y-45787247D01*
X47056085Y-45794487D01*
X47167046Y-45853798D01*
X47212432Y-45878057D01*
X47212434Y-45878058D01*
X47212433Y-45878058D01*
X47349475Y-45990525D01*
X47461942Y-46127567D01*
X47545513Y-46283915D01*
X47545514Y-46283919D01*
X47596977Y-46453569D01*
X47614354Y-46630000D01*
X47596977Y-46806431D01*
X47563115Y-46918057D01*
X47545513Y-46976085D01*
X47486202Y-47087046D01*
X47461943Y-47132432D01*
X47349475Y-47269475D01*
X47212432Y-47381943D01*
X47167046Y-47406202D01*
X47056085Y-47465513D01*
X47032216Y-47472753D01*
X46886431Y-47516977D01*
X46754207Y-47530000D01*
X46665793Y-47530000D01*
X46533569Y-47516977D01*
X46387784Y-47472753D01*
X46363915Y-47465513D01*
X46252954Y-47406202D01*
X46207568Y-47381943D01*
X46070525Y-47269475D01*
X45958057Y-47132432D01*
X45933798Y-47087046D01*
X45874487Y-46976085D01*
X45856885Y-46918057D01*
X45823023Y-46806431D01*
X45805646Y-46630000D01*
X45823023Y-46453569D01*
X45874486Y-46283919D01*
X45874487Y-46283915D01*
X45958058Y-46127567D01*
X46070525Y-45990525D01*
X46207567Y-45878058D01*
X46207566Y-45878058D01*
X46207568Y-45878057D01*
X46252954Y-45853798D01*
X46363915Y-45794487D01*
X46387784Y-45787247D01*
X46533569Y-45743023D01*
X46665793Y-45730000D01*
X46754207Y-45730000D01*
X46886431Y-45743023D01*
X46886431Y-45743023D01*
G37*
G36*
X63416431Y-44243023D02*
G01*
X63562216Y-44287247D01*
X63586085Y-44294487D01*
X63697046Y-44353798D01*
X63742432Y-44378057D01*
X63742434Y-44378058D01*
X63742433Y-44378058D01*
X63879475Y-44490525D01*
X63991942Y-44627567D01*
X64075513Y-44783915D01*
X64075514Y-44783919D01*
X64126977Y-44953569D01*
X64144354Y-45130000D01*
X64126977Y-45306431D01*
X64082753Y-45452216D01*
X64075513Y-45476085D01*
X64016202Y-45587046D01*
X63991943Y-45632432D01*
X63879475Y-45769475D01*
X63742432Y-45881943D01*
X63697046Y-45906202D01*
X63586085Y-45965513D01*
X63562216Y-45972753D01*
X63416431Y-46016977D01*
X63284207Y-46030000D01*
X63195793Y-46030000D01*
X63063569Y-46016977D01*
X62917784Y-45972753D01*
X62893915Y-45965513D01*
X62782954Y-45906202D01*
X62737568Y-45881943D01*
X62600525Y-45769475D01*
X62488057Y-45632432D01*
X62463798Y-45587046D01*
X62404487Y-45476085D01*
X62397247Y-45452216D01*
X62353023Y-45306431D01*
X62335646Y-45130000D01*
X62353023Y-44953569D01*
X62404486Y-44783919D01*
X62404487Y-44783915D01*
X62488058Y-44627567D01*
X62600525Y-44490525D01*
X62737567Y-44378058D01*
X62737566Y-44378058D01*
X62737568Y-44378057D01*
X62782954Y-44353798D01*
X62893915Y-44294487D01*
X62917784Y-44287247D01*
X63063569Y-44243023D01*
X63195793Y-44230000D01*
X63284207Y-44230000D01*
X63416431Y-44243023D01*
X63416431Y-44243023D01*
G37*
G36*
X60876431Y-44243023D02*
G01*
X61022216Y-44287247D01*
X61046085Y-44294487D01*
X61157046Y-44353798D01*
X61202432Y-44378057D01*
X61202434Y-44378058D01*
X61202433Y-44378058D01*
X61339475Y-44490525D01*
X61451942Y-44627567D01*
X61535513Y-44783915D01*
X61535514Y-44783919D01*
X61586977Y-44953569D01*
X61604354Y-45130000D01*
X61586977Y-45306431D01*
X61542753Y-45452216D01*
X61535513Y-45476085D01*
X61476202Y-45587046D01*
X61451943Y-45632432D01*
X61339475Y-45769475D01*
X61202432Y-45881943D01*
X61157046Y-45906202D01*
X61046085Y-45965513D01*
X61022216Y-45972753D01*
X60876431Y-46016977D01*
X60744207Y-46030000D01*
X60655793Y-46030000D01*
X60523569Y-46016977D01*
X60377784Y-45972753D01*
X60353915Y-45965513D01*
X60242954Y-45906202D01*
X60197568Y-45881943D01*
X60060525Y-45769475D01*
X59948057Y-45632432D01*
X59923798Y-45587046D01*
X59864487Y-45476085D01*
X59857247Y-45452216D01*
X59813023Y-45306431D01*
X59795646Y-45130000D01*
X59813023Y-44953569D01*
X59864486Y-44783919D01*
X59864487Y-44783915D01*
X59948058Y-44627567D01*
X60060525Y-44490525D01*
X60197567Y-44378058D01*
X60197566Y-44378058D01*
X60197568Y-44378057D01*
X60242954Y-44353798D01*
X60353915Y-44294487D01*
X60377784Y-44287247D01*
X60523569Y-44243023D01*
X60655793Y-44230000D01*
X60744207Y-44230000D01*
X60876431Y-44243023D01*
X60876431Y-44243023D01*
G37*
G36*
X55796431Y-44243023D02*
G01*
X55942216Y-44287247D01*
X55966085Y-44294487D01*
X56077046Y-44353798D01*
X56122432Y-44378057D01*
X56122434Y-44378058D01*
X56122433Y-44378058D01*
X56259475Y-44490525D01*
X56371942Y-44627567D01*
X56455513Y-44783915D01*
X56455514Y-44783919D01*
X56506977Y-44953569D01*
X56524354Y-45130000D01*
X56506977Y-45306431D01*
X56462753Y-45452216D01*
X56455513Y-45476085D01*
X56396202Y-45587046D01*
X56371943Y-45632432D01*
X56259475Y-45769475D01*
X56122432Y-45881943D01*
X56077046Y-45906202D01*
X55966085Y-45965513D01*
X55942216Y-45972753D01*
X55796431Y-46016977D01*
X55664207Y-46030000D01*
X55575793Y-46030000D01*
X55443569Y-46016977D01*
X55297784Y-45972753D01*
X55273915Y-45965513D01*
X55162954Y-45906202D01*
X55117568Y-45881943D01*
X54980525Y-45769475D01*
X54868057Y-45632432D01*
X54843798Y-45587046D01*
X54784487Y-45476085D01*
X54777247Y-45452216D01*
X54733023Y-45306431D01*
X54715646Y-45130000D01*
X54733023Y-44953569D01*
X54784486Y-44783919D01*
X54784487Y-44783915D01*
X54868058Y-44627567D01*
X54980525Y-44490525D01*
X55117567Y-44378058D01*
X55117566Y-44378058D01*
X55117568Y-44378057D01*
X55162954Y-44353798D01*
X55273915Y-44294487D01*
X55297784Y-44287247D01*
X55443569Y-44243023D01*
X55575793Y-44230000D01*
X55664207Y-44230000D01*
X55796431Y-44243023D01*
X55796431Y-44243023D01*
G37*
G36*
X4750000Y-44690000D02*
G01*
X1250000Y-44690000D01*
X1250000Y-41190000D01*
X4750000Y-41190000D01*
X4750000Y-44690000D01*
X4750000Y-44690000D01*
G37*
G36*
X50150000Y-43740000D02*
G01*
X48350000Y-43740000D01*
X48350000Y-41940000D01*
X50150000Y-41940000D01*
X50150000Y-43740000D01*
X50150000Y-43740000D01*
G37*
G36*
X36726431Y-41953023D02*
G01*
X36872216Y-41997247D01*
X36896085Y-42004487D01*
X37007046Y-42063798D01*
X37052432Y-42088057D01*
X37052434Y-42088058D01*
X37052433Y-42088058D01*
X37189475Y-42200525D01*
X37301942Y-42337567D01*
X37385513Y-42493915D01*
X37385514Y-42493919D01*
X37436977Y-42663569D01*
X37454354Y-42840000D01*
X37436977Y-43016431D01*
X37392753Y-43162216D01*
X37385513Y-43186085D01*
X37362320Y-43229475D01*
X37301943Y-43342432D01*
X37189475Y-43479475D01*
X37052432Y-43591943D01*
X37007046Y-43616202D01*
X36896085Y-43675513D01*
X36872216Y-43682753D01*
X36726431Y-43726977D01*
X36594207Y-43740000D01*
X36505793Y-43740000D01*
X36373569Y-43726977D01*
X36227784Y-43682753D01*
X36203915Y-43675513D01*
X36092954Y-43616202D01*
X36047568Y-43591943D01*
X35910525Y-43479475D01*
X35798057Y-43342432D01*
X35737680Y-43229475D01*
X35714487Y-43186085D01*
X35707247Y-43162216D01*
X35663023Y-43016431D01*
X35645646Y-42840000D01*
X35663023Y-42663569D01*
X35714486Y-42493919D01*
X35714487Y-42493915D01*
X35798058Y-42337567D01*
X35910525Y-42200525D01*
X36047567Y-42088058D01*
X36047566Y-42088058D01*
X36047568Y-42088057D01*
X36092954Y-42063798D01*
X36203915Y-42004487D01*
X36227784Y-41997247D01*
X36373569Y-41953023D01*
X36505793Y-41940000D01*
X36594207Y-41940000D01*
X36726431Y-41953023D01*
X36726431Y-41953023D01*
G37*
G36*
X39266431Y-41953023D02*
G01*
X39412216Y-41997247D01*
X39436085Y-42004487D01*
X39547046Y-42063798D01*
X39592432Y-42088057D01*
X39592434Y-42088058D01*
X39592433Y-42088058D01*
X39729475Y-42200525D01*
X39841942Y-42337567D01*
X39925513Y-42493915D01*
X39925514Y-42493919D01*
X39976977Y-42663569D01*
X39994354Y-42840000D01*
X39976977Y-43016431D01*
X39932753Y-43162216D01*
X39925513Y-43186085D01*
X39902320Y-43229475D01*
X39841943Y-43342432D01*
X39729475Y-43479475D01*
X39592432Y-43591943D01*
X39547046Y-43616202D01*
X39436085Y-43675513D01*
X39412216Y-43682753D01*
X39266431Y-43726977D01*
X39134207Y-43740000D01*
X39045793Y-43740000D01*
X38913569Y-43726977D01*
X38767784Y-43682753D01*
X38743915Y-43675513D01*
X38632954Y-43616202D01*
X38587568Y-43591943D01*
X38450525Y-43479475D01*
X38338057Y-43342432D01*
X38277680Y-43229475D01*
X38254487Y-43186085D01*
X38247247Y-43162216D01*
X38203023Y-43016431D01*
X38185646Y-42840000D01*
X38203023Y-42663569D01*
X38254486Y-42493919D01*
X38254487Y-42493915D01*
X38338058Y-42337567D01*
X38450525Y-42200525D01*
X38587567Y-42088058D01*
X38587566Y-42088058D01*
X38587568Y-42088057D01*
X38632954Y-42063798D01*
X38743915Y-42004487D01*
X38767784Y-41997247D01*
X38913569Y-41953023D01*
X39045793Y-41940000D01*
X39134207Y-41940000D01*
X39266431Y-41953023D01*
X39266431Y-41953023D01*
G37*
G36*
X44346431Y-41953023D02*
G01*
X44492216Y-41997247D01*
X44516085Y-42004487D01*
X44627046Y-42063798D01*
X44672432Y-42088057D01*
X44672434Y-42088058D01*
X44672433Y-42088058D01*
X44809475Y-42200525D01*
X44921942Y-42337567D01*
X45005513Y-42493915D01*
X45005514Y-42493919D01*
X45056977Y-42663569D01*
X45074354Y-42840000D01*
X45056977Y-43016431D01*
X45012753Y-43162216D01*
X45005513Y-43186085D01*
X44982320Y-43229475D01*
X44921943Y-43342432D01*
X44809475Y-43479475D01*
X44672432Y-43591943D01*
X44627046Y-43616202D01*
X44516085Y-43675513D01*
X44492216Y-43682753D01*
X44346431Y-43726977D01*
X44214207Y-43740000D01*
X44125793Y-43740000D01*
X43993569Y-43726977D01*
X43847784Y-43682753D01*
X43823915Y-43675513D01*
X43712954Y-43616202D01*
X43667568Y-43591943D01*
X43530525Y-43479475D01*
X43418057Y-43342432D01*
X43357680Y-43229475D01*
X43334487Y-43186085D01*
X43327247Y-43162216D01*
X43283023Y-43016431D01*
X43265646Y-42840000D01*
X43283023Y-42663569D01*
X43334486Y-42493919D01*
X43334487Y-42493915D01*
X43418058Y-42337567D01*
X43530525Y-42200525D01*
X43667567Y-42088058D01*
X43667566Y-42088058D01*
X43667568Y-42088057D01*
X43712954Y-42063798D01*
X43823915Y-42004487D01*
X43847784Y-41997247D01*
X43993569Y-41953023D01*
X44125793Y-41940000D01*
X44214207Y-41940000D01*
X44346431Y-41953023D01*
X44346431Y-41953023D01*
G37*
G36*
X46886431Y-41953023D02*
G01*
X47032216Y-41997247D01*
X47056085Y-42004487D01*
X47167046Y-42063798D01*
X47212432Y-42088057D01*
X47212434Y-42088058D01*
X47212433Y-42088058D01*
X47349475Y-42200525D01*
X47461942Y-42337567D01*
X47545513Y-42493915D01*
X47545514Y-42493919D01*
X47596977Y-42663569D01*
X47614354Y-42840000D01*
X47596977Y-43016431D01*
X47552753Y-43162216D01*
X47545513Y-43186085D01*
X47522320Y-43229475D01*
X47461943Y-43342432D01*
X47349475Y-43479475D01*
X47212432Y-43591943D01*
X47167046Y-43616202D01*
X47056085Y-43675513D01*
X47032216Y-43682753D01*
X46886431Y-43726977D01*
X46754207Y-43740000D01*
X46665793Y-43740000D01*
X46533569Y-43726977D01*
X46387784Y-43682753D01*
X46363915Y-43675513D01*
X46252954Y-43616202D01*
X46207568Y-43591943D01*
X46070525Y-43479475D01*
X45958057Y-43342432D01*
X45897680Y-43229475D01*
X45874487Y-43186085D01*
X45867247Y-43162216D01*
X45823023Y-43016431D01*
X45805646Y-42840000D01*
X45823023Y-42663569D01*
X45874486Y-42493919D01*
X45874487Y-42493915D01*
X45958058Y-42337567D01*
X46070525Y-42200525D01*
X46207567Y-42088058D01*
X46207566Y-42088058D01*
X46207568Y-42088057D01*
X46252954Y-42063798D01*
X46363915Y-42004487D01*
X46387784Y-41997247D01*
X46533569Y-41953023D01*
X46665793Y-41940000D01*
X46754207Y-41940000D01*
X46886431Y-41953023D01*
X46886431Y-41953023D01*
G37*
G36*
X41806431Y-41953023D02*
G01*
X41952216Y-41997247D01*
X41976085Y-42004487D01*
X42087046Y-42063798D01*
X42132432Y-42088057D01*
X42132434Y-42088058D01*
X42132433Y-42088058D01*
X42269475Y-42200525D01*
X42381942Y-42337567D01*
X42465513Y-42493915D01*
X42465514Y-42493919D01*
X42516977Y-42663569D01*
X42534354Y-42840000D01*
X42516977Y-43016431D01*
X42472753Y-43162216D01*
X42465513Y-43186085D01*
X42442320Y-43229475D01*
X42381943Y-43342432D01*
X42269475Y-43479475D01*
X42132432Y-43591943D01*
X42087046Y-43616202D01*
X41976085Y-43675513D01*
X41952216Y-43682753D01*
X41806431Y-43726977D01*
X41674207Y-43740000D01*
X41585793Y-43740000D01*
X41453569Y-43726977D01*
X41307784Y-43682753D01*
X41283915Y-43675513D01*
X41172954Y-43616202D01*
X41127568Y-43591943D01*
X40990525Y-43479475D01*
X40878057Y-43342432D01*
X40817680Y-43229475D01*
X40794487Y-43186085D01*
X40787247Y-43162216D01*
X40743023Y-43016431D01*
X40725646Y-42840000D01*
X40743023Y-42663569D01*
X40794486Y-42493919D01*
X40794487Y-42493915D01*
X40878058Y-42337567D01*
X40990525Y-42200525D01*
X41127567Y-42088058D01*
X41127566Y-42088058D01*
X41127568Y-42088057D01*
X41172954Y-42063798D01*
X41283915Y-42004487D01*
X41307784Y-41997247D01*
X41453569Y-41953023D01*
X41585793Y-41940000D01*
X41674207Y-41940000D01*
X41806431Y-41953023D01*
X41806431Y-41953023D01*
G37*
G36*
X60876431Y-41703023D02*
G01*
X61022216Y-41747247D01*
X61046085Y-41754487D01*
X61157046Y-41813798D01*
X61202432Y-41838057D01*
X61339475Y-41950525D01*
X61451943Y-42087568D01*
X61476202Y-42132954D01*
X61535513Y-42243915D01*
X61535514Y-42243919D01*
X61586977Y-42413569D01*
X61604354Y-42590000D01*
X61586977Y-42766431D01*
X61542753Y-42912216D01*
X61535513Y-42936085D01*
X61476202Y-43047046D01*
X61451943Y-43092432D01*
X61339475Y-43229475D01*
X61202432Y-43341943D01*
X61157046Y-43366202D01*
X61046085Y-43425513D01*
X61022216Y-43432753D01*
X60876431Y-43476977D01*
X60744207Y-43490000D01*
X60655793Y-43490000D01*
X60523569Y-43476977D01*
X60377784Y-43432753D01*
X60353915Y-43425513D01*
X60242954Y-43366202D01*
X60197568Y-43341943D01*
X60060525Y-43229475D01*
X59948057Y-43092432D01*
X59923798Y-43047046D01*
X59864487Y-42936085D01*
X59857247Y-42912216D01*
X59813023Y-42766431D01*
X59795646Y-42590000D01*
X59813023Y-42413569D01*
X59864486Y-42243919D01*
X59864487Y-42243915D01*
X59923798Y-42132954D01*
X59948057Y-42087568D01*
X60060525Y-41950525D01*
X60197568Y-41838057D01*
X60242954Y-41813798D01*
X60353915Y-41754487D01*
X60377784Y-41747247D01*
X60523569Y-41703023D01*
X60655793Y-41690000D01*
X60744207Y-41690000D01*
X60876431Y-41703023D01*
X60876431Y-41703023D01*
G37*
G36*
X63416431Y-41703023D02*
G01*
X63562216Y-41747247D01*
X63586085Y-41754487D01*
X63697046Y-41813798D01*
X63742432Y-41838057D01*
X63879475Y-41950525D01*
X63991943Y-42087568D01*
X64016202Y-42132954D01*
X64075513Y-42243915D01*
X64075514Y-42243919D01*
X64126977Y-42413569D01*
X64144354Y-42590000D01*
X64126977Y-42766431D01*
X64082753Y-42912216D01*
X64075513Y-42936085D01*
X64016202Y-43047046D01*
X63991943Y-43092432D01*
X63879475Y-43229475D01*
X63742432Y-43341943D01*
X63697046Y-43366202D01*
X63586085Y-43425513D01*
X63562216Y-43432753D01*
X63416431Y-43476977D01*
X63284207Y-43490000D01*
X63195793Y-43490000D01*
X63063569Y-43476977D01*
X62917784Y-43432753D01*
X62893915Y-43425513D01*
X62782954Y-43366202D01*
X62737568Y-43341943D01*
X62600525Y-43229475D01*
X62488057Y-43092432D01*
X62463798Y-43047046D01*
X62404487Y-42936085D01*
X62397247Y-42912216D01*
X62353023Y-42766431D01*
X62335646Y-42590000D01*
X62353023Y-42413569D01*
X62404486Y-42243919D01*
X62404487Y-42243915D01*
X62463798Y-42132954D01*
X62488057Y-42087568D01*
X62600525Y-41950525D01*
X62737568Y-41838057D01*
X62782954Y-41813798D01*
X62893915Y-41754487D01*
X62917784Y-41747247D01*
X63063569Y-41703023D01*
X63195793Y-41690000D01*
X63284207Y-41690000D01*
X63416431Y-41703023D01*
X63416431Y-41703023D01*
G37*
G36*
X55796431Y-41703023D02*
G01*
X55942216Y-41747247D01*
X55966085Y-41754487D01*
X56077046Y-41813798D01*
X56122432Y-41838057D01*
X56259475Y-41950525D01*
X56371943Y-42087568D01*
X56396202Y-42132954D01*
X56455513Y-42243915D01*
X56455514Y-42243919D01*
X56506977Y-42413569D01*
X56524354Y-42590000D01*
X56506977Y-42766431D01*
X56462753Y-42912216D01*
X56455513Y-42936085D01*
X56396202Y-43047046D01*
X56371943Y-43092432D01*
X56259475Y-43229475D01*
X56122432Y-43341943D01*
X56077046Y-43366202D01*
X55966085Y-43425513D01*
X55942216Y-43432753D01*
X55796431Y-43476977D01*
X55664207Y-43490000D01*
X55575793Y-43490000D01*
X55443569Y-43476977D01*
X55297784Y-43432753D01*
X55273915Y-43425513D01*
X55162954Y-43366202D01*
X55117568Y-43341943D01*
X54980525Y-43229475D01*
X54868057Y-43092432D01*
X54843798Y-43047046D01*
X54784487Y-42936085D01*
X54777247Y-42912216D01*
X54733023Y-42766431D01*
X54715646Y-42590000D01*
X54733023Y-42413569D01*
X54784486Y-42243919D01*
X54784487Y-42243915D01*
X54843798Y-42132954D01*
X54868057Y-42087568D01*
X54980525Y-41950525D01*
X55117568Y-41838057D01*
X55162954Y-41813798D01*
X55273915Y-41754487D01*
X55297784Y-41747247D01*
X55443569Y-41703023D01*
X55575793Y-41690000D01*
X55664207Y-41690000D01*
X55796431Y-41703023D01*
X55796431Y-41703023D01*
G37*
G36*
X41806431Y-39413023D02*
G01*
X41952216Y-39457247D01*
X41976085Y-39464487D01*
X42087046Y-39523798D01*
X42132432Y-39548057D01*
X42132434Y-39548058D01*
X42132433Y-39548058D01*
X42269475Y-39660525D01*
X42381942Y-39797567D01*
X42465513Y-39953915D01*
X42465514Y-39953919D01*
X42516977Y-40123569D01*
X42534354Y-40300000D01*
X42516977Y-40476431D01*
X42472753Y-40622216D01*
X42465513Y-40646085D01*
X42442320Y-40689475D01*
X42381943Y-40802432D01*
X42269475Y-40939475D01*
X42132432Y-41051943D01*
X42087046Y-41076202D01*
X41976085Y-41135513D01*
X41952216Y-41142753D01*
X41806431Y-41186977D01*
X41674207Y-41200000D01*
X41585793Y-41200000D01*
X41453569Y-41186977D01*
X41307784Y-41142753D01*
X41283915Y-41135513D01*
X41172954Y-41076202D01*
X41127568Y-41051943D01*
X40990525Y-40939475D01*
X40878057Y-40802432D01*
X40817680Y-40689475D01*
X40794487Y-40646085D01*
X40787247Y-40622216D01*
X40743023Y-40476431D01*
X40725646Y-40300000D01*
X40743023Y-40123569D01*
X40794486Y-39953919D01*
X40794487Y-39953915D01*
X40878058Y-39797567D01*
X40990525Y-39660525D01*
X41127567Y-39548058D01*
X41127566Y-39548058D01*
X41127568Y-39548057D01*
X41172954Y-39523798D01*
X41283915Y-39464487D01*
X41307784Y-39457247D01*
X41453569Y-39413023D01*
X41585793Y-39400000D01*
X41674207Y-39400000D01*
X41806431Y-39413023D01*
X41806431Y-39413023D01*
G37*
G36*
X39266431Y-39413023D02*
G01*
X39412216Y-39457247D01*
X39436085Y-39464487D01*
X39547046Y-39523798D01*
X39592432Y-39548057D01*
X39592434Y-39548058D01*
X39592433Y-39548058D01*
X39729475Y-39660525D01*
X39841942Y-39797567D01*
X39925513Y-39953915D01*
X39925514Y-39953919D01*
X39976977Y-40123569D01*
X39994354Y-40300000D01*
X39976977Y-40476431D01*
X39932753Y-40622216D01*
X39925513Y-40646085D01*
X39902320Y-40689475D01*
X39841943Y-40802432D01*
X39729475Y-40939475D01*
X39592432Y-41051943D01*
X39547046Y-41076202D01*
X39436085Y-41135513D01*
X39412216Y-41142753D01*
X39266431Y-41186977D01*
X39134207Y-41200000D01*
X39045793Y-41200000D01*
X38913569Y-41186977D01*
X38767784Y-41142753D01*
X38743915Y-41135513D01*
X38632954Y-41076202D01*
X38587568Y-41051943D01*
X38450525Y-40939475D01*
X38338057Y-40802432D01*
X38277680Y-40689475D01*
X38254487Y-40646085D01*
X38247247Y-40622216D01*
X38203023Y-40476431D01*
X38185646Y-40300000D01*
X38203023Y-40123569D01*
X38254486Y-39953919D01*
X38254487Y-39953915D01*
X38338058Y-39797567D01*
X38450525Y-39660525D01*
X38587567Y-39548058D01*
X38587566Y-39548058D01*
X38587568Y-39548057D01*
X38632954Y-39523798D01*
X38743915Y-39464487D01*
X38767784Y-39457247D01*
X38913569Y-39413023D01*
X39045793Y-39400000D01*
X39134207Y-39400000D01*
X39266431Y-39413023D01*
X39266431Y-39413023D01*
G37*
G36*
X36726431Y-39413023D02*
G01*
X36872216Y-39457247D01*
X36896085Y-39464487D01*
X37007046Y-39523798D01*
X37052432Y-39548057D01*
X37052434Y-39548058D01*
X37052433Y-39548058D01*
X37189475Y-39660525D01*
X37301942Y-39797567D01*
X37385513Y-39953915D01*
X37385514Y-39953919D01*
X37436977Y-40123569D01*
X37454354Y-40300000D01*
X37436977Y-40476431D01*
X37392753Y-40622216D01*
X37385513Y-40646085D01*
X37362320Y-40689475D01*
X37301943Y-40802432D01*
X37189475Y-40939475D01*
X37052432Y-41051943D01*
X37007046Y-41076202D01*
X36896085Y-41135513D01*
X36872216Y-41142753D01*
X36726431Y-41186977D01*
X36594207Y-41200000D01*
X36505793Y-41200000D01*
X36373569Y-41186977D01*
X36227784Y-41142753D01*
X36203915Y-41135513D01*
X36092954Y-41076202D01*
X36047568Y-41051943D01*
X35910525Y-40939475D01*
X35798057Y-40802432D01*
X35737680Y-40689475D01*
X35714487Y-40646085D01*
X35707247Y-40622216D01*
X35663023Y-40476431D01*
X35645646Y-40300000D01*
X35663023Y-40123569D01*
X35714486Y-39953919D01*
X35714487Y-39953915D01*
X35798058Y-39797567D01*
X35910525Y-39660525D01*
X36047567Y-39548058D01*
X36047566Y-39548058D01*
X36047568Y-39548057D01*
X36092954Y-39523798D01*
X36203915Y-39464487D01*
X36227784Y-39457247D01*
X36373569Y-39413023D01*
X36505793Y-39400000D01*
X36594207Y-39400000D01*
X36726431Y-39413023D01*
X36726431Y-39413023D01*
G37*
G36*
X46886431Y-39413023D02*
G01*
X47032216Y-39457247D01*
X47056085Y-39464487D01*
X47167046Y-39523798D01*
X47212432Y-39548057D01*
X47212434Y-39548058D01*
X47212433Y-39548058D01*
X47349475Y-39660525D01*
X47461942Y-39797567D01*
X47545513Y-39953915D01*
X47545514Y-39953919D01*
X47596977Y-40123569D01*
X47614354Y-40300000D01*
X47596977Y-40476431D01*
X47552753Y-40622216D01*
X47545513Y-40646085D01*
X47522320Y-40689475D01*
X47461943Y-40802432D01*
X47349475Y-40939475D01*
X47212432Y-41051943D01*
X47167046Y-41076202D01*
X47056085Y-41135513D01*
X47032216Y-41142753D01*
X46886431Y-41186977D01*
X46754207Y-41200000D01*
X46665793Y-41200000D01*
X46533569Y-41186977D01*
X46387784Y-41142753D01*
X46363915Y-41135513D01*
X46252954Y-41076202D01*
X46207568Y-41051943D01*
X46070525Y-40939475D01*
X45958057Y-40802432D01*
X45897680Y-40689475D01*
X45874487Y-40646085D01*
X45867247Y-40622216D01*
X45823023Y-40476431D01*
X45805646Y-40300000D01*
X45823023Y-40123569D01*
X45874486Y-39953919D01*
X45874487Y-39953915D01*
X45958058Y-39797567D01*
X46070525Y-39660525D01*
X46207567Y-39548058D01*
X46207566Y-39548058D01*
X46207568Y-39548057D01*
X46252954Y-39523798D01*
X46363915Y-39464487D01*
X46387784Y-39457247D01*
X46533569Y-39413023D01*
X46665793Y-39400000D01*
X46754207Y-39400000D01*
X46886431Y-39413023D01*
X46886431Y-39413023D01*
G37*
G36*
X44346431Y-39413023D02*
G01*
X44492216Y-39457247D01*
X44516085Y-39464487D01*
X44627046Y-39523798D01*
X44672432Y-39548057D01*
X44672434Y-39548058D01*
X44672433Y-39548058D01*
X44809475Y-39660525D01*
X44921942Y-39797567D01*
X45005513Y-39953915D01*
X45005514Y-39953919D01*
X45056977Y-40123569D01*
X45074354Y-40300000D01*
X45056977Y-40476431D01*
X45012753Y-40622216D01*
X45005513Y-40646085D01*
X44982320Y-40689475D01*
X44921943Y-40802432D01*
X44809475Y-40939475D01*
X44672432Y-41051943D01*
X44627046Y-41076202D01*
X44516085Y-41135513D01*
X44492216Y-41142753D01*
X44346431Y-41186977D01*
X44214207Y-41200000D01*
X44125793Y-41200000D01*
X43993569Y-41186977D01*
X43847784Y-41142753D01*
X43823915Y-41135513D01*
X43712954Y-41076202D01*
X43667568Y-41051943D01*
X43530525Y-40939475D01*
X43418057Y-40802432D01*
X43357680Y-40689475D01*
X43334487Y-40646085D01*
X43327247Y-40622216D01*
X43283023Y-40476431D01*
X43265646Y-40300000D01*
X43283023Y-40123569D01*
X43334486Y-39953919D01*
X43334487Y-39953915D01*
X43418058Y-39797567D01*
X43530525Y-39660525D01*
X43667567Y-39548058D01*
X43667566Y-39548058D01*
X43667568Y-39548057D01*
X43712954Y-39523798D01*
X43823915Y-39464487D01*
X43847784Y-39457247D01*
X43993569Y-39413023D01*
X44125793Y-39400000D01*
X44214207Y-39400000D01*
X44346431Y-39413023D01*
X44346431Y-39413023D01*
G37*
G36*
X50150000Y-41200000D02*
G01*
X48350000Y-41200000D01*
X48350000Y-39400000D01*
X50150000Y-39400000D01*
X50150000Y-41200000D01*
X50150000Y-41200000D01*
G37*
G36*
X60876431Y-39163023D02*
G01*
X61022216Y-39207247D01*
X61046085Y-39214487D01*
X61157046Y-39273798D01*
X61202432Y-39298057D01*
X61339475Y-39410525D01*
X61451943Y-39547568D01*
X61476202Y-39592954D01*
X61535513Y-39703915D01*
X61535514Y-39703919D01*
X61586977Y-39873569D01*
X61604354Y-40050000D01*
X61586977Y-40226431D01*
X61542753Y-40372216D01*
X61535513Y-40396085D01*
X61476202Y-40507046D01*
X61451943Y-40552432D01*
X61339475Y-40689475D01*
X61202432Y-40801943D01*
X61157046Y-40826202D01*
X61046085Y-40885513D01*
X61022216Y-40892753D01*
X60876431Y-40936977D01*
X60744207Y-40950000D01*
X60655793Y-40950000D01*
X60523569Y-40936977D01*
X60377784Y-40892753D01*
X60353915Y-40885513D01*
X60242954Y-40826202D01*
X60197568Y-40801943D01*
X60060525Y-40689475D01*
X59948057Y-40552432D01*
X59923798Y-40507046D01*
X59864487Y-40396085D01*
X59857247Y-40372216D01*
X59813023Y-40226431D01*
X59795646Y-40050000D01*
X59813023Y-39873569D01*
X59864486Y-39703919D01*
X59864487Y-39703915D01*
X59923798Y-39592954D01*
X59948057Y-39547568D01*
X60060525Y-39410525D01*
X60197568Y-39298057D01*
X60242954Y-39273798D01*
X60353915Y-39214487D01*
X60377784Y-39207247D01*
X60523569Y-39163023D01*
X60655793Y-39150000D01*
X60744207Y-39150000D01*
X60876431Y-39163023D01*
X60876431Y-39163023D01*
G37*
G36*
X55796431Y-39163023D02*
G01*
X55942216Y-39207247D01*
X55966085Y-39214487D01*
X56077046Y-39273798D01*
X56122432Y-39298057D01*
X56259475Y-39410525D01*
X56371943Y-39547568D01*
X56396202Y-39592954D01*
X56455513Y-39703915D01*
X56455514Y-39703919D01*
X56506977Y-39873569D01*
X56524354Y-40050000D01*
X56506977Y-40226431D01*
X56462753Y-40372216D01*
X56455513Y-40396085D01*
X56396202Y-40507046D01*
X56371943Y-40552432D01*
X56259475Y-40689475D01*
X56122432Y-40801943D01*
X56077046Y-40826202D01*
X55966085Y-40885513D01*
X55942216Y-40892753D01*
X55796431Y-40936977D01*
X55664207Y-40950000D01*
X55575793Y-40950000D01*
X55443569Y-40936977D01*
X55297784Y-40892753D01*
X55273915Y-40885513D01*
X55162954Y-40826202D01*
X55117568Y-40801943D01*
X54980525Y-40689475D01*
X54868057Y-40552432D01*
X54843798Y-40507046D01*
X54784487Y-40396085D01*
X54777247Y-40372216D01*
X54733023Y-40226431D01*
X54715646Y-40050000D01*
X54733023Y-39873569D01*
X54784486Y-39703919D01*
X54784487Y-39703915D01*
X54843798Y-39592954D01*
X54868057Y-39547568D01*
X54980525Y-39410525D01*
X55117568Y-39298057D01*
X55162954Y-39273798D01*
X55273915Y-39214487D01*
X55297784Y-39207247D01*
X55443569Y-39163023D01*
X55575793Y-39150000D01*
X55664207Y-39150000D01*
X55796431Y-39163023D01*
X55796431Y-39163023D01*
G37*
G36*
X63416431Y-39163023D02*
G01*
X63562216Y-39207247D01*
X63586085Y-39214487D01*
X63697046Y-39273798D01*
X63742432Y-39298057D01*
X63879475Y-39410525D01*
X63991943Y-39547568D01*
X64016202Y-39592954D01*
X64075513Y-39703915D01*
X64075514Y-39703919D01*
X64126977Y-39873569D01*
X64144354Y-40050000D01*
X64126977Y-40226431D01*
X64082753Y-40372216D01*
X64075513Y-40396085D01*
X64016202Y-40507046D01*
X63991943Y-40552432D01*
X63879475Y-40689475D01*
X63742432Y-40801943D01*
X63697046Y-40826202D01*
X63586085Y-40885513D01*
X63562216Y-40892753D01*
X63416431Y-40936977D01*
X63284207Y-40950000D01*
X63195793Y-40950000D01*
X63063569Y-40936977D01*
X62917784Y-40892753D01*
X62893915Y-40885513D01*
X62782954Y-40826202D01*
X62737568Y-40801943D01*
X62600525Y-40689475D01*
X62488057Y-40552432D01*
X62463798Y-40507046D01*
X62404487Y-40396085D01*
X62397247Y-40372216D01*
X62353023Y-40226431D01*
X62335646Y-40050000D01*
X62353023Y-39873569D01*
X62404486Y-39703919D01*
X62404487Y-39703915D01*
X62463798Y-39592954D01*
X62488057Y-39547568D01*
X62600525Y-39410525D01*
X62737568Y-39298057D01*
X62782954Y-39273798D01*
X62893915Y-39214487D01*
X62917784Y-39207247D01*
X63063569Y-39163023D01*
X63195793Y-39150000D01*
X63284207Y-39150000D01*
X63416431Y-39163023D01*
X63416431Y-39163023D01*
G37*
G36*
X50150000Y-38660000D02*
G01*
X48350000Y-38660000D01*
X48350000Y-36860000D01*
X50150000Y-36860000D01*
X50150000Y-38660000D01*
X50150000Y-38660000D01*
G37*
G36*
X46886431Y-36873023D02*
G01*
X47032216Y-36917247D01*
X47056085Y-36924487D01*
X47167046Y-36983798D01*
X47212432Y-37008057D01*
X47212434Y-37008058D01*
X47212433Y-37008058D01*
X47349475Y-37120525D01*
X47461942Y-37257567D01*
X47545513Y-37413915D01*
X47545514Y-37413919D01*
X47596977Y-37583569D01*
X47614354Y-37760000D01*
X47596977Y-37936431D01*
X47552753Y-38082216D01*
X47545513Y-38106085D01*
X47522320Y-38149475D01*
X47461943Y-38262432D01*
X47349475Y-38399475D01*
X47212432Y-38511943D01*
X47167046Y-38536202D01*
X47056085Y-38595513D01*
X47032216Y-38602753D01*
X46886431Y-38646977D01*
X46754207Y-38660000D01*
X46665793Y-38660000D01*
X46533569Y-38646977D01*
X46387784Y-38602753D01*
X46363915Y-38595513D01*
X46252954Y-38536202D01*
X46207568Y-38511943D01*
X46070525Y-38399475D01*
X45958057Y-38262432D01*
X45897680Y-38149475D01*
X45874487Y-38106085D01*
X45867247Y-38082216D01*
X45823023Y-37936431D01*
X45805646Y-37760000D01*
X45823023Y-37583569D01*
X45874486Y-37413919D01*
X45874487Y-37413915D01*
X45958058Y-37257567D01*
X46070525Y-37120525D01*
X46207567Y-37008058D01*
X46207566Y-37008058D01*
X46207568Y-37008057D01*
X46252954Y-36983798D01*
X46363915Y-36924487D01*
X46387784Y-36917247D01*
X46533569Y-36873023D01*
X46665793Y-36860000D01*
X46754207Y-36860000D01*
X46886431Y-36873023D01*
X46886431Y-36873023D01*
G37*
G36*
X44346431Y-36873023D02*
G01*
X44492216Y-36917247D01*
X44516085Y-36924487D01*
X44627046Y-36983798D01*
X44672432Y-37008057D01*
X44672434Y-37008058D01*
X44672433Y-37008058D01*
X44809475Y-37120525D01*
X44921942Y-37257567D01*
X45005513Y-37413915D01*
X45005514Y-37413919D01*
X45056977Y-37583569D01*
X45074354Y-37760000D01*
X45056977Y-37936431D01*
X45012753Y-38082216D01*
X45005513Y-38106085D01*
X44982320Y-38149475D01*
X44921943Y-38262432D01*
X44809475Y-38399475D01*
X44672432Y-38511943D01*
X44627046Y-38536202D01*
X44516085Y-38595513D01*
X44492216Y-38602753D01*
X44346431Y-38646977D01*
X44214207Y-38660000D01*
X44125793Y-38660000D01*
X43993569Y-38646977D01*
X43847784Y-38602753D01*
X43823915Y-38595513D01*
X43712954Y-38536202D01*
X43667568Y-38511943D01*
X43530525Y-38399475D01*
X43418057Y-38262432D01*
X43357680Y-38149475D01*
X43334487Y-38106085D01*
X43327247Y-38082216D01*
X43283023Y-37936431D01*
X43265646Y-37760000D01*
X43283023Y-37583569D01*
X43334486Y-37413919D01*
X43334487Y-37413915D01*
X43418058Y-37257567D01*
X43530525Y-37120525D01*
X43667567Y-37008058D01*
X43667566Y-37008058D01*
X43667568Y-37008057D01*
X43712954Y-36983798D01*
X43823915Y-36924487D01*
X43847784Y-36917247D01*
X43993569Y-36873023D01*
X44125793Y-36860000D01*
X44214207Y-36860000D01*
X44346431Y-36873023D01*
X44346431Y-36873023D01*
G37*
G36*
X41806431Y-36873023D02*
G01*
X41952216Y-36917247D01*
X41976085Y-36924487D01*
X42087046Y-36983798D01*
X42132432Y-37008057D01*
X42132434Y-37008058D01*
X42132433Y-37008058D01*
X42269475Y-37120525D01*
X42381942Y-37257567D01*
X42465513Y-37413915D01*
X42465514Y-37413919D01*
X42516977Y-37583569D01*
X42534354Y-37760000D01*
X42516977Y-37936431D01*
X42472753Y-38082216D01*
X42465513Y-38106085D01*
X42442320Y-38149475D01*
X42381943Y-38262432D01*
X42269475Y-38399475D01*
X42132432Y-38511943D01*
X42087046Y-38536202D01*
X41976085Y-38595513D01*
X41952216Y-38602753D01*
X41806431Y-38646977D01*
X41674207Y-38660000D01*
X41585793Y-38660000D01*
X41453569Y-38646977D01*
X41307784Y-38602753D01*
X41283915Y-38595513D01*
X41172954Y-38536202D01*
X41127568Y-38511943D01*
X40990525Y-38399475D01*
X40878057Y-38262432D01*
X40817680Y-38149475D01*
X40794487Y-38106085D01*
X40787247Y-38082216D01*
X40743023Y-37936431D01*
X40725646Y-37760000D01*
X40743023Y-37583569D01*
X40794486Y-37413919D01*
X40794487Y-37413915D01*
X40878058Y-37257567D01*
X40990525Y-37120525D01*
X41127567Y-37008058D01*
X41127566Y-37008058D01*
X41127568Y-37008057D01*
X41172954Y-36983798D01*
X41283915Y-36924487D01*
X41307784Y-36917247D01*
X41453569Y-36873023D01*
X41585793Y-36860000D01*
X41674207Y-36860000D01*
X41806431Y-36873023D01*
X41806431Y-36873023D01*
G37*
G36*
X39266431Y-36873023D02*
G01*
X39412216Y-36917247D01*
X39436085Y-36924487D01*
X39547046Y-36983798D01*
X39592432Y-37008057D01*
X39592434Y-37008058D01*
X39592433Y-37008058D01*
X39729475Y-37120525D01*
X39841942Y-37257567D01*
X39925513Y-37413915D01*
X39925514Y-37413919D01*
X39976977Y-37583569D01*
X39994354Y-37760000D01*
X39976977Y-37936431D01*
X39932753Y-38082216D01*
X39925513Y-38106085D01*
X39902320Y-38149475D01*
X39841943Y-38262432D01*
X39729475Y-38399475D01*
X39592432Y-38511943D01*
X39547046Y-38536202D01*
X39436085Y-38595513D01*
X39412216Y-38602753D01*
X39266431Y-38646977D01*
X39134207Y-38660000D01*
X39045793Y-38660000D01*
X38913569Y-38646977D01*
X38767784Y-38602753D01*
X38743915Y-38595513D01*
X38632954Y-38536202D01*
X38587568Y-38511943D01*
X38450525Y-38399475D01*
X38338057Y-38262432D01*
X38277680Y-38149475D01*
X38254487Y-38106085D01*
X38247247Y-38082216D01*
X38203023Y-37936431D01*
X38185646Y-37760000D01*
X38203023Y-37583569D01*
X38254486Y-37413919D01*
X38254487Y-37413915D01*
X38338058Y-37257567D01*
X38450525Y-37120525D01*
X38587567Y-37008058D01*
X38587566Y-37008058D01*
X38587568Y-37008057D01*
X38632954Y-36983798D01*
X38743915Y-36924487D01*
X38767784Y-36917247D01*
X38913569Y-36873023D01*
X39045793Y-36860000D01*
X39134207Y-36860000D01*
X39266431Y-36873023D01*
X39266431Y-36873023D01*
G37*
G36*
X36726431Y-36873023D02*
G01*
X36872216Y-36917247D01*
X36896085Y-36924487D01*
X37007046Y-36983798D01*
X37052432Y-37008057D01*
X37052434Y-37008058D01*
X37052433Y-37008058D01*
X37189475Y-37120525D01*
X37301942Y-37257567D01*
X37385513Y-37413915D01*
X37385514Y-37413919D01*
X37436977Y-37583569D01*
X37454354Y-37760000D01*
X37436977Y-37936431D01*
X37392753Y-38082216D01*
X37385513Y-38106085D01*
X37362320Y-38149475D01*
X37301943Y-38262432D01*
X37189475Y-38399475D01*
X37052432Y-38511943D01*
X37007046Y-38536202D01*
X36896085Y-38595513D01*
X36872216Y-38602753D01*
X36726431Y-38646977D01*
X36594207Y-38660000D01*
X36505793Y-38660000D01*
X36373569Y-38646977D01*
X36227784Y-38602753D01*
X36203915Y-38595513D01*
X36092954Y-38536202D01*
X36047568Y-38511943D01*
X35910525Y-38399475D01*
X35798057Y-38262432D01*
X35737680Y-38149475D01*
X35714487Y-38106085D01*
X35707247Y-38082216D01*
X35663023Y-37936431D01*
X35645646Y-37760000D01*
X35663023Y-37583569D01*
X35714486Y-37413919D01*
X35714487Y-37413915D01*
X35798058Y-37257567D01*
X35910525Y-37120525D01*
X36047567Y-37008058D01*
X36047566Y-37008058D01*
X36047568Y-37008057D01*
X36092954Y-36983798D01*
X36203915Y-36924487D01*
X36227784Y-36917247D01*
X36373569Y-36873023D01*
X36505793Y-36860000D01*
X36594207Y-36860000D01*
X36726431Y-36873023D01*
X36726431Y-36873023D01*
G37*
G36*
X55796431Y-36623023D02*
G01*
X55942216Y-36667247D01*
X55966085Y-36674487D01*
X56077046Y-36733798D01*
X56122432Y-36758057D01*
X56259475Y-36870525D01*
X56371943Y-37007568D01*
X56396202Y-37052954D01*
X56455513Y-37163915D01*
X56455514Y-37163919D01*
X56506977Y-37333569D01*
X56524354Y-37510000D01*
X56506977Y-37686431D01*
X56462753Y-37832216D01*
X56455513Y-37856085D01*
X56396202Y-37967046D01*
X56371943Y-38012432D01*
X56259475Y-38149475D01*
X56122432Y-38261943D01*
X56077046Y-38286202D01*
X55966085Y-38345513D01*
X55942216Y-38352753D01*
X55796431Y-38396977D01*
X55664207Y-38410000D01*
X55575793Y-38410000D01*
X55443569Y-38396977D01*
X55297784Y-38352753D01*
X55273915Y-38345513D01*
X55162954Y-38286202D01*
X55117568Y-38261943D01*
X54980525Y-38149475D01*
X54868057Y-38012432D01*
X54843798Y-37967046D01*
X54784487Y-37856085D01*
X54777247Y-37832216D01*
X54733023Y-37686431D01*
X54715646Y-37510000D01*
X54733023Y-37333569D01*
X54784486Y-37163919D01*
X54784487Y-37163915D01*
X54843798Y-37052954D01*
X54868057Y-37007568D01*
X54980525Y-36870525D01*
X55117568Y-36758057D01*
X55162954Y-36733798D01*
X55273915Y-36674487D01*
X55297784Y-36667247D01*
X55443569Y-36623023D01*
X55575793Y-36610000D01*
X55664207Y-36610000D01*
X55796431Y-36623023D01*
X55796431Y-36623023D01*
G37*
G36*
X63416431Y-36623023D02*
G01*
X63562216Y-36667247D01*
X63586085Y-36674487D01*
X63697046Y-36733798D01*
X63742432Y-36758057D01*
X63879475Y-36870525D01*
X63991943Y-37007568D01*
X64016202Y-37052954D01*
X64075513Y-37163915D01*
X64075514Y-37163919D01*
X64126977Y-37333569D01*
X64144354Y-37510000D01*
X64126977Y-37686431D01*
X64082753Y-37832216D01*
X64075513Y-37856085D01*
X64016202Y-37967046D01*
X63991943Y-38012432D01*
X63879475Y-38149475D01*
X63742432Y-38261943D01*
X63697046Y-38286202D01*
X63586085Y-38345513D01*
X63562216Y-38352753D01*
X63416431Y-38396977D01*
X63284207Y-38410000D01*
X63195793Y-38410000D01*
X63063569Y-38396977D01*
X62917784Y-38352753D01*
X62893915Y-38345513D01*
X62782954Y-38286202D01*
X62737568Y-38261943D01*
X62600525Y-38149475D01*
X62488057Y-38012432D01*
X62463798Y-37967046D01*
X62404487Y-37856085D01*
X62397247Y-37832216D01*
X62353023Y-37686431D01*
X62335646Y-37510000D01*
X62353023Y-37333569D01*
X62404486Y-37163919D01*
X62404487Y-37163915D01*
X62463798Y-37052954D01*
X62488057Y-37007568D01*
X62600525Y-36870525D01*
X62737568Y-36758057D01*
X62782954Y-36733798D01*
X62893915Y-36674487D01*
X62917784Y-36667247D01*
X63063569Y-36623023D01*
X63195793Y-36610000D01*
X63284207Y-36610000D01*
X63416431Y-36623023D01*
X63416431Y-36623023D01*
G37*
G36*
X60876431Y-36623023D02*
G01*
X61022216Y-36667247D01*
X61046085Y-36674487D01*
X61157046Y-36733798D01*
X61202432Y-36758057D01*
X61339475Y-36870525D01*
X61451943Y-37007568D01*
X61476202Y-37052954D01*
X61535513Y-37163915D01*
X61535514Y-37163919D01*
X61586977Y-37333569D01*
X61604354Y-37510000D01*
X61586977Y-37686431D01*
X61542753Y-37832216D01*
X61535513Y-37856085D01*
X61476202Y-37967046D01*
X61451943Y-38012432D01*
X61339475Y-38149475D01*
X61202432Y-38261943D01*
X61157046Y-38286202D01*
X61046085Y-38345513D01*
X61022216Y-38352753D01*
X60876431Y-38396977D01*
X60744207Y-38410000D01*
X60655793Y-38410000D01*
X60523569Y-38396977D01*
X60377784Y-38352753D01*
X60353915Y-38345513D01*
X60242954Y-38286202D01*
X60197568Y-38261943D01*
X60060525Y-38149475D01*
X59948057Y-38012432D01*
X59923798Y-37967046D01*
X59864487Y-37856085D01*
X59857247Y-37832216D01*
X59813023Y-37686431D01*
X59795646Y-37510000D01*
X59813023Y-37333569D01*
X59864486Y-37163919D01*
X59864487Y-37163915D01*
X59923798Y-37052954D01*
X59948057Y-37007568D01*
X60060525Y-36870525D01*
X60197568Y-36758057D01*
X60242954Y-36733798D01*
X60353915Y-36674487D01*
X60377784Y-36667247D01*
X60523569Y-36623023D01*
X60655793Y-36610000D01*
X60744207Y-36610000D01*
X60876431Y-36623023D01*
X60876431Y-36623023D01*
G37*
G36*
X55796431Y-34083023D02*
G01*
X55942216Y-34127247D01*
X55966085Y-34134487D01*
X56077046Y-34193798D01*
X56122432Y-34218057D01*
X56122434Y-34218058D01*
X56122433Y-34218058D01*
X56259475Y-34330525D01*
X56371942Y-34467567D01*
X56455513Y-34623915D01*
X56455514Y-34623919D01*
X56506977Y-34793569D01*
X56524354Y-34970000D01*
X56506977Y-35146431D01*
X56462753Y-35292216D01*
X56455513Y-35316085D01*
X56396202Y-35427046D01*
X56371943Y-35472432D01*
X56259475Y-35609475D01*
X56122432Y-35721943D01*
X56077046Y-35746202D01*
X55966085Y-35805513D01*
X55942216Y-35812753D01*
X55796431Y-35856977D01*
X55664207Y-35870000D01*
X55575793Y-35870000D01*
X55443569Y-35856977D01*
X55297784Y-35812753D01*
X55273915Y-35805513D01*
X55162954Y-35746202D01*
X55117568Y-35721943D01*
X54980525Y-35609475D01*
X54868057Y-35472432D01*
X54843798Y-35427046D01*
X54784487Y-35316085D01*
X54777247Y-35292216D01*
X54733023Y-35146431D01*
X54715646Y-34970000D01*
X54733023Y-34793569D01*
X54784486Y-34623919D01*
X54784487Y-34623915D01*
X54868058Y-34467567D01*
X54980525Y-34330525D01*
X55117567Y-34218058D01*
X55117566Y-34218058D01*
X55117568Y-34218057D01*
X55162954Y-34193798D01*
X55273915Y-34134487D01*
X55297784Y-34127247D01*
X55443569Y-34083023D01*
X55575793Y-34070000D01*
X55664207Y-34070000D01*
X55796431Y-34083023D01*
X55796431Y-34083023D01*
G37*
G36*
X63416431Y-34083023D02*
G01*
X63562216Y-34127247D01*
X63586085Y-34134487D01*
X63697046Y-34193798D01*
X63742432Y-34218057D01*
X63742434Y-34218058D01*
X63742433Y-34218058D01*
X63879475Y-34330525D01*
X63991942Y-34467567D01*
X64075513Y-34623915D01*
X64075514Y-34623919D01*
X64126977Y-34793569D01*
X64144354Y-34970000D01*
X64126977Y-35146431D01*
X64082753Y-35292216D01*
X64075513Y-35316085D01*
X64016202Y-35427046D01*
X63991943Y-35472432D01*
X63879475Y-35609475D01*
X63742432Y-35721943D01*
X63697046Y-35746202D01*
X63586085Y-35805513D01*
X63562216Y-35812753D01*
X63416431Y-35856977D01*
X63284207Y-35870000D01*
X63195793Y-35870000D01*
X63063569Y-35856977D01*
X62917784Y-35812753D01*
X62893915Y-35805513D01*
X62782954Y-35746202D01*
X62737568Y-35721943D01*
X62600525Y-35609475D01*
X62488057Y-35472432D01*
X62463798Y-35427046D01*
X62404487Y-35316085D01*
X62397247Y-35292216D01*
X62353023Y-35146431D01*
X62335646Y-34970000D01*
X62353023Y-34793569D01*
X62404486Y-34623919D01*
X62404487Y-34623915D01*
X62488058Y-34467567D01*
X62600525Y-34330525D01*
X62737567Y-34218058D01*
X62737566Y-34218058D01*
X62737568Y-34218057D01*
X62782954Y-34193798D01*
X62893915Y-34134487D01*
X62917784Y-34127247D01*
X63063569Y-34083023D01*
X63195793Y-34070000D01*
X63284207Y-34070000D01*
X63416431Y-34083023D01*
X63416431Y-34083023D01*
G37*
G36*
X60876431Y-34083023D02*
G01*
X61022216Y-34127247D01*
X61046085Y-34134487D01*
X61157046Y-34193798D01*
X61202432Y-34218057D01*
X61202434Y-34218058D01*
X61202433Y-34218058D01*
X61339475Y-34330525D01*
X61451942Y-34467567D01*
X61535513Y-34623915D01*
X61535514Y-34623919D01*
X61586977Y-34793569D01*
X61604354Y-34970000D01*
X61586977Y-35146431D01*
X61542753Y-35292216D01*
X61535513Y-35316085D01*
X61476202Y-35427046D01*
X61451943Y-35472432D01*
X61339475Y-35609475D01*
X61202432Y-35721943D01*
X61157046Y-35746202D01*
X61046085Y-35805513D01*
X61022216Y-35812753D01*
X60876431Y-35856977D01*
X60744207Y-35870000D01*
X60655793Y-35870000D01*
X60523569Y-35856977D01*
X60377784Y-35812753D01*
X60353915Y-35805513D01*
X60242954Y-35746202D01*
X60197568Y-35721943D01*
X60060525Y-35609475D01*
X59948057Y-35472432D01*
X59923798Y-35427046D01*
X59864487Y-35316085D01*
X59857247Y-35292216D01*
X59813023Y-35146431D01*
X59795646Y-34970000D01*
X59813023Y-34793569D01*
X59864486Y-34623919D01*
X59864487Y-34623915D01*
X59948058Y-34467567D01*
X60060525Y-34330525D01*
X60197567Y-34218058D01*
X60197566Y-34218058D01*
X60197568Y-34218057D01*
X60242954Y-34193798D01*
X60353915Y-34134487D01*
X60377784Y-34127247D01*
X60523569Y-34083023D01*
X60655793Y-34070000D01*
X60744207Y-34070000D01*
X60876431Y-34083023D01*
X60876431Y-34083023D01*
G37*
G36*
X55796431Y-31543023D02*
G01*
X55942216Y-31587247D01*
X55966085Y-31594487D01*
X56077046Y-31653798D01*
X56122432Y-31678057D01*
X56180954Y-31726085D01*
X56259475Y-31790525D01*
X56371942Y-31927567D01*
X56455513Y-32083915D01*
X56455514Y-32083919D01*
X56506977Y-32253569D01*
X56524354Y-32430000D01*
X56506977Y-32606431D01*
X56462753Y-32752216D01*
X56455513Y-32776085D01*
X56396202Y-32887046D01*
X56371943Y-32932432D01*
X56259475Y-33069475D01*
X56122432Y-33181943D01*
X56077046Y-33206202D01*
X55966085Y-33265513D01*
X55942216Y-33272753D01*
X55796431Y-33316977D01*
X55664207Y-33330000D01*
X55575793Y-33330000D01*
X55443569Y-33316977D01*
X55297784Y-33272753D01*
X55273915Y-33265513D01*
X55162954Y-33206202D01*
X55117568Y-33181943D01*
X54980525Y-33069475D01*
X54868057Y-32932432D01*
X54843798Y-32887046D01*
X54784487Y-32776085D01*
X54777247Y-32752216D01*
X54733023Y-32606431D01*
X54715646Y-32430000D01*
X54733023Y-32253569D01*
X54784486Y-32083919D01*
X54784487Y-32083915D01*
X54868058Y-31927567D01*
X54980525Y-31790525D01*
X55059046Y-31726085D01*
X55117568Y-31678057D01*
X55162954Y-31653798D01*
X55273915Y-31594487D01*
X55297784Y-31587247D01*
X55443569Y-31543023D01*
X55575793Y-31530000D01*
X55664207Y-31530000D01*
X55796431Y-31543023D01*
X55796431Y-31543023D01*
G37*
G36*
X63416431Y-31543023D02*
G01*
X63562216Y-31587247D01*
X63586085Y-31594487D01*
X63697046Y-31653798D01*
X63742432Y-31678057D01*
X63800954Y-31726085D01*
X63879475Y-31790525D01*
X63991942Y-31927567D01*
X64075513Y-32083915D01*
X64075514Y-32083919D01*
X64126977Y-32253569D01*
X64144354Y-32430000D01*
X64126977Y-32606431D01*
X64082753Y-32752216D01*
X64075513Y-32776085D01*
X64016202Y-32887046D01*
X63991943Y-32932432D01*
X63879475Y-33069475D01*
X63742432Y-33181943D01*
X63697046Y-33206202D01*
X63586085Y-33265513D01*
X63562216Y-33272753D01*
X63416431Y-33316977D01*
X63284207Y-33330000D01*
X63195793Y-33330000D01*
X63063569Y-33316977D01*
X62917784Y-33272753D01*
X62893915Y-33265513D01*
X62782954Y-33206202D01*
X62737568Y-33181943D01*
X62600525Y-33069475D01*
X62488057Y-32932432D01*
X62463798Y-32887046D01*
X62404487Y-32776085D01*
X62397247Y-32752216D01*
X62353023Y-32606431D01*
X62335646Y-32430000D01*
X62353023Y-32253569D01*
X62404486Y-32083919D01*
X62404487Y-32083915D01*
X62488058Y-31927567D01*
X62600525Y-31790525D01*
X62679046Y-31726085D01*
X62737568Y-31678057D01*
X62782954Y-31653798D01*
X62893915Y-31594487D01*
X62917784Y-31587247D01*
X63063569Y-31543023D01*
X63195793Y-31530000D01*
X63284207Y-31530000D01*
X63416431Y-31543023D01*
X63416431Y-31543023D01*
G37*
G36*
X60876431Y-31543023D02*
G01*
X61022216Y-31587247D01*
X61046085Y-31594487D01*
X61157046Y-31653798D01*
X61202432Y-31678057D01*
X61260954Y-31726085D01*
X61339475Y-31790525D01*
X61451942Y-31927567D01*
X61535513Y-32083915D01*
X61535514Y-32083919D01*
X61586977Y-32253569D01*
X61604354Y-32430000D01*
X61586977Y-32606431D01*
X61542753Y-32752216D01*
X61535513Y-32776085D01*
X61476202Y-32887046D01*
X61451943Y-32932432D01*
X61339475Y-33069475D01*
X61202432Y-33181943D01*
X61157046Y-33206202D01*
X61046085Y-33265513D01*
X61022216Y-33272753D01*
X60876431Y-33316977D01*
X60744207Y-33330000D01*
X60655793Y-33330000D01*
X60523569Y-33316977D01*
X60377784Y-33272753D01*
X60353915Y-33265513D01*
X60242954Y-33206202D01*
X60197568Y-33181943D01*
X60060525Y-33069475D01*
X59948057Y-32932432D01*
X59923798Y-32887046D01*
X59864487Y-32776085D01*
X59857247Y-32752216D01*
X59813023Y-32606431D01*
X59795646Y-32430000D01*
X59813023Y-32253569D01*
X59864486Y-32083919D01*
X59864487Y-32083915D01*
X59948058Y-31927567D01*
X60060525Y-31790525D01*
X60139046Y-31726085D01*
X60197568Y-31678057D01*
X60242954Y-31653798D01*
X60353915Y-31594487D01*
X60377784Y-31587247D01*
X60523569Y-31543023D01*
X60655793Y-31530000D01*
X60744207Y-31530000D01*
X60876431Y-31543023D01*
X60876431Y-31543023D01*
G37*
G36*
X49426431Y-30493023D02*
G01*
X49572216Y-30537247D01*
X49596085Y-30544487D01*
X49707046Y-30603798D01*
X49752432Y-30628057D01*
X49752434Y-30628058D01*
X49752433Y-30628058D01*
X49889475Y-30740525D01*
X50001942Y-30877567D01*
X50085513Y-31033915D01*
X50085514Y-31033919D01*
X50136977Y-31203569D01*
X50154354Y-31380000D01*
X50136977Y-31556431D01*
X50092753Y-31702216D01*
X50085513Y-31726085D01*
X50026202Y-31837046D01*
X50001943Y-31882432D01*
X49889475Y-32019475D01*
X49752432Y-32131943D01*
X49707046Y-32156202D01*
X49596085Y-32215513D01*
X49572216Y-32222753D01*
X49426431Y-32266977D01*
X49294207Y-32280000D01*
X49205793Y-32280000D01*
X49073569Y-32266977D01*
X48927784Y-32222753D01*
X48903915Y-32215513D01*
X48792954Y-32156202D01*
X48747568Y-32131943D01*
X48610525Y-32019475D01*
X48498057Y-31882432D01*
X48473798Y-31837046D01*
X48414487Y-31726085D01*
X48407247Y-31702216D01*
X48363023Y-31556431D01*
X48345646Y-31380000D01*
X48363023Y-31203569D01*
X48414486Y-31033919D01*
X48414487Y-31033915D01*
X48498058Y-30877567D01*
X48610525Y-30740525D01*
X48747567Y-30628058D01*
X48747566Y-30628058D01*
X48747568Y-30628057D01*
X48792954Y-30603798D01*
X48903915Y-30544487D01*
X48927784Y-30537247D01*
X49073569Y-30493023D01*
X49205793Y-30480000D01*
X49294207Y-30480000D01*
X49426431Y-30493023D01*
X49426431Y-30493023D01*
G37*
G36*
X46886431Y-30493023D02*
G01*
X47032216Y-30537247D01*
X47056085Y-30544487D01*
X47167046Y-30603798D01*
X47212432Y-30628057D01*
X47212434Y-30628058D01*
X47212433Y-30628058D01*
X47349475Y-30740525D01*
X47461942Y-30877567D01*
X47545513Y-31033915D01*
X47545514Y-31033919D01*
X47596977Y-31203569D01*
X47614354Y-31380000D01*
X47596977Y-31556431D01*
X47552753Y-31702216D01*
X47545513Y-31726085D01*
X47486202Y-31837046D01*
X47461943Y-31882432D01*
X47349475Y-32019475D01*
X47212432Y-32131943D01*
X47167046Y-32156202D01*
X47056085Y-32215513D01*
X47032216Y-32222753D01*
X46886431Y-32266977D01*
X46754207Y-32280000D01*
X46665793Y-32280000D01*
X46533569Y-32266977D01*
X46387784Y-32222753D01*
X46363915Y-32215513D01*
X46252954Y-32156202D01*
X46207568Y-32131943D01*
X46070525Y-32019475D01*
X45958057Y-31882432D01*
X45933798Y-31837046D01*
X45874487Y-31726085D01*
X45867247Y-31702216D01*
X45823023Y-31556431D01*
X45805646Y-31380000D01*
X45823023Y-31203569D01*
X45874486Y-31033919D01*
X45874487Y-31033915D01*
X45958058Y-30877567D01*
X46070525Y-30740525D01*
X46207567Y-30628058D01*
X46207566Y-30628058D01*
X46207568Y-30628057D01*
X46252954Y-30603798D01*
X46363915Y-30544487D01*
X46387784Y-30537247D01*
X46533569Y-30493023D01*
X46665793Y-30480000D01*
X46754207Y-30480000D01*
X46886431Y-30493023D01*
X46886431Y-30493023D01*
G37*
G36*
X44346431Y-30493023D02*
G01*
X44492216Y-30537247D01*
X44516085Y-30544487D01*
X44627046Y-30603798D01*
X44672432Y-30628057D01*
X44672434Y-30628058D01*
X44672433Y-30628058D01*
X44809475Y-30740525D01*
X44921942Y-30877567D01*
X45005513Y-31033915D01*
X45005514Y-31033919D01*
X45056977Y-31203569D01*
X45074354Y-31380000D01*
X45056977Y-31556431D01*
X45012753Y-31702216D01*
X45005513Y-31726085D01*
X44946202Y-31837046D01*
X44921943Y-31882432D01*
X44809475Y-32019475D01*
X44672432Y-32131943D01*
X44627046Y-32156202D01*
X44516085Y-32215513D01*
X44492216Y-32222753D01*
X44346431Y-32266977D01*
X44214207Y-32280000D01*
X44125793Y-32280000D01*
X43993569Y-32266977D01*
X43847784Y-32222753D01*
X43823915Y-32215513D01*
X43712954Y-32156202D01*
X43667568Y-32131943D01*
X43530525Y-32019475D01*
X43418057Y-31882432D01*
X43393798Y-31837046D01*
X43334487Y-31726085D01*
X43327247Y-31702216D01*
X43283023Y-31556431D01*
X43265646Y-31380000D01*
X43283023Y-31203569D01*
X43334486Y-31033919D01*
X43334487Y-31033915D01*
X43418058Y-30877567D01*
X43530525Y-30740525D01*
X43667567Y-30628058D01*
X43667566Y-30628058D01*
X43667568Y-30628057D01*
X43712954Y-30603798D01*
X43823915Y-30544487D01*
X43847784Y-30537247D01*
X43993569Y-30493023D01*
X44125793Y-30480000D01*
X44214207Y-30480000D01*
X44346431Y-30493023D01*
X44346431Y-30493023D01*
G37*
G36*
X60876431Y-29003023D02*
G01*
X61022216Y-29047247D01*
X61046085Y-29054487D01*
X61137623Y-29103416D01*
X61202432Y-29138057D01*
X61260954Y-29186085D01*
X61339475Y-29250525D01*
X61451942Y-29387567D01*
X61535513Y-29543915D01*
X61535514Y-29543919D01*
X61586977Y-29713569D01*
X61604354Y-29890000D01*
X61586977Y-30066431D01*
X61542753Y-30212216D01*
X61535513Y-30236085D01*
X61476202Y-30347046D01*
X61451943Y-30392432D01*
X61339475Y-30529475D01*
X61202432Y-30641943D01*
X61157046Y-30666202D01*
X61046085Y-30725513D01*
X61022216Y-30732753D01*
X60876431Y-30776977D01*
X60744207Y-30790000D01*
X60655793Y-30790000D01*
X60523569Y-30776977D01*
X60377784Y-30732753D01*
X60353915Y-30725513D01*
X60242954Y-30666202D01*
X60197568Y-30641943D01*
X60060525Y-30529475D01*
X59948057Y-30392432D01*
X59923798Y-30347046D01*
X59864487Y-30236085D01*
X59857247Y-30212216D01*
X59813023Y-30066431D01*
X59795646Y-29890000D01*
X59813023Y-29713569D01*
X59864486Y-29543919D01*
X59864487Y-29543915D01*
X59948058Y-29387567D01*
X60060525Y-29250525D01*
X60139046Y-29186085D01*
X60197568Y-29138057D01*
X60262377Y-29103416D01*
X60353915Y-29054487D01*
X60377784Y-29047247D01*
X60523569Y-29003023D01*
X60655793Y-28990000D01*
X60744207Y-28990000D01*
X60876431Y-29003023D01*
X60876431Y-29003023D01*
G37*
G36*
X63416431Y-29003023D02*
G01*
X63562216Y-29047247D01*
X63586085Y-29054487D01*
X63677623Y-29103416D01*
X63742432Y-29138057D01*
X63800954Y-29186085D01*
X63879475Y-29250525D01*
X63991942Y-29387567D01*
X64075513Y-29543915D01*
X64075514Y-29543919D01*
X64126977Y-29713569D01*
X64144354Y-29890000D01*
X64126977Y-30066431D01*
X64082753Y-30212216D01*
X64075513Y-30236085D01*
X64016202Y-30347046D01*
X63991943Y-30392432D01*
X63879475Y-30529475D01*
X63742432Y-30641943D01*
X63697046Y-30666202D01*
X63586085Y-30725513D01*
X63562216Y-30732753D01*
X63416431Y-30776977D01*
X63284207Y-30790000D01*
X63195793Y-30790000D01*
X63063569Y-30776977D01*
X62917784Y-30732753D01*
X62893915Y-30725513D01*
X62782954Y-30666202D01*
X62737568Y-30641943D01*
X62600525Y-30529475D01*
X62488057Y-30392432D01*
X62463798Y-30347046D01*
X62404487Y-30236085D01*
X62397247Y-30212216D01*
X62353023Y-30066431D01*
X62335646Y-29890000D01*
X62353023Y-29713569D01*
X62404486Y-29543919D01*
X62404487Y-29543915D01*
X62488058Y-29387567D01*
X62600525Y-29250525D01*
X62679046Y-29186085D01*
X62737568Y-29138057D01*
X62802377Y-29103416D01*
X62893915Y-29054487D01*
X62917784Y-29047247D01*
X63063569Y-29003023D01*
X63195793Y-28990000D01*
X63284207Y-28990000D01*
X63416431Y-29003023D01*
X63416431Y-29003023D01*
G37*
G36*
X55796431Y-29003023D02*
G01*
X55942216Y-29047247D01*
X55966085Y-29054487D01*
X56057623Y-29103416D01*
X56122432Y-29138057D01*
X56180954Y-29186085D01*
X56259475Y-29250525D01*
X56371942Y-29387567D01*
X56455513Y-29543915D01*
X56455514Y-29543919D01*
X56506977Y-29713569D01*
X56524354Y-29890000D01*
X56506977Y-30066431D01*
X56462753Y-30212216D01*
X56455513Y-30236085D01*
X56396202Y-30347046D01*
X56371943Y-30392432D01*
X56259475Y-30529475D01*
X56122432Y-30641943D01*
X56077046Y-30666202D01*
X55966085Y-30725513D01*
X55942216Y-30732753D01*
X55796431Y-30776977D01*
X55664207Y-30790000D01*
X55575793Y-30790000D01*
X55443569Y-30776977D01*
X55297784Y-30732753D01*
X55273915Y-30725513D01*
X55162954Y-30666202D01*
X55117568Y-30641943D01*
X54980525Y-30529475D01*
X54868057Y-30392432D01*
X54843798Y-30347046D01*
X54784487Y-30236085D01*
X54777247Y-30212216D01*
X54733023Y-30066431D01*
X54715646Y-29890000D01*
X54733023Y-29713569D01*
X54784486Y-29543919D01*
X54784487Y-29543915D01*
X54868058Y-29387567D01*
X54980525Y-29250525D01*
X55059046Y-29186085D01*
X55117568Y-29138057D01*
X55182377Y-29103416D01*
X55273915Y-29054487D01*
X55297784Y-29047247D01*
X55443569Y-29003023D01*
X55575793Y-28990000D01*
X55664207Y-28990000D01*
X55796431Y-29003023D01*
X55796431Y-29003023D01*
G37*
G36*
X11156274Y-27990350D02*
G01*
X11347362Y-28069502D01*
X11519336Y-28184411D01*
X11665589Y-28330664D01*
X11780498Y-28502638D01*
X11859650Y-28693726D01*
X11900000Y-28896584D01*
X11900000Y-29103416D01*
X11859650Y-29306274D01*
X11780498Y-29497362D01*
X11665589Y-29669336D01*
X11519336Y-29815589D01*
X11347362Y-29930498D01*
X11156274Y-30009650D01*
X10953416Y-30050000D01*
X10746584Y-30050000D01*
X10543726Y-30009650D01*
X10352638Y-29930498D01*
X10180664Y-29815589D01*
X10034411Y-29669336D01*
X9919502Y-29497362D01*
X9840350Y-29306274D01*
X9800000Y-29103416D01*
X9800000Y-28896584D01*
X9840350Y-28693726D01*
X9919502Y-28502638D01*
X10034411Y-28330664D01*
X10180664Y-28184411D01*
X10352638Y-28069502D01*
X10543726Y-27990350D01*
X10746584Y-27950000D01*
X10953416Y-27950000D01*
X11156274Y-27990350D01*
X11156274Y-27990350D01*
G37*
G36*
X46886431Y-27953023D02*
G01*
X47032216Y-27997247D01*
X47056085Y-28004487D01*
X47167046Y-28063798D01*
X47212432Y-28088057D01*
X47212434Y-28088058D01*
X47212433Y-28088058D01*
X47349475Y-28200525D01*
X47461942Y-28337567D01*
X47545513Y-28493915D01*
X47545514Y-28493919D01*
X47596977Y-28663569D01*
X47614354Y-28840000D01*
X47596977Y-29016431D01*
X47552753Y-29162216D01*
X47545513Y-29186085D01*
X47486202Y-29297046D01*
X47461943Y-29342432D01*
X47349475Y-29479475D01*
X47212432Y-29591943D01*
X47167046Y-29616202D01*
X47056085Y-29675513D01*
X47032216Y-29682753D01*
X46886431Y-29726977D01*
X46754207Y-29740000D01*
X46665793Y-29740000D01*
X46533569Y-29726977D01*
X46387784Y-29682753D01*
X46363915Y-29675513D01*
X46252954Y-29616202D01*
X46207568Y-29591943D01*
X46070525Y-29479475D01*
X45958057Y-29342432D01*
X45933798Y-29297046D01*
X45874487Y-29186085D01*
X45867247Y-29162216D01*
X45823023Y-29016431D01*
X45805646Y-28840000D01*
X45823023Y-28663569D01*
X45874486Y-28493919D01*
X45874487Y-28493915D01*
X45958058Y-28337567D01*
X46070525Y-28200525D01*
X46207567Y-28088058D01*
X46207566Y-28088058D01*
X46207568Y-28088057D01*
X46252954Y-28063798D01*
X46363915Y-28004487D01*
X46387784Y-27997247D01*
X46533569Y-27953023D01*
X46665793Y-27940000D01*
X46754207Y-27940000D01*
X46886431Y-27953023D01*
X46886431Y-27953023D01*
G37*
G36*
X49426431Y-27953023D02*
G01*
X49572216Y-27997247D01*
X49596085Y-28004487D01*
X49707046Y-28063798D01*
X49752432Y-28088057D01*
X49752434Y-28088058D01*
X49752433Y-28088058D01*
X49889475Y-28200525D01*
X50001942Y-28337567D01*
X50085513Y-28493915D01*
X50085514Y-28493919D01*
X50136977Y-28663569D01*
X50154354Y-28840000D01*
X50136977Y-29016431D01*
X50092753Y-29162216D01*
X50085513Y-29186085D01*
X50026202Y-29297046D01*
X50001943Y-29342432D01*
X49889475Y-29479475D01*
X49752432Y-29591943D01*
X49707046Y-29616202D01*
X49596085Y-29675513D01*
X49572216Y-29682753D01*
X49426431Y-29726977D01*
X49294207Y-29740000D01*
X49205793Y-29740000D01*
X49073569Y-29726977D01*
X48927784Y-29682753D01*
X48903915Y-29675513D01*
X48792954Y-29616202D01*
X48747568Y-29591943D01*
X48610525Y-29479475D01*
X48498057Y-29342432D01*
X48473798Y-29297046D01*
X48414487Y-29186085D01*
X48407247Y-29162216D01*
X48363023Y-29016431D01*
X48345646Y-28840000D01*
X48363023Y-28663569D01*
X48414486Y-28493919D01*
X48414487Y-28493915D01*
X48498058Y-28337567D01*
X48610525Y-28200525D01*
X48747567Y-28088058D01*
X48747566Y-28088058D01*
X48747568Y-28088057D01*
X48792954Y-28063798D01*
X48903915Y-28004487D01*
X48927784Y-27997247D01*
X49073569Y-27953023D01*
X49205793Y-27940000D01*
X49294207Y-27940000D01*
X49426431Y-27953023D01*
X49426431Y-27953023D01*
G37*
G36*
X44346431Y-27953023D02*
G01*
X44492216Y-27997247D01*
X44516085Y-28004487D01*
X44627046Y-28063798D01*
X44672432Y-28088057D01*
X44672434Y-28088058D01*
X44672433Y-28088058D01*
X44809475Y-28200525D01*
X44921942Y-28337567D01*
X45005513Y-28493915D01*
X45005514Y-28493919D01*
X45056977Y-28663569D01*
X45074354Y-28840000D01*
X45056977Y-29016431D01*
X45012753Y-29162216D01*
X45005513Y-29186085D01*
X44946202Y-29297046D01*
X44921943Y-29342432D01*
X44809475Y-29479475D01*
X44672432Y-29591943D01*
X44627046Y-29616202D01*
X44516085Y-29675513D01*
X44492216Y-29682753D01*
X44346431Y-29726977D01*
X44214207Y-29740000D01*
X44125793Y-29740000D01*
X43993569Y-29726977D01*
X43847784Y-29682753D01*
X43823915Y-29675513D01*
X43712954Y-29616202D01*
X43667568Y-29591943D01*
X43530525Y-29479475D01*
X43418057Y-29342432D01*
X43393798Y-29297046D01*
X43334487Y-29186085D01*
X43327247Y-29162216D01*
X43283023Y-29016431D01*
X43265646Y-28840000D01*
X43283023Y-28663569D01*
X43334486Y-28493919D01*
X43334487Y-28493915D01*
X43418058Y-28337567D01*
X43530525Y-28200525D01*
X43667567Y-28088058D01*
X43667566Y-28088058D01*
X43667568Y-28088057D01*
X43712954Y-28063798D01*
X43823915Y-28004487D01*
X43847784Y-27997247D01*
X43993569Y-27953023D01*
X44125793Y-27940000D01*
X44214207Y-27940000D01*
X44346431Y-27953023D01*
X44346431Y-27953023D01*
G37*
G36*
X49426431Y-25413023D02*
G01*
X49572216Y-25457247D01*
X49596085Y-25464487D01*
X49707046Y-25523798D01*
X49752432Y-25548057D01*
X49752434Y-25548058D01*
X49752433Y-25548058D01*
X49889475Y-25660525D01*
X50001942Y-25797567D01*
X50085513Y-25953915D01*
X50085514Y-25953919D01*
X50136977Y-26123569D01*
X50154354Y-26300000D01*
X50136977Y-26476431D01*
X50092753Y-26622216D01*
X50085513Y-26646085D01*
X50035594Y-26739475D01*
X50001943Y-26802432D01*
X49889475Y-26939475D01*
X49752432Y-27051943D01*
X49707046Y-27076202D01*
X49596085Y-27135513D01*
X49572216Y-27142753D01*
X49426431Y-27186977D01*
X49294207Y-27200000D01*
X49205793Y-27200000D01*
X49073569Y-27186977D01*
X48927784Y-27142753D01*
X48903915Y-27135513D01*
X48792954Y-27076202D01*
X48747568Y-27051943D01*
X48610525Y-26939475D01*
X48498057Y-26802432D01*
X48464406Y-26739475D01*
X48414487Y-26646085D01*
X48407247Y-26622216D01*
X48363023Y-26476431D01*
X48345646Y-26300000D01*
X48363023Y-26123569D01*
X48414486Y-25953919D01*
X48414487Y-25953915D01*
X48498058Y-25797567D01*
X48610525Y-25660525D01*
X48747567Y-25548058D01*
X48747566Y-25548058D01*
X48747568Y-25548057D01*
X48792954Y-25523798D01*
X48903915Y-25464487D01*
X48927784Y-25457247D01*
X49073569Y-25413023D01*
X49205793Y-25400000D01*
X49294207Y-25400000D01*
X49426431Y-25413023D01*
X49426431Y-25413023D01*
G37*
G36*
X46886431Y-25413023D02*
G01*
X47032216Y-25457247D01*
X47056085Y-25464487D01*
X47167046Y-25523798D01*
X47212432Y-25548057D01*
X47212434Y-25548058D01*
X47212433Y-25548058D01*
X47349475Y-25660525D01*
X47461942Y-25797567D01*
X47545513Y-25953915D01*
X47545514Y-25953919D01*
X47596977Y-26123569D01*
X47614354Y-26300000D01*
X47596977Y-26476431D01*
X47552753Y-26622216D01*
X47545513Y-26646085D01*
X47495594Y-26739475D01*
X47461943Y-26802432D01*
X47349475Y-26939475D01*
X47212432Y-27051943D01*
X47167046Y-27076202D01*
X47056085Y-27135513D01*
X47032216Y-27142753D01*
X46886431Y-27186977D01*
X46754207Y-27200000D01*
X46665793Y-27200000D01*
X46533569Y-27186977D01*
X46387784Y-27142753D01*
X46363915Y-27135513D01*
X46252954Y-27076202D01*
X46207568Y-27051943D01*
X46070525Y-26939475D01*
X45958057Y-26802432D01*
X45924406Y-26739475D01*
X45874487Y-26646085D01*
X45867247Y-26622216D01*
X45823023Y-26476431D01*
X45805646Y-26300000D01*
X45823023Y-26123569D01*
X45874486Y-25953919D01*
X45874487Y-25953915D01*
X45958058Y-25797567D01*
X46070525Y-25660525D01*
X46207567Y-25548058D01*
X46207566Y-25548058D01*
X46207568Y-25548057D01*
X46252954Y-25523798D01*
X46363915Y-25464487D01*
X46387784Y-25457247D01*
X46533569Y-25413023D01*
X46665793Y-25400000D01*
X46754207Y-25400000D01*
X46886431Y-25413023D01*
X46886431Y-25413023D01*
G37*
G36*
X44346431Y-25413023D02*
G01*
X44492216Y-25457247D01*
X44516085Y-25464487D01*
X44627046Y-25523798D01*
X44672432Y-25548057D01*
X44672434Y-25548058D01*
X44672433Y-25548058D01*
X44809475Y-25660525D01*
X44921942Y-25797567D01*
X45005513Y-25953915D01*
X45005514Y-25953919D01*
X45056977Y-26123569D01*
X45074354Y-26300000D01*
X45056977Y-26476431D01*
X45012753Y-26622216D01*
X45005513Y-26646085D01*
X44955594Y-26739475D01*
X44921943Y-26802432D01*
X44809475Y-26939475D01*
X44672432Y-27051943D01*
X44627046Y-27076202D01*
X44516085Y-27135513D01*
X44492216Y-27142753D01*
X44346431Y-27186977D01*
X44214207Y-27200000D01*
X44125793Y-27200000D01*
X43993569Y-27186977D01*
X43847784Y-27142753D01*
X43823915Y-27135513D01*
X43712954Y-27076202D01*
X43667568Y-27051943D01*
X43530525Y-26939475D01*
X43418057Y-26802432D01*
X43384406Y-26739475D01*
X43334487Y-26646085D01*
X43327247Y-26622216D01*
X43283023Y-26476431D01*
X43265646Y-26300000D01*
X43283023Y-26123569D01*
X43334486Y-25953919D01*
X43334487Y-25953915D01*
X43418058Y-25797567D01*
X43530525Y-25660525D01*
X43667567Y-25548058D01*
X43667566Y-25548058D01*
X43667568Y-25548057D01*
X43712954Y-25523798D01*
X43823915Y-25464487D01*
X43847784Y-25457247D01*
X43993569Y-25413023D01*
X44125793Y-25400000D01*
X44214207Y-25400000D01*
X44346431Y-25413023D01*
X44346431Y-25413023D01*
G37*
G36*
X60876431Y-25213023D02*
G01*
X61022216Y-25257247D01*
X61046085Y-25264487D01*
X61157046Y-25323798D01*
X61202432Y-25348057D01*
X61202434Y-25348058D01*
X61202433Y-25348058D01*
X61339475Y-25460525D01*
X61451942Y-25597567D01*
X61535513Y-25753915D01*
X61535514Y-25753919D01*
X61586977Y-25923569D01*
X61604354Y-26100000D01*
X61586977Y-26276431D01*
X61542753Y-26422216D01*
X61535513Y-26446085D01*
X61519292Y-26476431D01*
X61451943Y-26602432D01*
X61339475Y-26739475D01*
X61202432Y-26851943D01*
X61157046Y-26876202D01*
X61046085Y-26935513D01*
X61022216Y-26942753D01*
X60876431Y-26986977D01*
X60744207Y-27000000D01*
X60655793Y-27000000D01*
X60523569Y-26986977D01*
X60377784Y-26942753D01*
X60353915Y-26935513D01*
X60242954Y-26876202D01*
X60197568Y-26851943D01*
X60060525Y-26739475D01*
X59948057Y-26602432D01*
X59880708Y-26476431D01*
X59864487Y-26446085D01*
X59857247Y-26422216D01*
X59813023Y-26276431D01*
X59795646Y-26100000D01*
X59813023Y-25923569D01*
X59864486Y-25753919D01*
X59864487Y-25753915D01*
X59948058Y-25597567D01*
X60060525Y-25460525D01*
X60197567Y-25348058D01*
X60197566Y-25348058D01*
X60197568Y-25348057D01*
X60242954Y-25323798D01*
X60353915Y-25264487D01*
X60377784Y-25257247D01*
X60523569Y-25213023D01*
X60655793Y-25200000D01*
X60744207Y-25200000D01*
X60876431Y-25213023D01*
X60876431Y-25213023D01*
G37*
G36*
X63416431Y-25213023D02*
G01*
X63562216Y-25257247D01*
X63586085Y-25264487D01*
X63697046Y-25323798D01*
X63742432Y-25348057D01*
X63742434Y-25348058D01*
X63742433Y-25348058D01*
X63879475Y-25460525D01*
X63991942Y-25597567D01*
X64075513Y-25753915D01*
X64075514Y-25753919D01*
X64126977Y-25923569D01*
X64144354Y-26100000D01*
X64126977Y-26276431D01*
X64082753Y-26422216D01*
X64075513Y-26446085D01*
X64059292Y-26476431D01*
X63991943Y-26602432D01*
X63879475Y-26739475D01*
X63742432Y-26851943D01*
X63697046Y-26876202D01*
X63586085Y-26935513D01*
X63562216Y-26942753D01*
X63416431Y-26986977D01*
X63284207Y-27000000D01*
X63195793Y-27000000D01*
X63063569Y-26986977D01*
X62917784Y-26942753D01*
X62893915Y-26935513D01*
X62782954Y-26876202D01*
X62737568Y-26851943D01*
X62600525Y-26739475D01*
X62488057Y-26602432D01*
X62420708Y-26476431D01*
X62404487Y-26446085D01*
X62397247Y-26422216D01*
X62353023Y-26276431D01*
X62335646Y-26100000D01*
X62353023Y-25923569D01*
X62404486Y-25753919D01*
X62404487Y-25753915D01*
X62488058Y-25597567D01*
X62600525Y-25460525D01*
X62737567Y-25348058D01*
X62737566Y-25348058D01*
X62737568Y-25348057D01*
X62782954Y-25323798D01*
X62893915Y-25264487D01*
X62917784Y-25257247D01*
X63063569Y-25213023D01*
X63195793Y-25200000D01*
X63284207Y-25200000D01*
X63416431Y-25213023D01*
X63416431Y-25213023D01*
G37*
G36*
X55796431Y-25213023D02*
G01*
X55942216Y-25257247D01*
X55966085Y-25264487D01*
X56077046Y-25323798D01*
X56122432Y-25348057D01*
X56122434Y-25348058D01*
X56122433Y-25348058D01*
X56259475Y-25460525D01*
X56371942Y-25597567D01*
X56455513Y-25753915D01*
X56455514Y-25753919D01*
X56506977Y-25923569D01*
X56524354Y-26100000D01*
X56506977Y-26276431D01*
X56462753Y-26422216D01*
X56455513Y-26446085D01*
X56439292Y-26476431D01*
X56371943Y-26602432D01*
X56259475Y-26739475D01*
X56122432Y-26851943D01*
X56077046Y-26876202D01*
X55966085Y-26935513D01*
X55942216Y-26942753D01*
X55796431Y-26986977D01*
X55664207Y-27000000D01*
X55575793Y-27000000D01*
X55443569Y-26986977D01*
X55297784Y-26942753D01*
X55273915Y-26935513D01*
X55162954Y-26876202D01*
X55117568Y-26851943D01*
X54980525Y-26739475D01*
X54868057Y-26602432D01*
X54800708Y-26476431D01*
X54784487Y-26446085D01*
X54777247Y-26422216D01*
X54733023Y-26276431D01*
X54715646Y-26100000D01*
X54733023Y-25923569D01*
X54784486Y-25753919D01*
X54784487Y-25753915D01*
X54868058Y-25597567D01*
X54980525Y-25460525D01*
X55117567Y-25348058D01*
X55117566Y-25348058D01*
X55117568Y-25348057D01*
X55162954Y-25323798D01*
X55273915Y-25264487D01*
X55297784Y-25257247D01*
X55443569Y-25213023D01*
X55575793Y-25200000D01*
X55664207Y-25200000D01*
X55796431Y-25213023D01*
X55796431Y-25213023D01*
G37*
G36*
X8750000Y-25750000D02*
G01*
X6650000Y-25750000D01*
X6650000Y-21150000D01*
X8750000Y-21150000D01*
X8750000Y-25750000D01*
X8750000Y-25750000D01*
G37*
G36*
X38212520Y-23284586D02*
G01*
X38376310Y-23352430D01*
X38523717Y-23450924D01*
X38649076Y-23576283D01*
X38747570Y-23723690D01*
X38815414Y-23887480D01*
X38850000Y-24061358D01*
X38850000Y-24238642D01*
X38815414Y-24412520D01*
X38747570Y-24576310D01*
X38649076Y-24723717D01*
X38523717Y-24849076D01*
X38376310Y-24947570D01*
X38212520Y-25015414D01*
X38038642Y-25050000D01*
X37861358Y-25050000D01*
X37687480Y-25015414D01*
X37523690Y-24947570D01*
X37376283Y-24849076D01*
X37250924Y-24723717D01*
X37152430Y-24576310D01*
X37084586Y-24412520D01*
X37050000Y-24238642D01*
X37050000Y-24061358D01*
X37084586Y-23887480D01*
X37152430Y-23723690D01*
X37250924Y-23576283D01*
X37376283Y-23450924D01*
X37523690Y-23352430D01*
X37687480Y-23284586D01*
X37861358Y-23250000D01*
X38038642Y-23250000D01*
X38212520Y-23284586D01*
X38212520Y-23284586D01*
G37*
G36*
X33212520Y-23284586D02*
G01*
X33376310Y-23352430D01*
X33523717Y-23450924D01*
X33649076Y-23576283D01*
X33747570Y-23723690D01*
X33815414Y-23887480D01*
X33850000Y-24061358D01*
X33850000Y-24238642D01*
X33815414Y-24412520D01*
X33747570Y-24576310D01*
X33649076Y-24723717D01*
X33523717Y-24849076D01*
X33376310Y-24947570D01*
X33212520Y-25015414D01*
X33038642Y-25050000D01*
X32861358Y-25050000D01*
X32687480Y-25015414D01*
X32523690Y-24947570D01*
X32376283Y-24849076D01*
X32250924Y-24723717D01*
X32152430Y-24576310D01*
X32084586Y-24412520D01*
X32050000Y-24238642D01*
X32050000Y-24061358D01*
X32084586Y-23887480D01*
X32152430Y-23723690D01*
X32250924Y-23576283D01*
X32376283Y-23450924D01*
X32523690Y-23352430D01*
X32687480Y-23284586D01*
X32861358Y-23250000D01*
X33038642Y-23250000D01*
X33212520Y-23284586D01*
X33212520Y-23284586D01*
G37*
G36*
X44346431Y-22873023D02*
G01*
X44492216Y-22917247D01*
X44516085Y-22924487D01*
X44627046Y-22983798D01*
X44672432Y-23008057D01*
X44672434Y-23008058D01*
X44672433Y-23008058D01*
X44809475Y-23120525D01*
X44921942Y-23257567D01*
X45005513Y-23413915D01*
X45005514Y-23413919D01*
X45056977Y-23583569D01*
X45074354Y-23760000D01*
X45056977Y-23936431D01*
X45012753Y-24082216D01*
X45005513Y-24106085D01*
X44955594Y-24199475D01*
X44921943Y-24262432D01*
X44809475Y-24399475D01*
X44672432Y-24511943D01*
X44627046Y-24536202D01*
X44516085Y-24595513D01*
X44492216Y-24602753D01*
X44346431Y-24646977D01*
X44214207Y-24660000D01*
X44125793Y-24660000D01*
X43993569Y-24646977D01*
X43847784Y-24602753D01*
X43823915Y-24595513D01*
X43712954Y-24536202D01*
X43667568Y-24511943D01*
X43530525Y-24399475D01*
X43418057Y-24262432D01*
X43384406Y-24199475D01*
X43334487Y-24106085D01*
X43327247Y-24082216D01*
X43283023Y-23936431D01*
X43265646Y-23760000D01*
X43283023Y-23583569D01*
X43334486Y-23413919D01*
X43334487Y-23413915D01*
X43418058Y-23257567D01*
X43530525Y-23120525D01*
X43667567Y-23008058D01*
X43667566Y-23008058D01*
X43667568Y-23008057D01*
X43712954Y-22983798D01*
X43823915Y-22924487D01*
X43847784Y-22917247D01*
X43993569Y-22873023D01*
X44125793Y-22860000D01*
X44214207Y-22860000D01*
X44346431Y-22873023D01*
X44346431Y-22873023D01*
G37*
G36*
X46886431Y-22873023D02*
G01*
X47032216Y-22917247D01*
X47056085Y-22924487D01*
X47167046Y-22983798D01*
X47212432Y-23008057D01*
X47212434Y-23008058D01*
X47212433Y-23008058D01*
X47349475Y-23120525D01*
X47461942Y-23257567D01*
X47545513Y-23413915D01*
X47545514Y-23413919D01*
X47596977Y-23583569D01*
X47614354Y-23760000D01*
X47596977Y-23936431D01*
X47552753Y-24082216D01*
X47545513Y-24106085D01*
X47495594Y-24199475D01*
X47461943Y-24262432D01*
X47349475Y-24399475D01*
X47212432Y-24511943D01*
X47167046Y-24536202D01*
X47056085Y-24595513D01*
X47032216Y-24602753D01*
X46886431Y-24646977D01*
X46754207Y-24660000D01*
X46665793Y-24660000D01*
X46533569Y-24646977D01*
X46387784Y-24602753D01*
X46363915Y-24595513D01*
X46252954Y-24536202D01*
X46207568Y-24511943D01*
X46070525Y-24399475D01*
X45958057Y-24262432D01*
X45924406Y-24199475D01*
X45874487Y-24106085D01*
X45867247Y-24082216D01*
X45823023Y-23936431D01*
X45805646Y-23760000D01*
X45823023Y-23583569D01*
X45874486Y-23413919D01*
X45874487Y-23413915D01*
X45958058Y-23257567D01*
X46070525Y-23120525D01*
X46207567Y-23008058D01*
X46207566Y-23008058D01*
X46207568Y-23008057D01*
X46252954Y-22983798D01*
X46363915Y-22924487D01*
X46387784Y-22917247D01*
X46533569Y-22873023D01*
X46665793Y-22860000D01*
X46754207Y-22860000D01*
X46886431Y-22873023D01*
X46886431Y-22873023D01*
G37*
G36*
X49426431Y-22873023D02*
G01*
X49572216Y-22917247D01*
X49596085Y-22924487D01*
X49707046Y-22983798D01*
X49752432Y-23008057D01*
X49752434Y-23008058D01*
X49752433Y-23008058D01*
X49889475Y-23120525D01*
X50001942Y-23257567D01*
X50085513Y-23413915D01*
X50085514Y-23413919D01*
X50136977Y-23583569D01*
X50154354Y-23760000D01*
X50136977Y-23936431D01*
X50092753Y-24082216D01*
X50085513Y-24106085D01*
X50035594Y-24199475D01*
X50001943Y-24262432D01*
X49889475Y-24399475D01*
X49752432Y-24511943D01*
X49707046Y-24536202D01*
X49596085Y-24595513D01*
X49572216Y-24602753D01*
X49426431Y-24646977D01*
X49294207Y-24660000D01*
X49205793Y-24660000D01*
X49073569Y-24646977D01*
X48927784Y-24602753D01*
X48903915Y-24595513D01*
X48792954Y-24536202D01*
X48747568Y-24511943D01*
X48610525Y-24399475D01*
X48498057Y-24262432D01*
X48464406Y-24199475D01*
X48414487Y-24106085D01*
X48407247Y-24082216D01*
X48363023Y-23936431D01*
X48345646Y-23760000D01*
X48363023Y-23583569D01*
X48414486Y-23413919D01*
X48414487Y-23413915D01*
X48498058Y-23257567D01*
X48610525Y-23120525D01*
X48747567Y-23008058D01*
X48747566Y-23008058D01*
X48747568Y-23008057D01*
X48792954Y-22983798D01*
X48903915Y-22924487D01*
X48927784Y-22917247D01*
X49073569Y-22873023D01*
X49205793Y-22860000D01*
X49294207Y-22860000D01*
X49426431Y-22873023D01*
X49426431Y-22873023D01*
G37*
G36*
X60876431Y-22673023D02*
G01*
X61022216Y-22717247D01*
X61046085Y-22724487D01*
X61154584Y-22782482D01*
X61202432Y-22808057D01*
X61244763Y-22842797D01*
X61339475Y-22920525D01*
X61451942Y-23057567D01*
X61535513Y-23213915D01*
X61535514Y-23213919D01*
X61586977Y-23383569D01*
X61604354Y-23560000D01*
X61586977Y-23736431D01*
X61542753Y-23882216D01*
X61535513Y-23906085D01*
X61519292Y-23936431D01*
X61451943Y-24062432D01*
X61339475Y-24199475D01*
X61202432Y-24311943D01*
X61157046Y-24336202D01*
X61046085Y-24395513D01*
X61022216Y-24402753D01*
X60876431Y-24446977D01*
X60744207Y-24460000D01*
X60655793Y-24460000D01*
X60523569Y-24446977D01*
X60377784Y-24402753D01*
X60353915Y-24395513D01*
X60242954Y-24336202D01*
X60197568Y-24311943D01*
X60060525Y-24199475D01*
X59948057Y-24062432D01*
X59880708Y-23936431D01*
X59864487Y-23906085D01*
X59857247Y-23882216D01*
X59813023Y-23736431D01*
X59795646Y-23560000D01*
X59813023Y-23383569D01*
X59864486Y-23213919D01*
X59864487Y-23213915D01*
X59948058Y-23057567D01*
X60060525Y-22920525D01*
X60155237Y-22842797D01*
X60197568Y-22808057D01*
X60245416Y-22782482D01*
X60353915Y-22724487D01*
X60377784Y-22717247D01*
X60523569Y-22673023D01*
X60655793Y-22660000D01*
X60744207Y-22660000D01*
X60876431Y-22673023D01*
X60876431Y-22673023D01*
G37*
G36*
X63416431Y-22673023D02*
G01*
X63562216Y-22717247D01*
X63586085Y-22724487D01*
X63694584Y-22782482D01*
X63742432Y-22808057D01*
X63784763Y-22842797D01*
X63879475Y-22920525D01*
X63991942Y-23057567D01*
X64075513Y-23213915D01*
X64075514Y-23213919D01*
X64126977Y-23383569D01*
X64144354Y-23560000D01*
X64126977Y-23736431D01*
X64082753Y-23882216D01*
X64075513Y-23906085D01*
X64059292Y-23936431D01*
X63991943Y-24062432D01*
X63879475Y-24199475D01*
X63742432Y-24311943D01*
X63697046Y-24336202D01*
X63586085Y-24395513D01*
X63562216Y-24402753D01*
X63416431Y-24446977D01*
X63284207Y-24460000D01*
X63195793Y-24460000D01*
X63063569Y-24446977D01*
X62917784Y-24402753D01*
X62893915Y-24395513D01*
X62782954Y-24336202D01*
X62737568Y-24311943D01*
X62600525Y-24199475D01*
X62488057Y-24062432D01*
X62420708Y-23936431D01*
X62404487Y-23906085D01*
X62397247Y-23882216D01*
X62353023Y-23736431D01*
X62335646Y-23560000D01*
X62353023Y-23383569D01*
X62404486Y-23213919D01*
X62404487Y-23213915D01*
X62488058Y-23057567D01*
X62600525Y-22920525D01*
X62695237Y-22842797D01*
X62737568Y-22808057D01*
X62785416Y-22782482D01*
X62893915Y-22724487D01*
X62917784Y-22717247D01*
X63063569Y-22673023D01*
X63195793Y-22660000D01*
X63284207Y-22660000D01*
X63416431Y-22673023D01*
X63416431Y-22673023D01*
G37*
G36*
X55796431Y-22673023D02*
G01*
X55942216Y-22717247D01*
X55966085Y-22724487D01*
X56074584Y-22782482D01*
X56122432Y-22808057D01*
X56164763Y-22842797D01*
X56259475Y-22920525D01*
X56371942Y-23057567D01*
X56455513Y-23213915D01*
X56455514Y-23213919D01*
X56506977Y-23383569D01*
X56524354Y-23560000D01*
X56506977Y-23736431D01*
X56462753Y-23882216D01*
X56455513Y-23906085D01*
X56439292Y-23936431D01*
X56371943Y-24062432D01*
X56259475Y-24199475D01*
X56122432Y-24311943D01*
X56077046Y-24336202D01*
X55966085Y-24395513D01*
X55942216Y-24402753D01*
X55796431Y-24446977D01*
X55664207Y-24460000D01*
X55575793Y-24460000D01*
X55443569Y-24446977D01*
X55297784Y-24402753D01*
X55273915Y-24395513D01*
X55162954Y-24336202D01*
X55117568Y-24311943D01*
X54980525Y-24199475D01*
X54868057Y-24062432D01*
X54800708Y-23936431D01*
X54784487Y-23906085D01*
X54777247Y-23882216D01*
X54733023Y-23736431D01*
X54715646Y-23560000D01*
X54733023Y-23383569D01*
X54784486Y-23213919D01*
X54784487Y-23213915D01*
X54868058Y-23057567D01*
X54980525Y-22920525D01*
X55075237Y-22842797D01*
X55117568Y-22808057D01*
X55165416Y-22782482D01*
X55273915Y-22724487D01*
X55297784Y-22717247D01*
X55443569Y-22673023D01*
X55575793Y-22660000D01*
X55664207Y-22660000D01*
X55796431Y-22673023D01*
X55796431Y-22673023D01*
G37*
G36*
X13438840Y-22704563D02*
G01*
X13482203Y-22717716D01*
X13522159Y-22739074D01*
X13557183Y-22767817D01*
X13585926Y-22802841D01*
X13607284Y-22842797D01*
X13620437Y-22886160D01*
X13625000Y-22932482D01*
X13625000Y-23442518D01*
X13620437Y-23488840D01*
X13607284Y-23532203D01*
X13585926Y-23572159D01*
X13557183Y-23607183D01*
X13522159Y-23635926D01*
X13482203Y-23657284D01*
X13438840Y-23670437D01*
X13392518Y-23675000D01*
X12807482Y-23675000D01*
X12761160Y-23670437D01*
X12717797Y-23657284D01*
X12677841Y-23635926D01*
X12642817Y-23607183D01*
X12614074Y-23572159D01*
X12592716Y-23532203D01*
X12579563Y-23488840D01*
X12575000Y-23442518D01*
X12575000Y-22932482D01*
X12579563Y-22886160D01*
X12592716Y-22842797D01*
X12614074Y-22802841D01*
X12642817Y-22767817D01*
X12677841Y-22739074D01*
X12717797Y-22717716D01*
X12761160Y-22704563D01*
X12807482Y-22700000D01*
X13392518Y-22700000D01*
X13438840Y-22704563D01*
X13438840Y-22704563D01*
G37*
G36*
X11788840Y-22554563D02*
G01*
X11832203Y-22567716D01*
X11872159Y-22589074D01*
X11907183Y-22617817D01*
X11935926Y-22652841D01*
X11957284Y-22692797D01*
X11970437Y-22736160D01*
X11975000Y-22782482D01*
X11975000Y-23292518D01*
X11970437Y-23338840D01*
X11957284Y-23382203D01*
X11935926Y-23422159D01*
X11907183Y-23457183D01*
X11872159Y-23485926D01*
X11832203Y-23507284D01*
X11788840Y-23520437D01*
X11742518Y-23525000D01*
X11157482Y-23525000D01*
X11111160Y-23520437D01*
X11067797Y-23507284D01*
X11027841Y-23485926D01*
X10992817Y-23457183D01*
X10964074Y-23422159D01*
X10942716Y-23382203D01*
X10929563Y-23338840D01*
X10925000Y-23292518D01*
X10925000Y-22782482D01*
X10929563Y-22736160D01*
X10942716Y-22692797D01*
X10964074Y-22652841D01*
X10992817Y-22617817D01*
X11027841Y-22589074D01*
X11067797Y-22567716D01*
X11111160Y-22554563D01*
X11157482Y-22550000D01*
X11742518Y-22550000D01*
X11788840Y-22554563D01*
X11788840Y-22554563D01*
G37*
G36*
X49426431Y-20333023D02*
G01*
X49572216Y-20377247D01*
X49596085Y-20384487D01*
X49707046Y-20443798D01*
X49752432Y-20468057D01*
X49752434Y-20468058D01*
X49752433Y-20468058D01*
X49889475Y-20580525D01*
X50001942Y-20717567D01*
X50085513Y-20873915D01*
X50085514Y-20873919D01*
X50136977Y-21043569D01*
X50154354Y-21220000D01*
X50136977Y-21396431D01*
X50092753Y-21542216D01*
X50085513Y-21566085D01*
X50035594Y-21659475D01*
X50001943Y-21722432D01*
X49889475Y-21859475D01*
X49752432Y-21971943D01*
X49715525Y-21991670D01*
X49596085Y-22055513D01*
X49584850Y-22058921D01*
X49426431Y-22106977D01*
X49294207Y-22120000D01*
X49205793Y-22120000D01*
X49073569Y-22106977D01*
X48915150Y-22058921D01*
X48903915Y-22055513D01*
X48784475Y-21991670D01*
X48747568Y-21971943D01*
X48610525Y-21859475D01*
X48498057Y-21722432D01*
X48464406Y-21659475D01*
X48414487Y-21566085D01*
X48407247Y-21542216D01*
X48363023Y-21396431D01*
X48345646Y-21220000D01*
X48363023Y-21043569D01*
X48414486Y-20873919D01*
X48414487Y-20873915D01*
X48498058Y-20717567D01*
X48610525Y-20580525D01*
X48747567Y-20468058D01*
X48747566Y-20468058D01*
X48747568Y-20468057D01*
X48792954Y-20443798D01*
X48903915Y-20384487D01*
X48927784Y-20377247D01*
X49073569Y-20333023D01*
X49205793Y-20320000D01*
X49294207Y-20320000D01*
X49426431Y-20333023D01*
X49426431Y-20333023D01*
G37*
G36*
X44346431Y-20333023D02*
G01*
X44492216Y-20377247D01*
X44516085Y-20384487D01*
X44627046Y-20443798D01*
X44672432Y-20468057D01*
X44672434Y-20468058D01*
X44672433Y-20468058D01*
X44809475Y-20580525D01*
X44921942Y-20717567D01*
X45005513Y-20873915D01*
X45005514Y-20873919D01*
X45056977Y-21043569D01*
X45074354Y-21220000D01*
X45056977Y-21396431D01*
X45012753Y-21542216D01*
X45005513Y-21566085D01*
X44955594Y-21659475D01*
X44921943Y-21722432D01*
X44809475Y-21859475D01*
X44672432Y-21971943D01*
X44635525Y-21991670D01*
X44516085Y-22055513D01*
X44504850Y-22058921D01*
X44346431Y-22106977D01*
X44214207Y-22120000D01*
X44125793Y-22120000D01*
X43993569Y-22106977D01*
X43835150Y-22058921D01*
X43823915Y-22055513D01*
X43704475Y-21991670D01*
X43667568Y-21971943D01*
X43530525Y-21859475D01*
X43418057Y-21722432D01*
X43384406Y-21659475D01*
X43334487Y-21566085D01*
X43327247Y-21542216D01*
X43283023Y-21396431D01*
X43265646Y-21220000D01*
X43283023Y-21043569D01*
X43334486Y-20873919D01*
X43334487Y-20873915D01*
X43418058Y-20717567D01*
X43530525Y-20580525D01*
X43667567Y-20468058D01*
X43667566Y-20468058D01*
X43667568Y-20468057D01*
X43712954Y-20443798D01*
X43823915Y-20384487D01*
X43847784Y-20377247D01*
X43993569Y-20333023D01*
X44125793Y-20320000D01*
X44214207Y-20320000D01*
X44346431Y-20333023D01*
X44346431Y-20333023D01*
G37*
G36*
X46886431Y-20333023D02*
G01*
X47032216Y-20377247D01*
X47056085Y-20384487D01*
X47167046Y-20443798D01*
X47212432Y-20468057D01*
X47212434Y-20468058D01*
X47212433Y-20468058D01*
X47349475Y-20580525D01*
X47461942Y-20717567D01*
X47545513Y-20873915D01*
X47545514Y-20873919D01*
X47596977Y-21043569D01*
X47614354Y-21220000D01*
X47596977Y-21396431D01*
X47552753Y-21542216D01*
X47545513Y-21566085D01*
X47495594Y-21659475D01*
X47461943Y-21722432D01*
X47349475Y-21859475D01*
X47212432Y-21971943D01*
X47175525Y-21991670D01*
X47056085Y-22055513D01*
X47044850Y-22058921D01*
X46886431Y-22106977D01*
X46754207Y-22120000D01*
X46665793Y-22120000D01*
X46533569Y-22106977D01*
X46375150Y-22058921D01*
X46363915Y-22055513D01*
X46244475Y-21991670D01*
X46207568Y-21971943D01*
X46070525Y-21859475D01*
X45958057Y-21722432D01*
X45924406Y-21659475D01*
X45874487Y-21566085D01*
X45867247Y-21542216D01*
X45823023Y-21396431D01*
X45805646Y-21220000D01*
X45823023Y-21043569D01*
X45874486Y-20873919D01*
X45874487Y-20873915D01*
X45958058Y-20717567D01*
X46070525Y-20580525D01*
X46207567Y-20468058D01*
X46207566Y-20468058D01*
X46207568Y-20468057D01*
X46252954Y-20443798D01*
X46363915Y-20384487D01*
X46387784Y-20377247D01*
X46533569Y-20333023D01*
X46665793Y-20320000D01*
X46754207Y-20320000D01*
X46886431Y-20333023D01*
X46886431Y-20333023D01*
G37*
G36*
X13438840Y-21129563D02*
G01*
X13482203Y-21142716D01*
X13522159Y-21164074D01*
X13557183Y-21192817D01*
X13585926Y-21227841D01*
X13607284Y-21267797D01*
X13620437Y-21311160D01*
X13625000Y-21357482D01*
X13625000Y-21867518D01*
X13620437Y-21913840D01*
X13607284Y-21957203D01*
X13585926Y-21997159D01*
X13557183Y-22032183D01*
X13522159Y-22060926D01*
X13482203Y-22082284D01*
X13438840Y-22095437D01*
X13392518Y-22100000D01*
X12807482Y-22100000D01*
X12761160Y-22095437D01*
X12717797Y-22082284D01*
X12677841Y-22060926D01*
X12642817Y-22032183D01*
X12614074Y-21997159D01*
X12592716Y-21957203D01*
X12579563Y-21913840D01*
X12575000Y-21867518D01*
X12575000Y-21357482D01*
X12579563Y-21311160D01*
X12592716Y-21267797D01*
X12614074Y-21227841D01*
X12642817Y-21192817D01*
X12677841Y-21164074D01*
X12717797Y-21142716D01*
X12761160Y-21129563D01*
X12807482Y-21125000D01*
X13392518Y-21125000D01*
X13438840Y-21129563D01*
X13438840Y-21129563D01*
G37*
G36*
X11788840Y-20979563D02*
G01*
X11832203Y-20992716D01*
X11872159Y-21014074D01*
X11907183Y-21042817D01*
X11935926Y-21077841D01*
X11957284Y-21117797D01*
X11970437Y-21161160D01*
X11975000Y-21207482D01*
X11975000Y-21717518D01*
X11970437Y-21763840D01*
X11957284Y-21807203D01*
X11935926Y-21847159D01*
X11907183Y-21882183D01*
X11872159Y-21910926D01*
X11832203Y-21932284D01*
X11788840Y-21945437D01*
X11742518Y-21950000D01*
X11157482Y-21950000D01*
X11111160Y-21945437D01*
X11067797Y-21932284D01*
X11027841Y-21910926D01*
X10992817Y-21882183D01*
X10964074Y-21847159D01*
X10942716Y-21807203D01*
X10929563Y-21763840D01*
X10925000Y-21717518D01*
X10925000Y-21207482D01*
X10929563Y-21161160D01*
X10942716Y-21117797D01*
X10964074Y-21077841D01*
X10992817Y-21042817D01*
X11027841Y-21014074D01*
X11067797Y-20992716D01*
X11111160Y-20979563D01*
X11157482Y-20975000D01*
X11742518Y-20975000D01*
X11788840Y-20979563D01*
X11788840Y-20979563D01*
G37*
G36*
X60876431Y-20133023D02*
G01*
X61022216Y-20177247D01*
X61046085Y-20184487D01*
X61157046Y-20243798D01*
X61202432Y-20268057D01*
X61202434Y-20268058D01*
X61202433Y-20268058D01*
X61339475Y-20380525D01*
X61451942Y-20517567D01*
X61535513Y-20673915D01*
X61535514Y-20673919D01*
X61586977Y-20843569D01*
X61604354Y-21020000D01*
X61586977Y-21196431D01*
X61565328Y-21267797D01*
X61535513Y-21366085D01*
X61519292Y-21396431D01*
X61451943Y-21522432D01*
X61339475Y-21659475D01*
X61202432Y-21771943D01*
X61157046Y-21796202D01*
X61046085Y-21855513D01*
X61022216Y-21862753D01*
X60876431Y-21906977D01*
X60744207Y-21920000D01*
X60655793Y-21920000D01*
X60523569Y-21906977D01*
X60377784Y-21862753D01*
X60353915Y-21855513D01*
X60242954Y-21796202D01*
X60197568Y-21771943D01*
X60060525Y-21659475D01*
X59948057Y-21522432D01*
X59880708Y-21396431D01*
X59864487Y-21366085D01*
X59834672Y-21267797D01*
X59813023Y-21196431D01*
X59795646Y-21020000D01*
X59813023Y-20843569D01*
X59864486Y-20673919D01*
X59864487Y-20673915D01*
X59948058Y-20517567D01*
X60060525Y-20380525D01*
X60197567Y-20268058D01*
X60197566Y-20268058D01*
X60197568Y-20268057D01*
X60242954Y-20243798D01*
X60353915Y-20184487D01*
X60377784Y-20177247D01*
X60523569Y-20133023D01*
X60655793Y-20120000D01*
X60744207Y-20120000D01*
X60876431Y-20133023D01*
X60876431Y-20133023D01*
G37*
G36*
X63416431Y-20133023D02*
G01*
X63562216Y-20177247D01*
X63586085Y-20184487D01*
X63697046Y-20243798D01*
X63742432Y-20268057D01*
X63742434Y-20268058D01*
X63742433Y-20268058D01*
X63879475Y-20380525D01*
X63991942Y-20517567D01*
X64075513Y-20673915D01*
X64075514Y-20673919D01*
X64126977Y-20843569D01*
X64144354Y-21020000D01*
X64126977Y-21196431D01*
X64105328Y-21267797D01*
X64075513Y-21366085D01*
X64059292Y-21396431D01*
X63991943Y-21522432D01*
X63879475Y-21659475D01*
X63742432Y-21771943D01*
X63697046Y-21796202D01*
X63586085Y-21855513D01*
X63562216Y-21862753D01*
X63416431Y-21906977D01*
X63284207Y-21920000D01*
X63195793Y-21920000D01*
X63063569Y-21906977D01*
X62917784Y-21862753D01*
X62893915Y-21855513D01*
X62782954Y-21796202D01*
X62737568Y-21771943D01*
X62600525Y-21659475D01*
X62488057Y-21522432D01*
X62420708Y-21396431D01*
X62404487Y-21366085D01*
X62374672Y-21267797D01*
X62353023Y-21196431D01*
X62335646Y-21020000D01*
X62353023Y-20843569D01*
X62404486Y-20673919D01*
X62404487Y-20673915D01*
X62488058Y-20517567D01*
X62600525Y-20380525D01*
X62737567Y-20268058D01*
X62737566Y-20268058D01*
X62737568Y-20268057D01*
X62782954Y-20243798D01*
X62893915Y-20184487D01*
X62917784Y-20177247D01*
X63063569Y-20133023D01*
X63195793Y-20120000D01*
X63284207Y-20120000D01*
X63416431Y-20133023D01*
X63416431Y-20133023D01*
G37*
G36*
X55796431Y-20133023D02*
G01*
X55942216Y-20177247D01*
X55966085Y-20184487D01*
X56077046Y-20243798D01*
X56122432Y-20268057D01*
X56122434Y-20268058D01*
X56122433Y-20268058D01*
X56259475Y-20380525D01*
X56371942Y-20517567D01*
X56455513Y-20673915D01*
X56455514Y-20673919D01*
X56506977Y-20843569D01*
X56524354Y-21020000D01*
X56506977Y-21196431D01*
X56485328Y-21267797D01*
X56455513Y-21366085D01*
X56439292Y-21396431D01*
X56371943Y-21522432D01*
X56259475Y-21659475D01*
X56122432Y-21771943D01*
X56077046Y-21796202D01*
X55966085Y-21855513D01*
X55942216Y-21862753D01*
X55796431Y-21906977D01*
X55664207Y-21920000D01*
X55575793Y-21920000D01*
X55443569Y-21906977D01*
X55297784Y-21862753D01*
X55273915Y-21855513D01*
X55162954Y-21796202D01*
X55117568Y-21771943D01*
X54980525Y-21659475D01*
X54868057Y-21522432D01*
X54800708Y-21396431D01*
X54784487Y-21366085D01*
X54754672Y-21267797D01*
X54733023Y-21196431D01*
X54715646Y-21020000D01*
X54733023Y-20843569D01*
X54784486Y-20673919D01*
X54784487Y-20673915D01*
X54868058Y-20517567D01*
X54980525Y-20380525D01*
X55117567Y-20268058D01*
X55117566Y-20268058D01*
X55117568Y-20268057D01*
X55162954Y-20243798D01*
X55273915Y-20184487D01*
X55297784Y-20177247D01*
X55443569Y-20133023D01*
X55575793Y-20120000D01*
X55664207Y-20120000D01*
X55796431Y-20133023D01*
X55796431Y-20133023D01*
G37*
G36*
X11788840Y-19154563D02*
G01*
X11832203Y-19167716D01*
X11872159Y-19189074D01*
X11907183Y-19217817D01*
X11935926Y-19252841D01*
X11957284Y-19292797D01*
X11970437Y-19336160D01*
X11975000Y-19382482D01*
X11975000Y-19892518D01*
X11970437Y-19938840D01*
X11957284Y-19982203D01*
X11935926Y-20022159D01*
X11907183Y-20057183D01*
X11872159Y-20085926D01*
X11832203Y-20107284D01*
X11788840Y-20120437D01*
X11742518Y-20125000D01*
X11157482Y-20125000D01*
X11111160Y-20120437D01*
X11067797Y-20107284D01*
X11027841Y-20085926D01*
X10992817Y-20057183D01*
X10964074Y-20022159D01*
X10942716Y-19982203D01*
X10929563Y-19938840D01*
X10925000Y-19892518D01*
X10925000Y-19382482D01*
X10929563Y-19336160D01*
X10942716Y-19292797D01*
X10964074Y-19252841D01*
X10992817Y-19217817D01*
X11027841Y-19189074D01*
X11067797Y-19167716D01*
X11111160Y-19154563D01*
X11157482Y-19150000D01*
X11742518Y-19150000D01*
X11788840Y-19154563D01*
X11788840Y-19154563D01*
G37*
G36*
X46886431Y-17793023D02*
G01*
X47032216Y-17837247D01*
X47056085Y-17844487D01*
X47167046Y-17903798D01*
X47212432Y-17928057D01*
X47212434Y-17928058D01*
X47212433Y-17928058D01*
X47349475Y-18040525D01*
X47461942Y-18177567D01*
X47545513Y-18333915D01*
X47545514Y-18333919D01*
X47596977Y-18503569D01*
X47614354Y-18680000D01*
X47596977Y-18856431D01*
X47552753Y-19002216D01*
X47545513Y-19026085D01*
X47495594Y-19119475D01*
X47461943Y-19182432D01*
X47349475Y-19319475D01*
X47212432Y-19431943D01*
X47167046Y-19456202D01*
X47056085Y-19515513D01*
X47032216Y-19522753D01*
X46886431Y-19566977D01*
X46754207Y-19580000D01*
X46665793Y-19580000D01*
X46533569Y-19566977D01*
X46387784Y-19522753D01*
X46363915Y-19515513D01*
X46252954Y-19456202D01*
X46207568Y-19431943D01*
X46070525Y-19319475D01*
X45958057Y-19182432D01*
X45924406Y-19119475D01*
X45874487Y-19026085D01*
X45867247Y-19002216D01*
X45823023Y-18856431D01*
X45805646Y-18680000D01*
X45823023Y-18503569D01*
X45874486Y-18333919D01*
X45874487Y-18333915D01*
X45958058Y-18177567D01*
X46070525Y-18040525D01*
X46207567Y-17928058D01*
X46207566Y-17928058D01*
X46207568Y-17928057D01*
X46252954Y-17903798D01*
X46363915Y-17844487D01*
X46387784Y-17837247D01*
X46533569Y-17793023D01*
X46665793Y-17780000D01*
X46754207Y-17780000D01*
X46886431Y-17793023D01*
X46886431Y-17793023D01*
G37*
G36*
X49426431Y-17793023D02*
G01*
X49572216Y-17837247D01*
X49596085Y-17844487D01*
X49707046Y-17903798D01*
X49752432Y-17928057D01*
X49752434Y-17928058D01*
X49752433Y-17928058D01*
X49889475Y-18040525D01*
X50001942Y-18177567D01*
X50085513Y-18333915D01*
X50085514Y-18333919D01*
X50136977Y-18503569D01*
X50154354Y-18680000D01*
X50136977Y-18856431D01*
X50092753Y-19002216D01*
X50085513Y-19026085D01*
X50035594Y-19119475D01*
X50001943Y-19182432D01*
X49889475Y-19319475D01*
X49752432Y-19431943D01*
X49707046Y-19456202D01*
X49596085Y-19515513D01*
X49572216Y-19522753D01*
X49426431Y-19566977D01*
X49294207Y-19580000D01*
X49205793Y-19580000D01*
X49073569Y-19566977D01*
X48927784Y-19522753D01*
X48903915Y-19515513D01*
X48792954Y-19456202D01*
X48747568Y-19431943D01*
X48610525Y-19319475D01*
X48498057Y-19182432D01*
X48464406Y-19119475D01*
X48414487Y-19026085D01*
X48407247Y-19002216D01*
X48363023Y-18856431D01*
X48345646Y-18680000D01*
X48363023Y-18503569D01*
X48414486Y-18333919D01*
X48414487Y-18333915D01*
X48498058Y-18177567D01*
X48610525Y-18040525D01*
X48747567Y-17928058D01*
X48747566Y-17928058D01*
X48747568Y-17928057D01*
X48792954Y-17903798D01*
X48903915Y-17844487D01*
X48927784Y-17837247D01*
X49073569Y-17793023D01*
X49205793Y-17780000D01*
X49294207Y-17780000D01*
X49426431Y-17793023D01*
X49426431Y-17793023D01*
G37*
G36*
X44346431Y-17793023D02*
G01*
X44492216Y-17837247D01*
X44516085Y-17844487D01*
X44627046Y-17903798D01*
X44672432Y-17928057D01*
X44672434Y-17928058D01*
X44672433Y-17928058D01*
X44809475Y-18040525D01*
X44921942Y-18177567D01*
X45005513Y-18333915D01*
X45005514Y-18333919D01*
X45056977Y-18503569D01*
X45074354Y-18680000D01*
X45056977Y-18856431D01*
X45012753Y-19002216D01*
X45005513Y-19026085D01*
X44955594Y-19119475D01*
X44921943Y-19182432D01*
X44809475Y-19319475D01*
X44672432Y-19431943D01*
X44627046Y-19456202D01*
X44516085Y-19515513D01*
X44492216Y-19522753D01*
X44346431Y-19566977D01*
X44214207Y-19580000D01*
X44125793Y-19580000D01*
X43993569Y-19566977D01*
X43847784Y-19522753D01*
X43823915Y-19515513D01*
X43712954Y-19456202D01*
X43667568Y-19431943D01*
X43530525Y-19319475D01*
X43418057Y-19182432D01*
X43384406Y-19119475D01*
X43334487Y-19026085D01*
X43327247Y-19002216D01*
X43283023Y-18856431D01*
X43265646Y-18680000D01*
X43283023Y-18503569D01*
X43334486Y-18333919D01*
X43334487Y-18333915D01*
X43418058Y-18177567D01*
X43530525Y-18040525D01*
X43667567Y-17928058D01*
X43667566Y-17928058D01*
X43667568Y-17928057D01*
X43712954Y-17903798D01*
X43823915Y-17844487D01*
X43847784Y-17837247D01*
X43993569Y-17793023D01*
X44125793Y-17780000D01*
X44214207Y-17780000D01*
X44346431Y-17793023D01*
X44346431Y-17793023D01*
G37*
G36*
X63416431Y-17593023D02*
G01*
X63562216Y-17637247D01*
X63586085Y-17644487D01*
X63697046Y-17703798D01*
X63742432Y-17728057D01*
X63742434Y-17728058D01*
X63742433Y-17728058D01*
X63879475Y-17840525D01*
X63991942Y-17977567D01*
X64075513Y-18133915D01*
X64075514Y-18133919D01*
X64126977Y-18303569D01*
X64144354Y-18480000D01*
X64126977Y-18656431D01*
X64082753Y-18802216D01*
X64075513Y-18826085D01*
X64059292Y-18856431D01*
X63991943Y-18982432D01*
X63879475Y-19119475D01*
X63742432Y-19231943D01*
X63703334Y-19252841D01*
X63586085Y-19315513D01*
X63562216Y-19322753D01*
X63416431Y-19366977D01*
X63284207Y-19380000D01*
X63195793Y-19380000D01*
X63063569Y-19366977D01*
X62917784Y-19322753D01*
X62893915Y-19315513D01*
X62776666Y-19252841D01*
X62737568Y-19231943D01*
X62600525Y-19119475D01*
X62488057Y-18982432D01*
X62420708Y-18856431D01*
X62404487Y-18826085D01*
X62397247Y-18802216D01*
X62353023Y-18656431D01*
X62335646Y-18480000D01*
X62353023Y-18303569D01*
X62404486Y-18133919D01*
X62404487Y-18133915D01*
X62488058Y-17977567D01*
X62600525Y-17840525D01*
X62737567Y-17728058D01*
X62737566Y-17728058D01*
X62737568Y-17728057D01*
X62782954Y-17703798D01*
X62893915Y-17644487D01*
X62917784Y-17637247D01*
X63063569Y-17593023D01*
X63195793Y-17580000D01*
X63284207Y-17580000D01*
X63416431Y-17593023D01*
X63416431Y-17593023D01*
G37*
G36*
X60876431Y-17593023D02*
G01*
X61022216Y-17637247D01*
X61046085Y-17644487D01*
X61157046Y-17703798D01*
X61202432Y-17728057D01*
X61202434Y-17728058D01*
X61202433Y-17728058D01*
X61339475Y-17840525D01*
X61451942Y-17977567D01*
X61535513Y-18133915D01*
X61535514Y-18133919D01*
X61586977Y-18303569D01*
X61604354Y-18480000D01*
X61586977Y-18656431D01*
X61542753Y-18802216D01*
X61535513Y-18826085D01*
X61519292Y-18856431D01*
X61451943Y-18982432D01*
X61339475Y-19119475D01*
X61202432Y-19231943D01*
X61163334Y-19252841D01*
X61046085Y-19315513D01*
X61022216Y-19322753D01*
X60876431Y-19366977D01*
X60744207Y-19380000D01*
X60655793Y-19380000D01*
X60523569Y-19366977D01*
X60377784Y-19322753D01*
X60353915Y-19315513D01*
X60236666Y-19252841D01*
X60197568Y-19231943D01*
X60060525Y-19119475D01*
X59948057Y-18982432D01*
X59880708Y-18856431D01*
X59864487Y-18826085D01*
X59857247Y-18802216D01*
X59813023Y-18656431D01*
X59795646Y-18480000D01*
X59813023Y-18303569D01*
X59864486Y-18133919D01*
X59864487Y-18133915D01*
X59948058Y-17977567D01*
X60060525Y-17840525D01*
X60197567Y-17728058D01*
X60197566Y-17728058D01*
X60197568Y-17728057D01*
X60242954Y-17703798D01*
X60353915Y-17644487D01*
X60377784Y-17637247D01*
X60523569Y-17593023D01*
X60655793Y-17580000D01*
X60744207Y-17580000D01*
X60876431Y-17593023D01*
X60876431Y-17593023D01*
G37*
G36*
X55796431Y-17593023D02*
G01*
X55942216Y-17637247D01*
X55966085Y-17644487D01*
X56077046Y-17703798D01*
X56122432Y-17728057D01*
X56122434Y-17728058D01*
X56122433Y-17728058D01*
X56259475Y-17840525D01*
X56371942Y-17977567D01*
X56455513Y-18133915D01*
X56455514Y-18133919D01*
X56506977Y-18303569D01*
X56524354Y-18480000D01*
X56506977Y-18656431D01*
X56462753Y-18802216D01*
X56455513Y-18826085D01*
X56439292Y-18856431D01*
X56371943Y-18982432D01*
X56259475Y-19119475D01*
X56122432Y-19231943D01*
X56083334Y-19252841D01*
X55966085Y-19315513D01*
X55942216Y-19322753D01*
X55796431Y-19366977D01*
X55664207Y-19380000D01*
X55575793Y-19380000D01*
X55443569Y-19366977D01*
X55297784Y-19322753D01*
X55273915Y-19315513D01*
X55156666Y-19252841D01*
X55117568Y-19231943D01*
X54980525Y-19119475D01*
X54868057Y-18982432D01*
X54800708Y-18856431D01*
X54784487Y-18826085D01*
X54777247Y-18802216D01*
X54733023Y-18656431D01*
X54715646Y-18480000D01*
X54733023Y-18303569D01*
X54784486Y-18133919D01*
X54784487Y-18133915D01*
X54868058Y-17977567D01*
X54980525Y-17840525D01*
X55117567Y-17728058D01*
X55117566Y-17728058D01*
X55117568Y-17728057D01*
X55162954Y-17703798D01*
X55273915Y-17644487D01*
X55297784Y-17637247D01*
X55443569Y-17593023D01*
X55575793Y-17580000D01*
X55664207Y-17580000D01*
X55796431Y-17593023D01*
X55796431Y-17593023D01*
G37*
G36*
X11788840Y-17579563D02*
G01*
X11832203Y-17592716D01*
X11872159Y-17614074D01*
X11907183Y-17642817D01*
X11935926Y-17677841D01*
X11957284Y-17717797D01*
X11970437Y-17761160D01*
X11975000Y-17807482D01*
X11975000Y-18317518D01*
X11970437Y-18363840D01*
X11957284Y-18407203D01*
X11935926Y-18447159D01*
X11907183Y-18482183D01*
X11872159Y-18510926D01*
X11832203Y-18532284D01*
X11788840Y-18545437D01*
X11742518Y-18550000D01*
X11157482Y-18550000D01*
X11111160Y-18545437D01*
X11067797Y-18532284D01*
X11027841Y-18510926D01*
X10992817Y-18482183D01*
X10964074Y-18447159D01*
X10942716Y-18407203D01*
X10929563Y-18363840D01*
X10925000Y-18317518D01*
X10925000Y-17807482D01*
X10929563Y-17761160D01*
X10942716Y-17717797D01*
X10964074Y-17677841D01*
X10992817Y-17642817D01*
X11027841Y-17614074D01*
X11067797Y-17592716D01*
X11111160Y-17579563D01*
X11157482Y-17575000D01*
X11742518Y-17575000D01*
X11788840Y-17579563D01*
X11788840Y-17579563D01*
G37*
G36*
X8750000Y-17250000D02*
G01*
X6650000Y-17250000D01*
X6650000Y-12650000D01*
X8750000Y-12650000D01*
X8750000Y-17250000D01*
X8750000Y-17250000D01*
G37*
G36*
X63416431Y-15053023D02*
G01*
X63562216Y-15097247D01*
X63586085Y-15104487D01*
X63697046Y-15163798D01*
X63742432Y-15188057D01*
X63879475Y-15300525D01*
X63963109Y-15402433D01*
X63991942Y-15437567D01*
X64075513Y-15593915D01*
X64075514Y-15593919D01*
X64126977Y-15763569D01*
X64144354Y-15940000D01*
X64126977Y-16116431D01*
X64082753Y-16262216D01*
X64075513Y-16286085D01*
X64016202Y-16397046D01*
X63991943Y-16442432D01*
X63879475Y-16579475D01*
X63742432Y-16691943D01*
X63697046Y-16716202D01*
X63586085Y-16775513D01*
X63562216Y-16782753D01*
X63416431Y-16826977D01*
X63284207Y-16840000D01*
X63195793Y-16840000D01*
X63063569Y-16826977D01*
X62917784Y-16782753D01*
X62893915Y-16775513D01*
X62782954Y-16716202D01*
X62737568Y-16691943D01*
X62600525Y-16579475D01*
X62488057Y-16442432D01*
X62463798Y-16397046D01*
X62404487Y-16286085D01*
X62397247Y-16262216D01*
X62353023Y-16116431D01*
X62335646Y-15940000D01*
X62353023Y-15763569D01*
X62404486Y-15593919D01*
X62404487Y-15593915D01*
X62488058Y-15437567D01*
X62516892Y-15402433D01*
X62600525Y-15300525D01*
X62737568Y-15188057D01*
X62782954Y-15163798D01*
X62893915Y-15104487D01*
X62917784Y-15097247D01*
X63063569Y-15053023D01*
X63195793Y-15040000D01*
X63284207Y-15040000D01*
X63416431Y-15053023D01*
X63416431Y-15053023D01*
G37*
G36*
X60876431Y-15053023D02*
G01*
X61022216Y-15097247D01*
X61046085Y-15104487D01*
X61157046Y-15163798D01*
X61202432Y-15188057D01*
X61339475Y-15300525D01*
X61423109Y-15402433D01*
X61451942Y-15437567D01*
X61535513Y-15593915D01*
X61535514Y-15593919D01*
X61586977Y-15763569D01*
X61604354Y-15940000D01*
X61586977Y-16116431D01*
X61542753Y-16262216D01*
X61535513Y-16286085D01*
X61476202Y-16397046D01*
X61451943Y-16442432D01*
X61339475Y-16579475D01*
X61202432Y-16691943D01*
X61157046Y-16716202D01*
X61046085Y-16775513D01*
X61022216Y-16782753D01*
X60876431Y-16826977D01*
X60744207Y-16840000D01*
X60655793Y-16840000D01*
X60523569Y-16826977D01*
X60377784Y-16782753D01*
X60353915Y-16775513D01*
X60242954Y-16716202D01*
X60197568Y-16691943D01*
X60060525Y-16579475D01*
X59948057Y-16442432D01*
X59923798Y-16397046D01*
X59864487Y-16286085D01*
X59857247Y-16262216D01*
X59813023Y-16116431D01*
X59795646Y-15940000D01*
X59813023Y-15763569D01*
X59864486Y-15593919D01*
X59864487Y-15593915D01*
X59948058Y-15437567D01*
X59976892Y-15402433D01*
X60060525Y-15300525D01*
X60197568Y-15188057D01*
X60242954Y-15163798D01*
X60353915Y-15104487D01*
X60377784Y-15097247D01*
X60523569Y-15053023D01*
X60655793Y-15040000D01*
X60744207Y-15040000D01*
X60876431Y-15053023D01*
X60876431Y-15053023D01*
G37*
G36*
X55796431Y-15053023D02*
G01*
X55942216Y-15097247D01*
X55966085Y-15104487D01*
X56077046Y-15163798D01*
X56122432Y-15188057D01*
X56259475Y-15300525D01*
X56343109Y-15402433D01*
X56371942Y-15437567D01*
X56455513Y-15593915D01*
X56455514Y-15593919D01*
X56506977Y-15763569D01*
X56524354Y-15940000D01*
X56506977Y-16116431D01*
X56462753Y-16262216D01*
X56455513Y-16286085D01*
X56396202Y-16397046D01*
X56371943Y-16442432D01*
X56259475Y-16579475D01*
X56122432Y-16691943D01*
X56077046Y-16716202D01*
X55966085Y-16775513D01*
X55942216Y-16782753D01*
X55796431Y-16826977D01*
X55664207Y-16840000D01*
X55575793Y-16840000D01*
X55443569Y-16826977D01*
X55297784Y-16782753D01*
X55273915Y-16775513D01*
X55162954Y-16716202D01*
X55117568Y-16691943D01*
X54980525Y-16579475D01*
X54868057Y-16442432D01*
X54843798Y-16397046D01*
X54784487Y-16286085D01*
X54777247Y-16262216D01*
X54733023Y-16116431D01*
X54715646Y-15940000D01*
X54733023Y-15763569D01*
X54784486Y-15593919D01*
X54784487Y-15593915D01*
X54868058Y-15437567D01*
X54896892Y-15402433D01*
X54980525Y-15300525D01*
X55117568Y-15188057D01*
X55162954Y-15163798D01*
X55273915Y-15104487D01*
X55297784Y-15097247D01*
X55443569Y-15053023D01*
X55575793Y-15040000D01*
X55664207Y-15040000D01*
X55796431Y-15053023D01*
X55796431Y-15053023D01*
G37*
G36*
X49426431Y-14013023D02*
G01*
X49572216Y-14057247D01*
X49596085Y-14064487D01*
X49707046Y-14123798D01*
X49752432Y-14148057D01*
X49752434Y-14148058D01*
X49752433Y-14148058D01*
X49889475Y-14260525D01*
X50001942Y-14397567D01*
X50085513Y-14553915D01*
X50085514Y-14553919D01*
X50136977Y-14723569D01*
X50154354Y-14900000D01*
X50136977Y-15076431D01*
X50103115Y-15188057D01*
X50085513Y-15246085D01*
X50026202Y-15357046D01*
X50001943Y-15402432D01*
X49889475Y-15539475D01*
X49752432Y-15651943D01*
X49707046Y-15676202D01*
X49596085Y-15735513D01*
X49572216Y-15742753D01*
X49426431Y-15786977D01*
X49294207Y-15800000D01*
X49205793Y-15800000D01*
X49073569Y-15786977D01*
X48927784Y-15742753D01*
X48903915Y-15735513D01*
X48792954Y-15676202D01*
X48747568Y-15651943D01*
X48610525Y-15539475D01*
X48498057Y-15402432D01*
X48473798Y-15357046D01*
X48414487Y-15246085D01*
X48396885Y-15188057D01*
X48363023Y-15076431D01*
X48345646Y-14900000D01*
X48363023Y-14723569D01*
X48414486Y-14553919D01*
X48414487Y-14553915D01*
X48498058Y-14397567D01*
X48610525Y-14260525D01*
X48747567Y-14148058D01*
X48747566Y-14148058D01*
X48747568Y-14148057D01*
X48792954Y-14123798D01*
X48903915Y-14064487D01*
X48927784Y-14057247D01*
X49073569Y-14013023D01*
X49205793Y-14000000D01*
X49294207Y-14000000D01*
X49426431Y-14013023D01*
X49426431Y-14013023D01*
G37*
G36*
X44346431Y-14013023D02*
G01*
X44492216Y-14057247D01*
X44516085Y-14064487D01*
X44627046Y-14123798D01*
X44672432Y-14148057D01*
X44672434Y-14148058D01*
X44672433Y-14148058D01*
X44809475Y-14260525D01*
X44921942Y-14397567D01*
X45005513Y-14553915D01*
X45005514Y-14553919D01*
X45056977Y-14723569D01*
X45074354Y-14900000D01*
X45056977Y-15076431D01*
X45023115Y-15188057D01*
X45005513Y-15246085D01*
X44946202Y-15357046D01*
X44921943Y-15402432D01*
X44809475Y-15539475D01*
X44672432Y-15651943D01*
X44627046Y-15676202D01*
X44516085Y-15735513D01*
X44492216Y-15742753D01*
X44346431Y-15786977D01*
X44214207Y-15800000D01*
X44125793Y-15800000D01*
X43993569Y-15786977D01*
X43847784Y-15742753D01*
X43823915Y-15735513D01*
X43712954Y-15676202D01*
X43667568Y-15651943D01*
X43530525Y-15539475D01*
X43418057Y-15402432D01*
X43393798Y-15357046D01*
X43334487Y-15246085D01*
X43316885Y-15188057D01*
X43283023Y-15076431D01*
X43265646Y-14900000D01*
X43283023Y-14723569D01*
X43334486Y-14553919D01*
X43334487Y-14553915D01*
X43418058Y-14397567D01*
X43530525Y-14260525D01*
X43667567Y-14148058D01*
X43667566Y-14148058D01*
X43667568Y-14148057D01*
X43712954Y-14123798D01*
X43823915Y-14064487D01*
X43847784Y-14057247D01*
X43993569Y-14013023D01*
X44125793Y-14000000D01*
X44214207Y-14000000D01*
X44346431Y-14013023D01*
X44346431Y-14013023D01*
G37*
G36*
X55796431Y-12513023D02*
G01*
X55942216Y-12557247D01*
X55966085Y-12564487D01*
X56077046Y-12623798D01*
X56122432Y-12648057D01*
X56259475Y-12760525D01*
X56343109Y-12862433D01*
X56371942Y-12897567D01*
X56455513Y-13053915D01*
X56455514Y-13053919D01*
X56506977Y-13223569D01*
X56524354Y-13400000D01*
X56506977Y-13576431D01*
X56462753Y-13722216D01*
X56455513Y-13746085D01*
X56396202Y-13857046D01*
X56371943Y-13902432D01*
X56259475Y-14039475D01*
X56122432Y-14151943D01*
X56077046Y-14176202D01*
X55966085Y-14235513D01*
X55942216Y-14242753D01*
X55796431Y-14286977D01*
X55664207Y-14300000D01*
X55575793Y-14300000D01*
X55443569Y-14286977D01*
X55297784Y-14242753D01*
X55273915Y-14235513D01*
X55162954Y-14176202D01*
X55117568Y-14151943D01*
X54980525Y-14039475D01*
X54868057Y-13902432D01*
X54843798Y-13857046D01*
X54784487Y-13746085D01*
X54777247Y-13722216D01*
X54733023Y-13576431D01*
X54715646Y-13400000D01*
X54733023Y-13223569D01*
X54784486Y-13053919D01*
X54784487Y-13053915D01*
X54868058Y-12897567D01*
X54896892Y-12862433D01*
X54980525Y-12760525D01*
X55117568Y-12648057D01*
X55162954Y-12623798D01*
X55273915Y-12564487D01*
X55297784Y-12557247D01*
X55443569Y-12513023D01*
X55575793Y-12500000D01*
X55664207Y-12500000D01*
X55796431Y-12513023D01*
X55796431Y-12513023D01*
G37*
G36*
X60876431Y-12513023D02*
G01*
X61022216Y-12557247D01*
X61046085Y-12564487D01*
X61157046Y-12623798D01*
X61202432Y-12648057D01*
X61339475Y-12760525D01*
X61423109Y-12862433D01*
X61451942Y-12897567D01*
X61535513Y-13053915D01*
X61535514Y-13053919D01*
X61586977Y-13223569D01*
X61604354Y-13400000D01*
X61586977Y-13576431D01*
X61542753Y-13722216D01*
X61535513Y-13746085D01*
X61476202Y-13857046D01*
X61451943Y-13902432D01*
X61339475Y-14039475D01*
X61202432Y-14151943D01*
X61157046Y-14176202D01*
X61046085Y-14235513D01*
X61022216Y-14242753D01*
X60876431Y-14286977D01*
X60744207Y-14300000D01*
X60655793Y-14300000D01*
X60523569Y-14286977D01*
X60377784Y-14242753D01*
X60353915Y-14235513D01*
X60242954Y-14176202D01*
X60197568Y-14151943D01*
X60060525Y-14039475D01*
X59948057Y-13902432D01*
X59923798Y-13857046D01*
X59864487Y-13746085D01*
X59857247Y-13722216D01*
X59813023Y-13576431D01*
X59795646Y-13400000D01*
X59813023Y-13223569D01*
X59864486Y-13053919D01*
X59864487Y-13053915D01*
X59948058Y-12897567D01*
X59976892Y-12862433D01*
X60060525Y-12760525D01*
X60197568Y-12648057D01*
X60242954Y-12623798D01*
X60353915Y-12564487D01*
X60377784Y-12557247D01*
X60523569Y-12513023D01*
X60655793Y-12500000D01*
X60744207Y-12500000D01*
X60876431Y-12513023D01*
X60876431Y-12513023D01*
G37*
G36*
X63416431Y-12513023D02*
G01*
X63562216Y-12557247D01*
X63586085Y-12564487D01*
X63697046Y-12623798D01*
X63742432Y-12648057D01*
X63879475Y-12760525D01*
X63963109Y-12862433D01*
X63991942Y-12897567D01*
X64075513Y-13053915D01*
X64075514Y-13053919D01*
X64126977Y-13223569D01*
X64144354Y-13400000D01*
X64126977Y-13576431D01*
X64082753Y-13722216D01*
X64075513Y-13746085D01*
X64016202Y-13857046D01*
X63991943Y-13902432D01*
X63879475Y-14039475D01*
X63742432Y-14151943D01*
X63697046Y-14176202D01*
X63586085Y-14235513D01*
X63562216Y-14242753D01*
X63416431Y-14286977D01*
X63284207Y-14300000D01*
X63195793Y-14300000D01*
X63063569Y-14286977D01*
X62917784Y-14242753D01*
X62893915Y-14235513D01*
X62782954Y-14176202D01*
X62737568Y-14151943D01*
X62600525Y-14039475D01*
X62488057Y-13902432D01*
X62463798Y-13857046D01*
X62404487Y-13746085D01*
X62397247Y-13722216D01*
X62353023Y-13576431D01*
X62335646Y-13400000D01*
X62353023Y-13223569D01*
X62404486Y-13053919D01*
X62404487Y-13053915D01*
X62488058Y-12897567D01*
X62516892Y-12862433D01*
X62600525Y-12760525D01*
X62737568Y-12648057D01*
X62782954Y-12623798D01*
X62893915Y-12564487D01*
X62917784Y-12557247D01*
X63063569Y-12513023D01*
X63195793Y-12500000D01*
X63284207Y-12500000D01*
X63416431Y-12513023D01*
X63416431Y-12513023D01*
G37*
G36*
X44346431Y-11473023D02*
G01*
X44492216Y-11517247D01*
X44516085Y-11524487D01*
X44627046Y-11583798D01*
X44672432Y-11608057D01*
X44672434Y-11608058D01*
X44672433Y-11608058D01*
X44809475Y-11720525D01*
X44921942Y-11857567D01*
X45005513Y-12013915D01*
X45005514Y-12013919D01*
X45056977Y-12183569D01*
X45074354Y-12360000D01*
X45056977Y-12536431D01*
X45023115Y-12648057D01*
X45005513Y-12706085D01*
X44946202Y-12817046D01*
X44921943Y-12862432D01*
X44809475Y-12999475D01*
X44672432Y-13111943D01*
X44627046Y-13136202D01*
X44516085Y-13195513D01*
X44492216Y-13202753D01*
X44346431Y-13246977D01*
X44214207Y-13260000D01*
X44125793Y-13260000D01*
X43993569Y-13246977D01*
X43847784Y-13202753D01*
X43823915Y-13195513D01*
X43712954Y-13136202D01*
X43667568Y-13111943D01*
X43530525Y-12999475D01*
X43418057Y-12862432D01*
X43393798Y-12817046D01*
X43334487Y-12706085D01*
X43316885Y-12648057D01*
X43283023Y-12536431D01*
X43265646Y-12360000D01*
X43283023Y-12183569D01*
X43334486Y-12013919D01*
X43334487Y-12013915D01*
X43418058Y-11857567D01*
X43530525Y-11720525D01*
X43667567Y-11608058D01*
X43667566Y-11608058D01*
X43667568Y-11608057D01*
X43712954Y-11583798D01*
X43823915Y-11524487D01*
X43847784Y-11517247D01*
X43993569Y-11473023D01*
X44125793Y-11460000D01*
X44214207Y-11460000D01*
X44346431Y-11473023D01*
X44346431Y-11473023D01*
G37*
G36*
X49426431Y-11473023D02*
G01*
X49572216Y-11517247D01*
X49596085Y-11524487D01*
X49707046Y-11583798D01*
X49752432Y-11608057D01*
X49752434Y-11608058D01*
X49752433Y-11608058D01*
X49889475Y-11720525D01*
X50001942Y-11857567D01*
X50085513Y-12013915D01*
X50085514Y-12013919D01*
X50136977Y-12183569D01*
X50154354Y-12360000D01*
X50136977Y-12536431D01*
X50103115Y-12648057D01*
X50085513Y-12706085D01*
X50026202Y-12817046D01*
X50001943Y-12862432D01*
X49889475Y-12999475D01*
X49752432Y-13111943D01*
X49707046Y-13136202D01*
X49596085Y-13195513D01*
X49572216Y-13202753D01*
X49426431Y-13246977D01*
X49294207Y-13260000D01*
X49205793Y-13260000D01*
X49073569Y-13246977D01*
X48927784Y-13202753D01*
X48903915Y-13195513D01*
X48792954Y-13136202D01*
X48747568Y-13111943D01*
X48610525Y-12999475D01*
X48498057Y-12862432D01*
X48473798Y-12817046D01*
X48414487Y-12706085D01*
X48396885Y-12648057D01*
X48363023Y-12536431D01*
X48345646Y-12360000D01*
X48363023Y-12183569D01*
X48414486Y-12013919D01*
X48414487Y-12013915D01*
X48498058Y-11857567D01*
X48610525Y-11720525D01*
X48747567Y-11608058D01*
X48747566Y-11608058D01*
X48747568Y-11608057D01*
X48792954Y-11583798D01*
X48903915Y-11524487D01*
X48927784Y-11517247D01*
X49073569Y-11473023D01*
X49205793Y-11460000D01*
X49294207Y-11460000D01*
X49426431Y-11473023D01*
X49426431Y-11473023D01*
G37*
G36*
X63416431Y-9973023D02*
G01*
X63562216Y-10017247D01*
X63586085Y-10024487D01*
X63697046Y-10083798D01*
X63742432Y-10108057D01*
X63879475Y-10220525D01*
X63963109Y-10322433D01*
X63991942Y-10357567D01*
X64075513Y-10513915D01*
X64075514Y-10513919D01*
X64126977Y-10683569D01*
X64144354Y-10860000D01*
X64126977Y-11036431D01*
X64082753Y-11182216D01*
X64075513Y-11206085D01*
X64016202Y-11317046D01*
X63991943Y-11362432D01*
X63879475Y-11499475D01*
X63742432Y-11611943D01*
X63697046Y-11636202D01*
X63586085Y-11695513D01*
X63562216Y-11702753D01*
X63416431Y-11746977D01*
X63284207Y-11760000D01*
X63195793Y-11760000D01*
X63063569Y-11746977D01*
X62917784Y-11702753D01*
X62893915Y-11695513D01*
X62782954Y-11636202D01*
X62737568Y-11611943D01*
X62600525Y-11499475D01*
X62488057Y-11362432D01*
X62463798Y-11317046D01*
X62404487Y-11206085D01*
X62397247Y-11182216D01*
X62353023Y-11036431D01*
X62335646Y-10860000D01*
X62353023Y-10683569D01*
X62404486Y-10513919D01*
X62404487Y-10513915D01*
X62488058Y-10357567D01*
X62516892Y-10322433D01*
X62600525Y-10220525D01*
X62737568Y-10108057D01*
X62782954Y-10083798D01*
X62893915Y-10024487D01*
X62917784Y-10017247D01*
X63063569Y-9973023D01*
X63195793Y-9960000D01*
X63284207Y-9960000D01*
X63416431Y-9973023D01*
X63416431Y-9973023D01*
G37*
G36*
X60876431Y-9973023D02*
G01*
X61022216Y-10017247D01*
X61046085Y-10024487D01*
X61157046Y-10083798D01*
X61202432Y-10108057D01*
X61339475Y-10220525D01*
X61423109Y-10322433D01*
X61451942Y-10357567D01*
X61535513Y-10513915D01*
X61535514Y-10513919D01*
X61586977Y-10683569D01*
X61604354Y-10860000D01*
X61586977Y-11036431D01*
X61542753Y-11182216D01*
X61535513Y-11206085D01*
X61476202Y-11317046D01*
X61451943Y-11362432D01*
X61339475Y-11499475D01*
X61202432Y-11611943D01*
X61157046Y-11636202D01*
X61046085Y-11695513D01*
X61022216Y-11702753D01*
X60876431Y-11746977D01*
X60744207Y-11760000D01*
X60655793Y-11760000D01*
X60523569Y-11746977D01*
X60377784Y-11702753D01*
X60353915Y-11695513D01*
X60242954Y-11636202D01*
X60197568Y-11611943D01*
X60060525Y-11499475D01*
X59948057Y-11362432D01*
X59923798Y-11317046D01*
X59864487Y-11206085D01*
X59857247Y-11182216D01*
X59813023Y-11036431D01*
X59795646Y-10860000D01*
X59813023Y-10683569D01*
X59864486Y-10513919D01*
X59864487Y-10513915D01*
X59948058Y-10357567D01*
X59976892Y-10322433D01*
X60060525Y-10220525D01*
X60197568Y-10108057D01*
X60242954Y-10083798D01*
X60353915Y-10024487D01*
X60377784Y-10017247D01*
X60523569Y-9973023D01*
X60655793Y-9960000D01*
X60744207Y-9960000D01*
X60876431Y-9973023D01*
X60876431Y-9973023D01*
G37*
G36*
X55796431Y-9973023D02*
G01*
X55942216Y-10017247D01*
X55966085Y-10024487D01*
X56077046Y-10083798D01*
X56122432Y-10108057D01*
X56259475Y-10220525D01*
X56343109Y-10322433D01*
X56371942Y-10357567D01*
X56455513Y-10513915D01*
X56455514Y-10513919D01*
X56506977Y-10683569D01*
X56524354Y-10860000D01*
X56506977Y-11036431D01*
X56462753Y-11182216D01*
X56455513Y-11206085D01*
X56396202Y-11317046D01*
X56371943Y-11362432D01*
X56259475Y-11499475D01*
X56122432Y-11611943D01*
X56077046Y-11636202D01*
X55966085Y-11695513D01*
X55942216Y-11702753D01*
X55796431Y-11746977D01*
X55664207Y-11760000D01*
X55575793Y-11760000D01*
X55443569Y-11746977D01*
X55297784Y-11702753D01*
X55273915Y-11695513D01*
X55162954Y-11636202D01*
X55117568Y-11611943D01*
X54980525Y-11499475D01*
X54868057Y-11362432D01*
X54843798Y-11317046D01*
X54784487Y-11206085D01*
X54777247Y-11182216D01*
X54733023Y-11036431D01*
X54715646Y-10860000D01*
X54733023Y-10683569D01*
X54784486Y-10513919D01*
X54784487Y-10513915D01*
X54868058Y-10357567D01*
X54896892Y-10322433D01*
X54980525Y-10220525D01*
X55117568Y-10108057D01*
X55162954Y-10083798D01*
X55273915Y-10024487D01*
X55297784Y-10017247D01*
X55443569Y-9973023D01*
X55575793Y-9960000D01*
X55664207Y-9960000D01*
X55796431Y-9973023D01*
X55796431Y-9973023D01*
G37*
G36*
X49426431Y-8933023D02*
G01*
X49572216Y-8977247D01*
X49596085Y-8984487D01*
X49707046Y-9043798D01*
X49752432Y-9068057D01*
X49752434Y-9068058D01*
X49752433Y-9068058D01*
X49889475Y-9180525D01*
X50001942Y-9317567D01*
X50085513Y-9473915D01*
X50085514Y-9473919D01*
X50136977Y-9643569D01*
X50154354Y-9820000D01*
X50136977Y-9996431D01*
X50103115Y-10108057D01*
X50085513Y-10166085D01*
X50026202Y-10277046D01*
X50001943Y-10322432D01*
X49889475Y-10459475D01*
X49752432Y-10571943D01*
X49707046Y-10596202D01*
X49596085Y-10655513D01*
X49572216Y-10662753D01*
X49426431Y-10706977D01*
X49294207Y-10720000D01*
X49205793Y-10720000D01*
X49073569Y-10706977D01*
X48927784Y-10662753D01*
X48903915Y-10655513D01*
X48792954Y-10596202D01*
X48747568Y-10571943D01*
X48610525Y-10459475D01*
X48498057Y-10322432D01*
X48473798Y-10277046D01*
X48414487Y-10166085D01*
X48396885Y-10108057D01*
X48363023Y-9996431D01*
X48345646Y-9820000D01*
X48363023Y-9643569D01*
X48414486Y-9473919D01*
X48414487Y-9473915D01*
X48498058Y-9317567D01*
X48610525Y-9180525D01*
X48747567Y-9068058D01*
X48747566Y-9068058D01*
X48747568Y-9068057D01*
X48792954Y-9043798D01*
X48903915Y-8984487D01*
X48927784Y-8977247D01*
X49073569Y-8933023D01*
X49205793Y-8920000D01*
X49294207Y-8920000D01*
X49426431Y-8933023D01*
X49426431Y-8933023D01*
G37*
G36*
X44346431Y-8933023D02*
G01*
X44492216Y-8977247D01*
X44516085Y-8984487D01*
X44627046Y-9043798D01*
X44672432Y-9068057D01*
X44672434Y-9068058D01*
X44672433Y-9068058D01*
X44809475Y-9180525D01*
X44921942Y-9317567D01*
X45005513Y-9473915D01*
X45005514Y-9473919D01*
X45056977Y-9643569D01*
X45074354Y-9820000D01*
X45056977Y-9996431D01*
X45023115Y-10108057D01*
X45005513Y-10166085D01*
X44946202Y-10277046D01*
X44921943Y-10322432D01*
X44809475Y-10459475D01*
X44672432Y-10571943D01*
X44627046Y-10596202D01*
X44516085Y-10655513D01*
X44492216Y-10662753D01*
X44346431Y-10706977D01*
X44214207Y-10720000D01*
X44125793Y-10720000D01*
X43993569Y-10706977D01*
X43847784Y-10662753D01*
X43823915Y-10655513D01*
X43712954Y-10596202D01*
X43667568Y-10571943D01*
X43530525Y-10459475D01*
X43418057Y-10322432D01*
X43393798Y-10277046D01*
X43334487Y-10166085D01*
X43316885Y-10108057D01*
X43283023Y-9996431D01*
X43265646Y-9820000D01*
X43283023Y-9643569D01*
X43334486Y-9473919D01*
X43334487Y-9473915D01*
X43418058Y-9317567D01*
X43530525Y-9180525D01*
X43667567Y-9068058D01*
X43667566Y-9068058D01*
X43667568Y-9068057D01*
X43712954Y-9043798D01*
X43823915Y-8984487D01*
X43847784Y-8977247D01*
X43993569Y-8933023D01*
X44125793Y-8920000D01*
X44214207Y-8920000D01*
X44346431Y-8933023D01*
X44346431Y-8933023D01*
G37*
G36*
X60876431Y-7433023D02*
G01*
X61022216Y-7477247D01*
X61046085Y-7484487D01*
X61157046Y-7543798D01*
X61202432Y-7568057D01*
X61339475Y-7680525D01*
X61423109Y-7782433D01*
X61451942Y-7817567D01*
X61535513Y-7973915D01*
X61535514Y-7973919D01*
X61586977Y-8143569D01*
X61604354Y-8320000D01*
X61586977Y-8496431D01*
X61542753Y-8642216D01*
X61535513Y-8666085D01*
X61476202Y-8777046D01*
X61451943Y-8822432D01*
X61339475Y-8959475D01*
X61202432Y-9071943D01*
X61157046Y-9096202D01*
X61046085Y-9155513D01*
X61022216Y-9162753D01*
X60876431Y-9206977D01*
X60744207Y-9220000D01*
X60655793Y-9220000D01*
X60523569Y-9206977D01*
X60377784Y-9162753D01*
X60353915Y-9155513D01*
X60242954Y-9096202D01*
X60197568Y-9071943D01*
X60060525Y-8959475D01*
X59948057Y-8822432D01*
X59923798Y-8777046D01*
X59864487Y-8666085D01*
X59857247Y-8642216D01*
X59813023Y-8496431D01*
X59795646Y-8320000D01*
X59813023Y-8143569D01*
X59864486Y-7973919D01*
X59864487Y-7973915D01*
X59948058Y-7817567D01*
X59976892Y-7782433D01*
X60060525Y-7680525D01*
X60197568Y-7568057D01*
X60242954Y-7543798D01*
X60353915Y-7484487D01*
X60377784Y-7477247D01*
X60523569Y-7433023D01*
X60655793Y-7420000D01*
X60744207Y-7420000D01*
X60876431Y-7433023D01*
X60876431Y-7433023D01*
G37*
G36*
X55796431Y-7433023D02*
G01*
X55942216Y-7477247D01*
X55966085Y-7484487D01*
X56077046Y-7543798D01*
X56122432Y-7568057D01*
X56259475Y-7680525D01*
X56343109Y-7782433D01*
X56371942Y-7817567D01*
X56455513Y-7973915D01*
X56455514Y-7973919D01*
X56506977Y-8143569D01*
X56524354Y-8320000D01*
X56506977Y-8496431D01*
X56462753Y-8642216D01*
X56455513Y-8666085D01*
X56396202Y-8777046D01*
X56371943Y-8822432D01*
X56259475Y-8959475D01*
X56122432Y-9071943D01*
X56077046Y-9096202D01*
X55966085Y-9155513D01*
X55942216Y-9162753D01*
X55796431Y-9206977D01*
X55664207Y-9220000D01*
X55575793Y-9220000D01*
X55443569Y-9206977D01*
X55297784Y-9162753D01*
X55273915Y-9155513D01*
X55162954Y-9096202D01*
X55117568Y-9071943D01*
X54980525Y-8959475D01*
X54868057Y-8822432D01*
X54843798Y-8777046D01*
X54784487Y-8666085D01*
X54777247Y-8642216D01*
X54733023Y-8496431D01*
X54715646Y-8320000D01*
X54733023Y-8143569D01*
X54784486Y-7973919D01*
X54784487Y-7973915D01*
X54868058Y-7817567D01*
X54896892Y-7782433D01*
X54980525Y-7680525D01*
X55117568Y-7568057D01*
X55162954Y-7543798D01*
X55273915Y-7484487D01*
X55297784Y-7477247D01*
X55443569Y-7433023D01*
X55575793Y-7420000D01*
X55664207Y-7420000D01*
X55796431Y-7433023D01*
X55796431Y-7433023D01*
G37*
G36*
X63416431Y-7433023D02*
G01*
X63562216Y-7477247D01*
X63586085Y-7484487D01*
X63697046Y-7543798D01*
X63742432Y-7568057D01*
X63879475Y-7680525D01*
X63963109Y-7782433D01*
X63991942Y-7817567D01*
X64075513Y-7973915D01*
X64075514Y-7973919D01*
X64126977Y-8143569D01*
X64144354Y-8320000D01*
X64126977Y-8496431D01*
X64082753Y-8642216D01*
X64075513Y-8666085D01*
X64016202Y-8777046D01*
X63991943Y-8822432D01*
X63879475Y-8959475D01*
X63742432Y-9071943D01*
X63697046Y-9096202D01*
X63586085Y-9155513D01*
X63562216Y-9162753D01*
X63416431Y-9206977D01*
X63284207Y-9220000D01*
X63195793Y-9220000D01*
X63063569Y-9206977D01*
X62917784Y-9162753D01*
X62893915Y-9155513D01*
X62782954Y-9096202D01*
X62737568Y-9071943D01*
X62600525Y-8959475D01*
X62488057Y-8822432D01*
X62463798Y-8777046D01*
X62404487Y-8666085D01*
X62397247Y-8642216D01*
X62353023Y-8496431D01*
X62335646Y-8320000D01*
X62353023Y-8143569D01*
X62404486Y-7973919D01*
X62404487Y-7973915D01*
X62488058Y-7817567D01*
X62516892Y-7782433D01*
X62600525Y-7680525D01*
X62737568Y-7568057D01*
X62782954Y-7543798D01*
X62893915Y-7484487D01*
X62917784Y-7477247D01*
X63063569Y-7433023D01*
X63195793Y-7420000D01*
X63284207Y-7420000D01*
X63416431Y-7433023D01*
X63416431Y-7433023D01*
G37*
G36*
X49426431Y-6393023D02*
G01*
X49572216Y-6437247D01*
X49596085Y-6444487D01*
X49707046Y-6503798D01*
X49752432Y-6528057D01*
X49752434Y-6528058D01*
X49752433Y-6528058D01*
X49889475Y-6640525D01*
X50001942Y-6777567D01*
X50085513Y-6933915D01*
X50085514Y-6933919D01*
X50136977Y-7103569D01*
X50154354Y-7280000D01*
X50136977Y-7456431D01*
X50103115Y-7568057D01*
X50085513Y-7626085D01*
X50026202Y-7737046D01*
X50001943Y-7782432D01*
X49889475Y-7919475D01*
X49752432Y-8031943D01*
X49707046Y-8056202D01*
X49596085Y-8115513D01*
X49572216Y-8122753D01*
X49426431Y-8166977D01*
X49294207Y-8180000D01*
X49205793Y-8180000D01*
X49073569Y-8166977D01*
X48927784Y-8122753D01*
X48903915Y-8115513D01*
X48792954Y-8056202D01*
X48747568Y-8031943D01*
X48610525Y-7919475D01*
X48498057Y-7782432D01*
X48473798Y-7737046D01*
X48414487Y-7626085D01*
X48396885Y-7568057D01*
X48363023Y-7456431D01*
X48345646Y-7280000D01*
X48363023Y-7103569D01*
X48414486Y-6933919D01*
X48414487Y-6933915D01*
X48498058Y-6777567D01*
X48610525Y-6640525D01*
X48747567Y-6528058D01*
X48747566Y-6528058D01*
X48747568Y-6528057D01*
X48792954Y-6503798D01*
X48903915Y-6444487D01*
X48927784Y-6437247D01*
X49073569Y-6393023D01*
X49205793Y-6380000D01*
X49294207Y-6380000D01*
X49426431Y-6393023D01*
X49426431Y-6393023D01*
G37*
G36*
X44346431Y-6393023D02*
G01*
X44492216Y-6437247D01*
X44516085Y-6444487D01*
X44627046Y-6503798D01*
X44672432Y-6528057D01*
X44672434Y-6528058D01*
X44672433Y-6528058D01*
X44809475Y-6640525D01*
X44921942Y-6777567D01*
X45005513Y-6933915D01*
X45005514Y-6933919D01*
X45056977Y-7103569D01*
X45074354Y-7280000D01*
X45056977Y-7456431D01*
X45023115Y-7568057D01*
X45005513Y-7626085D01*
X44946202Y-7737046D01*
X44921943Y-7782432D01*
X44809475Y-7919475D01*
X44672432Y-8031943D01*
X44627046Y-8056202D01*
X44516085Y-8115513D01*
X44492216Y-8122753D01*
X44346431Y-8166977D01*
X44214207Y-8180000D01*
X44125793Y-8180000D01*
X43993569Y-8166977D01*
X43847784Y-8122753D01*
X43823915Y-8115513D01*
X43712954Y-8056202D01*
X43667568Y-8031943D01*
X43530525Y-7919475D01*
X43418057Y-7782432D01*
X43393798Y-7737046D01*
X43334487Y-7626085D01*
X43316885Y-7568057D01*
X43283023Y-7456431D01*
X43265646Y-7280000D01*
X43283023Y-7103569D01*
X43334486Y-6933919D01*
X43334487Y-6933915D01*
X43418058Y-6777567D01*
X43530525Y-6640525D01*
X43667567Y-6528058D01*
X43667566Y-6528058D01*
X43667568Y-6528057D01*
X43712954Y-6503798D01*
X43823915Y-6444487D01*
X43847784Y-6437247D01*
X43993569Y-6393023D01*
X44125793Y-6380000D01*
X44214207Y-6380000D01*
X44346431Y-6393023D01*
X44346431Y-6393023D01*
G37*
G36*
X4124289Y-361488D02*
G01*
X4433406Y-422975D01*
X5015768Y-664197D01*
X5539881Y-1014398D01*
X5985602Y-1460119D01*
X6246112Y-1850000D01*
X6335803Y-1984232D01*
X6577025Y-2566594D01*
X6637272Y-2869475D01*
X6700000Y-3184828D01*
X6700000Y-3815172D01*
X6666957Y-3981287D01*
X6607228Y-4281568D01*
X6577025Y-4433405D01*
X6335803Y-5015768D01*
X5997588Y-5521943D01*
X5985601Y-5539882D01*
X5539882Y-5985601D01*
X5015768Y-6335803D01*
X4433406Y-6577025D01*
X4124289Y-6638512D01*
X3815172Y-6700000D01*
X3184828Y-6700000D01*
X2875711Y-6638512D01*
X2566594Y-6577025D01*
X1984232Y-6335803D01*
X1460118Y-5985601D01*
X1014399Y-5539882D01*
X1002413Y-5521943D01*
X664197Y-5015768D01*
X422975Y-4433405D01*
X392773Y-4281568D01*
X333043Y-3981287D01*
X300000Y-3815172D01*
X300000Y-3184828D01*
X362728Y-2869475D01*
X422975Y-2566594D01*
X664197Y-1984232D01*
X753888Y-1850000D01*
X1014398Y-1460119D01*
X1460119Y-1014398D01*
X1984232Y-664197D01*
X2566594Y-422975D01*
X2875711Y-361488D01*
X3184828Y-300000D01*
X3815172Y-300000D01*
X4124289Y-361488D01*
X4124289Y-361488D01*
G37*
G36*
X62124289Y-361488D02*
G01*
X62433406Y-422975D01*
X63015768Y-664197D01*
X63539881Y-1014398D01*
X63985602Y-1460119D01*
X64246112Y-1850000D01*
X64335803Y-1984232D01*
X64577025Y-2566594D01*
X64637272Y-2869475D01*
X64700000Y-3184828D01*
X64700000Y-3815172D01*
X64666957Y-3981287D01*
X64607228Y-4281568D01*
X64577025Y-4433405D01*
X64335803Y-5015768D01*
X63997588Y-5521943D01*
X63985601Y-5539882D01*
X63539882Y-5985601D01*
X63015768Y-6335803D01*
X62433406Y-6577025D01*
X62124288Y-6638513D01*
X61815172Y-6700000D01*
X61184828Y-6700000D01*
X60875711Y-6638512D01*
X60566594Y-6577025D01*
X59984232Y-6335803D01*
X59460118Y-5985601D01*
X59014399Y-5539882D01*
X59002413Y-5521943D01*
X58664197Y-5015768D01*
X58422975Y-4433405D01*
X58392773Y-4281568D01*
X58333043Y-3981287D01*
X58300000Y-3815172D01*
X58300000Y-3184828D01*
X58362728Y-2869475D01*
X58422975Y-2566594D01*
X58664197Y-1984232D01*
X58753888Y-1850000D01*
X59014398Y-1460119D01*
X59460119Y-1014398D01*
X59984232Y-664197D01*
X60566594Y-422975D01*
X60875711Y-361488D01*
X61184828Y-300000D01*
X61815172Y-300000D01*
X62124289Y-361488D01*
X62124289Y-361488D01*
G37*
G36*
X54266431Y-3883023D02*
G01*
X54412216Y-3927247D01*
X54436085Y-3934487D01*
X54523640Y-3981287D01*
X54592432Y-4018057D01*
X54592434Y-4018058D01*
X54592433Y-4018058D01*
X54729475Y-4130525D01*
X54841942Y-4267567D01*
X54925513Y-4423915D01*
X54925514Y-4423919D01*
X54976977Y-4593569D01*
X54994354Y-4770000D01*
X54976977Y-4946431D01*
X54934459Y-5086592D01*
X54925513Y-5116085D01*
X54866202Y-5227046D01*
X54841943Y-5272432D01*
X54729475Y-5409475D01*
X54592432Y-5521943D01*
X54558872Y-5539881D01*
X54436085Y-5605513D01*
X54412216Y-5612753D01*
X54266431Y-5656977D01*
X54134207Y-5670000D01*
X54045793Y-5670000D01*
X53913569Y-5656977D01*
X53767784Y-5612753D01*
X53743915Y-5605513D01*
X53621128Y-5539881D01*
X53587568Y-5521943D01*
X53450525Y-5409475D01*
X53338057Y-5272432D01*
X53313798Y-5227046D01*
X53254487Y-5116085D01*
X53245541Y-5086592D01*
X53203023Y-4946431D01*
X53185646Y-4770000D01*
X53203023Y-4593569D01*
X53254486Y-4423919D01*
X53254487Y-4423915D01*
X53338058Y-4267567D01*
X53450525Y-4130525D01*
X53587567Y-4018058D01*
X53587566Y-4018058D01*
X53587568Y-4018057D01*
X53656360Y-3981287D01*
X53743915Y-3934487D01*
X53767784Y-3927247D01*
X53913569Y-3883023D01*
X54045793Y-3870000D01*
X54134207Y-3870000D01*
X54266431Y-3883023D01*
X54266431Y-3883023D01*
G37*
G36*
X33946431Y-3883023D02*
G01*
X34092216Y-3927247D01*
X34116085Y-3934487D01*
X34203640Y-3981287D01*
X34272432Y-4018057D01*
X34272434Y-4018058D01*
X34272433Y-4018058D01*
X34409475Y-4130525D01*
X34521942Y-4267567D01*
X34605513Y-4423915D01*
X34605514Y-4423919D01*
X34656977Y-4593569D01*
X34674354Y-4770000D01*
X34656977Y-4946431D01*
X34614459Y-5086592D01*
X34605513Y-5116085D01*
X34546202Y-5227046D01*
X34521943Y-5272432D01*
X34409475Y-5409475D01*
X34272432Y-5521943D01*
X34238872Y-5539881D01*
X34116085Y-5605513D01*
X34092216Y-5612753D01*
X33946431Y-5656977D01*
X33814207Y-5670000D01*
X33725793Y-5670000D01*
X33593569Y-5656977D01*
X33447784Y-5612753D01*
X33423915Y-5605513D01*
X33301128Y-5539881D01*
X33267568Y-5521943D01*
X33130525Y-5409475D01*
X33018057Y-5272432D01*
X32993798Y-5227046D01*
X32934487Y-5116085D01*
X32925541Y-5086592D01*
X32883023Y-4946431D01*
X32865646Y-4770000D01*
X32883023Y-4593569D01*
X32934486Y-4423919D01*
X32934487Y-4423915D01*
X33018058Y-4267567D01*
X33130525Y-4130525D01*
X33267567Y-4018058D01*
X33267566Y-4018058D01*
X33267568Y-4018057D01*
X33336360Y-3981287D01*
X33423915Y-3934487D01*
X33447784Y-3927247D01*
X33593569Y-3883023D01*
X33725793Y-3870000D01*
X33814207Y-3870000D01*
X33946431Y-3883023D01*
X33946431Y-3883023D01*
G37*
G36*
X11086431Y-3883023D02*
G01*
X11232216Y-3927247D01*
X11256085Y-3934487D01*
X11343640Y-3981287D01*
X11412432Y-4018057D01*
X11412434Y-4018058D01*
X11412433Y-4018058D01*
X11549475Y-4130525D01*
X11661942Y-4267567D01*
X11745513Y-4423915D01*
X11745514Y-4423919D01*
X11796977Y-4593569D01*
X11814354Y-4770000D01*
X11796977Y-4946431D01*
X11754459Y-5086592D01*
X11745513Y-5116085D01*
X11686202Y-5227046D01*
X11661943Y-5272432D01*
X11549475Y-5409475D01*
X11412432Y-5521943D01*
X11378872Y-5539881D01*
X11256085Y-5605513D01*
X11232216Y-5612753D01*
X11086431Y-5656977D01*
X10954207Y-5670000D01*
X10865793Y-5670000D01*
X10733569Y-5656977D01*
X10587784Y-5612753D01*
X10563915Y-5605513D01*
X10441128Y-5539881D01*
X10407568Y-5521943D01*
X10270525Y-5409475D01*
X10158057Y-5272432D01*
X10133798Y-5227046D01*
X10074487Y-5116085D01*
X10065541Y-5086592D01*
X10023023Y-4946431D01*
X10005646Y-4770000D01*
X10023023Y-4593569D01*
X10074486Y-4423919D01*
X10074487Y-4423915D01*
X10158058Y-4267567D01*
X10270525Y-4130525D01*
X10407567Y-4018058D01*
X10407566Y-4018058D01*
X10407568Y-4018057D01*
X10476360Y-3981287D01*
X10563915Y-3934487D01*
X10587784Y-3927247D01*
X10733569Y-3883023D01*
X10865793Y-3870000D01*
X10954207Y-3870000D01*
X11086431Y-3883023D01*
X11086431Y-3883023D01*
G37*
G36*
X13626431Y-3883023D02*
G01*
X13772216Y-3927247D01*
X13796085Y-3934487D01*
X13883640Y-3981287D01*
X13952432Y-4018057D01*
X13952434Y-4018058D01*
X13952433Y-4018058D01*
X14089475Y-4130525D01*
X14201942Y-4267567D01*
X14285513Y-4423915D01*
X14285514Y-4423919D01*
X14336977Y-4593569D01*
X14354354Y-4770000D01*
X14336977Y-4946431D01*
X14294459Y-5086592D01*
X14285513Y-5116085D01*
X14226202Y-5227046D01*
X14201943Y-5272432D01*
X14089475Y-5409475D01*
X13952432Y-5521943D01*
X13918872Y-5539881D01*
X13796085Y-5605513D01*
X13772216Y-5612753D01*
X13626431Y-5656977D01*
X13494207Y-5670000D01*
X13405793Y-5670000D01*
X13273569Y-5656977D01*
X13127784Y-5612753D01*
X13103915Y-5605513D01*
X12981128Y-5539881D01*
X12947568Y-5521943D01*
X12810525Y-5409475D01*
X12698057Y-5272432D01*
X12673798Y-5227046D01*
X12614487Y-5116085D01*
X12605541Y-5086592D01*
X12563023Y-4946431D01*
X12545646Y-4770000D01*
X12563023Y-4593569D01*
X12614486Y-4423919D01*
X12614487Y-4423915D01*
X12698058Y-4267567D01*
X12810525Y-4130525D01*
X12947567Y-4018058D01*
X12947566Y-4018058D01*
X12947568Y-4018057D01*
X13016360Y-3981287D01*
X13103915Y-3934487D01*
X13127784Y-3927247D01*
X13273569Y-3883023D01*
X13405793Y-3870000D01*
X13494207Y-3870000D01*
X13626431Y-3883023D01*
X13626431Y-3883023D01*
G37*
G36*
X16166431Y-3883023D02*
G01*
X16312216Y-3927247D01*
X16336085Y-3934487D01*
X16423640Y-3981287D01*
X16492432Y-4018057D01*
X16492434Y-4018058D01*
X16492433Y-4018058D01*
X16629475Y-4130525D01*
X16741942Y-4267567D01*
X16825513Y-4423915D01*
X16825514Y-4423919D01*
X16876977Y-4593569D01*
X16894354Y-4770000D01*
X16876977Y-4946431D01*
X16834459Y-5086592D01*
X16825513Y-5116085D01*
X16766202Y-5227046D01*
X16741943Y-5272432D01*
X16629475Y-5409475D01*
X16492432Y-5521943D01*
X16458872Y-5539881D01*
X16336085Y-5605513D01*
X16312216Y-5612753D01*
X16166431Y-5656977D01*
X16034207Y-5670000D01*
X15945793Y-5670000D01*
X15813569Y-5656977D01*
X15667784Y-5612753D01*
X15643915Y-5605513D01*
X15521128Y-5539881D01*
X15487568Y-5521943D01*
X15350525Y-5409475D01*
X15238057Y-5272432D01*
X15213798Y-5227046D01*
X15154487Y-5116085D01*
X15145541Y-5086592D01*
X15103023Y-4946431D01*
X15085646Y-4770000D01*
X15103023Y-4593569D01*
X15154486Y-4423919D01*
X15154487Y-4423915D01*
X15238058Y-4267567D01*
X15350525Y-4130525D01*
X15487567Y-4018058D01*
X15487566Y-4018058D01*
X15487568Y-4018057D01*
X15556360Y-3981287D01*
X15643915Y-3934487D01*
X15667784Y-3927247D01*
X15813569Y-3883023D01*
X15945793Y-3870000D01*
X16034207Y-3870000D01*
X16166431Y-3883023D01*
X16166431Y-3883023D01*
G37*
G36*
X18706431Y-3883023D02*
G01*
X18852216Y-3927247D01*
X18876085Y-3934487D01*
X18963640Y-3981287D01*
X19032432Y-4018057D01*
X19032434Y-4018058D01*
X19032433Y-4018058D01*
X19169475Y-4130525D01*
X19281942Y-4267567D01*
X19365513Y-4423915D01*
X19365514Y-4423919D01*
X19416977Y-4593569D01*
X19434354Y-4770000D01*
X19416977Y-4946431D01*
X19374459Y-5086592D01*
X19365513Y-5116085D01*
X19306202Y-5227046D01*
X19281943Y-5272432D01*
X19169475Y-5409475D01*
X19032432Y-5521943D01*
X18998872Y-5539881D01*
X18876085Y-5605513D01*
X18852216Y-5612753D01*
X18706431Y-5656977D01*
X18574207Y-5670000D01*
X18485793Y-5670000D01*
X18353569Y-5656977D01*
X18207784Y-5612753D01*
X18183915Y-5605513D01*
X18061128Y-5539881D01*
X18027568Y-5521943D01*
X17890525Y-5409475D01*
X17778057Y-5272432D01*
X17753798Y-5227046D01*
X17694487Y-5116085D01*
X17685541Y-5086592D01*
X17643023Y-4946431D01*
X17625646Y-4770000D01*
X17643023Y-4593569D01*
X17694486Y-4423919D01*
X17694487Y-4423915D01*
X17778058Y-4267567D01*
X17890525Y-4130525D01*
X18027567Y-4018058D01*
X18027566Y-4018058D01*
X18027568Y-4018057D01*
X18096360Y-3981287D01*
X18183915Y-3934487D01*
X18207784Y-3927247D01*
X18353569Y-3883023D01*
X18485793Y-3870000D01*
X18574207Y-3870000D01*
X18706431Y-3883023D01*
X18706431Y-3883023D01*
G37*
G36*
X21246431Y-3883023D02*
G01*
X21392216Y-3927247D01*
X21416085Y-3934487D01*
X21503640Y-3981287D01*
X21572432Y-4018057D01*
X21572434Y-4018058D01*
X21572433Y-4018058D01*
X21709475Y-4130525D01*
X21821942Y-4267567D01*
X21905513Y-4423915D01*
X21905514Y-4423919D01*
X21956977Y-4593569D01*
X21974354Y-4770000D01*
X21956977Y-4946431D01*
X21914459Y-5086592D01*
X21905513Y-5116085D01*
X21846202Y-5227046D01*
X21821943Y-5272432D01*
X21709475Y-5409475D01*
X21572432Y-5521943D01*
X21538872Y-5539881D01*
X21416085Y-5605513D01*
X21392216Y-5612753D01*
X21246431Y-5656977D01*
X21114207Y-5670000D01*
X21025793Y-5670000D01*
X20893569Y-5656977D01*
X20747784Y-5612753D01*
X20723915Y-5605513D01*
X20601128Y-5539881D01*
X20567568Y-5521943D01*
X20430525Y-5409475D01*
X20318057Y-5272432D01*
X20293798Y-5227046D01*
X20234487Y-5116085D01*
X20225541Y-5086592D01*
X20183023Y-4946431D01*
X20165646Y-4770000D01*
X20183023Y-4593569D01*
X20234486Y-4423919D01*
X20234487Y-4423915D01*
X20318058Y-4267567D01*
X20430525Y-4130525D01*
X20567567Y-4018058D01*
X20567566Y-4018058D01*
X20567568Y-4018057D01*
X20636360Y-3981287D01*
X20723915Y-3934487D01*
X20747784Y-3927247D01*
X20893569Y-3883023D01*
X21025793Y-3870000D01*
X21114207Y-3870000D01*
X21246431Y-3883023D01*
X21246431Y-3883023D01*
G37*
G36*
X23786431Y-3883023D02*
G01*
X23932216Y-3927247D01*
X23956085Y-3934487D01*
X24043640Y-3981287D01*
X24112432Y-4018057D01*
X24112434Y-4018058D01*
X24112433Y-4018058D01*
X24249475Y-4130525D01*
X24361942Y-4267567D01*
X24445513Y-4423915D01*
X24445514Y-4423919D01*
X24496977Y-4593569D01*
X24514354Y-4770000D01*
X24496977Y-4946431D01*
X24454459Y-5086592D01*
X24445513Y-5116085D01*
X24386202Y-5227046D01*
X24361943Y-5272432D01*
X24249475Y-5409475D01*
X24112432Y-5521943D01*
X24078872Y-5539881D01*
X23956085Y-5605513D01*
X23932216Y-5612753D01*
X23786431Y-5656977D01*
X23654207Y-5670000D01*
X23565793Y-5670000D01*
X23433569Y-5656977D01*
X23287784Y-5612753D01*
X23263915Y-5605513D01*
X23141128Y-5539881D01*
X23107568Y-5521943D01*
X22970525Y-5409475D01*
X22858057Y-5272432D01*
X22833798Y-5227046D01*
X22774487Y-5116085D01*
X22765541Y-5086592D01*
X22723023Y-4946431D01*
X22705646Y-4770000D01*
X22723023Y-4593569D01*
X22774486Y-4423919D01*
X22774487Y-4423915D01*
X22858058Y-4267567D01*
X22970525Y-4130525D01*
X23107567Y-4018058D01*
X23107566Y-4018058D01*
X23107568Y-4018057D01*
X23176360Y-3981287D01*
X23263915Y-3934487D01*
X23287784Y-3927247D01*
X23433569Y-3883023D01*
X23565793Y-3870000D01*
X23654207Y-3870000D01*
X23786431Y-3883023D01*
X23786431Y-3883023D01*
G37*
G36*
X26326431Y-3883023D02*
G01*
X26472216Y-3927247D01*
X26496085Y-3934487D01*
X26583640Y-3981287D01*
X26652432Y-4018057D01*
X26652434Y-4018058D01*
X26652433Y-4018058D01*
X26789475Y-4130525D01*
X26901942Y-4267567D01*
X26985513Y-4423915D01*
X26985514Y-4423919D01*
X27036977Y-4593569D01*
X27054354Y-4770000D01*
X27036977Y-4946431D01*
X26994459Y-5086592D01*
X26985513Y-5116085D01*
X26926202Y-5227046D01*
X26901943Y-5272432D01*
X26789475Y-5409475D01*
X26652432Y-5521943D01*
X26618872Y-5539881D01*
X26496085Y-5605513D01*
X26472216Y-5612753D01*
X26326431Y-5656977D01*
X26194207Y-5670000D01*
X26105793Y-5670000D01*
X25973569Y-5656977D01*
X25827784Y-5612753D01*
X25803915Y-5605513D01*
X25681128Y-5539881D01*
X25647568Y-5521943D01*
X25510525Y-5409475D01*
X25398057Y-5272432D01*
X25373798Y-5227046D01*
X25314487Y-5116085D01*
X25305541Y-5086592D01*
X25263023Y-4946431D01*
X25245646Y-4770000D01*
X25263023Y-4593569D01*
X25314486Y-4423919D01*
X25314487Y-4423915D01*
X25398058Y-4267567D01*
X25510525Y-4130525D01*
X25647567Y-4018058D01*
X25647566Y-4018058D01*
X25647568Y-4018057D01*
X25716360Y-3981287D01*
X25803915Y-3934487D01*
X25827784Y-3927247D01*
X25973569Y-3883023D01*
X26105793Y-3870000D01*
X26194207Y-3870000D01*
X26326431Y-3883023D01*
X26326431Y-3883023D01*
G37*
G36*
X28866431Y-3883023D02*
G01*
X29012216Y-3927247D01*
X29036085Y-3934487D01*
X29123640Y-3981287D01*
X29192432Y-4018057D01*
X29192434Y-4018058D01*
X29192433Y-4018058D01*
X29329475Y-4130525D01*
X29441942Y-4267567D01*
X29525513Y-4423915D01*
X29525514Y-4423919D01*
X29576977Y-4593569D01*
X29594354Y-4770000D01*
X29576977Y-4946431D01*
X29534459Y-5086592D01*
X29525513Y-5116085D01*
X29466202Y-5227046D01*
X29441943Y-5272432D01*
X29329475Y-5409475D01*
X29192432Y-5521943D01*
X29158872Y-5539881D01*
X29036085Y-5605513D01*
X29012216Y-5612753D01*
X28866431Y-5656977D01*
X28734207Y-5670000D01*
X28645793Y-5670000D01*
X28513569Y-5656977D01*
X28367784Y-5612753D01*
X28343915Y-5605513D01*
X28221128Y-5539881D01*
X28187568Y-5521943D01*
X28050525Y-5409475D01*
X27938057Y-5272432D01*
X27913798Y-5227046D01*
X27854487Y-5116085D01*
X27845541Y-5086592D01*
X27803023Y-4946431D01*
X27785646Y-4770000D01*
X27803023Y-4593569D01*
X27854486Y-4423919D01*
X27854487Y-4423915D01*
X27938058Y-4267567D01*
X28050525Y-4130525D01*
X28187567Y-4018058D01*
X28187566Y-4018058D01*
X28187568Y-4018057D01*
X28256360Y-3981287D01*
X28343915Y-3934487D01*
X28367784Y-3927247D01*
X28513569Y-3883023D01*
X28645793Y-3870000D01*
X28734207Y-3870000D01*
X28866431Y-3883023D01*
X28866431Y-3883023D01*
G37*
G36*
X31406431Y-3883023D02*
G01*
X31552216Y-3927247D01*
X31576085Y-3934487D01*
X31663640Y-3981287D01*
X31732432Y-4018057D01*
X31732434Y-4018058D01*
X31732433Y-4018058D01*
X31869475Y-4130525D01*
X31981942Y-4267567D01*
X32065513Y-4423915D01*
X32065514Y-4423919D01*
X32116977Y-4593569D01*
X32134354Y-4770000D01*
X32116977Y-4946431D01*
X32074459Y-5086592D01*
X32065513Y-5116085D01*
X32006202Y-5227046D01*
X31981943Y-5272432D01*
X31869475Y-5409475D01*
X31732432Y-5521943D01*
X31698872Y-5539881D01*
X31576085Y-5605513D01*
X31552216Y-5612753D01*
X31406431Y-5656977D01*
X31274207Y-5670000D01*
X31185793Y-5670000D01*
X31053569Y-5656977D01*
X30907784Y-5612753D01*
X30883915Y-5605513D01*
X30761128Y-5539881D01*
X30727568Y-5521943D01*
X30590525Y-5409475D01*
X30478057Y-5272432D01*
X30453798Y-5227046D01*
X30394487Y-5116085D01*
X30385541Y-5086592D01*
X30343023Y-4946431D01*
X30325646Y-4770000D01*
X30343023Y-4593569D01*
X30394486Y-4423919D01*
X30394487Y-4423915D01*
X30478058Y-4267567D01*
X30590525Y-4130525D01*
X30727567Y-4018058D01*
X30727566Y-4018058D01*
X30727568Y-4018057D01*
X30796360Y-3981287D01*
X30883915Y-3934487D01*
X30907784Y-3927247D01*
X31053569Y-3883023D01*
X31185793Y-3870000D01*
X31274207Y-3870000D01*
X31406431Y-3883023D01*
X31406431Y-3883023D01*
G37*
G36*
X9270000Y-5670000D02*
G01*
X7470000Y-5670000D01*
X7470000Y-3870000D01*
X9270000Y-3870000D01*
X9270000Y-5670000D01*
X9270000Y-5670000D01*
G37*
G36*
X36486431Y-3883023D02*
G01*
X36632216Y-3927247D01*
X36656085Y-3934487D01*
X36743640Y-3981287D01*
X36812432Y-4018057D01*
X36812434Y-4018058D01*
X36812433Y-4018058D01*
X36949475Y-4130525D01*
X37061942Y-4267567D01*
X37145513Y-4423915D01*
X37145514Y-4423919D01*
X37196977Y-4593569D01*
X37214354Y-4770000D01*
X37196977Y-4946431D01*
X37154459Y-5086592D01*
X37145513Y-5116085D01*
X37086202Y-5227046D01*
X37061943Y-5272432D01*
X36949475Y-5409475D01*
X36812432Y-5521943D01*
X36778872Y-5539881D01*
X36656085Y-5605513D01*
X36632216Y-5612753D01*
X36486431Y-5656977D01*
X36354207Y-5670000D01*
X36265793Y-5670000D01*
X36133569Y-5656977D01*
X35987784Y-5612753D01*
X35963915Y-5605513D01*
X35841128Y-5539881D01*
X35807568Y-5521943D01*
X35670525Y-5409475D01*
X35558057Y-5272432D01*
X35533798Y-5227046D01*
X35474487Y-5116085D01*
X35465541Y-5086592D01*
X35423023Y-4946431D01*
X35405646Y-4770000D01*
X35423023Y-4593569D01*
X35474486Y-4423919D01*
X35474487Y-4423915D01*
X35558058Y-4267567D01*
X35670525Y-4130525D01*
X35807567Y-4018058D01*
X35807566Y-4018058D01*
X35807568Y-4018057D01*
X35876360Y-3981287D01*
X35963915Y-3934487D01*
X35987784Y-3927247D01*
X36133569Y-3883023D01*
X36265793Y-3870000D01*
X36354207Y-3870000D01*
X36486431Y-3883023D01*
X36486431Y-3883023D01*
G37*
G36*
X39026431Y-3883023D02*
G01*
X39172216Y-3927247D01*
X39196085Y-3934487D01*
X39283640Y-3981287D01*
X39352432Y-4018057D01*
X39352434Y-4018058D01*
X39352433Y-4018058D01*
X39489475Y-4130525D01*
X39601942Y-4267567D01*
X39685513Y-4423915D01*
X39685514Y-4423919D01*
X39736977Y-4593569D01*
X39754354Y-4770000D01*
X39736977Y-4946431D01*
X39694459Y-5086592D01*
X39685513Y-5116085D01*
X39626202Y-5227046D01*
X39601943Y-5272432D01*
X39489475Y-5409475D01*
X39352432Y-5521943D01*
X39318872Y-5539881D01*
X39196085Y-5605513D01*
X39172216Y-5612753D01*
X39026431Y-5656977D01*
X38894207Y-5670000D01*
X38805793Y-5670000D01*
X38673569Y-5656977D01*
X38527784Y-5612753D01*
X38503915Y-5605513D01*
X38381128Y-5539881D01*
X38347568Y-5521943D01*
X38210525Y-5409475D01*
X38098057Y-5272432D01*
X38073798Y-5227046D01*
X38014487Y-5116085D01*
X38005541Y-5086592D01*
X37963023Y-4946431D01*
X37945646Y-4770000D01*
X37963023Y-4593569D01*
X38014486Y-4423919D01*
X38014487Y-4423915D01*
X38098058Y-4267567D01*
X38210525Y-4130525D01*
X38347567Y-4018058D01*
X38347566Y-4018058D01*
X38347568Y-4018057D01*
X38416360Y-3981287D01*
X38503915Y-3934487D01*
X38527784Y-3927247D01*
X38673569Y-3883023D01*
X38805793Y-3870000D01*
X38894207Y-3870000D01*
X39026431Y-3883023D01*
X39026431Y-3883023D01*
G37*
G36*
X41566431Y-3883023D02*
G01*
X41712216Y-3927247D01*
X41736085Y-3934487D01*
X41823640Y-3981287D01*
X41892432Y-4018057D01*
X41892434Y-4018058D01*
X41892433Y-4018058D01*
X42029475Y-4130525D01*
X42141942Y-4267567D01*
X42225513Y-4423915D01*
X42225514Y-4423919D01*
X42276977Y-4593569D01*
X42294354Y-4770000D01*
X42276977Y-4946431D01*
X42234459Y-5086592D01*
X42225513Y-5116085D01*
X42166202Y-5227046D01*
X42141943Y-5272432D01*
X42029475Y-5409475D01*
X41892432Y-5521943D01*
X41858872Y-5539881D01*
X41736085Y-5605513D01*
X41712216Y-5612753D01*
X41566431Y-5656977D01*
X41434207Y-5670000D01*
X41345793Y-5670000D01*
X41213569Y-5656977D01*
X41067784Y-5612753D01*
X41043915Y-5605513D01*
X40921128Y-5539881D01*
X40887568Y-5521943D01*
X40750525Y-5409475D01*
X40638057Y-5272432D01*
X40613798Y-5227046D01*
X40554487Y-5116085D01*
X40545541Y-5086592D01*
X40503023Y-4946431D01*
X40485646Y-4770000D01*
X40503023Y-4593569D01*
X40554486Y-4423919D01*
X40554487Y-4423915D01*
X40638058Y-4267567D01*
X40750525Y-4130525D01*
X40887567Y-4018058D01*
X40887566Y-4018058D01*
X40887568Y-4018057D01*
X40956360Y-3981287D01*
X41043915Y-3934487D01*
X41067784Y-3927247D01*
X41213569Y-3883023D01*
X41345793Y-3870000D01*
X41434207Y-3870000D01*
X41566431Y-3883023D01*
X41566431Y-3883023D01*
G37*
G36*
X44106431Y-3883023D02*
G01*
X44252216Y-3927247D01*
X44276085Y-3934487D01*
X44363640Y-3981287D01*
X44432432Y-4018057D01*
X44432434Y-4018058D01*
X44432433Y-4018058D01*
X44569475Y-4130525D01*
X44681942Y-4267567D01*
X44765513Y-4423915D01*
X44765514Y-4423919D01*
X44816977Y-4593569D01*
X44834354Y-4770000D01*
X44816977Y-4946431D01*
X44774459Y-5086592D01*
X44765513Y-5116085D01*
X44706202Y-5227046D01*
X44681943Y-5272432D01*
X44569475Y-5409475D01*
X44432432Y-5521943D01*
X44398872Y-5539881D01*
X44276085Y-5605513D01*
X44252216Y-5612753D01*
X44106431Y-5656977D01*
X43974207Y-5670000D01*
X43885793Y-5670000D01*
X43753569Y-5656977D01*
X43607784Y-5612753D01*
X43583915Y-5605513D01*
X43461128Y-5539881D01*
X43427568Y-5521943D01*
X43290525Y-5409475D01*
X43178057Y-5272432D01*
X43153798Y-5227046D01*
X43094487Y-5116085D01*
X43085541Y-5086592D01*
X43043023Y-4946431D01*
X43025646Y-4770000D01*
X43043023Y-4593569D01*
X43094486Y-4423919D01*
X43094487Y-4423915D01*
X43178058Y-4267567D01*
X43290525Y-4130525D01*
X43427567Y-4018058D01*
X43427566Y-4018058D01*
X43427568Y-4018057D01*
X43496360Y-3981287D01*
X43583915Y-3934487D01*
X43607784Y-3927247D01*
X43753569Y-3883023D01*
X43885793Y-3870000D01*
X43974207Y-3870000D01*
X44106431Y-3883023D01*
X44106431Y-3883023D01*
G37*
G36*
X46646431Y-3883023D02*
G01*
X46792216Y-3927247D01*
X46816085Y-3934487D01*
X46903640Y-3981287D01*
X46972432Y-4018057D01*
X46972434Y-4018058D01*
X46972433Y-4018058D01*
X47109475Y-4130525D01*
X47221942Y-4267567D01*
X47305513Y-4423915D01*
X47305514Y-4423919D01*
X47356977Y-4593569D01*
X47374354Y-4770000D01*
X47356977Y-4946431D01*
X47314459Y-5086592D01*
X47305513Y-5116085D01*
X47246202Y-5227046D01*
X47221943Y-5272432D01*
X47109475Y-5409475D01*
X46972432Y-5521943D01*
X46938872Y-5539881D01*
X46816085Y-5605513D01*
X46792216Y-5612753D01*
X46646431Y-5656977D01*
X46514207Y-5670000D01*
X46425793Y-5670000D01*
X46293569Y-5656977D01*
X46147784Y-5612753D01*
X46123915Y-5605513D01*
X46001128Y-5539881D01*
X45967568Y-5521943D01*
X45830525Y-5409475D01*
X45718057Y-5272432D01*
X45693798Y-5227046D01*
X45634487Y-5116085D01*
X45625541Y-5086592D01*
X45583023Y-4946431D01*
X45565646Y-4770000D01*
X45583023Y-4593569D01*
X45634486Y-4423919D01*
X45634487Y-4423915D01*
X45718058Y-4267567D01*
X45830525Y-4130525D01*
X45967567Y-4018058D01*
X45967566Y-4018058D01*
X45967568Y-4018057D01*
X46036360Y-3981287D01*
X46123915Y-3934487D01*
X46147784Y-3927247D01*
X46293569Y-3883023D01*
X46425793Y-3870000D01*
X46514207Y-3870000D01*
X46646431Y-3883023D01*
X46646431Y-3883023D01*
G37*
G36*
X49186431Y-3883023D02*
G01*
X49332216Y-3927247D01*
X49356085Y-3934487D01*
X49443640Y-3981287D01*
X49512432Y-4018057D01*
X49512434Y-4018058D01*
X49512433Y-4018058D01*
X49649475Y-4130525D01*
X49761942Y-4267567D01*
X49845513Y-4423915D01*
X49845514Y-4423919D01*
X49896977Y-4593569D01*
X49914354Y-4770000D01*
X49896977Y-4946431D01*
X49854459Y-5086592D01*
X49845513Y-5116085D01*
X49786202Y-5227046D01*
X49761943Y-5272432D01*
X49649475Y-5409475D01*
X49512432Y-5521943D01*
X49478872Y-5539881D01*
X49356085Y-5605513D01*
X49332216Y-5612753D01*
X49186431Y-5656977D01*
X49054207Y-5670000D01*
X48965793Y-5670000D01*
X48833569Y-5656977D01*
X48687784Y-5612753D01*
X48663915Y-5605513D01*
X48541128Y-5539881D01*
X48507568Y-5521943D01*
X48370525Y-5409475D01*
X48258057Y-5272432D01*
X48233798Y-5227046D01*
X48174487Y-5116085D01*
X48165541Y-5086592D01*
X48123023Y-4946431D01*
X48105646Y-4770000D01*
X48123023Y-4593569D01*
X48174486Y-4423919D01*
X48174487Y-4423915D01*
X48258058Y-4267567D01*
X48370525Y-4130525D01*
X48507567Y-4018058D01*
X48507566Y-4018058D01*
X48507568Y-4018057D01*
X48576360Y-3981287D01*
X48663915Y-3934487D01*
X48687784Y-3927247D01*
X48833569Y-3883023D01*
X48965793Y-3870000D01*
X49054207Y-3870000D01*
X49186431Y-3883023D01*
X49186431Y-3883023D01*
G37*
G36*
X51726431Y-3883023D02*
G01*
X51872216Y-3927247D01*
X51896085Y-3934487D01*
X51983640Y-3981287D01*
X52052432Y-4018057D01*
X52052434Y-4018058D01*
X52052433Y-4018058D01*
X52189475Y-4130525D01*
X52301942Y-4267567D01*
X52385513Y-4423915D01*
X52385514Y-4423919D01*
X52436977Y-4593569D01*
X52454354Y-4770000D01*
X52436977Y-4946431D01*
X52394459Y-5086592D01*
X52385513Y-5116085D01*
X52326202Y-5227046D01*
X52301943Y-5272432D01*
X52189475Y-5409475D01*
X52052432Y-5521943D01*
X52018872Y-5539881D01*
X51896085Y-5605513D01*
X51872216Y-5612753D01*
X51726431Y-5656977D01*
X51594207Y-5670000D01*
X51505793Y-5670000D01*
X51373569Y-5656977D01*
X51227784Y-5612753D01*
X51203915Y-5605513D01*
X51081128Y-5539881D01*
X51047568Y-5521943D01*
X50910525Y-5409475D01*
X50798057Y-5272432D01*
X50773798Y-5227046D01*
X50714487Y-5116085D01*
X50705541Y-5086592D01*
X50663023Y-4946431D01*
X50645646Y-4770000D01*
X50663023Y-4593569D01*
X50714486Y-4423919D01*
X50714487Y-4423915D01*
X50798058Y-4267567D01*
X50910525Y-4130525D01*
X51047567Y-4018058D01*
X51047566Y-4018058D01*
X51047568Y-4018057D01*
X51116360Y-3981287D01*
X51203915Y-3934487D01*
X51227784Y-3927247D01*
X51373569Y-3883023D01*
X51505793Y-3870000D01*
X51594207Y-3870000D01*
X51726431Y-3883023D01*
X51726431Y-3883023D01*
G37*
G36*
X56806431Y-3883023D02*
G01*
X56952216Y-3927247D01*
X56976085Y-3934487D01*
X57063640Y-3981287D01*
X57132432Y-4018057D01*
X57132434Y-4018058D01*
X57132433Y-4018058D01*
X57269475Y-4130525D01*
X57381942Y-4267567D01*
X57465513Y-4423915D01*
X57465514Y-4423919D01*
X57516977Y-4593569D01*
X57534354Y-4770000D01*
X57516977Y-4946431D01*
X57474459Y-5086592D01*
X57465513Y-5116085D01*
X57406202Y-5227046D01*
X57381943Y-5272432D01*
X57269475Y-5409475D01*
X57132432Y-5521943D01*
X57098872Y-5539881D01*
X56976085Y-5605513D01*
X56952216Y-5612753D01*
X56806431Y-5656977D01*
X56674207Y-5670000D01*
X56585793Y-5670000D01*
X56453569Y-5656977D01*
X56307784Y-5612753D01*
X56283915Y-5605513D01*
X56161128Y-5539881D01*
X56127568Y-5521943D01*
X55990525Y-5409475D01*
X55878057Y-5272432D01*
X55853798Y-5227046D01*
X55794487Y-5116085D01*
X55785541Y-5086592D01*
X55743023Y-4946431D01*
X55725646Y-4770000D01*
X55743023Y-4593569D01*
X55794486Y-4423919D01*
X55794487Y-4423915D01*
X55878058Y-4267567D01*
X55990525Y-4130525D01*
X56127567Y-4018058D01*
X56127566Y-4018058D01*
X56127568Y-4018057D01*
X56196360Y-3981287D01*
X56283915Y-3934487D01*
X56307784Y-3927247D01*
X56453569Y-3883023D01*
X56585793Y-3870000D01*
X56674207Y-3870000D01*
X56806431Y-3883023D01*
X56806431Y-3883023D01*
G37*
G36*
X56806431Y-1343023D02*
G01*
X56952216Y-1387247D01*
X56976085Y-1394487D01*
X57087046Y-1453798D01*
X57132432Y-1478057D01*
X57132434Y-1478058D01*
X57132433Y-1478058D01*
X57269475Y-1590525D01*
X57381942Y-1727567D01*
X57465513Y-1883915D01*
X57465514Y-1883919D01*
X57516977Y-2053569D01*
X57534354Y-2230000D01*
X57516977Y-2406431D01*
X57472753Y-2552216D01*
X57465513Y-2576085D01*
X57406202Y-2687046D01*
X57381943Y-2732432D01*
X57269475Y-2869475D01*
X57132432Y-2981943D01*
X57087046Y-3006202D01*
X56976085Y-3065513D01*
X56952216Y-3072753D01*
X56806431Y-3116977D01*
X56674207Y-3130000D01*
X56585793Y-3130000D01*
X56453569Y-3116977D01*
X56307784Y-3072753D01*
X56283915Y-3065513D01*
X56172954Y-3006202D01*
X56127568Y-2981943D01*
X55990525Y-2869475D01*
X55878057Y-2732432D01*
X55853798Y-2687046D01*
X55794487Y-2576085D01*
X55787247Y-2552216D01*
X55743023Y-2406431D01*
X55725646Y-2230000D01*
X55743023Y-2053569D01*
X55794486Y-1883919D01*
X55794487Y-1883915D01*
X55878058Y-1727567D01*
X55990525Y-1590525D01*
X56127567Y-1478058D01*
X56127566Y-1478058D01*
X56127568Y-1478057D01*
X56172954Y-1453798D01*
X56283915Y-1394487D01*
X56307784Y-1387247D01*
X56453569Y-1343023D01*
X56585793Y-1330000D01*
X56674207Y-1330000D01*
X56806431Y-1343023D01*
X56806431Y-1343023D01*
G37*
G36*
X41566431Y-1343023D02*
G01*
X41712216Y-1387247D01*
X41736085Y-1394487D01*
X41847046Y-1453798D01*
X41892432Y-1478057D01*
X41892434Y-1478058D01*
X41892433Y-1478058D01*
X42029475Y-1590525D01*
X42141942Y-1727567D01*
X42225513Y-1883915D01*
X42225514Y-1883919D01*
X42276977Y-2053569D01*
X42294354Y-2230000D01*
X42276977Y-2406431D01*
X42232753Y-2552216D01*
X42225513Y-2576085D01*
X42166202Y-2687046D01*
X42141943Y-2732432D01*
X42029475Y-2869475D01*
X41892432Y-2981943D01*
X41847046Y-3006202D01*
X41736085Y-3065513D01*
X41712216Y-3072753D01*
X41566431Y-3116977D01*
X41434207Y-3130000D01*
X41345793Y-3130000D01*
X41213569Y-3116977D01*
X41067784Y-3072753D01*
X41043915Y-3065513D01*
X40932954Y-3006202D01*
X40887568Y-2981943D01*
X40750525Y-2869475D01*
X40638057Y-2732432D01*
X40613798Y-2687046D01*
X40554487Y-2576085D01*
X40547247Y-2552216D01*
X40503023Y-2406431D01*
X40485646Y-2230000D01*
X40503023Y-2053569D01*
X40554486Y-1883919D01*
X40554487Y-1883915D01*
X40638058Y-1727567D01*
X40750525Y-1590525D01*
X40887567Y-1478058D01*
X40887566Y-1478058D01*
X40887568Y-1478057D01*
X40932954Y-1453798D01*
X41043915Y-1394487D01*
X41067784Y-1387247D01*
X41213569Y-1343023D01*
X41345793Y-1330000D01*
X41434207Y-1330000D01*
X41566431Y-1343023D01*
X41566431Y-1343023D01*
G37*
G36*
X44106431Y-1343023D02*
G01*
X44252216Y-1387247D01*
X44276085Y-1394487D01*
X44387046Y-1453798D01*
X44432432Y-1478057D01*
X44432434Y-1478058D01*
X44432433Y-1478058D01*
X44569475Y-1590525D01*
X44681942Y-1727567D01*
X44765513Y-1883915D01*
X44765514Y-1883919D01*
X44816977Y-2053569D01*
X44834354Y-2230000D01*
X44816977Y-2406431D01*
X44772753Y-2552216D01*
X44765513Y-2576085D01*
X44706202Y-2687046D01*
X44681943Y-2732432D01*
X44569475Y-2869475D01*
X44432432Y-2981943D01*
X44387046Y-3006202D01*
X44276085Y-3065513D01*
X44252216Y-3072753D01*
X44106431Y-3116977D01*
X43974207Y-3130000D01*
X43885793Y-3130000D01*
X43753569Y-3116977D01*
X43607784Y-3072753D01*
X43583915Y-3065513D01*
X43472954Y-3006202D01*
X43427568Y-2981943D01*
X43290525Y-2869475D01*
X43178057Y-2732432D01*
X43153798Y-2687046D01*
X43094487Y-2576085D01*
X43087247Y-2552216D01*
X43043023Y-2406431D01*
X43025646Y-2230000D01*
X43043023Y-2053569D01*
X43094486Y-1883919D01*
X43094487Y-1883915D01*
X43178058Y-1727567D01*
X43290525Y-1590525D01*
X43427567Y-1478058D01*
X43427566Y-1478058D01*
X43427568Y-1478057D01*
X43472954Y-1453798D01*
X43583915Y-1394487D01*
X43607784Y-1387247D01*
X43753569Y-1343023D01*
X43885793Y-1330000D01*
X43974207Y-1330000D01*
X44106431Y-1343023D01*
X44106431Y-1343023D01*
G37*
G36*
X46646431Y-1343023D02*
G01*
X46792216Y-1387247D01*
X46816085Y-1394487D01*
X46927046Y-1453798D01*
X46972432Y-1478057D01*
X46972434Y-1478058D01*
X46972433Y-1478058D01*
X47109475Y-1590525D01*
X47221942Y-1727567D01*
X47305513Y-1883915D01*
X47305514Y-1883919D01*
X47356977Y-2053569D01*
X47374354Y-2230000D01*
X47356977Y-2406431D01*
X47312753Y-2552216D01*
X47305513Y-2576085D01*
X47246202Y-2687046D01*
X47221943Y-2732432D01*
X47109475Y-2869475D01*
X46972432Y-2981943D01*
X46927046Y-3006202D01*
X46816085Y-3065513D01*
X46792216Y-3072753D01*
X46646431Y-3116977D01*
X46514207Y-3130000D01*
X46425793Y-3130000D01*
X46293569Y-3116977D01*
X46147784Y-3072753D01*
X46123915Y-3065513D01*
X46012954Y-3006202D01*
X45967568Y-2981943D01*
X45830525Y-2869475D01*
X45718057Y-2732432D01*
X45693798Y-2687046D01*
X45634487Y-2576085D01*
X45627247Y-2552216D01*
X45583023Y-2406431D01*
X45565646Y-2230000D01*
X45583023Y-2053569D01*
X45634486Y-1883919D01*
X45634487Y-1883915D01*
X45718058Y-1727567D01*
X45830525Y-1590525D01*
X45967567Y-1478058D01*
X45967566Y-1478058D01*
X45967568Y-1478057D01*
X46012954Y-1453798D01*
X46123915Y-1394487D01*
X46147784Y-1387247D01*
X46293569Y-1343023D01*
X46425793Y-1330000D01*
X46514207Y-1330000D01*
X46646431Y-1343023D01*
X46646431Y-1343023D01*
G37*
G36*
X49186431Y-1343023D02*
G01*
X49332216Y-1387247D01*
X49356085Y-1394487D01*
X49467046Y-1453798D01*
X49512432Y-1478057D01*
X49512434Y-1478058D01*
X49512433Y-1478058D01*
X49649475Y-1590525D01*
X49761942Y-1727567D01*
X49845513Y-1883915D01*
X49845514Y-1883919D01*
X49896977Y-2053569D01*
X49914354Y-2230000D01*
X49896977Y-2406431D01*
X49852753Y-2552216D01*
X49845513Y-2576085D01*
X49786202Y-2687046D01*
X49761943Y-2732432D01*
X49649475Y-2869475D01*
X49512432Y-2981943D01*
X49467046Y-3006202D01*
X49356085Y-3065513D01*
X49332216Y-3072753D01*
X49186431Y-3116977D01*
X49054207Y-3130000D01*
X48965793Y-3130000D01*
X48833569Y-3116977D01*
X48687784Y-3072753D01*
X48663915Y-3065513D01*
X48552954Y-3006202D01*
X48507568Y-2981943D01*
X48370525Y-2869475D01*
X48258057Y-2732432D01*
X48233798Y-2687046D01*
X48174487Y-2576085D01*
X48167247Y-2552216D01*
X48123023Y-2406431D01*
X48105646Y-2230000D01*
X48123023Y-2053569D01*
X48174486Y-1883919D01*
X48174487Y-1883915D01*
X48258058Y-1727567D01*
X48370525Y-1590525D01*
X48507567Y-1478058D01*
X48507566Y-1478058D01*
X48507568Y-1478057D01*
X48552954Y-1453798D01*
X48663915Y-1394487D01*
X48687784Y-1387247D01*
X48833569Y-1343023D01*
X48965793Y-1330000D01*
X49054207Y-1330000D01*
X49186431Y-1343023D01*
X49186431Y-1343023D01*
G37*
G36*
X51726431Y-1343023D02*
G01*
X51872216Y-1387247D01*
X51896085Y-1394487D01*
X52007046Y-1453798D01*
X52052432Y-1478057D01*
X52052434Y-1478058D01*
X52052433Y-1478058D01*
X52189475Y-1590525D01*
X52301942Y-1727567D01*
X52385513Y-1883915D01*
X52385514Y-1883919D01*
X52436977Y-2053569D01*
X52454354Y-2230000D01*
X52436977Y-2406431D01*
X52392753Y-2552216D01*
X52385513Y-2576085D01*
X52326202Y-2687046D01*
X52301943Y-2732432D01*
X52189475Y-2869475D01*
X52052432Y-2981943D01*
X52007046Y-3006202D01*
X51896085Y-3065513D01*
X51872216Y-3072753D01*
X51726431Y-3116977D01*
X51594207Y-3130000D01*
X51505793Y-3130000D01*
X51373569Y-3116977D01*
X51227784Y-3072753D01*
X51203915Y-3065513D01*
X51092954Y-3006202D01*
X51047568Y-2981943D01*
X50910525Y-2869475D01*
X50798057Y-2732432D01*
X50773798Y-2687046D01*
X50714487Y-2576085D01*
X50707247Y-2552216D01*
X50663023Y-2406431D01*
X50645646Y-2230000D01*
X50663023Y-2053569D01*
X50714486Y-1883919D01*
X50714487Y-1883915D01*
X50798058Y-1727567D01*
X50910525Y-1590525D01*
X51047567Y-1478058D01*
X51047566Y-1478058D01*
X51047568Y-1478057D01*
X51092954Y-1453798D01*
X51203915Y-1394487D01*
X51227784Y-1387247D01*
X51373569Y-1343023D01*
X51505793Y-1330000D01*
X51594207Y-1330000D01*
X51726431Y-1343023D01*
X51726431Y-1343023D01*
G37*
G36*
X54266431Y-1343023D02*
G01*
X54412216Y-1387247D01*
X54436085Y-1394487D01*
X54547046Y-1453798D01*
X54592432Y-1478057D01*
X54592434Y-1478058D01*
X54592433Y-1478058D01*
X54729475Y-1590525D01*
X54841942Y-1727567D01*
X54925513Y-1883915D01*
X54925514Y-1883919D01*
X54976977Y-2053569D01*
X54994354Y-2230000D01*
X54976977Y-2406431D01*
X54932753Y-2552216D01*
X54925513Y-2576085D01*
X54866202Y-2687046D01*
X54841943Y-2732432D01*
X54729475Y-2869475D01*
X54592432Y-2981943D01*
X54547046Y-3006202D01*
X54436085Y-3065513D01*
X54412216Y-3072753D01*
X54266431Y-3116977D01*
X54134207Y-3130000D01*
X54045793Y-3130000D01*
X53913569Y-3116977D01*
X53767784Y-3072753D01*
X53743915Y-3065513D01*
X53632954Y-3006202D01*
X53587568Y-2981943D01*
X53450525Y-2869475D01*
X53338057Y-2732432D01*
X53313798Y-2687046D01*
X53254487Y-2576085D01*
X53247247Y-2552216D01*
X53203023Y-2406431D01*
X53185646Y-2230000D01*
X53203023Y-2053569D01*
X53254486Y-1883919D01*
X53254487Y-1883915D01*
X53338058Y-1727567D01*
X53450525Y-1590525D01*
X53587567Y-1478058D01*
X53587566Y-1478058D01*
X53587568Y-1478057D01*
X53632954Y-1453798D01*
X53743915Y-1394487D01*
X53767784Y-1387247D01*
X53913569Y-1343023D01*
X54045793Y-1330000D01*
X54134207Y-1330000D01*
X54266431Y-1343023D01*
X54266431Y-1343023D01*
G37*
G36*
X8546431Y-1343023D02*
G01*
X8692216Y-1387247D01*
X8716085Y-1394487D01*
X8827046Y-1453798D01*
X8872432Y-1478057D01*
X8872434Y-1478058D01*
X8872433Y-1478058D01*
X9009475Y-1590525D01*
X9121942Y-1727567D01*
X9205513Y-1883915D01*
X9205514Y-1883919D01*
X9256977Y-2053569D01*
X9274354Y-2230000D01*
X9256977Y-2406431D01*
X9212753Y-2552216D01*
X9205513Y-2576085D01*
X9146202Y-2687046D01*
X9121943Y-2732432D01*
X9009475Y-2869475D01*
X8872432Y-2981943D01*
X8827046Y-3006202D01*
X8716085Y-3065513D01*
X8692216Y-3072753D01*
X8546431Y-3116977D01*
X8414207Y-3130000D01*
X8325793Y-3130000D01*
X8193569Y-3116977D01*
X8047784Y-3072753D01*
X8023915Y-3065513D01*
X7912954Y-3006202D01*
X7867568Y-2981943D01*
X7730525Y-2869475D01*
X7618057Y-2732432D01*
X7593798Y-2687046D01*
X7534487Y-2576085D01*
X7527247Y-2552216D01*
X7483023Y-2406431D01*
X7465646Y-2230000D01*
X7483023Y-2053569D01*
X7534486Y-1883919D01*
X7534487Y-1883915D01*
X7618058Y-1727567D01*
X7730525Y-1590525D01*
X7867567Y-1478058D01*
X7867566Y-1478058D01*
X7867568Y-1478057D01*
X7912954Y-1453798D01*
X8023915Y-1394487D01*
X8047784Y-1387247D01*
X8193569Y-1343023D01*
X8325793Y-1330000D01*
X8414207Y-1330000D01*
X8546431Y-1343023D01*
X8546431Y-1343023D01*
G37*
G36*
X11086431Y-1343023D02*
G01*
X11232216Y-1387247D01*
X11256085Y-1394487D01*
X11367046Y-1453798D01*
X11412432Y-1478057D01*
X11412434Y-1478058D01*
X11412433Y-1478058D01*
X11549475Y-1590525D01*
X11661942Y-1727567D01*
X11745513Y-1883915D01*
X11745514Y-1883919D01*
X11796977Y-2053569D01*
X11814354Y-2230000D01*
X11796977Y-2406431D01*
X11752753Y-2552216D01*
X11745513Y-2576085D01*
X11686202Y-2687046D01*
X11661943Y-2732432D01*
X11549475Y-2869475D01*
X11412432Y-2981943D01*
X11367046Y-3006202D01*
X11256085Y-3065513D01*
X11232216Y-3072753D01*
X11086431Y-3116977D01*
X10954207Y-3130000D01*
X10865793Y-3130000D01*
X10733569Y-3116977D01*
X10587784Y-3072753D01*
X10563915Y-3065513D01*
X10452954Y-3006202D01*
X10407568Y-2981943D01*
X10270525Y-2869475D01*
X10158057Y-2732432D01*
X10133798Y-2687046D01*
X10074487Y-2576085D01*
X10067247Y-2552216D01*
X10023023Y-2406431D01*
X10005646Y-2230000D01*
X10023023Y-2053569D01*
X10074486Y-1883919D01*
X10074487Y-1883915D01*
X10158058Y-1727567D01*
X10270525Y-1590525D01*
X10407567Y-1478058D01*
X10407566Y-1478058D01*
X10407568Y-1478057D01*
X10452954Y-1453798D01*
X10563915Y-1394487D01*
X10587784Y-1387247D01*
X10733569Y-1343023D01*
X10865793Y-1330000D01*
X10954207Y-1330000D01*
X11086431Y-1343023D01*
X11086431Y-1343023D01*
G37*
G36*
X16166431Y-1343023D02*
G01*
X16312216Y-1387247D01*
X16336085Y-1394487D01*
X16447046Y-1453798D01*
X16492432Y-1478057D01*
X16492434Y-1478058D01*
X16492433Y-1478058D01*
X16629475Y-1590525D01*
X16741942Y-1727567D01*
X16825513Y-1883915D01*
X16825514Y-1883919D01*
X16876977Y-2053569D01*
X16894354Y-2230000D01*
X16876977Y-2406431D01*
X16832753Y-2552216D01*
X16825513Y-2576085D01*
X16766202Y-2687046D01*
X16741943Y-2732432D01*
X16629475Y-2869475D01*
X16492432Y-2981943D01*
X16447046Y-3006202D01*
X16336085Y-3065513D01*
X16312216Y-3072753D01*
X16166431Y-3116977D01*
X16034207Y-3130000D01*
X15945793Y-3130000D01*
X15813569Y-3116977D01*
X15667784Y-3072753D01*
X15643915Y-3065513D01*
X15532954Y-3006202D01*
X15487568Y-2981943D01*
X15350525Y-2869475D01*
X15238057Y-2732432D01*
X15213798Y-2687046D01*
X15154487Y-2576085D01*
X15147247Y-2552216D01*
X15103023Y-2406431D01*
X15085646Y-2230000D01*
X15103023Y-2053569D01*
X15154486Y-1883919D01*
X15154487Y-1883915D01*
X15238058Y-1727567D01*
X15350525Y-1590525D01*
X15487567Y-1478058D01*
X15487566Y-1478058D01*
X15487568Y-1478057D01*
X15532954Y-1453798D01*
X15643915Y-1394487D01*
X15667784Y-1387247D01*
X15813569Y-1343023D01*
X15945793Y-1330000D01*
X16034207Y-1330000D01*
X16166431Y-1343023D01*
X16166431Y-1343023D01*
G37*
G36*
X18706431Y-1343023D02*
G01*
X18852216Y-1387247D01*
X18876085Y-1394487D01*
X18987046Y-1453798D01*
X19032432Y-1478057D01*
X19032434Y-1478058D01*
X19032433Y-1478058D01*
X19169475Y-1590525D01*
X19281942Y-1727567D01*
X19365513Y-1883915D01*
X19365514Y-1883919D01*
X19416977Y-2053569D01*
X19434354Y-2230000D01*
X19416977Y-2406431D01*
X19372753Y-2552216D01*
X19365513Y-2576085D01*
X19306202Y-2687046D01*
X19281943Y-2732432D01*
X19169475Y-2869475D01*
X19032432Y-2981943D01*
X18987046Y-3006202D01*
X18876085Y-3065513D01*
X18852216Y-3072753D01*
X18706431Y-3116977D01*
X18574207Y-3130000D01*
X18485793Y-3130000D01*
X18353569Y-3116977D01*
X18207784Y-3072753D01*
X18183915Y-3065513D01*
X18072954Y-3006202D01*
X18027568Y-2981943D01*
X17890525Y-2869475D01*
X17778057Y-2732432D01*
X17753798Y-2687046D01*
X17694487Y-2576085D01*
X17687247Y-2552216D01*
X17643023Y-2406431D01*
X17625646Y-2230000D01*
X17643023Y-2053569D01*
X17694486Y-1883919D01*
X17694487Y-1883915D01*
X17778058Y-1727567D01*
X17890525Y-1590525D01*
X18027567Y-1478058D01*
X18027566Y-1478058D01*
X18027568Y-1478057D01*
X18072954Y-1453798D01*
X18183915Y-1394487D01*
X18207784Y-1387247D01*
X18353569Y-1343023D01*
X18485793Y-1330000D01*
X18574207Y-1330000D01*
X18706431Y-1343023D01*
X18706431Y-1343023D01*
G37*
G36*
X21246431Y-1343023D02*
G01*
X21392216Y-1387247D01*
X21416085Y-1394487D01*
X21527046Y-1453798D01*
X21572432Y-1478057D01*
X21572434Y-1478058D01*
X21572433Y-1478058D01*
X21709475Y-1590525D01*
X21821942Y-1727567D01*
X21905513Y-1883915D01*
X21905514Y-1883919D01*
X21956977Y-2053569D01*
X21974354Y-2230000D01*
X21956977Y-2406431D01*
X21912753Y-2552216D01*
X21905513Y-2576085D01*
X21846202Y-2687046D01*
X21821943Y-2732432D01*
X21709475Y-2869475D01*
X21572432Y-2981943D01*
X21527046Y-3006202D01*
X21416085Y-3065513D01*
X21392216Y-3072753D01*
X21246431Y-3116977D01*
X21114207Y-3130000D01*
X21025793Y-3130000D01*
X20893569Y-3116977D01*
X20747784Y-3072753D01*
X20723915Y-3065513D01*
X20612954Y-3006202D01*
X20567568Y-2981943D01*
X20430525Y-2869475D01*
X20318057Y-2732432D01*
X20293798Y-2687046D01*
X20234487Y-2576085D01*
X20227247Y-2552216D01*
X20183023Y-2406431D01*
X20165646Y-2230000D01*
X20183023Y-2053569D01*
X20234486Y-1883919D01*
X20234487Y-1883915D01*
X20318058Y-1727567D01*
X20430525Y-1590525D01*
X20567567Y-1478058D01*
X20567566Y-1478058D01*
X20567568Y-1478057D01*
X20612954Y-1453798D01*
X20723915Y-1394487D01*
X20747784Y-1387247D01*
X20893569Y-1343023D01*
X21025793Y-1330000D01*
X21114207Y-1330000D01*
X21246431Y-1343023D01*
X21246431Y-1343023D01*
G37*
G36*
X23786431Y-1343023D02*
G01*
X23932216Y-1387247D01*
X23956085Y-1394487D01*
X24067046Y-1453798D01*
X24112432Y-1478057D01*
X24112434Y-1478058D01*
X24112433Y-1478058D01*
X24249475Y-1590525D01*
X24361942Y-1727567D01*
X24445513Y-1883915D01*
X24445514Y-1883919D01*
X24496977Y-2053569D01*
X24514354Y-2230000D01*
X24496977Y-2406431D01*
X24452753Y-2552216D01*
X24445513Y-2576085D01*
X24386202Y-2687046D01*
X24361943Y-2732432D01*
X24249475Y-2869475D01*
X24112432Y-2981943D01*
X24067046Y-3006202D01*
X23956085Y-3065513D01*
X23932216Y-3072753D01*
X23786431Y-3116977D01*
X23654207Y-3130000D01*
X23565793Y-3130000D01*
X23433569Y-3116977D01*
X23287784Y-3072753D01*
X23263915Y-3065513D01*
X23152954Y-3006202D01*
X23107568Y-2981943D01*
X22970525Y-2869475D01*
X22858057Y-2732432D01*
X22833798Y-2687046D01*
X22774487Y-2576085D01*
X22767247Y-2552216D01*
X22723023Y-2406431D01*
X22705646Y-2230000D01*
X22723023Y-2053569D01*
X22774486Y-1883919D01*
X22774487Y-1883915D01*
X22858058Y-1727567D01*
X22970525Y-1590525D01*
X23107567Y-1478058D01*
X23107566Y-1478058D01*
X23107568Y-1478057D01*
X23152954Y-1453798D01*
X23263915Y-1394487D01*
X23287784Y-1387247D01*
X23433569Y-1343023D01*
X23565793Y-1330000D01*
X23654207Y-1330000D01*
X23786431Y-1343023D01*
X23786431Y-1343023D01*
G37*
G36*
X26326431Y-1343023D02*
G01*
X26472216Y-1387247D01*
X26496085Y-1394487D01*
X26607046Y-1453798D01*
X26652432Y-1478057D01*
X26652434Y-1478058D01*
X26652433Y-1478058D01*
X26789475Y-1590525D01*
X26901942Y-1727567D01*
X26985513Y-1883915D01*
X26985514Y-1883919D01*
X27036977Y-2053569D01*
X27054354Y-2230000D01*
X27036977Y-2406431D01*
X26992753Y-2552216D01*
X26985513Y-2576085D01*
X26926202Y-2687046D01*
X26901943Y-2732432D01*
X26789475Y-2869475D01*
X26652432Y-2981943D01*
X26607046Y-3006202D01*
X26496085Y-3065513D01*
X26472216Y-3072753D01*
X26326431Y-3116977D01*
X26194207Y-3130000D01*
X26105793Y-3130000D01*
X25973569Y-3116977D01*
X25827784Y-3072753D01*
X25803915Y-3065513D01*
X25692954Y-3006202D01*
X25647568Y-2981943D01*
X25510525Y-2869475D01*
X25398057Y-2732432D01*
X25373798Y-2687046D01*
X25314487Y-2576085D01*
X25307247Y-2552216D01*
X25263023Y-2406431D01*
X25245646Y-2230000D01*
X25263023Y-2053569D01*
X25314486Y-1883919D01*
X25314487Y-1883915D01*
X25398058Y-1727567D01*
X25510525Y-1590525D01*
X25647567Y-1478058D01*
X25647566Y-1478058D01*
X25647568Y-1478057D01*
X25692954Y-1453798D01*
X25803915Y-1394487D01*
X25827784Y-1387247D01*
X25973569Y-1343023D01*
X26105793Y-1330000D01*
X26194207Y-1330000D01*
X26326431Y-1343023D01*
X26326431Y-1343023D01*
G37*
G36*
X28866431Y-1343023D02*
G01*
X29012216Y-1387247D01*
X29036085Y-1394487D01*
X29147046Y-1453798D01*
X29192432Y-1478057D01*
X29192434Y-1478058D01*
X29192433Y-1478058D01*
X29329475Y-1590525D01*
X29441942Y-1727567D01*
X29525513Y-1883915D01*
X29525514Y-1883919D01*
X29576977Y-2053569D01*
X29594354Y-2230000D01*
X29576977Y-2406431D01*
X29532753Y-2552216D01*
X29525513Y-2576085D01*
X29466202Y-2687046D01*
X29441943Y-2732432D01*
X29329475Y-2869475D01*
X29192432Y-2981943D01*
X29147046Y-3006202D01*
X29036085Y-3065513D01*
X29012216Y-3072753D01*
X28866431Y-3116977D01*
X28734207Y-3130000D01*
X28645793Y-3130000D01*
X28513569Y-3116977D01*
X28367784Y-3072753D01*
X28343915Y-3065513D01*
X28232954Y-3006202D01*
X28187568Y-2981943D01*
X28050525Y-2869475D01*
X27938057Y-2732432D01*
X27913798Y-2687046D01*
X27854487Y-2576085D01*
X27847247Y-2552216D01*
X27803023Y-2406431D01*
X27785646Y-2230000D01*
X27803023Y-2053569D01*
X27854486Y-1883919D01*
X27854487Y-1883915D01*
X27938058Y-1727567D01*
X28050525Y-1590525D01*
X28187567Y-1478058D01*
X28187566Y-1478058D01*
X28187568Y-1478057D01*
X28232954Y-1453798D01*
X28343915Y-1394487D01*
X28367784Y-1387247D01*
X28513569Y-1343023D01*
X28645793Y-1330000D01*
X28734207Y-1330000D01*
X28866431Y-1343023D01*
X28866431Y-1343023D01*
G37*
G36*
X31406431Y-1343023D02*
G01*
X31552216Y-1387247D01*
X31576085Y-1394487D01*
X31687046Y-1453798D01*
X31732432Y-1478057D01*
X31732434Y-1478058D01*
X31732433Y-1478058D01*
X31869475Y-1590525D01*
X31981942Y-1727567D01*
X32065513Y-1883915D01*
X32065514Y-1883919D01*
X32116977Y-2053569D01*
X32134354Y-2230000D01*
X32116977Y-2406431D01*
X32072753Y-2552216D01*
X32065513Y-2576085D01*
X32006202Y-2687046D01*
X31981943Y-2732432D01*
X31869475Y-2869475D01*
X31732432Y-2981943D01*
X31687046Y-3006202D01*
X31576085Y-3065513D01*
X31552216Y-3072753D01*
X31406431Y-3116977D01*
X31274207Y-3130000D01*
X31185793Y-3130000D01*
X31053569Y-3116977D01*
X30907784Y-3072753D01*
X30883915Y-3065513D01*
X30772954Y-3006202D01*
X30727568Y-2981943D01*
X30590525Y-2869475D01*
X30478057Y-2732432D01*
X30453798Y-2687046D01*
X30394487Y-2576085D01*
X30387247Y-2552216D01*
X30343023Y-2406431D01*
X30325646Y-2230000D01*
X30343023Y-2053569D01*
X30394486Y-1883919D01*
X30394487Y-1883915D01*
X30478058Y-1727567D01*
X30590525Y-1590525D01*
X30727567Y-1478058D01*
X30727566Y-1478058D01*
X30727568Y-1478057D01*
X30772954Y-1453798D01*
X30883915Y-1394487D01*
X30907784Y-1387247D01*
X31053569Y-1343023D01*
X31185793Y-1330000D01*
X31274207Y-1330000D01*
X31406431Y-1343023D01*
X31406431Y-1343023D01*
G37*
G36*
X33946431Y-1343023D02*
G01*
X34092216Y-1387247D01*
X34116085Y-1394487D01*
X34227046Y-1453798D01*
X34272432Y-1478057D01*
X34272434Y-1478058D01*
X34272433Y-1478058D01*
X34409475Y-1590525D01*
X34521942Y-1727567D01*
X34605513Y-1883915D01*
X34605514Y-1883919D01*
X34656977Y-2053569D01*
X34674354Y-2230000D01*
X34656977Y-2406431D01*
X34612753Y-2552216D01*
X34605513Y-2576085D01*
X34546202Y-2687046D01*
X34521943Y-2732432D01*
X34409475Y-2869475D01*
X34272432Y-2981943D01*
X34227046Y-3006202D01*
X34116085Y-3065513D01*
X34092216Y-3072753D01*
X33946431Y-3116977D01*
X33814207Y-3130000D01*
X33725793Y-3130000D01*
X33593569Y-3116977D01*
X33447784Y-3072753D01*
X33423915Y-3065513D01*
X33312954Y-3006202D01*
X33267568Y-2981943D01*
X33130525Y-2869475D01*
X33018057Y-2732432D01*
X32993798Y-2687046D01*
X32934487Y-2576085D01*
X32927247Y-2552216D01*
X32883023Y-2406431D01*
X32865646Y-2230000D01*
X32883023Y-2053569D01*
X32934486Y-1883919D01*
X32934487Y-1883915D01*
X33018058Y-1727567D01*
X33130525Y-1590525D01*
X33267567Y-1478058D01*
X33267566Y-1478058D01*
X33267568Y-1478057D01*
X33312954Y-1453798D01*
X33423915Y-1394487D01*
X33447784Y-1387247D01*
X33593569Y-1343023D01*
X33725793Y-1330000D01*
X33814207Y-1330000D01*
X33946431Y-1343023D01*
X33946431Y-1343023D01*
G37*
G36*
X36486431Y-1343023D02*
G01*
X36632216Y-1387247D01*
X36656085Y-1394487D01*
X36767046Y-1453798D01*
X36812432Y-1478057D01*
X36812434Y-1478058D01*
X36812433Y-1478058D01*
X36949475Y-1590525D01*
X37061942Y-1727567D01*
X37145513Y-1883915D01*
X37145514Y-1883919D01*
X37196977Y-2053569D01*
X37214354Y-2230000D01*
X37196977Y-2406431D01*
X37152753Y-2552216D01*
X37145513Y-2576085D01*
X37086202Y-2687046D01*
X37061943Y-2732432D01*
X36949475Y-2869475D01*
X36812432Y-2981943D01*
X36767046Y-3006202D01*
X36656085Y-3065513D01*
X36632216Y-3072753D01*
X36486431Y-3116977D01*
X36354207Y-3130000D01*
X36265793Y-3130000D01*
X36133569Y-3116977D01*
X35987784Y-3072753D01*
X35963915Y-3065513D01*
X35852954Y-3006202D01*
X35807568Y-2981943D01*
X35670525Y-2869475D01*
X35558057Y-2732432D01*
X35533798Y-2687046D01*
X35474487Y-2576085D01*
X35467247Y-2552216D01*
X35423023Y-2406431D01*
X35405646Y-2230000D01*
X35423023Y-2053569D01*
X35474486Y-1883919D01*
X35474487Y-1883915D01*
X35558058Y-1727567D01*
X35670525Y-1590525D01*
X35807567Y-1478058D01*
X35807566Y-1478058D01*
X35807568Y-1478057D01*
X35852954Y-1453798D01*
X35963915Y-1394487D01*
X35987784Y-1387247D01*
X36133569Y-1343023D01*
X36265793Y-1330000D01*
X36354207Y-1330000D01*
X36486431Y-1343023D01*
X36486431Y-1343023D01*
G37*
G36*
X13626431Y-1343023D02*
G01*
X13772216Y-1387247D01*
X13796085Y-1394487D01*
X13907046Y-1453798D01*
X13952432Y-1478057D01*
X13952434Y-1478058D01*
X13952433Y-1478058D01*
X14089475Y-1590525D01*
X14201942Y-1727567D01*
X14285513Y-1883915D01*
X14285514Y-1883919D01*
X14336977Y-2053569D01*
X14354354Y-2230000D01*
X14336977Y-2406431D01*
X14292753Y-2552216D01*
X14285513Y-2576085D01*
X14226202Y-2687046D01*
X14201943Y-2732432D01*
X14089475Y-2869475D01*
X13952432Y-2981943D01*
X13907046Y-3006202D01*
X13796085Y-3065513D01*
X13772216Y-3072753D01*
X13626431Y-3116977D01*
X13494207Y-3130000D01*
X13405793Y-3130000D01*
X13273569Y-3116977D01*
X13127784Y-3072753D01*
X13103915Y-3065513D01*
X12992954Y-3006202D01*
X12947568Y-2981943D01*
X12810525Y-2869475D01*
X12698057Y-2732432D01*
X12673798Y-2687046D01*
X12614487Y-2576085D01*
X12607247Y-2552216D01*
X12563023Y-2406431D01*
X12545646Y-2230000D01*
X12563023Y-2053569D01*
X12614486Y-1883919D01*
X12614487Y-1883915D01*
X12698058Y-1727567D01*
X12810525Y-1590525D01*
X12947567Y-1478058D01*
X12947566Y-1478058D01*
X12947568Y-1478057D01*
X12992954Y-1453798D01*
X13103915Y-1394487D01*
X13127784Y-1387247D01*
X13273569Y-1343023D01*
X13405793Y-1330000D01*
X13494207Y-1330000D01*
X13626431Y-1343023D01*
X13626431Y-1343023D01*
G37*
G36*
X39026431Y-1343023D02*
G01*
X39172216Y-1387247D01*
X39196085Y-1394487D01*
X39307046Y-1453798D01*
X39352432Y-1478057D01*
X39352434Y-1478058D01*
X39352433Y-1478058D01*
X39489475Y-1590525D01*
X39601942Y-1727567D01*
X39685513Y-1883915D01*
X39685514Y-1883919D01*
X39736977Y-2053569D01*
X39754354Y-2230000D01*
X39736977Y-2406431D01*
X39692753Y-2552216D01*
X39685513Y-2576085D01*
X39626202Y-2687046D01*
X39601943Y-2732432D01*
X39489475Y-2869475D01*
X39352432Y-2981943D01*
X39307046Y-3006202D01*
X39196085Y-3065513D01*
X39172216Y-3072753D01*
X39026431Y-3116977D01*
X38894207Y-3130000D01*
X38805793Y-3130000D01*
X38673569Y-3116977D01*
X38527784Y-3072753D01*
X38503915Y-3065513D01*
X38392954Y-3006202D01*
X38347568Y-2981943D01*
X38210525Y-2869475D01*
X38098057Y-2732432D01*
X38073798Y-2687046D01*
X38014487Y-2576085D01*
X38007247Y-2552216D01*
X37963023Y-2406431D01*
X37945646Y-2230000D01*
X37963023Y-2053569D01*
X38014486Y-1883919D01*
X38014487Y-1883915D01*
X38098058Y-1727567D01*
X38210525Y-1590525D01*
X38347567Y-1478058D01*
X38347566Y-1478058D01*
X38347568Y-1478057D01*
X38392954Y-1453798D01*
X38503915Y-1394487D01*
X38527784Y-1387247D01*
X38673569Y-1343023D01*
X38805793Y-1330000D01*
X38894207Y-1330000D01*
X39026431Y-1343023D01*
X39026431Y-1343023D01*
G37*
M02*
