M48
;DRILL file {KiCad no-vcs-found-10c5297~59~ubuntu16.04.1} date Sat Jul 29 21:01:41 2017
;FORMAT={-:-/ absolute / metric / decimal}
FMAT,2
METRIC,TZ
T1C0.300
T2C0.330
T3C0.400
T4C0.700
T5C0.800
T6C1.000
T7C2.000
T8C2.750
%
G90
G05
M71
T1
X40.7Y-7.85
X40.7Y-8.55
X40.7Y-9.25
X21.93Y-46.18
X21.93Y-46.93
X21.93Y-47.68
X21.93Y-48.43
X21.93Y-49.18
X21.93Y-49.93
X21.93Y-50.68
X22.68Y-46.18
X22.68Y-46.93
X22.68Y-47.68
X22.68Y-48.43
X22.68Y-49.18
X22.68Y-49.93
X22.68Y-50.68
X23.43Y-46.18
X23.43Y-46.93
X23.43Y-47.68
X23.43Y-48.43
X23.43Y-49.18
X23.43Y-49.93
X23.43Y-50.68
X40.7Y-14.4
X40.7Y-15.1
X40.7Y-15.8
T2
X32.438Y-38.775
X32.438Y-40.075
X33.737Y-38.775
X33.737Y-40.075
X35.038Y-38.775
X35.038Y-40.075
T3
X1.25Y-11.2
X1.25Y-9.9
X1.25Y-10.55
X1.25Y-11.85
X3.15Y-18.25
X4.3Y-34.6
X5.15Y-10.85
X7.1Y-21.3
X7.35Y-12.
X7.95Y-27.45
X9.011Y-32.126
X9.55Y-24.875
X10.2Y-21.35
X10.5Y-15.45
X10.5Y-16.7
X10.6Y-9.45
X10.6Y-17.6
X10.6Y-29.15
X10.6Y-33.55
X10.6Y-39.35
X11.05Y-10.9
X11.25Y-29.15
X11.786Y-6.964
X11.9Y-29.15
X12.55Y-29.15
X12.65Y-41.65
X12.7Y-42.35
X13.05Y-30.7
X13.05Y-44.2
X13.45Y-41.65
X13.45Y-42.35
X13.7Y-21.262
X13.752Y-20.513
X13.774Y-23.761
X14.1Y-19.55
X14.2Y-32.95
X14.45Y-15.2
X14.791Y-23.521
X15.Y-32.5
X15.1Y-14.5
X15.3Y-10.65
X15.5Y-50.65
X15.575Y-23.125
X15.7Y-19.675
X16.05Y-45.45
X16.05Y-46.05
X16.35Y-39.65
X16.5Y-45.45
X16.5Y-46.05
X16.525Y-19.675
X16.55Y-30.7
X16.811Y-22.011
X17.1Y-40.25
X17.1Y-40.9
X17.1Y-45.45
X17.1Y-46.05
X17.225Y-18.925
X17.25Y-1.7
X17.65Y-26.35
X17.7Y-45.45
X17.7Y-46.05
X18.05Y-34.45
X18.05Y-35.05
X18.05Y-35.65
X18.05Y-36.25
X18.1Y-10.4
X18.1Y-18.875
X18.15Y-27.05
X18.3Y-45.45
X18.3Y-46.05
X18.35Y-39.75
X18.862Y-30.825
X19.1Y-11.3
X19.4Y-19.95
X19.602Y-30.703
X19.75Y-0.8
X19.75Y-39.75
X19.95Y-11.6
X20.Y-19.4
X20.4Y-30.7
X20.6Y-18.85
X20.85Y-26.85
X20.926Y-31.234
X21.009Y-27.583
X21.2Y-18.35
X21.518Y-31.696
X21.8Y-17.85
X22.245Y-31.881
X22.35Y-37.
X22.35Y-38.
X22.4Y-17.35
X22.861Y-31.453
X23.Y-15.35
X23.2Y-51.7
X23.5Y-37.
X23.5Y-38.
X23.6Y-14.8
X23.609Y-31.396
X23.655Y-30.648
X24.45Y-18.55
X24.45Y-30.65
X24.5Y-35.6
X24.7Y-14.55
X25.6Y-14.55
X25.68Y-17.588
X25.8Y-20.05
X26.Y-18.75
X26.1Y-38.55
X26.273Y-16.227
X26.325Y-17.025
X26.5Y-50.45
X26.6Y-44.3
X26.6Y-44.95
X26.642Y-19.744
X27.Y-41.75
X27.2Y-14.215
X27.2Y-13.15
X27.3Y-44.3
X27.3Y-44.95
X27.3Y-45.65
X27.565Y-28.525
X27.6Y-41.75
X28.Y-44.3
X28.Y-44.95
X28.Y-45.65
X28.2Y-41.75
X28.7Y-44.95
X28.7Y-45.65
X28.8Y-41.75
X29.25Y-23.6
X29.3Y-24.95
X29.3Y-31.1
X29.4Y-41.75
X29.75Y-30.65
X29.951Y-13.326
X30.Y-41.75
X30.05Y-11.1
X30.1Y-31.15
X30.45Y-30.65
X30.75Y-42.95
X31.6Y-40.65
X32.9Y-35.05
X33.5Y-35.05
X33.55Y-15.25
X33.55Y-28.5
X33.65Y-11.075
X33.9Y-45.15
X34.1Y-44.55
X34.4Y-15.25
X34.55Y-16.77
X34.55Y-45.15
X34.7Y-15.95
X35.1Y-51.7
X35.55Y-24.05
X35.9Y-40.55
X35.95Y-7.7
X36.1Y-28.75
X36.2Y-20.325
X36.5Y-17.116
X36.8Y-7.5
X37.575Y-20.25
X37.602Y-16.599
X37.7Y-10.05
X37.75Y-15.85
X37.763Y-9.1
X37.945Y-12.775
X38.4Y-15.3
X38.45Y-8.8
X38.55Y-14.2
X38.803Y-7.7
X38.875Y-35.275
X39.244Y-36.015
X39.6Y-36.7
X39.913Y-38.23
X39.95Y-19.05
X40.05Y-12.45
X40.25Y-38.9
X40.3Y-39.65
X42.4Y-11.95
X42.5Y-18.63
X42.65Y-2.
X43.65Y-28.4
X44.55Y-28.4
X45.15Y-28.4
X45.75Y-28.4
X56.4Y-49.85
X57.4Y-29.35
T4
X32.95Y-24.65
X37.95Y-24.65
T5
X3.55Y-22.2
X3.55Y-27.08
T6
X49.25Y-47.13
X49.25Y-49.67
X49.25Y-52.21
X49.25Y-54.75
X20.55Y-54.75
X23.09Y-54.75
X27.38Y-54.75
X29.92Y-54.75
X32.46Y-54.75
X35.Y-54.75
X44.17Y-30.6
X44.17Y-33.14
X44.17Y-35.68
X44.17Y-38.22
X44.17Y-40.76
X44.17Y-43.3
X60.7Y-30.39
X60.7Y-32.93
X60.7Y-35.47
X60.7Y-38.01
X60.7Y-40.55
X60.7Y-43.09
X60.7Y-45.63
X60.7Y-48.17
X63.24Y-30.39
X63.24Y-32.93
X63.24Y-35.47
X63.24Y-38.01
X63.24Y-40.55
X63.24Y-43.09
X63.24Y-45.63
X63.24Y-48.17
X55.62Y-8.82
X55.62Y-11.36
X55.62Y-13.9
X55.62Y-16.44
X55.62Y-18.98
X55.62Y-21.52
X55.62Y-24.06
X55.62Y-26.6
X49.25Y-30.6
X49.25Y-33.14
X49.25Y-35.68
X49.25Y-38.22
X49.25Y-40.76
X49.25Y-43.3
X44.17Y-7.78
X44.17Y-10.32
X44.17Y-12.86
X44.17Y-15.4
X55.62Y-30.39
X55.62Y-32.93
X55.62Y-35.47
X55.62Y-38.01
X55.62Y-40.55
X55.62Y-43.09
X55.62Y-45.63
X55.62Y-48.17
X60.7Y-8.82
X60.7Y-11.36
X60.7Y-13.9
X60.7Y-16.44
X60.7Y-18.98
X60.7Y-21.52
X60.7Y-24.06
X60.7Y-26.6
X63.24Y-8.82
X63.24Y-11.36
X63.24Y-13.9
X63.24Y-16.44
X63.24Y-18.98
X63.24Y-21.52
X63.24Y-24.06
X63.24Y-26.6
X44.17Y-19.18
X44.17Y-21.72
X44.17Y-24.26
X44.17Y-26.8
X46.71Y-47.13
X46.71Y-49.67
X46.71Y-52.21
X46.71Y-54.75
X8.37Y-2.73
X8.37Y-5.27
X10.91Y-2.73
X10.91Y-5.27
X13.45Y-2.73
X13.45Y-5.27
X15.99Y-2.73
X15.99Y-5.27
X18.53Y-2.73
X18.53Y-5.27
X21.07Y-2.73
X21.07Y-5.27
X23.61Y-2.73
X23.61Y-5.27
X26.15Y-2.73
X26.15Y-5.27
X28.69Y-2.73
X28.69Y-5.27
X31.23Y-2.73
X31.23Y-5.27
X33.77Y-2.73
X33.77Y-5.27
X36.31Y-2.73
X36.31Y-5.27
X38.85Y-2.73
X38.85Y-5.27
X41.39Y-2.73
X41.39Y-5.27
X43.93Y-2.73
X43.93Y-5.27
X46.47Y-2.73
X46.47Y-5.27
X49.01Y-2.73
X49.01Y-5.27
X51.55Y-2.73
X51.55Y-5.27
X54.09Y-2.73
X54.09Y-5.27
X56.63Y-2.73
X56.63Y-5.27
X49.25Y-7.78
X49.25Y-10.32
X49.25Y-12.86
X49.25Y-15.4
X42.1Y-47.13
X42.1Y-49.67
X42.1Y-52.21
X42.1Y-54.75
X46.71Y-30.6
X46.71Y-33.14
X46.71Y-35.68
X46.71Y-38.22
X46.71Y-40.76
X46.71Y-43.3
X46.71Y-19.18
X46.71Y-21.72
X46.71Y-24.26
X46.71Y-26.8
X49.25Y-19.18
X49.25Y-21.72
X49.25Y-24.26
X49.25Y-26.8
T7
X3.Y-43.49
X3.Y-47.45
T8
X61.5Y-4.
X3.5Y-53.
X3.5Y-4.
X61.5Y-53.
T0
M30
