G04 #@! TF.GenerationSoftware,KiCad,Pcbnew,no-vcs-found-10c5297~59~ubuntu16.04.1*
G04 #@! TF.CreationDate,2017-07-29T21:01:38+02:00*
G04 #@! TF.ProjectId,Hedgehog,4865646765686F672E6B696361645F70,1.0*
G04 #@! TF.SameCoordinates,PX7270e00PY47868c0
G04 #@! TF.FileFunction,Legend,Bot*
G04 #@! TF.FilePolarity,Positive*
%FSLAX46Y46*%
G04 Gerber Fmt 4.6, Leading zero omitted, Abs format (unit mm)*
G04 Created by KiCad (PCBNEW no-vcs-found-10c5297~59~ubuntu16.04.1) date Sat Jul 29 21:01:38 2017*
%MOMM*%
%LPD*%
G01*
G04 APERTURE LIST*
%ADD10C,0.300000*%
%ADD11C,0.200000*%
%ADD12C,0.500000*%
%ADD13C,0.350000*%
%ADD14C,0.120000*%
%ADD15C,0.150000*%
%ADD16C,0.254000*%
G04 APERTURE END LIST*
D10*
X13092857Y-21728571D02*
X12735714Y-22728571D01*
X12378571Y-21728571D01*
X11521428Y-21228571D02*
X11378571Y-21228571D01*
X11235714Y-21300000D01*
X11164285Y-21371428D01*
X11092857Y-21514285D01*
X11021428Y-21800000D01*
X11021428Y-22157142D01*
X11092857Y-22442857D01*
X11164285Y-22585714D01*
X11235714Y-22657142D01*
X11378571Y-22728571D01*
X11521428Y-22728571D01*
X11664285Y-22657142D01*
X11735714Y-22585714D01*
X11807142Y-22442857D01*
X11878571Y-22157142D01*
X11878571Y-21800000D01*
X11807142Y-21514285D01*
X11735714Y-21371428D01*
X11664285Y-21300000D01*
X11521428Y-21228571D01*
X10378571Y-22585714D02*
X10307142Y-22657142D01*
X10378571Y-22728571D01*
X10450000Y-22657142D01*
X10378571Y-22585714D01*
X10378571Y-22728571D01*
X8878571Y-22728571D02*
X9735714Y-22728571D01*
X9307142Y-22728571D02*
X9307142Y-21228571D01*
X9450000Y-21442857D01*
X9592857Y-21585714D01*
X9735714Y-21657142D01*
X13071428Y-25357142D02*
X12857142Y-25428571D01*
X12500000Y-25428571D01*
X12357142Y-25357142D01*
X12285714Y-25285714D01*
X12214285Y-25142857D01*
X12214285Y-25000000D01*
X12285714Y-24857142D01*
X12357142Y-24785714D01*
X12500000Y-24714285D01*
X12785714Y-24642857D01*
X12928571Y-24571428D01*
X13000000Y-24500000D01*
X13071428Y-24357142D01*
X13071428Y-24214285D01*
X13000000Y-24071428D01*
X12928571Y-24000000D01*
X12785714Y-23928571D01*
X12428571Y-23928571D01*
X12214285Y-24000000D01*
X11571428Y-25428571D02*
X11571428Y-23928571D01*
X10714285Y-25428571D01*
X10714285Y-23928571D01*
X10000000Y-25285714D02*
X9928571Y-25357142D01*
X10000000Y-25428571D01*
X10071428Y-25357142D01*
X10000000Y-25285714D01*
X10000000Y-25428571D01*
X10000000Y-24500000D02*
X9928571Y-24571428D01*
X10000000Y-24642857D01*
X10071428Y-24571428D01*
X10000000Y-24500000D01*
X10000000Y-24642857D01*
X32350000Y-43328571D02*
X32350000Y-41828571D01*
X31707142Y-43328571D02*
X31707142Y-42542857D01*
X31778571Y-42400000D01*
X31921428Y-42328571D01*
X32135714Y-42328571D01*
X32278571Y-42400000D01*
X32350000Y-42471428D01*
X30421428Y-43257142D02*
X30564285Y-43328571D01*
X30850000Y-43328571D01*
X30992857Y-43257142D01*
X31064285Y-43114285D01*
X31064285Y-42542857D01*
X30992857Y-42400000D01*
X30850000Y-42328571D01*
X30564285Y-42328571D01*
X30421428Y-42400000D01*
X30350000Y-42542857D01*
X30350000Y-42685714D01*
X31064285Y-42828571D01*
X29064285Y-43328571D02*
X29064285Y-41828571D01*
X29064285Y-43257142D02*
X29207142Y-43328571D01*
X29492857Y-43328571D01*
X29635714Y-43257142D01*
X29707142Y-43185714D01*
X29778571Y-43042857D01*
X29778571Y-42614285D01*
X29707142Y-42471428D01*
X29635714Y-42400000D01*
X29492857Y-42328571D01*
X29207142Y-42328571D01*
X29064285Y-42400000D01*
X27707142Y-42328571D02*
X27707142Y-43542857D01*
X27778571Y-43685714D01*
X27850000Y-43757142D01*
X27992857Y-43828571D01*
X28207142Y-43828571D01*
X28350000Y-43757142D01*
X27707142Y-43257142D02*
X27850000Y-43328571D01*
X28135714Y-43328571D01*
X28278571Y-43257142D01*
X28350000Y-43185714D01*
X28421428Y-43042857D01*
X28421428Y-42614285D01*
X28350000Y-42471428D01*
X28278571Y-42400000D01*
X28135714Y-42328571D01*
X27850000Y-42328571D01*
X27707142Y-42400000D01*
X26421428Y-43257142D02*
X26564285Y-43328571D01*
X26850000Y-43328571D01*
X26992857Y-43257142D01*
X27064285Y-43114285D01*
X27064285Y-42542857D01*
X26992857Y-42400000D01*
X26850000Y-42328571D01*
X26564285Y-42328571D01*
X26421428Y-42400000D01*
X26350000Y-42542857D01*
X26350000Y-42685714D01*
X27064285Y-42828571D01*
X25707142Y-43328571D02*
X25707142Y-41828571D01*
X25064285Y-43328571D02*
X25064285Y-42542857D01*
X25135714Y-42400000D01*
X25278571Y-42328571D01*
X25492857Y-42328571D01*
X25635714Y-42400000D01*
X25707142Y-42471428D01*
X24135714Y-43328571D02*
X24278571Y-43257142D01*
X24350000Y-43185714D01*
X24421428Y-43042857D01*
X24421428Y-42614285D01*
X24350000Y-42471428D01*
X24278571Y-42400000D01*
X24135714Y-42328571D01*
X23921428Y-42328571D01*
X23778571Y-42400000D01*
X23707142Y-42471428D01*
X23635714Y-42614285D01*
X23635714Y-43042857D01*
X23707142Y-43185714D01*
X23778571Y-43257142D01*
X23921428Y-43328571D01*
X24135714Y-43328571D01*
X22350000Y-42328571D02*
X22350000Y-43542857D01*
X22421428Y-43685714D01*
X22492857Y-43757142D01*
X22635714Y-43828571D01*
X22850000Y-43828571D01*
X22992857Y-43757142D01*
X22350000Y-43257142D02*
X22492857Y-43328571D01*
X22778571Y-43328571D01*
X22921428Y-43257142D01*
X22992857Y-43185714D01*
X23064285Y-43042857D01*
X23064285Y-42614285D01*
X22992857Y-42471428D01*
X22921428Y-42400000D01*
X22778571Y-42328571D01*
X22492857Y-42328571D01*
X22350000Y-42400000D01*
X21635714Y-43185714D02*
X21564285Y-43257142D01*
X21635714Y-43328571D01*
X21707142Y-43257142D01*
X21635714Y-43185714D01*
X21635714Y-43328571D01*
X20921428Y-42328571D02*
X20921428Y-43828571D01*
X20921428Y-42400000D02*
X20778571Y-42328571D01*
X20492857Y-42328571D01*
X20350000Y-42400000D01*
X20278571Y-42471428D01*
X20207142Y-42614285D01*
X20207142Y-43042857D01*
X20278571Y-43185714D01*
X20350000Y-43257142D01*
X20492857Y-43328571D01*
X20778571Y-43328571D01*
X20921428Y-43257142D01*
X19564285Y-43328571D02*
X19564285Y-42328571D01*
X19564285Y-42614285D02*
X19492857Y-42471428D01*
X19421428Y-42400000D01*
X19278571Y-42328571D01*
X19135714Y-42328571D01*
X18635714Y-43328571D02*
X18635714Y-42328571D01*
X18635714Y-41828571D02*
X18707142Y-41900000D01*
X18635714Y-41971428D01*
X18564285Y-41900000D01*
X18635714Y-41828571D01*
X18635714Y-41971428D01*
X17278571Y-43328571D02*
X17278571Y-42542857D01*
X17350000Y-42400000D01*
X17492857Y-42328571D01*
X17778571Y-42328571D01*
X17921428Y-42400000D01*
X17278571Y-43257142D02*
X17421428Y-43328571D01*
X17778571Y-43328571D01*
X17921428Y-43257142D01*
X17992857Y-43114285D01*
X17992857Y-42971428D01*
X17921428Y-42828571D01*
X17778571Y-42757142D01*
X17421428Y-42757142D01*
X17278571Y-42685714D01*
X16564285Y-43185714D02*
X16492857Y-43257142D01*
X16564285Y-43328571D01*
X16635714Y-43257142D01*
X16564285Y-43185714D01*
X16564285Y-43328571D01*
X15207142Y-43328571D02*
X15207142Y-42542857D01*
X15278571Y-42400000D01*
X15421428Y-42328571D01*
X15707142Y-42328571D01*
X15850000Y-42400000D01*
X15207142Y-43257142D02*
X15350000Y-43328571D01*
X15707142Y-43328571D01*
X15850000Y-43257142D01*
X15921428Y-43114285D01*
X15921428Y-42971428D01*
X15850000Y-42828571D01*
X15707142Y-42757142D01*
X15350000Y-42757142D01*
X15207142Y-42685714D01*
X14707142Y-42328571D02*
X14135714Y-42328571D01*
X14492857Y-41828571D02*
X14492857Y-43114285D01*
X14421428Y-43257142D01*
X14278571Y-43328571D01*
X14135714Y-43328571D01*
D11*
X35500000Y-53038095D02*
X35552380Y-53142857D01*
X35552380Y-53300000D01*
X35500000Y-53457142D01*
X35395238Y-53561904D01*
X35290476Y-53614285D01*
X35080952Y-53666666D01*
X34923809Y-53666666D01*
X34714285Y-53614285D01*
X34609523Y-53561904D01*
X34504761Y-53457142D01*
X34452380Y-53300000D01*
X34452380Y-53195238D01*
X34504761Y-53038095D01*
X34557142Y-52985714D01*
X34923809Y-52985714D01*
X34923809Y-53195238D01*
X34452380Y-52514285D02*
X35552380Y-52514285D01*
X34452380Y-51885714D01*
X35552380Y-51885714D01*
X34452380Y-51361904D02*
X35552380Y-51361904D01*
X35552380Y-51100000D01*
X35500000Y-50942857D01*
X35395238Y-50838095D01*
X35290476Y-50785714D01*
X35080952Y-50733333D01*
X34923809Y-50733333D01*
X34714285Y-50785714D01*
X34609523Y-50838095D01*
X34504761Y-50942857D01*
X34452380Y-51100000D01*
X34452380Y-51361904D01*
X33002380Y-53411904D02*
X33002380Y-52730952D01*
X32583333Y-53097619D01*
X32583333Y-52940476D01*
X32530952Y-52835714D01*
X32478571Y-52783333D01*
X32373809Y-52730952D01*
X32111904Y-52730952D01*
X32007142Y-52783333D01*
X31954761Y-52835714D01*
X31902380Y-52940476D01*
X31902380Y-53254761D01*
X31954761Y-53359523D01*
X32007142Y-53411904D01*
X33002380Y-52416666D02*
X31902380Y-52050000D01*
X33002380Y-51683333D01*
X33002380Y-51421428D02*
X33002380Y-50740476D01*
X32583333Y-51107142D01*
X32583333Y-50950000D01*
X32530952Y-50845238D01*
X32478571Y-50792857D01*
X32373809Y-50740476D01*
X32111904Y-50740476D01*
X32007142Y-50792857D01*
X31954761Y-50845238D01*
X31902380Y-50950000D01*
X31902380Y-51264285D01*
X31954761Y-51369047D01*
X32007142Y-51421428D01*
X29404761Y-53409523D02*
X29352380Y-53252380D01*
X29352380Y-52990476D01*
X29404761Y-52885714D01*
X29457142Y-52833333D01*
X29561904Y-52780952D01*
X29666666Y-52780952D01*
X29771428Y-52833333D01*
X29823809Y-52885714D01*
X29876190Y-52990476D01*
X29928571Y-53200000D01*
X29980952Y-53304761D01*
X30033333Y-53357142D01*
X30138095Y-53409523D01*
X30242857Y-53409523D01*
X30347619Y-53357142D01*
X30400000Y-53304761D01*
X30452380Y-53200000D01*
X30452380Y-52938095D01*
X30400000Y-52780952D01*
X29457142Y-51680952D02*
X29404761Y-51733333D01*
X29352380Y-51890476D01*
X29352380Y-51995238D01*
X29404761Y-52152380D01*
X29509523Y-52257142D01*
X29614285Y-52309523D01*
X29823809Y-52361904D01*
X29980952Y-52361904D01*
X30190476Y-52309523D01*
X30295238Y-52257142D01*
X30400000Y-52152380D01*
X30452380Y-51995238D01*
X30452380Y-51890476D01*
X30400000Y-51733333D01*
X30347619Y-51680952D01*
X29352380Y-50685714D02*
X29352380Y-51209523D01*
X30452380Y-51209523D01*
X26904761Y-53485714D02*
X26852380Y-53328571D01*
X26852380Y-53066666D01*
X26904761Y-52961904D01*
X26957142Y-52909523D01*
X27061904Y-52857142D01*
X27166666Y-52857142D01*
X27271428Y-52909523D01*
X27323809Y-52961904D01*
X27376190Y-53066666D01*
X27428571Y-53276190D01*
X27480952Y-53380952D01*
X27533333Y-53433333D01*
X27638095Y-53485714D01*
X27742857Y-53485714D01*
X27847619Y-53433333D01*
X27900000Y-53380952D01*
X27952380Y-53276190D01*
X27952380Y-53014285D01*
X27900000Y-52857142D01*
X26852380Y-52385714D02*
X27952380Y-52385714D01*
X27952380Y-52123809D01*
X27900000Y-51966666D01*
X27795238Y-51861904D01*
X27690476Y-51809523D01*
X27480952Y-51757142D01*
X27323809Y-51757142D01*
X27114285Y-51809523D01*
X27009523Y-51861904D01*
X26904761Y-51966666D01*
X26852380Y-52123809D01*
X26852380Y-52385714D01*
X27166666Y-51338095D02*
X27166666Y-50814285D01*
X26852380Y-51442857D02*
X27952380Y-51076190D01*
X26852380Y-50709523D01*
D10*
X35378571Y-50178571D02*
X35378571Y-48678571D01*
X34735714Y-48821428D02*
X34664285Y-48750000D01*
X34521428Y-48678571D01*
X34164285Y-48678571D01*
X34021428Y-48750000D01*
X33950000Y-48821428D01*
X33878571Y-48964285D01*
X33878571Y-49107142D01*
X33950000Y-49321428D01*
X34807142Y-50178571D01*
X33878571Y-50178571D01*
X32378571Y-50035714D02*
X32450000Y-50107142D01*
X32664285Y-50178571D01*
X32807142Y-50178571D01*
X33021428Y-50107142D01*
X33164285Y-49964285D01*
X33235714Y-49821428D01*
X33307142Y-49535714D01*
X33307142Y-49321428D01*
X33235714Y-49035714D01*
X33164285Y-48892857D01*
X33021428Y-48750000D01*
X32807142Y-48678571D01*
X32664285Y-48678571D01*
X32450000Y-48750000D01*
X32378571Y-48821428D01*
X30592857Y-49392857D02*
X30092857Y-49392857D01*
X29878571Y-50178571D02*
X30592857Y-50178571D01*
X30592857Y-48678571D01*
X29878571Y-48678571D01*
X29378571Y-48678571D02*
X28378571Y-50178571D01*
X28378571Y-48678571D02*
X29378571Y-50178571D01*
X27807142Y-50178571D02*
X27807142Y-48678571D01*
X27235714Y-48678571D01*
X27092857Y-48750000D01*
X27021428Y-48821428D01*
X26950000Y-48964285D01*
X26950000Y-49178571D01*
X27021428Y-49321428D01*
X27092857Y-49392857D01*
X27235714Y-49464285D01*
X27807142Y-49464285D01*
D12*
X10700000Y-54750000D02*
X5250000Y-49300000D01*
X18900000Y-54750000D02*
X10700000Y-54750000D01*
D13*
X22528571Y-52857142D02*
X23671428Y-52857142D01*
X19978571Y-52857142D02*
X21121428Y-52857142D01*
X20550000Y-53428571D02*
X20550000Y-52285714D01*
D10*
X9571428Y-48064285D02*
X9571428Y-48350000D01*
X9500000Y-48492857D01*
X9428571Y-48564285D01*
X9214285Y-48707142D01*
X8928571Y-48778571D01*
X8357142Y-48778571D01*
X8214285Y-48707142D01*
X8142857Y-48635714D01*
X8071428Y-48492857D01*
X8071428Y-48207142D01*
X8142857Y-48064285D01*
X8214285Y-47992857D01*
X8357142Y-47921428D01*
X8714285Y-47921428D01*
X8857142Y-47992857D01*
X8928571Y-48064285D01*
X9000000Y-48207142D01*
X9000000Y-48492857D01*
X8928571Y-48635714D01*
X8857142Y-48707142D01*
X8714285Y-48778571D01*
X8642857Y-47278571D02*
X8642857Y-46135714D01*
X8071428Y-44635714D02*
X8071428Y-45492857D01*
X8071428Y-45064285D02*
X9571428Y-45064285D01*
X9357142Y-45207142D01*
X9214285Y-45350000D01*
X9142857Y-45492857D01*
X8071428Y-43921428D02*
X8071428Y-43635714D01*
X8142857Y-43492857D01*
X8214285Y-43421428D01*
X8428571Y-43278571D01*
X8714285Y-43207142D01*
X9285714Y-43207142D01*
X9428571Y-43278571D01*
X9500000Y-43350000D01*
X9571428Y-43492857D01*
X9571428Y-43778571D01*
X9500000Y-43921428D01*
X9428571Y-43992857D01*
X9285714Y-44064285D01*
X8928571Y-44064285D01*
X8785714Y-43992857D01*
X8714285Y-43921428D01*
X8642857Y-43778571D01*
X8642857Y-43492857D01*
X8714285Y-43350000D01*
X8785714Y-43278571D01*
X8928571Y-43207142D01*
X9571428Y-42778571D02*
X8071428Y-42278571D01*
X9571428Y-41778571D01*
D12*
X6214285Y-46307142D02*
X6214285Y-48592857D01*
X7342857Y-43564285D02*
X5057142Y-43564285D01*
X6200000Y-44707142D02*
X6200000Y-42421428D01*
D14*
X7040000Y-6600000D02*
X7040000Y-5330000D01*
X8370000Y-6600000D02*
X7040000Y-6600000D01*
X9640000Y-4000000D02*
X9640000Y-6600000D01*
X7040000Y-4000000D02*
X9640000Y-4000000D01*
X7040000Y-1400000D02*
X7040000Y-4000000D01*
X57960000Y-1400000D02*
X7040000Y-1400000D01*
X57960000Y-6600000D02*
X57960000Y-1400000D01*
X9640000Y-6600000D02*
X57960000Y-6600000D01*
D15*
X36595238Y-7952380D02*
X36928571Y-7476190D01*
X37166666Y-7952380D02*
X37166666Y-6952380D01*
X36785714Y-6952380D01*
X36690476Y-7000000D01*
X36642857Y-7047619D01*
X36595238Y-7142857D01*
X36595238Y-7285714D01*
X36642857Y-7380952D01*
X36690476Y-7428571D01*
X36785714Y-7476190D01*
X37166666Y-7476190D01*
X35738095Y-7952380D02*
X35738095Y-7428571D01*
X35785714Y-7333333D01*
X35880952Y-7285714D01*
X36071428Y-7285714D01*
X36166666Y-7333333D01*
X35738095Y-7904761D02*
X35833333Y-7952380D01*
X36071428Y-7952380D01*
X36166666Y-7904761D01*
X36214285Y-7809523D01*
X36214285Y-7714285D01*
X36166666Y-7619047D01*
X36071428Y-7571428D01*
X35833333Y-7571428D01*
X35738095Y-7523809D01*
X35309523Y-7904761D02*
X35214285Y-7952380D01*
X35023809Y-7952380D01*
X34928571Y-7904761D01*
X34880952Y-7809523D01*
X34880952Y-7761904D01*
X34928571Y-7666666D01*
X35023809Y-7619047D01*
X35166666Y-7619047D01*
X35261904Y-7571428D01*
X35309523Y-7476190D01*
X35309523Y-7428571D01*
X35261904Y-7333333D01*
X35166666Y-7285714D01*
X35023809Y-7285714D01*
X34928571Y-7333333D01*
X34452380Y-7285714D02*
X34452380Y-8285714D01*
X34452380Y-7333333D02*
X34357142Y-7285714D01*
X34166666Y-7285714D01*
X34071428Y-7333333D01*
X34023809Y-7380952D01*
X33976190Y-7476190D01*
X33976190Y-7761904D01*
X34023809Y-7857142D01*
X34071428Y-7904761D01*
X34166666Y-7952380D01*
X34357142Y-7952380D01*
X34452380Y-7904761D01*
X33547619Y-7952380D02*
X33547619Y-6952380D01*
X33547619Y-7333333D02*
X33452380Y-7285714D01*
X33261904Y-7285714D01*
X33166666Y-7333333D01*
X33119047Y-7380952D01*
X33071428Y-7476190D01*
X33071428Y-7761904D01*
X33119047Y-7857142D01*
X33166666Y-7904761D01*
X33261904Y-7952380D01*
X33452380Y-7952380D01*
X33547619Y-7904761D01*
X32261904Y-7904761D02*
X32357142Y-7952380D01*
X32547619Y-7952380D01*
X32642857Y-7904761D01*
X32690476Y-7809523D01*
X32690476Y-7428571D01*
X32642857Y-7333333D01*
X32547619Y-7285714D01*
X32357142Y-7285714D01*
X32261904Y-7333333D01*
X32214285Y-7428571D01*
X32214285Y-7523809D01*
X32690476Y-7619047D01*
X31785714Y-7952380D02*
X31785714Y-7285714D01*
X31785714Y-7476190D02*
X31738095Y-7380952D01*
X31690476Y-7333333D01*
X31595238Y-7285714D01*
X31500000Y-7285714D01*
X31166666Y-7952380D02*
X31166666Y-7285714D01*
X31166666Y-7476190D02*
X31119047Y-7380952D01*
X31071428Y-7333333D01*
X30976190Y-7285714D01*
X30880952Y-7285714D01*
X30642857Y-7285714D02*
X30404761Y-7952380D01*
X30166666Y-7285714D02*
X30404761Y-7952380D01*
X30500000Y-8190476D01*
X30547619Y-8238095D01*
X30642857Y-8285714D01*
X29785714Y-7952380D02*
X29785714Y-6952380D01*
X29404761Y-6952380D01*
X29309523Y-7000000D01*
X29261904Y-7047619D01*
X29214285Y-7142857D01*
X29214285Y-7285714D01*
X29261904Y-7380952D01*
X29309523Y-7428571D01*
X29404761Y-7476190D01*
X29785714Y-7476190D01*
X28785714Y-7952380D02*
X28785714Y-7285714D01*
X28785714Y-6952380D02*
X28833333Y-7000000D01*
X28785714Y-7047619D01*
X28738095Y-7000000D01*
X28785714Y-6952380D01*
X28785714Y-7047619D01*
X28404761Y-6952380D02*
X27785714Y-6952380D01*
X28119047Y-7333333D01*
X27976190Y-7333333D01*
X27880952Y-7380952D01*
X27833333Y-7428571D01*
X27785714Y-7523809D01*
X27785714Y-7761904D01*
X27833333Y-7857142D01*
X27880952Y-7904761D01*
X27976190Y-7952380D01*
X28261904Y-7952380D01*
X28357142Y-7904761D01*
X28404761Y-7857142D01*
D16*
G36*
X9073000Y-25923000D02*
X1327000Y-25923000D01*
X1327000Y-23377000D01*
X9073000Y-23377000D01*
X9073000Y-25923000D01*
X9073000Y-25923000D01*
G37*
X9073000Y-25923000D02*
X1327000Y-25923000D01*
X1327000Y-23377000D01*
X9073000Y-23377000D01*
X9073000Y-25923000D01*
M02*
