M48
;DRILL file {KiCad no-vcs-found-1f6854f~59~ubuntu16.04.1} date Tue Aug  1 22:23:46 2017
;FORMAT={3:3/ absolute / metric / keep zeros}
FMAT,2
METRIC,TZ
T1C0.300
T2C0.330
T3C0.400
T4C0.700
T5C0.800
T6C1.000
T7C2.000
T8C2.750
%
G90
G05
M71
T1
X040700Y-014400
X040700Y-015100
X040700Y-015800
X040700Y-007850
X040700Y-008550
X040700Y-009250
X021930Y-046180
X021930Y-046930
X021930Y-047680
X021930Y-048430
X021930Y-049180
X021930Y-049930
X021930Y-050680
X022680Y-046180
X022680Y-046930
X022680Y-047680
X022680Y-048430
X022680Y-049180
X022680Y-049930
X022680Y-050680
X023430Y-046180
X023430Y-046930
X023430Y-047680
X023430Y-048430
X023430Y-049180
X023430Y-049930
X023430Y-050680
T2
X032438Y-038775
X032438Y-040075
X033738Y-038775
X033738Y-040075
X035038Y-038775
X035038Y-040075
T3
X001250Y-011200
X001250Y-009900
X001250Y-010550
X001250Y-011850
X003150Y-018250
X004300Y-034600
X005150Y-010850
X007100Y-021300
X007350Y-012000
X007950Y-027450
X009011Y-032126
X009550Y-024875
X010200Y-021350
X010500Y-015450
X010500Y-016700
X010600Y-009450
X010600Y-017600
X010600Y-029150
X010600Y-033550
X010600Y-039350
X011050Y-010900
X011250Y-029150
X011786Y-006964
X011900Y-029150
X012550Y-029150
X012650Y-041650
X012700Y-042350
X013050Y-030700
X013050Y-044200
X013450Y-041650
X013450Y-042350
X013700Y-021262
X013752Y-020513
X013774Y-023761
X014100Y-019550
X014200Y-032950
X014450Y-015200
X014791Y-023521
X015000Y-032500
X015100Y-014500
X015300Y-010650
X015500Y-050650
X015575Y-023125
X015700Y-019675
X016050Y-045450
X016050Y-046050
X016350Y-039650
X016500Y-045450
X016500Y-046050
X016525Y-019675
X016550Y-030700
X016811Y-022011
X017100Y-040250
X017100Y-040900
X017100Y-045450
X017100Y-046050
X017225Y-018925
X017250Y-001700
X017650Y-026350
X017700Y-045450
X017700Y-046050
X018050Y-034450
X018050Y-035050
X018050Y-035650
X018050Y-036250
X018100Y-010400
X018100Y-018875
X018150Y-027050
X018300Y-045450
X018300Y-046050
X018350Y-039750
X018862Y-030826
X019100Y-011300
X019400Y-019950
X019602Y-030703
X019750Y-000800
X019750Y-039750
X019950Y-011600
X020000Y-019400
X020400Y-030700
X020600Y-018850
X020850Y-026850
X020926Y-031234
X021009Y-027583
X021200Y-018350
X021518Y-031696
X021800Y-017850
X022245Y-031881
X022350Y-037000
X022350Y-038000
X022400Y-017350
X022861Y-031453
X023000Y-015350
X023200Y-051700
X023500Y-037000
X023500Y-038000
X023600Y-014800
X023609Y-031396
X023655Y-030648
X024450Y-018550
X024450Y-030650
X024500Y-035600
X024700Y-014550
X025600Y-014550
X025680Y-017588
X025800Y-020050
X026000Y-018750
X026100Y-038550
X026273Y-016227
X026325Y-017025
X026500Y-050450
X026600Y-044300
X026600Y-044950
X026642Y-019744
X027000Y-041750
X027200Y-014215
X027200Y-013150
X027300Y-044300
X027300Y-044950
X027300Y-045650
X027565Y-028525
X027600Y-041750
X028000Y-044300
X028000Y-044950
X028000Y-045650
X028200Y-041750
X028700Y-044950
X028700Y-045650
X028800Y-041750
X029250Y-023600
X029300Y-024950
X029300Y-031100
X029400Y-041750
X029750Y-030650
X029951Y-013326
X030000Y-041750
X030050Y-011100
X030100Y-031150
X030450Y-030650
X030750Y-042950
X031600Y-040650
X032900Y-035050
X033500Y-035050
X033550Y-015250
X033550Y-028500
X033650Y-011075
X033900Y-045150
X034100Y-044550
X034400Y-015250
X034550Y-016770
X034550Y-045150
X034700Y-015950
X035100Y-051700
X035550Y-024050
X035900Y-040550
X035950Y-007700
X036100Y-028750
X036200Y-020325
X036500Y-017116
X036800Y-007500
X037575Y-020250
X037602Y-016599
X037700Y-010050
X037750Y-015850
X037763Y-009100
X037945Y-012775
X038400Y-015300
X038450Y-008800
X038550Y-014200
X038803Y-007700
X038875Y-035275
X039244Y-036015
X039600Y-036700
X039913Y-038230
X039950Y-019050
X040050Y-012450
X040250Y-038900
X040300Y-039650
X042400Y-011950
X042500Y-018630
X042650Y-002000
X043650Y-028400
X044550Y-028400
X045150Y-028400
X045750Y-028400
X056400Y-049850
X057400Y-029350
T4
X032950Y-024650
X037950Y-024650
T5
X003550Y-022200
X003550Y-027080
T6
X055620Y-008820
X055620Y-011360
X055620Y-013900
X055620Y-016440
X055620Y-018980
X055620Y-021520
X055620Y-024060
X055620Y-026600
X044170Y-007780
X044170Y-010320
X044170Y-012860
X044170Y-015400
X049250Y-007780
X049250Y-010320
X049250Y-012860
X049250Y-015400
X042100Y-047130
X042100Y-049670
X042100Y-052210
X042100Y-054750
X055620Y-030390
X055620Y-032930
X055620Y-035470
X055620Y-038010
X055620Y-040550
X055620Y-043090
X055620Y-045630
X055620Y-048170
X020550Y-054750
X023090Y-054750
X046710Y-019180
X046710Y-021720
X046710Y-024260
X046710Y-026800
X049250Y-019180
X049250Y-021720
X049250Y-024260
X049250Y-026800
X060700Y-030390
X060700Y-032930
X060700Y-035470
X060700Y-038010
X060700Y-040550
X060700Y-043090
X060700Y-045630
X060700Y-048170
X063240Y-030390
X063240Y-032930
X063240Y-035470
X063240Y-038010
X063240Y-040550
X063240Y-043090
X063240Y-045630
X063240Y-048170
X049250Y-030600
X049250Y-033140
X049250Y-035680
X049250Y-038220
X049250Y-040760
X049250Y-043300
X044170Y-019180
X044170Y-021720
X044170Y-024260
X044170Y-026800
X046710Y-047130
X046710Y-049670
X046710Y-052210
X046710Y-054750
X060700Y-008820
X060700Y-011360
X060700Y-013900
X060700Y-016440
X060700Y-018980
X060700Y-021520
X060700Y-024060
X060700Y-026600
X063240Y-008820
X063240Y-011360
X063240Y-013900
X063240Y-016440
X063240Y-018980
X063240Y-021520
X063240Y-024060
X063240Y-026600
X008370Y-002730
X008370Y-005270
X010910Y-002730
X010910Y-005270
X013450Y-002730
X013450Y-005270
X015990Y-002730
X015990Y-005270
X018530Y-002730
X018530Y-005270
X021070Y-002730
X021070Y-005270
X023610Y-002730
X023610Y-005270
X026150Y-002730
X026150Y-005270
X028690Y-002730
X028690Y-005270
X031230Y-002730
X031230Y-005270
X033770Y-002730
X033770Y-005270
X036310Y-002730
X036310Y-005270
X038850Y-002730
X038850Y-005270
X041390Y-002730
X041390Y-005270
X043930Y-002730
X043930Y-005270
X046470Y-002730
X046470Y-005270
X049010Y-002730
X049010Y-005270
X051550Y-002730
X051550Y-005270
X054090Y-002730
X054090Y-005270
X056630Y-002730
X056630Y-005270
X046710Y-030600
X046710Y-033140
X046710Y-035680
X046710Y-038220
X046710Y-040760
X046710Y-043300
X044170Y-030600
X044170Y-033140
X044170Y-035680
X044170Y-038220
X044170Y-040760
X044170Y-043300
X027380Y-054750
X029920Y-054750
X032460Y-054750
X035000Y-054750
X049250Y-047130
X049250Y-049670
X049250Y-052210
X049250Y-054750
T7
X003000Y-043490
X003000Y-047450
T8
X003500Y-004000
X061500Y-004000
X003500Y-053000
X061500Y-053000
T0
M30
