G04 #@! TF.GenerationSoftware,KiCad,Pcbnew,no-vcs-found-1f6854f~59~ubuntu16.04.1*
G04 #@! TF.CreationDate,2017-08-01T22:22:46+02:00*
G04 #@! TF.ProjectId,Hedgehog,4865646765686F672E6B696361645F70,1.0*
G04 #@! TF.SameCoordinates,PX7270e00PY47868c0*
G04 #@! TF.FileFunction,Soldermask,Bot*
G04 #@! TF.FilePolarity,Negative*
%FSLAX46Y46*%
G04 Gerber Fmt 4.6, Leading zero omitted, Abs format (unit mm)*
G04 Created by KiCad (PCBNEW no-vcs-found-1f6854f~59~ubuntu16.04.1) date Tue Aug  1 22:22:46 2017*
%MOMM*%
%LPD*%
G01*
G04 APERTURE LIST*
%ADD10R,1.900000X1.900000*%
%ADD11O,1.900000X1.900000*%
%ADD12C,1.700000*%
%ADD13R,3.200000X3.200000*%
%ADD14C,3.200000*%
%ADD15C,1.900000*%
%ADD16C,0.700000*%
%ADD17C,6.400000*%
%ADD18C,2.950000*%
G04 APERTURE END LIST*
D10*
X60700000Y-48170000D03*
D11*
X63240000Y-48170000D03*
X60700000Y-45630000D03*
X63240000Y-45630000D03*
X60700000Y-43090000D03*
X63240000Y-43090000D03*
X60700000Y-40550000D03*
X63240000Y-40550000D03*
X60700000Y-38010000D03*
X63240000Y-38010000D03*
X60700000Y-35470000D03*
X63240000Y-35470000D03*
X60700000Y-32930000D03*
X63240000Y-32930000D03*
X60700000Y-30390000D03*
X63240000Y-30390000D03*
D10*
X60700000Y-26600000D03*
D11*
X63240000Y-26600000D03*
X60700000Y-24060000D03*
X63240000Y-24060000D03*
X60700000Y-21520000D03*
X63240000Y-21520000D03*
X60700000Y-18980000D03*
X63240000Y-18980000D03*
X60700000Y-16440000D03*
X63240000Y-16440000D03*
X60700000Y-13900000D03*
X63240000Y-13900000D03*
X60700000Y-11360000D03*
X63240000Y-11360000D03*
X60700000Y-8820000D03*
X63240000Y-8820000D03*
X56630000Y-2730000D03*
X56630000Y-5270000D03*
X54090000Y-2730000D03*
X54090000Y-5270000D03*
X51550000Y-2730000D03*
X51550000Y-5270000D03*
X49010000Y-2730000D03*
X49010000Y-5270000D03*
X46470000Y-2730000D03*
X46470000Y-5270000D03*
X43930000Y-2730000D03*
X43930000Y-5270000D03*
X41390000Y-2730000D03*
X41390000Y-5270000D03*
X38850000Y-2730000D03*
X38850000Y-5270000D03*
X36310000Y-2730000D03*
X36310000Y-5270000D03*
X33770000Y-2730000D03*
X33770000Y-5270000D03*
X31230000Y-2730000D03*
X31230000Y-5270000D03*
X28690000Y-2730000D03*
X28690000Y-5270000D03*
X26150000Y-2730000D03*
X26150000Y-5270000D03*
X23610000Y-2730000D03*
X23610000Y-5270000D03*
X21070000Y-2730000D03*
X21070000Y-5270000D03*
X18530000Y-2730000D03*
X18530000Y-5270000D03*
X15990000Y-2730000D03*
X15990000Y-5270000D03*
X13450000Y-2730000D03*
X13450000Y-5270000D03*
X10910000Y-2730000D03*
X10910000Y-5270000D03*
X8370000Y-2730000D03*
D10*
X8370000Y-5270000D03*
D12*
X3550000Y-22200000D03*
X3550000Y-27080000D03*
D13*
X3000000Y-47450000D03*
D14*
X3000000Y-43490000D03*
D15*
X32950000Y-24650000D03*
X37950000Y-24650000D03*
D10*
X44170000Y-15400000D03*
D11*
X44170000Y-12860000D03*
X44170000Y-10320000D03*
X44170000Y-7780000D03*
X49250000Y-7780000D03*
X49250000Y-10320000D03*
X49250000Y-12860000D03*
D10*
X49250000Y-15400000D03*
D11*
X44170000Y-19180000D03*
X44170000Y-21720000D03*
X44170000Y-24260000D03*
D10*
X44170000Y-26800000D03*
D11*
X46710000Y-19180000D03*
X49250000Y-19180000D03*
X46710000Y-21720000D03*
X49250000Y-21720000D03*
X46710000Y-24260000D03*
X49250000Y-24260000D03*
X46710000Y-26800000D03*
D10*
X49250000Y-26800000D03*
D11*
X20550000Y-54750000D03*
D10*
X23090000Y-54750000D03*
X42100000Y-54750000D03*
D11*
X42100000Y-52210000D03*
X42100000Y-49670000D03*
X42100000Y-47130000D03*
X46710000Y-47130000D03*
X46710000Y-49670000D03*
X46710000Y-52210000D03*
D10*
X46710000Y-54750000D03*
X35000000Y-54750000D03*
D11*
X32460000Y-54750000D03*
X29920000Y-54750000D03*
X27380000Y-54750000D03*
X49250000Y-47130000D03*
X49250000Y-49670000D03*
X49250000Y-52210000D03*
D10*
X49250000Y-54750000D03*
D11*
X44170000Y-30600000D03*
X44170000Y-33140000D03*
X44170000Y-35680000D03*
X44170000Y-38220000D03*
X44170000Y-40760000D03*
D10*
X44170000Y-43300000D03*
X46710000Y-43300000D03*
D11*
X46710000Y-40760000D03*
X46710000Y-38220000D03*
X46710000Y-35680000D03*
X46710000Y-33140000D03*
X46710000Y-30600000D03*
X49250000Y-30600000D03*
X49250000Y-33140000D03*
X49250000Y-35680000D03*
X49250000Y-38220000D03*
X49250000Y-40760000D03*
D10*
X49250000Y-43300000D03*
X55620000Y-48170000D03*
D11*
X55620000Y-45630000D03*
X55620000Y-43090000D03*
X55620000Y-40550000D03*
X55620000Y-38010000D03*
X55620000Y-35470000D03*
X55620000Y-32930000D03*
X55620000Y-30390000D03*
X55620000Y-8820000D03*
X55620000Y-11360000D03*
X55620000Y-13900000D03*
X55620000Y-16440000D03*
X55620000Y-18980000D03*
X55620000Y-21520000D03*
X55620000Y-24060000D03*
D10*
X55620000Y-26600000D03*
D16*
X35037500Y-38775001D03*
X35037500Y-40075001D03*
X33737500Y-40075001D03*
X33737500Y-38775001D03*
X32437500Y-38775001D03*
X32437500Y-40075001D03*
D17*
X3500000Y-53000000D03*
D18*
X3500000Y-53000000D03*
X61500000Y-53000000D03*
D17*
X61500000Y-53000000D03*
X61500000Y-4000000D03*
D18*
X61500000Y-4000000D03*
X3500000Y-4000000D03*
D17*
X3500000Y-4000000D03*
M02*
