%TF.GenerationSoftware,KiCad,Pcbnew,no-vcs-found-9b4eddb~60~ubuntu16.04.1*%
%TF.CreationDate,2017-10-29T19:10:16+01:00*%
%TF.ProjectId,Hedgehog,4865646765686F672E6B696361645F70,1.0*%
%TF.SameCoordinates,PX7270e00PY47868c0*%
%TF.FileFunction,Soldermask,Top*%
%TF.FilePolarity,Negative*%
%FSLAX46Y46*%
G04 Gerber Fmt 4.6, Leading zero omitted, Abs format (unit mm)*
G04 Created by KiCad (PCBNEW no-vcs-found-9b4eddb~60~ubuntu16.04.1) date Sun Oct 29 19:10:16 2017*
%MOMM*%
%LPD*%
G01*
G04 APERTURE LIST*
%ADD10R,2.600000X3.300000*%
%ADD11R,2.400000X0.700000*%
%ADD12C,2.540000*%
%ADD13O,1.900000X1.900000*%
%ADD14R,1.900000X1.900000*%
%ADD15R,1.200000X1.800000*%
%ADD16R,1.840000X3.440000*%
%ADD17R,0.840000X0.440000*%
%ADD18R,1.190000X0.605000*%
%ADD19R,1.925000X2.445000*%
%ADD20R,0.960000X0.605000*%
%ADD21R,2.000000X1.540000*%
%ADD22R,0.700000X1.100000*%
%ADD23R,1.500000X1.500000*%
%ADD24R,0.500000X1.050000*%
%ADD25R,1.050000X0.500000*%
%ADD26C,2.950000*%
%ADD27C,6.400000*%
%ADD28R,0.950000X1.000000*%
%ADD29R,1.000000X0.950000*%
%ADD30R,5.060000X3.560000*%
%ADD31R,1.600000X1.590000*%
%ADD32R,1.180000X3.600000*%
%ADD33R,0.500000X1.220000*%
%ADD34R,2.100000X1.930000*%
%ADD35R,3.200000X3.200000*%
%ADD36C,3.200000*%
%ADD37R,1.400000X1.400000*%
%ADD38R,1.100000X0.700000*%
%ADD39C,1.900000*%
%ADD40R,2.700000X1.200000*%
%ADD41R,1.000000X0.500000*%
%ADD42R,1.000000X1.100000*%
%ADD43R,1.260000X0.850000*%
%ADD44R,0.900000X0.620000*%
%ADD45R,1.750000X2.570000*%
%ADD46R,1.700000X0.480000*%
%ADD47R,0.480000X1.700000*%
%ADD48R,1.400000X1.050000*%
%ADD49R,1.600000X2.300000*%
%ADD50R,2.000000X4.700000*%
%ADD51R,0.910000X0.603000*%
%ADD52R,0.603000X0.910000*%
%ADD53R,0.390000X0.840000*%
%ADD54R,1.040000X2.140000*%
%ADD55R,0.640000X0.420000*%
%ADD56R,1.630000X5.700000*%
G04 APERTURE END LIST*
D10*
%TO.C,U20*%
X25000000Y-38800000D03*
D11*
X27875000Y-36895000D03*
X27875000Y-38165000D03*
X27875000Y-39435000D03*
X27875000Y-40705000D03*
X22125000Y-40705000D03*
X22125000Y-39435000D03*
X22125000Y-38165000D03*
X22125000Y-36895000D03*
%TD*%
D12*
%TO.C,REF\002A\002A*%
X1800000Y-8050000D03*
%TD*%
%TO.C,REF\002A\002A*%
X10800000Y-49550000D03*
%TD*%
%TO.C,REF\002A\002A*%
X57200000Y-50350000D03*
%TD*%
D13*
%TO.C,JP1*%
X16200000Y-37290000D03*
X16200000Y-34750000D03*
%TD*%
%TO.C,J52*%
X44170000Y-18680000D03*
X44170000Y-21220000D03*
X44170000Y-23760000D03*
X44170000Y-26300000D03*
X44170000Y-28840000D03*
X44170000Y-31380000D03*
%TD*%
%TO.C,J2*%
X20550000Y-54250000D03*
D14*
X23090000Y-54250000D03*
%TD*%
%TO.C,J42*%
X49250000Y-54250000D03*
D13*
X49250000Y-51710000D03*
X49250000Y-49170000D03*
X49250000Y-46630000D03*
%TD*%
%TO.C,J43*%
X27380000Y-54250000D03*
X29920000Y-54250000D03*
X32460000Y-54250000D03*
D14*
X35000000Y-54250000D03*
%TD*%
%TO.C,J44*%
X46710000Y-54250000D03*
D13*
X46710000Y-51710000D03*
X46710000Y-49170000D03*
X46710000Y-46630000D03*
%TD*%
%TO.C,J41*%
X41630000Y-46630000D03*
X41630000Y-49170000D03*
X41630000Y-51710000D03*
D14*
X41630000Y-54250000D03*
%TD*%
D13*
%TO.C,J54*%
X44170000Y-14900000D03*
X44170000Y-12360000D03*
X44170000Y-9820000D03*
X44170000Y-7280000D03*
%TD*%
%TO.C,J55*%
X49250000Y-7280000D03*
X49250000Y-9820000D03*
X49250000Y-12360000D03*
X49250000Y-14900000D03*
%TD*%
%TO.C,J45*%
X36550000Y-37760000D03*
X39090000Y-37760000D03*
X41630000Y-37760000D03*
X44170000Y-37760000D03*
X46710000Y-37760000D03*
D14*
X49250000Y-37760000D03*
%TD*%
%TO.C,J46*%
X49250000Y-40300000D03*
D13*
X46710000Y-40300000D03*
X44170000Y-40300000D03*
X41630000Y-40300000D03*
X39090000Y-40300000D03*
X36550000Y-40300000D03*
%TD*%
%TO.C,J47*%
X36550000Y-42840000D03*
X39090000Y-42840000D03*
X41630000Y-42840000D03*
X44170000Y-42840000D03*
X46710000Y-42840000D03*
D14*
X49250000Y-42840000D03*
%TD*%
D13*
%TO.C,J48*%
X55620000Y-26100000D03*
X55620000Y-23560000D03*
X55620000Y-21020000D03*
X55620000Y-18480000D03*
X55620000Y-15940000D03*
X55620000Y-13400000D03*
X55620000Y-10860000D03*
X55620000Y-8320000D03*
%TD*%
%TO.C,J49*%
X55620000Y-29890000D03*
X55620000Y-32430000D03*
X55620000Y-34970000D03*
X55620000Y-37510000D03*
X55620000Y-40050000D03*
X55620000Y-42590000D03*
X55620000Y-45130000D03*
X55620000Y-47670000D03*
%TD*%
%TO.C,J53*%
X49250000Y-31380000D03*
X46710000Y-31380000D03*
X49250000Y-28840000D03*
X46710000Y-28840000D03*
X49250000Y-26300000D03*
X46710000Y-26300000D03*
X49250000Y-23760000D03*
X46710000Y-23760000D03*
X49250000Y-21220000D03*
X46710000Y-21220000D03*
X49250000Y-18680000D03*
X46710000Y-18680000D03*
%TD*%
%TO.C,J50*%
X63240000Y-8320000D03*
X60700000Y-8320000D03*
X63240000Y-10860000D03*
X60700000Y-10860000D03*
X63240000Y-13400000D03*
X60700000Y-13400000D03*
X63240000Y-15940000D03*
X60700000Y-15940000D03*
X63240000Y-18480000D03*
X60700000Y-18480000D03*
X63240000Y-21020000D03*
X60700000Y-21020000D03*
X63240000Y-23560000D03*
X60700000Y-23560000D03*
X63240000Y-26100000D03*
X60700000Y-26100000D03*
%TD*%
%TO.C,J51*%
X63240000Y-29890000D03*
X60700000Y-29890000D03*
X63240000Y-32430000D03*
X60700000Y-32430000D03*
X63240000Y-34970000D03*
X60700000Y-34970000D03*
X63240000Y-37510000D03*
X60700000Y-37510000D03*
X63240000Y-40050000D03*
X60700000Y-40050000D03*
X63240000Y-42590000D03*
X60700000Y-42590000D03*
X63240000Y-45130000D03*
X60700000Y-45130000D03*
X63240000Y-47670000D03*
X60700000Y-47670000D03*
%TD*%
D15*
%TO.C,C13*%
X31200000Y-44250000D03*
X28200000Y-44250000D03*
%TD*%
D16*
%TO.C,U10*%
X24100000Y-46900000D03*
D17*
X22650000Y-45400000D03*
X25550000Y-45400000D03*
X22650000Y-45900000D03*
X22650000Y-46400000D03*
X22650000Y-46900000D03*
X22650000Y-47400000D03*
X22650000Y-47900000D03*
X22650000Y-48400000D03*
X25550000Y-45900000D03*
X25550000Y-46400000D03*
X25550000Y-46900000D03*
X25550000Y-47400000D03*
X25550000Y-47900000D03*
X25550000Y-48400000D03*
%TD*%
D18*
%TO.C,Q10*%
X23820000Y-50570000D03*
X23820000Y-51230000D03*
X23820000Y-51890000D03*
X23820000Y-49910000D03*
D19*
X25812500Y-50900000D03*
D20*
X26805000Y-51230000D03*
X26805000Y-51890000D03*
X26805000Y-50570000D03*
X26805000Y-49910000D03*
%TD*%
D21*
%TO.C,D10*%
X35700000Y-45970000D03*
X35700000Y-48830000D03*
%TD*%
D22*
%TO.C,L40*%
X5200000Y-16700000D03*
X3700000Y-16700000D03*
%TD*%
D23*
%TO.C,U43*%
X7751191Y-13067500D03*
X7751191Y-11767500D03*
X6451191Y-13067500D03*
X6451191Y-11767500D03*
D24*
X8351191Y-14367500D03*
X7851191Y-14367500D03*
X7351191Y-14367500D03*
X6851191Y-14367500D03*
X6351191Y-14367500D03*
X5851191Y-14367500D03*
D25*
X5151191Y-13667500D03*
X5151191Y-13167500D03*
X5151191Y-12667500D03*
X5151191Y-12167500D03*
X5151191Y-11667500D03*
X5151191Y-11167500D03*
D24*
X5851191Y-10467500D03*
X6351191Y-10467500D03*
X6851191Y-10467500D03*
X7351191Y-10467500D03*
X7851191Y-10467500D03*
X8351191Y-10467500D03*
D25*
X9051191Y-11167500D03*
X9051191Y-11667500D03*
X9051191Y-12167500D03*
X9051191Y-12667500D03*
X9051191Y-13167500D03*
X9051191Y-13667500D03*
%TD*%
D26*
%TO.C,MH1*%
X3500000Y-52500000D03*
D27*
X3500000Y-52500000D03*
%TD*%
D26*
%TO.C,MH1*%
X61500000Y-52500000D03*
D27*
X61500000Y-52500000D03*
%TD*%
D26*
%TO.C,MH1*%
X61500000Y-3500000D03*
D27*
X61500000Y-3500000D03*
%TD*%
D26*
%TO.C,MH1*%
X3500000Y-3500000D03*
D27*
X3500000Y-3500000D03*
%TD*%
D22*
%TO.C,R43*%
X31500000Y-17200000D03*
X33000000Y-17200000D03*
%TD*%
D13*
%TO.C,J40*%
X56630000Y-2230000D03*
X56630000Y-4770000D03*
X54090000Y-2230000D03*
X54090000Y-4770000D03*
X51550000Y-2230000D03*
X51550000Y-4770000D03*
X49010000Y-2230000D03*
X49010000Y-4770000D03*
X46470000Y-2230000D03*
X46470000Y-4770000D03*
X43930000Y-2230000D03*
X43930000Y-4770000D03*
X41390000Y-2230000D03*
X41390000Y-4770000D03*
X38850000Y-2230000D03*
X38850000Y-4770000D03*
X36310000Y-2230000D03*
X36310000Y-4770000D03*
X33770000Y-2230000D03*
X33770000Y-4770000D03*
X31230000Y-2230000D03*
X31230000Y-4770000D03*
X28690000Y-2230000D03*
X28690000Y-4770000D03*
X26150000Y-2230000D03*
X26150000Y-4770000D03*
X23610000Y-2230000D03*
X23610000Y-4770000D03*
X21070000Y-2230000D03*
X21070000Y-4770000D03*
X18530000Y-2230000D03*
X18530000Y-4770000D03*
X15990000Y-2230000D03*
X15990000Y-4770000D03*
X13450000Y-2230000D03*
X13450000Y-4770000D03*
X10910000Y-2230000D03*
X10910000Y-4770000D03*
X8370000Y-2230000D03*
D14*
X8370000Y-4770000D03*
%TD*%
D28*
%TO.C,C1*%
X12300000Y-33400000D03*
X12300000Y-34900000D03*
%TD*%
%TO.C,C2*%
X7550000Y-32400000D03*
X7550000Y-33900000D03*
%TD*%
%TO.C,C33*%
X3850000Y-24850000D03*
X3850000Y-23350000D03*
%TD*%
D29*
%TO.C,C32*%
X7050000Y-29500000D03*
X8550000Y-29500000D03*
%TD*%
D30*
%TO.C,D20*%
X25380000Y-33800000D03*
D31*
X21398000Y-32880000D03*
X21400000Y-34720000D03*
%TD*%
D32*
%TO.C,L20*%
X29065000Y-33600000D03*
X31435000Y-33600000D03*
%TD*%
D33*
%TO.C,U30*%
X5337500Y-28150000D03*
X5837500Y-28150000D03*
X6337500Y-28150000D03*
X6837500Y-28150000D03*
X7337500Y-28150000D03*
X7337500Y-23350000D03*
X6837500Y-23350000D03*
X6337500Y-23350000D03*
X5837500Y-23350000D03*
X5337500Y-23350000D03*
D34*
X6337500Y-25750000D03*
%TD*%
D35*
%TO.C,J1*%
X3000000Y-46950000D03*
D36*
X3000000Y-42990000D03*
%TD*%
D37*
%TO.C,D51*%
X16750000Y-54650000D03*
X16750000Y-52450000D03*
%TD*%
D38*
%TO.C,R51*%
X16650000Y-50950000D03*
X16650000Y-49450000D03*
%TD*%
D39*
%TO.C,U46*%
X32950000Y-24150000D03*
X37950000Y-24150000D03*
%TD*%
D28*
%TO.C,C63*%
X10200000Y-26550000D03*
X10200000Y-25050000D03*
%TD*%
%TO.C,C49*%
X3650000Y-11000000D03*
X3650000Y-9500000D03*
%TD*%
%TO.C,C53*%
X38550000Y-16100000D03*
X38550000Y-17600000D03*
%TD*%
%TO.C,C55*%
X38550000Y-11050000D03*
X38550000Y-9550000D03*
%TD*%
%TO.C,C61*%
X28300000Y-13450000D03*
X28300000Y-11950000D03*
%TD*%
D29*
%TO.C,C62*%
X14550000Y-10900000D03*
X13050000Y-10900000D03*
%TD*%
D28*
%TO.C,C12*%
X26800000Y-48400000D03*
X26800000Y-46900000D03*
%TD*%
%TO.C,C11*%
X26800000Y-45550000D03*
X26800000Y-44050000D03*
%TD*%
%TO.C,C34*%
X2150000Y-24950000D03*
X2150000Y-23450000D03*
%TD*%
%TO.C,C20*%
X19750000Y-37850000D03*
X19750000Y-36350000D03*
%TD*%
%TO.C,C21*%
X31650000Y-38700000D03*
X31650000Y-40200000D03*
%TD*%
%TO.C,C22*%
X30250000Y-40200000D03*
X30250000Y-38700000D03*
%TD*%
%TO.C,C23*%
X18350000Y-36850000D03*
X18350000Y-35350000D03*
%TD*%
%TO.C,C30*%
X3950000Y-26650000D03*
X3950000Y-28150000D03*
%TD*%
D29*
%TO.C,C40*%
X8350000Y-16450000D03*
X6850000Y-16450000D03*
%TD*%
D28*
%TO.C,C41*%
X10200000Y-18050000D03*
X10200000Y-19550000D03*
%TD*%
%TO.C,C42*%
X10200000Y-22200000D03*
X10200000Y-23700000D03*
%TD*%
D29*
%TO.C,C54*%
X40000000Y-10700000D03*
X41500000Y-10700000D03*
%TD*%
%TO.C,C52*%
X41500000Y-17250000D03*
X40000000Y-17250000D03*
%TD*%
%TO.C,C51*%
X6800000Y-9050000D03*
X5300000Y-9050000D03*
%TD*%
%TO.C,C50*%
X9650000Y-9050000D03*
X8150000Y-9050000D03*
%TD*%
D28*
%TO.C,C48*%
X29750000Y-13800000D03*
X29750000Y-15300000D03*
%TD*%
D29*
%TO.C,C47*%
X26950000Y-30150000D03*
X25450000Y-30150000D03*
%TD*%
%TO.C,C44*%
X27150000Y-28750000D03*
X28650000Y-28750000D03*
%TD*%
%TO.C,C43*%
X15500000Y-30200000D03*
X14000000Y-30200000D03*
%TD*%
D15*
%TO.C,C24*%
X30350000Y-36900000D03*
X33350000Y-36900000D03*
%TD*%
D40*
%TO.C,C10*%
X20500000Y-47350000D03*
X20500000Y-50350000D03*
%TD*%
D41*
%TO.C,U41*%
X35700000Y-14300000D03*
X35700000Y-14800000D03*
X35700000Y-15300000D03*
X35700000Y-15800000D03*
X32600000Y-15800000D03*
X32600000Y-15300000D03*
X32600000Y-14800000D03*
X32600000Y-14300000D03*
%TD*%
D37*
%TO.C,D43*%
X35450000Y-9400000D03*
X35450000Y-11600000D03*
%TD*%
%TO.C,D42*%
X33650000Y-11600000D03*
X33650000Y-9400000D03*
%TD*%
%TO.C,D41*%
X31850000Y-9400000D03*
X31850000Y-11600000D03*
%TD*%
%TO.C,D40*%
X30050000Y-11600000D03*
X30050000Y-9400000D03*
%TD*%
D22*
%TO.C,R21*%
X30050000Y-41670000D03*
X31550000Y-41670000D03*
%TD*%
%TO.C,R22*%
X23650000Y-42250000D03*
X22150000Y-42250000D03*
%TD*%
%TO.C,R23*%
X29000000Y-42250000D03*
X27500000Y-42250000D03*
%TD*%
%TO.C,R30*%
X5800000Y-29550000D03*
X4300000Y-29550000D03*
%TD*%
%TO.C,R10*%
X19600000Y-31350000D03*
X18100000Y-31350000D03*
%TD*%
D38*
%TO.C,R6*%
X5800000Y-35300000D03*
X5800000Y-36800000D03*
%TD*%
%TO.C,R5*%
X10600000Y-35500000D03*
X10600000Y-34000000D03*
%TD*%
%TO.C,R4*%
X10600000Y-36600000D03*
X10600000Y-38100000D03*
%TD*%
D22*
%TO.C,R2*%
X3100000Y-37750000D03*
X1600000Y-37750000D03*
%TD*%
%TO.C,R1*%
X3100000Y-39550000D03*
X1600000Y-39550000D03*
%TD*%
%TO.C,R24*%
X26350000Y-42250000D03*
X24850000Y-42250000D03*
%TD*%
D38*
%TO.C,R49*%
X24900000Y-8100000D03*
X24900000Y-6600000D03*
%TD*%
%TO.C,R50*%
X26450000Y-6600000D03*
X26450000Y-8100000D03*
%TD*%
%TO.C,R48*%
X23350000Y-8100000D03*
X23350000Y-6600000D03*
%TD*%
D22*
%TO.C,R3*%
X2850000Y-31150000D03*
X4350000Y-31150000D03*
%TD*%
D38*
%TO.C,R32*%
X1000000Y-26500000D03*
X1000000Y-28000000D03*
%TD*%
D22*
%TO.C,R40*%
X20500000Y-9550000D03*
X19000000Y-9550000D03*
%TD*%
D38*
%TO.C,R41*%
X11850000Y-8850000D03*
X11850000Y-7350000D03*
%TD*%
%TO.C,R45*%
X44400000Y-49450000D03*
X44400000Y-47950000D03*
%TD*%
%TO.C,R46*%
X44400000Y-50500000D03*
X44400000Y-52000000D03*
%TD*%
%TO.C,R33*%
X2500000Y-26500000D03*
X2500000Y-28000000D03*
%TD*%
%TO.C,R31*%
X8750000Y-24750000D03*
X8750000Y-23250000D03*
%TD*%
%TO.C,R7*%
X5800000Y-32600000D03*
X5800000Y-34100000D03*
%TD*%
%TO.C,R47*%
X21800000Y-6600000D03*
X21800000Y-8100000D03*
%TD*%
%TO.C,R11*%
X21200000Y-43850000D03*
X21200000Y-45350000D03*
%TD*%
D22*
%TO.C,R12*%
X24150000Y-44000000D03*
X22650000Y-44000000D03*
%TD*%
D42*
%TO.C,Q2*%
X3100000Y-34800000D03*
X2150000Y-32800000D03*
X4050000Y-32800000D03*
%TD*%
D43*
%TO.C,U42*%
X13450000Y-9150000D03*
X13450000Y-7250000D03*
X15650000Y-7250000D03*
X15650000Y-8200000D03*
X15650000Y-9150000D03*
%TD*%
D44*
%TO.C,Q1*%
X7900000Y-40525000D03*
X10900000Y-40525000D03*
X7900000Y-41175000D03*
X7900000Y-41825000D03*
X7900000Y-42475000D03*
X10900000Y-41175000D03*
X10900000Y-41825000D03*
X10900000Y-42475000D03*
D45*
X9775000Y-41500000D03*
%TD*%
D46*
%TO.C,U40*%
X12200000Y-14550000D03*
X12200000Y-15050000D03*
X12200000Y-15550000D03*
X12200000Y-16050000D03*
X12200000Y-16550000D03*
X12200000Y-17050000D03*
X12200000Y-17550000D03*
X12200000Y-18050000D03*
X12200000Y-18550000D03*
X12200000Y-19050000D03*
X12200000Y-19550000D03*
X12200000Y-20050000D03*
X12200000Y-20550000D03*
X12200000Y-21050000D03*
X12200000Y-21550000D03*
X12200000Y-22050000D03*
X12200000Y-22550000D03*
X12200000Y-23050000D03*
X12200000Y-23550000D03*
X12200000Y-24050000D03*
X12200000Y-24550000D03*
X12200000Y-25050000D03*
X12200000Y-25550000D03*
X12200000Y-26050000D03*
X12200000Y-26550000D03*
D47*
X14100000Y-28450000D03*
X14600000Y-28450000D03*
X15100000Y-28450000D03*
X15600000Y-28450000D03*
X16100000Y-28450000D03*
X16600000Y-28450000D03*
X17100000Y-28450000D03*
X17600000Y-28450000D03*
X18100000Y-28450000D03*
X18600000Y-28450000D03*
X19100000Y-28450000D03*
X19600000Y-28450000D03*
X20100000Y-28450000D03*
X20600000Y-28450000D03*
X21100000Y-28450000D03*
X21600000Y-28450000D03*
X22100000Y-28450000D03*
X22600000Y-28450000D03*
X23100000Y-28450000D03*
X23600000Y-28450000D03*
X24100000Y-28450000D03*
X24600000Y-28450000D03*
X25100000Y-28450000D03*
X25600000Y-28450000D03*
X26100000Y-28450000D03*
D46*
X28000000Y-26550000D03*
X28000000Y-26050000D03*
X28000000Y-25550000D03*
X28000000Y-25050000D03*
X28000000Y-24550000D03*
X28000000Y-24050000D03*
X28000000Y-23550000D03*
X28000000Y-23050000D03*
X28000000Y-22550000D03*
X28000000Y-22050000D03*
X28000000Y-21550000D03*
X28000000Y-21050000D03*
X28000000Y-20550000D03*
X28000000Y-20050000D03*
X28000000Y-19550000D03*
X28000000Y-19050000D03*
X28000000Y-18550000D03*
X28000000Y-18050000D03*
X28000000Y-17550000D03*
X28000000Y-17050000D03*
X28000000Y-16550000D03*
X28000000Y-16050000D03*
X28000000Y-15550000D03*
X28000000Y-15050000D03*
X28000000Y-14550000D03*
D47*
X26100000Y-12650000D03*
X25600000Y-12650000D03*
X25100000Y-12650000D03*
X24600000Y-12650000D03*
X24100000Y-12650000D03*
X23600000Y-12650000D03*
X23100000Y-12650000D03*
X22600000Y-12650000D03*
X22100000Y-12650000D03*
X21600000Y-12650000D03*
X21100000Y-12650000D03*
X20600000Y-12650000D03*
X20100000Y-12650000D03*
X19600000Y-12650000D03*
X19100000Y-12650000D03*
X18600000Y-12650000D03*
X18100000Y-12650000D03*
X17600000Y-12650000D03*
X17100000Y-12650000D03*
X16600000Y-12650000D03*
X16100000Y-12650000D03*
X15600000Y-12650000D03*
X15100000Y-12650000D03*
X14600000Y-12650000D03*
X14100000Y-12650000D03*
%TD*%
D48*
%TO.C,D2*%
X15400000Y-42325000D03*
X15400000Y-45375000D03*
%TD*%
D49*
%TO.C,SW1*%
X8550000Y-54100000D03*
X8550000Y-45000000D03*
X13050000Y-54100000D03*
X13050000Y-45000000D03*
%TD*%
D50*
%TO.C,L30*%
X5050000Y-20250000D03*
X1750000Y-20250000D03*
%TD*%
D21*
%TO.C,D30*%
X7300000Y-21780000D03*
X7300000Y-18920000D03*
%TD*%
D51*
%TO.C,D1*%
X4255000Y-39700000D03*
X6245000Y-39700000D03*
%TD*%
D52*
%TO.C,D49*%
X53300000Y-26505000D03*
X53300000Y-28495000D03*
%TD*%
%TO.C,D50*%
X53300000Y-31595000D03*
X53300000Y-29605000D03*
%TD*%
%TO.C,D48*%
X53300000Y-32705000D03*
X53300000Y-34695000D03*
%TD*%
%TO.C,D47*%
X53300000Y-37795000D03*
X53300000Y-35805000D03*
%TD*%
%TO.C,D46*%
X53300000Y-38905000D03*
X53300000Y-40895000D03*
%TD*%
%TO.C,D45*%
X55050000Y-50055000D03*
X55050000Y-52045000D03*
%TD*%
%TO.C,D44*%
X55050000Y-53205000D03*
X55050000Y-55195000D03*
%TD*%
%TO.C,D4*%
X7550000Y-37445000D03*
X7550000Y-35455000D03*
%TD*%
%TO.C,D3*%
X12300000Y-36205000D03*
X12300000Y-38195000D03*
%TD*%
D53*
%TO.C,U44*%
X40450000Y-13250000D03*
X40950000Y-13250000D03*
X40950000Y-15950000D03*
X40450000Y-15950000D03*
D54*
X40700000Y-14600000D03*
D55*
X39750000Y-15850000D03*
X39750000Y-15350000D03*
X39750000Y-14850000D03*
X39750000Y-14350000D03*
X39750000Y-13850000D03*
X39750000Y-13350000D03*
X41650000Y-13350000D03*
X41650000Y-13850000D03*
X41650000Y-14350000D03*
X41650000Y-14850000D03*
X41650000Y-15350000D03*
X41650000Y-15850000D03*
%TD*%
%TO.C,U45*%
X41650000Y-9300000D03*
X41650000Y-8800000D03*
X41650000Y-8300000D03*
X41650000Y-7800000D03*
X41650000Y-7300000D03*
X41650000Y-6800000D03*
X39750000Y-6800000D03*
X39750000Y-7300000D03*
X39750000Y-7800000D03*
X39750000Y-8300000D03*
X39750000Y-8800000D03*
X39750000Y-9300000D03*
D54*
X40700000Y-8050000D03*
D53*
X40450000Y-9400000D03*
X40950000Y-9400000D03*
X40950000Y-6700000D03*
X40450000Y-6700000D03*
%TD*%
D56*
%TO.C,L10*%
X28930000Y-48850000D03*
X32970000Y-48850000D03*
%TD*%
M02*
