G04 #@! TF.GenerationSoftware,KiCad,Pcbnew,no-vcs-found-10c5297~59~ubuntu16.04.1*
G04 #@! TF.CreationDate,2017-07-29T21:01:38+02:00*
G04 #@! TF.ProjectId,Hedgehog,4865646765686F672E6B696361645F70,1.0*
G04 #@! TF.SameCoordinates,PX7270e00PY47868c0
G04 #@! TF.FileFunction,Paste,Top*
G04 #@! TF.FilePolarity,Positive*
%FSLAX46Y46*%
G04 Gerber Fmt 4.6, Leading zero omitted, Abs format (unit mm)*
G04 Created by KiCad (PCBNEW no-vcs-found-10c5297~59~ubuntu16.04.1) date Sat Jul 29 21:01:38 2017*
%MOMM*%
%LPD*%
G01*
G04 APERTURE LIST*
%ADD10R,0.750000X0.800000*%
%ADD11R,0.800000X0.750000*%
%ADD12R,3.360000X4.860000*%
%ADD13R,1.390000X1.400000*%
%ADD14R,3.400000X0.980000*%
%ADD15R,1.900000X1.730000*%
%ADD16R,0.300000X1.020000*%
%ADD17R,1.200000X1.200000*%
%ADD18R,0.900000X0.500000*%
%ADD19R,1.000000X1.600000*%
%ADD20R,1.600000X1.000000*%
%ADD21R,2.500000X1.000000*%
%ADD22R,0.300000X0.850000*%
%ADD23R,0.850000X0.300000*%
%ADD24R,0.800000X0.300000*%
%ADD25R,1.200000X0.900000*%
%ADD26R,0.500000X0.900000*%
%ADD27R,0.800000X0.900000*%
%ADD28R,1.060000X0.650000*%
%ADD29R,0.700000X0.420000*%
%ADD30R,1.150000X1.970000*%
%ADD31R,0.500000X2.200000*%
%ADD32R,3.100000X2.400000*%
%ADD33R,1.500000X0.280000*%
%ADD34R,0.280000X1.500000*%
%ADD35R,0.810000X0.240000*%
%ADD36R,1.300000X1.400000*%
%ADD37R,1.200000X0.850000*%
%ADD38R,1.400000X2.100000*%
%ADD39R,1.800000X4.500000*%
%ADD40R,1.340000X1.800000*%
%ADD41R,0.710000X0.403000*%
%ADD42R,0.403000X0.710000*%
%ADD43R,0.250000X0.600000*%
%ADD44R,0.700000X1.600000*%
%ADD45R,0.480000X0.260000*%
%ADD46R,5.500000X1.430000*%
G04 APERTURE END LIST*
D10*
X12300000Y-33900000D03*
X12300000Y-35400000D03*
X7550000Y-32900000D03*
X7550000Y-34400000D03*
D11*
X25950000Y-52450000D03*
X24450000Y-52450000D03*
D10*
X36100000Y-50250000D03*
X36100000Y-48750000D03*
X34600000Y-46150000D03*
X34600000Y-47650000D03*
D11*
X18950000Y-37650000D03*
X20450000Y-37650000D03*
D10*
X25520000Y-40650000D03*
X25520000Y-42150000D03*
D12*
X28470000Y-38850000D03*
D13*
X27550000Y-42832000D03*
X29390000Y-42830000D03*
D14*
X28500000Y-35185000D03*
X28500000Y-32815000D03*
D15*
X22937500Y-37500000D03*
D16*
X21937500Y-35100000D03*
X22437500Y-35100000D03*
X22937500Y-35100000D03*
X23437500Y-35100000D03*
X23937500Y-35100000D03*
X23937500Y-39900000D03*
X23437500Y-39900000D03*
X22937500Y-39900000D03*
X22437500Y-39900000D03*
X21937500Y-39900000D03*
D17*
X15350000Y-55150000D03*
X15350000Y-52950000D03*
D18*
X15500000Y-51450000D03*
X15500000Y-49950000D03*
D10*
X10200000Y-27050000D03*
X10200000Y-25550000D03*
X3650000Y-11500000D03*
X3650000Y-10000000D03*
X38550000Y-16600000D03*
X38550000Y-18100000D03*
X38550000Y-11550000D03*
X38550000Y-10050000D03*
X28300000Y-13950000D03*
X28300000Y-12450000D03*
D11*
X14550000Y-11400000D03*
X13050000Y-11400000D03*
X18350000Y-48500000D03*
X16850000Y-48500000D03*
X21000000Y-44400000D03*
X19500000Y-44400000D03*
D10*
X17550000Y-39150000D03*
X17550000Y-37650000D03*
D11*
X33070000Y-44650000D03*
X31570000Y-44650000D03*
X33620000Y-32800000D03*
X35120000Y-32800000D03*
X35120000Y-34200000D03*
X33620000Y-34200000D03*
D10*
X25520000Y-39250000D03*
X25520000Y-37750000D03*
X19070000Y-40550000D03*
X19070000Y-39050000D03*
X20450000Y-39050000D03*
X20450000Y-40550000D03*
X46750000Y-15600000D03*
X46750000Y-17100000D03*
D11*
X8350000Y-16950000D03*
X6850000Y-16950000D03*
D10*
X10200000Y-18550000D03*
X10200000Y-20050000D03*
X10200000Y-22700000D03*
X10200000Y-24200000D03*
D11*
X56400000Y-50700000D03*
X57900000Y-50700000D03*
X40000000Y-11200000D03*
X41500000Y-11200000D03*
X41500000Y-17750000D03*
X40000000Y-17750000D03*
X6800000Y-9550000D03*
X5300000Y-9550000D03*
X9650000Y-9550000D03*
X8150000Y-9550000D03*
D10*
X29750000Y-15800000D03*
X29750000Y-14300000D03*
D11*
X26950000Y-30650000D03*
X25450000Y-30650000D03*
D10*
X7100000Y-23950000D03*
X7100000Y-22450000D03*
X7100000Y-26800000D03*
X7100000Y-25300000D03*
D11*
X27150000Y-29250000D03*
X28650000Y-29250000D03*
X57400000Y-28500000D03*
X58900000Y-28500000D03*
X15500000Y-30700000D03*
X14000000Y-30700000D03*
D19*
X22450000Y-43950000D03*
X25450000Y-43950000D03*
D20*
X31820000Y-34100000D03*
X31820000Y-31100000D03*
D21*
X17050000Y-44000000D03*
X17050000Y-47000000D03*
D22*
X8351191Y-14867500D03*
X7851191Y-14867500D03*
X7351191Y-14867500D03*
X6851191Y-14867500D03*
X6351191Y-14867500D03*
X5851191Y-14867500D03*
D23*
X5151191Y-14167500D03*
X5151191Y-13667500D03*
X5151191Y-13167500D03*
X5151191Y-12667500D03*
X5151191Y-12167500D03*
X5151191Y-11667500D03*
D22*
X5851191Y-10967500D03*
X6351191Y-10967500D03*
X6851191Y-10967500D03*
X7351191Y-10967500D03*
X7851191Y-10967500D03*
X8351191Y-10967500D03*
D23*
X9051191Y-11667500D03*
X9051191Y-12167500D03*
X9051191Y-12667500D03*
X9051191Y-13167500D03*
X9051191Y-13667500D03*
X9051191Y-14167500D03*
D24*
X35700000Y-15250000D03*
X35700000Y-15750000D03*
X35700000Y-16250000D03*
X35700000Y-16750000D03*
X32600000Y-16750000D03*
X32600000Y-16250000D03*
X32600000Y-15750000D03*
X32600000Y-15250000D03*
D25*
X5050000Y-17100000D03*
X2850000Y-17100000D03*
D17*
X35450000Y-9900000D03*
X35450000Y-12100000D03*
X33650000Y-12100000D03*
X33650000Y-9900000D03*
X31850000Y-9900000D03*
X31850000Y-12100000D03*
X30050000Y-12100000D03*
X30050000Y-9900000D03*
D18*
X36570000Y-34350000D03*
X36570000Y-32850000D03*
X37520000Y-40600000D03*
X37520000Y-42100000D03*
X37520000Y-35450000D03*
X37520000Y-36950000D03*
D26*
X22800000Y-42000000D03*
X21300000Y-42000000D03*
X23200000Y-52500000D03*
X21700000Y-52500000D03*
D18*
X5800000Y-35800000D03*
X5800000Y-37300000D03*
X10600000Y-36000000D03*
X10600000Y-34500000D03*
X10600000Y-37100000D03*
X10600000Y-38600000D03*
D26*
X3100000Y-38250000D03*
X1600000Y-38250000D03*
X3100000Y-40050000D03*
X1600000Y-40050000D03*
D18*
X37520000Y-38000000D03*
X37520000Y-39500000D03*
X24900000Y-8600000D03*
X24900000Y-7100000D03*
X26450000Y-7100000D03*
X26450000Y-8600000D03*
X23350000Y-8600000D03*
X23350000Y-7100000D03*
D26*
X36800000Y-44700000D03*
X35300000Y-44700000D03*
X2850000Y-31650000D03*
X4350000Y-31650000D03*
D18*
X16120000Y-37500000D03*
X16120000Y-39000000D03*
D26*
X20500000Y-10050000D03*
X19000000Y-10050000D03*
D18*
X11850000Y-9350000D03*
X11850000Y-7850000D03*
X7100000Y-28000000D03*
X7100000Y-29500000D03*
X44400000Y-49950000D03*
X44400000Y-48450000D03*
X44400000Y-51000000D03*
X44400000Y-52500000D03*
D26*
X17850000Y-40600000D03*
X16350000Y-40600000D03*
D18*
X25470000Y-35000000D03*
X25470000Y-36500000D03*
X5800000Y-33100000D03*
X5800000Y-34600000D03*
X21800000Y-7100000D03*
X21800000Y-8600000D03*
D26*
X20600000Y-52500000D03*
X19100000Y-52500000D03*
X35950000Y-51700000D03*
X34450000Y-51700000D03*
D18*
X34650000Y-50400000D03*
X34650000Y-48900000D03*
X36050000Y-46000000D03*
X36050000Y-47500000D03*
X18250000Y-51250000D03*
X18250000Y-49750000D03*
D27*
X3100000Y-35300000D03*
X2150000Y-33300000D03*
X4050000Y-33300000D03*
D28*
X13450000Y-9650000D03*
X13450000Y-7750000D03*
X15650000Y-7750000D03*
X15650000Y-8700000D03*
X15650000Y-9650000D03*
D29*
X7900000Y-41025000D03*
X10900000Y-41025000D03*
X7900000Y-41675000D03*
X7900000Y-42325000D03*
X7900000Y-42975000D03*
X10900000Y-41675000D03*
X10900000Y-42325000D03*
X10900000Y-42975000D03*
D30*
X9775000Y-42000000D03*
D31*
X31832500Y-42300001D03*
X33102500Y-42300001D03*
X34372500Y-42300001D03*
X35642500Y-42300001D03*
X35642500Y-36550001D03*
X34372500Y-36550001D03*
X33102500Y-36550001D03*
X31832500Y-36550001D03*
D32*
X33737500Y-39425001D03*
D33*
X12200000Y-15050000D03*
X12200000Y-15550000D03*
X12200000Y-16050000D03*
X12200000Y-16550000D03*
X12200000Y-17050000D03*
X12200000Y-17550000D03*
X12200000Y-18050000D03*
X12200000Y-18550000D03*
X12200000Y-19050000D03*
X12200000Y-19550000D03*
X12200000Y-20050000D03*
X12200000Y-20550000D03*
X12200000Y-21050000D03*
X12200000Y-21550000D03*
X12200000Y-22050000D03*
X12200000Y-22550000D03*
X12200000Y-23050000D03*
X12200000Y-23550000D03*
X12200000Y-24050000D03*
X12200000Y-24550000D03*
X12200000Y-25050000D03*
X12200000Y-25550000D03*
X12200000Y-26050000D03*
X12200000Y-26550000D03*
X12200000Y-27050000D03*
D34*
X14100000Y-28950000D03*
X14600000Y-28950000D03*
X15100000Y-28950000D03*
X15600000Y-28950000D03*
X16100000Y-28950000D03*
X16600000Y-28950000D03*
X17100000Y-28950000D03*
X17600000Y-28950000D03*
X18100000Y-28950000D03*
X18600000Y-28950000D03*
X19100000Y-28950000D03*
X19600000Y-28950000D03*
X20100000Y-28950000D03*
X20600000Y-28950000D03*
X21100000Y-28950000D03*
X21600000Y-28950000D03*
X22100000Y-28950000D03*
X22600000Y-28950000D03*
X23100000Y-28950000D03*
X23600000Y-28950000D03*
X24100000Y-28950000D03*
X24600000Y-28950000D03*
X25100000Y-28950000D03*
X25600000Y-28950000D03*
X26100000Y-28950000D03*
D33*
X28000000Y-27050000D03*
X28000000Y-26550000D03*
X28000000Y-26050000D03*
X28000000Y-25550000D03*
X28000000Y-25050000D03*
X28000000Y-24550000D03*
X28000000Y-24050000D03*
X28000000Y-23550000D03*
X28000000Y-23050000D03*
X28000000Y-22550000D03*
X28000000Y-22050000D03*
X28000000Y-21550000D03*
X28000000Y-21050000D03*
X28000000Y-20550000D03*
X28000000Y-20050000D03*
X28000000Y-19550000D03*
X28000000Y-19050000D03*
X28000000Y-18550000D03*
X28000000Y-18050000D03*
X28000000Y-17550000D03*
X28000000Y-17050000D03*
X28000000Y-16550000D03*
X28000000Y-16050000D03*
X28000000Y-15550000D03*
X28000000Y-15050000D03*
D34*
X26100000Y-13150000D03*
X25600000Y-13150000D03*
X25100000Y-13150000D03*
X24600000Y-13150000D03*
X24100000Y-13150000D03*
X23600000Y-13150000D03*
X23100000Y-13150000D03*
X22600000Y-13150000D03*
X22100000Y-13150000D03*
X21600000Y-13150000D03*
X21100000Y-13150000D03*
X20600000Y-13150000D03*
X20100000Y-13150000D03*
X19600000Y-13150000D03*
X19100000Y-13150000D03*
X18600000Y-13150000D03*
X18100000Y-13150000D03*
X17600000Y-13150000D03*
X17100000Y-13150000D03*
X16600000Y-13150000D03*
X16100000Y-13150000D03*
X15600000Y-13150000D03*
X15100000Y-13150000D03*
X14600000Y-13150000D03*
X14100000Y-13150000D03*
D35*
X25580000Y-50930000D03*
X25580000Y-50430000D03*
X25580000Y-49930000D03*
X25580000Y-49430000D03*
X25580000Y-48930000D03*
X25580000Y-48430000D03*
X25580000Y-47930000D03*
X25580000Y-47430000D03*
X25580000Y-46930000D03*
X25580000Y-46430000D03*
X25580000Y-45930000D03*
X19780000Y-45930000D03*
X19780000Y-46430000D03*
X19780000Y-46930000D03*
X19780000Y-47430000D03*
X19780000Y-47930000D03*
X19780000Y-48430000D03*
X19780000Y-48930000D03*
X19780000Y-49430000D03*
X19780000Y-49930000D03*
X19780000Y-50430000D03*
X19780000Y-50930000D03*
D36*
X21880000Y-50130000D03*
X21880000Y-48430000D03*
X21880000Y-46730000D03*
X23480000Y-50130000D03*
X23480000Y-48430000D03*
X23480000Y-46730000D03*
D37*
X13050000Y-40425000D03*
X13050000Y-43475000D03*
D38*
X8550000Y-54600000D03*
X8550000Y-45500000D03*
X13050000Y-54600000D03*
X13050000Y-45500000D03*
D39*
X20120000Y-34550000D03*
X16820000Y-34550000D03*
D40*
X21990000Y-33300000D03*
X24850000Y-33300000D03*
D41*
X4255000Y-40200000D03*
X6245000Y-40200000D03*
D42*
X52000000Y-32755000D03*
X52000000Y-34745000D03*
X52000000Y-31595000D03*
X52000000Y-29605000D03*
X52000000Y-35905000D03*
X52000000Y-37895000D03*
X52000000Y-44195000D03*
X52000000Y-42205000D03*
X52000000Y-39055000D03*
X52000000Y-41045000D03*
X54750000Y-50555000D03*
X54750000Y-52545000D03*
X55050000Y-53705000D03*
X55050000Y-55695000D03*
X7550000Y-37945000D03*
X7550000Y-35955000D03*
X12300000Y-36705000D03*
X12300000Y-38695000D03*
D43*
X40450000Y-13700000D03*
X40950000Y-13700000D03*
X40950000Y-16500000D03*
X40450000Y-16500000D03*
D44*
X40700000Y-15100000D03*
D45*
X39750000Y-16350000D03*
X39750000Y-15850000D03*
X39750000Y-15350000D03*
X39750000Y-14850000D03*
X39750000Y-14350000D03*
X39750000Y-13850000D03*
X41650000Y-13850000D03*
X41650000Y-14350000D03*
X41650000Y-14850000D03*
X41650000Y-15350000D03*
X41650000Y-15850000D03*
X41650000Y-16350000D03*
X41650000Y-9800000D03*
X41650000Y-9300000D03*
X41650000Y-8800000D03*
X41650000Y-8300000D03*
X41650000Y-7800000D03*
X41650000Y-7300000D03*
X39750000Y-7300000D03*
X39750000Y-7800000D03*
X39750000Y-8300000D03*
X39750000Y-8800000D03*
X39750000Y-9300000D03*
X39750000Y-9800000D03*
D44*
X40700000Y-8550000D03*
D43*
X40450000Y-9950000D03*
X40950000Y-9950000D03*
X40950000Y-7150000D03*
X40450000Y-7150000D03*
D46*
X30250000Y-50920000D03*
X30250000Y-46880000D03*
M02*
