M48
;DRILL file {KiCad no-vcs-found-9b4eddb~60~ubuntu16.04.1} date Sun Oct 29 20:20:58 2017
;FORMAT={3:3/ absolute / metric / keep zeros}
FMAT,2
METRIC,TZ
T1C0.300
T2C0.400
T3C0.700
T4C1.000
T5C2.000
T6C2.750
%
G90
G05
M71
T1
X040700Y-007300
X024350Y-037500
X024350Y-038800
X024350Y-040100
X025650Y-037500
X025650Y-038800
X025650Y-040100
X023700Y-045700
X023700Y-046500
X023700Y-047300
X023700Y-048100
X024500Y-045700
X024500Y-046500
X024500Y-047300
X024500Y-048100
X040700Y-013850
X040700Y-014600
X040700Y-015350
X040700Y-008050
X040700Y-008800
T2
X001250Y-010700
X001250Y-010050
X001250Y-011350
X001250Y-012000
X001250Y-012650
X002950Y-027350
X003150Y-018600
X003150Y-019550
X003150Y-020800
X003150Y-021850
X003550Y-029250
X003550Y-029850
X004300Y-034100
X005050Y-029250
X005050Y-029850
X005150Y-010350
X005750Y-025300
X005750Y-026300
X006850Y-015700
X006900Y-025300
X006900Y-026300
X007475Y-007950
X007800Y-023950
X008300Y-033900
X009500Y-026550
X010200Y-020850
X010200Y-024400
X010500Y-014950
X010500Y-016200
X010600Y-008950
X010600Y-017100
X010600Y-033050
X010600Y-037450
X011050Y-010400
X011700Y-036000
X011786Y-006464
X012100Y-039650
X012100Y-040450
X012850Y-039650
X012850Y-040450
X013050Y-030200
X013200Y-038300
X013400Y-033000
X013700Y-020762
X013752Y-020013
X013850Y-019100
X013893Y-018000
X013900Y-037800
X014100Y-016250
X014150Y-045350
X014200Y-032450
X014300Y-017300
X014400Y-014200
X014450Y-018550
X014650Y-038400
X014700Y-047100
X014850Y-001150
X015000Y-032000
X015150Y-014750
X015300Y-010150
X015450Y-047800
X015550Y-031300
X015600Y-046500
X015950Y-020250
X016500Y-019700
X016550Y-030200
X017225Y-018425
X017250Y-001200
X017400Y-036000
X017550Y-029750
X018100Y-009900
X018100Y-018375
X018300Y-029750
X018350Y-034500
X018700Y-013950
X018862Y-030326
X019100Y-010800
X019400Y-019450
X019500Y-035300
X019602Y-030203
X019950Y-011100
X020000Y-018900
X020100Y-027100
X020100Y-032600
X020100Y-033250
X020100Y-033900
X020100Y-035300
X020400Y-030200
X020600Y-018350
X020650Y-036150
X020926Y-030734
X021009Y-027083
X021200Y-017850
X021200Y-044700
X021300Y-036150
X021518Y-031196
X021700Y-046200
X021800Y-017350
X022000Y-044800
X022245Y-031381
X022400Y-016850
X022800Y-049250
X022800Y-049850
X022800Y-050450
X022800Y-051050
X022850Y-051900
X022861Y-030953
X023000Y-014850
X023100Y-040000
X023600Y-014300
X023609Y-030896
X023655Y-030148
X024100Y-011400
X024450Y-018050
X024450Y-030150
X024600Y-023900
X024650Y-015750
X024700Y-014050
X025050Y-043700
X025300Y-018200
X025400Y-044300
X025550Y-019700
X025600Y-011400
X025600Y-014050
X025750Y-043700
X026050Y-044800
X026273Y-015727
X026300Y-016500
X026750Y-019250
X026850Y-036150
X027200Y-012650
X027565Y-028025
X028400Y-007450
X029100Y-012750
X029200Y-043700
X029200Y-044350
X029200Y-045000
X029250Y-023100
X029300Y-024450
X029900Y-016850
X029900Y-043700
X029900Y-044350
X029900Y-045000
X029951Y-012826
X030050Y-010600
X031000Y-019244
X031350Y-036300
X031350Y-036950
X031350Y-037600
X032200Y-043500
X032200Y-044100
X032200Y-044700
X032200Y-045300
X032450Y-019350
X032650Y-034000
X032650Y-034600
X032650Y-035200
X032800Y-043500
X032800Y-044100
X032800Y-044700
X032800Y-045300
X033250Y-034000
X033250Y-034600
X033400Y-043500
X033400Y-044100
X033400Y-044700
X033400Y-045300
X033500Y-015750
X033550Y-014500
X033550Y-016550
X033550Y-028000
X033650Y-010575
X033850Y-034000
X034000Y-043500
X034000Y-044100
X034000Y-044700
X034000Y-045300
X034350Y-014500
X034600Y-028050
X034600Y-033450
X034600Y-050000
X034600Y-050650
X034600Y-051300
X034600Y-051950
X034700Y-015200
X035050Y-004150
X035250Y-050000
X035250Y-050650
X035250Y-051300
X035250Y-051950
X035550Y-023550
X036500Y-019600
X036800Y-007450
X036800Y-013900
X037400Y-029600
X037400Y-035700
X037568Y-015018
X037575Y-019750
X037602Y-016099
X037642Y-008802
X037700Y-009550
X037945Y-012275
X038100Y-029300
X038100Y-036000
X038250Y-008250
X038300Y-013500
X038400Y-027200
X038450Y-014800
X038650Y-028650
X038900Y-012400
X039200Y-027200
X039200Y-028050
X039300Y-035750
X039950Y-018550
X040050Y-011950
X040233Y-035617
X041500Y-030900
X041500Y-031550
X042100Y-030900
X042100Y-031550
X042500Y-011450
X042500Y-012100
X042500Y-018130
X042500Y-018800
X042650Y-001500
X042700Y-030900
X042700Y-031550
X053300Y-027400
X053300Y-030500
X053300Y-033600
X053300Y-036700
X053300Y-039800
X055050Y-050950
X055050Y-054100
T3
X032950Y-024150
X037950Y-024150
T4
X020550Y-054250
X023090Y-054250
X041630Y-046630
X041630Y-049170
X041630Y-051710
X041630Y-054250
X060700Y-029890
X060700Y-032430
X060700Y-034970
X060700Y-037510
X060700Y-040050
X060700Y-042590
X060700Y-045130
X060700Y-047670
X063240Y-029890
X063240Y-032430
X063240Y-034970
X063240Y-037510
X063240Y-040050
X063240Y-042590
X063240Y-045130
X063240Y-047670
X027380Y-054250
X029920Y-054250
X032460Y-054250
X035000Y-054250
X036550Y-040300
X039090Y-040300
X041630Y-040300
X044170Y-040300
X046710Y-040300
X049250Y-040300
X060700Y-008320
X060700Y-010860
X060700Y-013400
X060700Y-015940
X060700Y-018480
X060700Y-021020
X060700Y-023560
X060700Y-026100
X063240Y-008320
X063240Y-010860
X063240Y-013400
X063240Y-015940
X063240Y-018480
X063240Y-021020
X063240Y-023560
X063240Y-026100
X008370Y-002230
X008370Y-004770
X010910Y-002230
X010910Y-004770
X013450Y-002230
X013450Y-004770
X015990Y-002230
X015990Y-004770
X018530Y-002230
X018530Y-004770
X021070Y-002230
X021070Y-004770
X023610Y-002230
X023610Y-004770
X026150Y-002230
X026150Y-004770
X028690Y-002230
X028690Y-004770
X031230Y-002230
X031230Y-004770
X033770Y-002230
X033770Y-004770
X036310Y-002230
X036310Y-004770
X038850Y-002230
X038850Y-004770
X041390Y-002230
X041390Y-004770
X043930Y-002230
X043930Y-004770
X046470Y-002230
X046470Y-004770
X049010Y-002230
X049010Y-004770
X051550Y-002230
X051550Y-004770
X054090Y-002230
X054090Y-004770
X056630Y-002230
X056630Y-004770
X046710Y-046630
X046710Y-049170
X046710Y-051710
X046710Y-054250
X055620Y-008320
X055620Y-010860
X055620Y-013400
X055620Y-015940
X055620Y-018480
X055620Y-021020
X055620Y-023560
X055620Y-026100
X044170Y-018680
X044170Y-021220
X044170Y-023760
X044170Y-026300
X044170Y-028840
X044170Y-031380
X036550Y-042840
X039090Y-042840
X041630Y-042840
X044170Y-042840
X046710Y-042840
X049250Y-042840
X049250Y-046630
X049250Y-049170
X049250Y-051710
X049250Y-054250
X046710Y-018680
X046710Y-021220
X046710Y-023760
X046710Y-026300
X046710Y-028840
X046710Y-031380
X049250Y-018680
X049250Y-021220
X049250Y-023760
X049250Y-026300
X049250Y-028840
X049250Y-031380
X016200Y-034750
X016200Y-037290
X049250Y-007280
X049250Y-009820
X049250Y-012360
X049250Y-014900
X044170Y-007280
X044170Y-009820
X044170Y-012360
X044170Y-014900
X055620Y-029890
X055620Y-032430
X055620Y-034970
X055620Y-037510
X055620Y-040050
X055620Y-042590
X055620Y-045130
X055620Y-047670
X036550Y-037760
X039090Y-037760
X041630Y-037760
X044170Y-037760
X046710Y-037760
X049250Y-037760
T5
X003000Y-042990
X003000Y-046950
T6
X003500Y-003500
X061500Y-003500
X003500Y-052500
X061500Y-052500
T0
M30
